<?xml version="1.0" encoding="iso-8859-1"?>
<!-- Generator: Adobe Illustrator 19.0.0, SVG Export Plug-In . SVG Version: 6.00 Build 0)  -->
<svg version="1.1" id="Capa_1" xmlns="http://www.w3.org/2000/svg" xmlns:xlink="http://www.w3.org/1999/xlink" x="0px" y="0px"
	 viewBox="0 0 480.146 480.146" style="enable-background:new 0 0 480.146 480.146;" xml:space="preserve">
<g>
	<g>
		<path d="M479.564,232.073c-3.98-27.577-27.629-48.033-55.491-48c-27.805,0.053-51.367,20.483-55.36,48h-41.048
			c-1.599-17.751-8.577-34.591-20-48.272l29.032-29.032c24.769,18.521,59.863,13.457,78.384-11.312
			c18.521-24.769,13.457-59.862-11.312-78.384C379,46.551,343.906,51.616,325.385,76.385c-14.869,19.885-14.869,47.187,0,67.072
			l-29.032,29.032c-13.682-11.428-30.525-18.408-48.28-20.008v-41.048c30.611-4.418,51.844-32.815,47.426-63.426
			S262.684-3.837,232.073,0.582s-51.844,32.815-47.426,63.426c3.547,24.574,22.852,43.879,47.426,47.426v41.048
			c-17.751,1.599-34.591,8.577-48.272,20l-29.032-29.032c18.55-24.797,13.485-59.937-11.312-78.487
			C118.66,46.412,83.52,51.477,64.97,76.274c-18.55,24.797-13.485,59.937,11.312,78.487c19.914,14.897,47.261,14.897,67.175,0
			l29.032,29.032c-11.428,13.682-18.408,30.525-20.008,48.28h-41.048c-4.418-30.611-32.815-51.844-63.426-47.426
			s-51.844,32.815-47.426,63.426s32.815,51.844,63.426,47.426c24.574-3.547,43.879-22.852,47.426-47.426h41.048
			c1.599,17.751,8.577,34.591,20,48.272l-29.032,29.032c-24.769-18.521-59.863-13.457-78.384,11.312
			c-18.521,24.769-13.457,59.862,11.312,78.384c24.769,18.521,59.863,13.457,78.384-11.312c14.869-19.885,14.869-47.187,0-67.072
			l29.032-29.032c13.682,11.428,30.525,18.408,48.28,20.008v41.048c-30.611,4.418-51.844,32.815-47.426,63.426
			s32.815,51.844,63.426,47.426s51.844-32.815,47.426-63.426c-3.547-24.574-22.852-43.879-47.426-47.426v-41.048
			c17.751-1.599,34.591-8.577,48.272-20l29.032,29.032c-18.521,24.769-13.457,59.862,11.312,78.384
			c24.769,18.521,59.863,13.457,78.384-11.312c18.521-24.769,13.457-59.863-11.312-78.384c-19.885-14.869-47.187-14.869-67.072,0
			l-29.032-29.032c11.428-13.682,18.408-30.525,20.008-48.28h41.048c4.418,30.611,32.815,51.844,63.426,47.426
			C462.749,291.08,483.982,262.684,479.564,232.073z M341.534,82.036c0.12-0.122,0.241-0.243,0.363-0.363
			c15.621-15.621,40.947-15.621,56.569-0.001c15.621,15.621,15.621,40.947,0.001,56.569c-15.621,15.621-40.947,15.621-56.569,0.001
			c0,0,0,0-0.001-0.001C326.276,122.82,326.114,97.656,341.534,82.036z M138.241,138.248
			C138.241,138.248,138.241,138.249,138.241,138.248c-15.421,15.621-40.585,15.784-56.206,0.363
			c-0.122-0.12-0.243-0.241-0.363-0.363c-15.621-15.621-15.621-40.947,0-56.569c15.621-15.621,40.947-15.621,56.569,0
			C153.862,97.301,153.862,122.627,138.241,138.248z M56.073,280.073c-22.091,0-40-17.909-40-40s17.909-40,40-40s40,17.909,40,40
			C96.046,262.153,78.153,280.046,56.073,280.073z M138.611,398.11c-0.12,0.122-0.241,0.243-0.363,0.363
			c-15.621,15.621-40.947,15.621-56.569,0.001c-15.621-15.621-15.621-40.947-0.001-56.569c15.621-15.621,40.947-15.621,56.569-0.001
			c0,0,0,0,0.001,0.001C153.87,357.325,154.032,382.489,138.611,398.11z M341.836,341.964c7.514-7.532,17.717-11.765,28.356-11.764
			c10.61-0.032,20.792,4.179,28.28,11.696c15.658,15.621,15.689,40.978,0.068,56.636c-15.621,15.658-40.978,15.689-56.636,0.068
			C326.246,382.98,326.215,357.623,341.836,341.964z M200.073,56.073c0-22.091,17.909-40,40-40c22.091,0,40,17.909,40,40
			s-17.909,40-40,40C217.992,96.046,200.099,78.153,200.073,56.073z M240.073,168.073c22.704,0,35.2,10.736,38.776,33.136
			l-26.656-16c-3.789-2.273-8.703-1.044-10.976,2.745c-0.3,0.5-0.544,1.03-0.728,1.583c-4.048,12.144-25.904,16.736-40,18.072
			C202.657,180.793,215.273,168.073,240.073,168.073z M176.329,273.433c-14.061-26.68-9.885-59.311,10.44-81.59
			c-1.877,7.938-2.782,16.074-2.696,24.23c0.929,15.862,8.609,30.566,21.096,40.392C193.613,257.86,183.162,264.009,176.329,273.433
			z M217.377,308.361c-11.938-4.002-22.621-11.06-30.984-20.472c4.139-9.615,13.612-15.837,24.08-15.816h17.76l-11.616,29.032
			C215.678,303.504,215.961,306.209,217.377,308.361z M280.073,424.073c0,22.091-17.909,40-40,40c-22.091,0-40-17.909-40-40
			c0-22.091,17.909-40,40-40C262.153,384.099,280.046,401.992,280.073,424.073z M233.465,302.145l6.608-16.536l6.608,16.528
			l-6.608,6.624L233.465,302.145z M240.073,256.073c-17.843-3.039-32.686-15.412-38.888-32.416c13.696-1.128,38.4-5.272,49.92-20.44
			l28.592,17.16C276.489,239.969,252.353,256.073,240.073,256.073z M262.745,308.361c1.416-2.152,1.699-4.857,0.76-7.256
			l-11.616-29.032h17.784c10.477-0.03,19.961,6.193,24.104,15.816C285.4,297.308,274.701,304.367,262.745,308.361z M303.825,273.441
			v-0.008c-6.833-9.423-17.284-15.572-28.84-16.968c12.484-9.827,20.161-24.531,21.088-40.392
			c0.086-8.157-0.819-16.294-2.696-24.232C313.709,214.121,317.887,246.757,303.825,273.441z M424.073,280.073
			c-22.091,0-40-17.909-40-40s17.909-40,40-40c22.091,0,40,17.909,40,40C464.046,262.153,446.153,280.046,424.073,280.073z"/>
	</g>
</g>
<g>
</g>
<g>
</g>
<g>
</g>
<g>
</g>
<g>
</g>
<g>
</g>
<g>
</g>
<g>
</g>
<g>
</g>
<g>
</g>
<g>
</g>
<g>
</g>
<g>
</g>
<g>
</g>
<g>
</g>
</svg>
