<svg height="497pt" viewBox="0 0 497 497.24" width="497pt" xmlns="http://www.w3.org/2000/svg"><path d="m200.121094 328v4c0 19.847656 16.152344 36 36 36h4v16h16v-16h4c19.847656 0 36-16.152344 36-36s-16.152344-36-36-36h-24c-11.03125 0-20-8.976562-20-20s8.96875-20 20-20h24c11.03125 0 20 8.976562 20 20v4h16v-4c0-19.847656-16.152344-36-36-36h-4v-16h-16v16h-4c-19.847656 0-36 16.152344-36 36s16.152344 36 36 36h24c11.03125 0 20 8.976562 20 20s-8.96875 20-20 20h-24c-11.03125 0-20-8.976562-20-20v-4zm0 0"/><path d="m173.167969 200.367188 9.03125 13.199218 65.921875-45.101562 111.199218 76.078125c-3.59375 46.03125-19.320312 90.578125-45.609374 129.082031l13.21875 9.023438c28.773437-42.152344 45.597656-91.128907 48.671874-141.640626l.269532-4.527343-127.75-87.402344zm0 0"/><path d="m248.121094 440.527344c-63.953125-45.246094-105.167969-117.839844-111.21875-195.96875l32.027344-21.910156-9.035157-13.199219-39.542969 27.054687.273438 4.519532c5.183594 86.570312 51.167969 167.265624 123.015625 215.855468l4.480469 3.042969 4.488281-3.035156c24.328125-16.453125 45.976563-36.816407 64.320313-60.496094l-12.640626-9.796875c-16.183593 20.871094-35.058593 39-56.167968 53.933594zm0 0"/><path d="m404.808594 296h44.785156c3.308594 9.289062 12.109375 16 22.527344 16 13.230468 0 24-10.769531 24-24s-10.769532-24-24-24c-10.417969 0-19.21875 6.710938-22.527344 16h-38.160156l-7.296875-7.296875c1.703125-10.78125 2.878906-21.6875 3.449219-32.703125h24.535156c35.285156 0 64-28.710938 64-64 0-29.792969-20.488282-54.816406-48.097656-61.921875.015624-.695313.097656-1.375.097656-2.078125 0-52.9375-43.066406-96-96-96-27.632813 0-53.792969 12-71.914063 32.488281-22.101562-29.496093-57.285156-48.488281-96.085937-48.488281-63.480469 0-115.457032 49.574219-119.59375 112.023438-.136719-.007813-.269532-.023438-.40625-.023438-35.289063 0-64 28.710938-64 64s28.710937 64 64 64h24.519531c.558594 11.023438 1.71875 21.9375 3.421875 32.734375l-7.253906 7.265625h-38.160156c-3.3125-9.289062-12.113282-16-22.527344-16-13.234375 0-24 10.769531-24 24s10.765625 24 24 24c10.414062 0 19.214844-6.710938 22.527344-16h44.785156l4.238281-4.238281c3.984375 17.910156 9.390625 35.414062 16.382813 52.238281h-65.40625c-3.3125-9.289062-12.113282-16-22.527344-16-13.234375 0-24 10.769531-24 24s10.765625 24 24 24c10.414062 0 19.214844-6.710938 22.527344-16h72.664062c6.703125 13.878906 14.40625 27.246094 23.0625 40h-39.734375c-3.3125-9.289062-12.113281-16-22.527344-16-13.234375 0-24 10.769531-24 24s10.765625 24 24 24c10.414063 0 19.214844-6.710938 22.527344-16h51.335937c10.113282 13.046875 21.335938 25.246094 33.457032 36.609375l-7.59375 11.390625h-133.191406c-3.3125-9.289062-12.113282-16-22.527344-16-13.234375 0-24 10.769531-24 24s10.765625 24 24 24c10.414062 0 19.214844-6.710938 22.527344-16h141.75l11.097656-16.648438c13.832031 11.679688 28.671875 22.335938 44.617187 31.570313l4.007813 2.316406 4.007812-2.316406c15.941406-9.234375 30.773438-19.890625 44.613282-31.570313l11.097656 16.648438h141.753906c3.308594 9.289062 12.109375 16 22.527344 16 13.230468 0 24-10.769531 24-24s-10.769532-24-24-24c-10.417969 0-19.21875 6.710938-22.527344 16h-133.195312l-7.597657-11.390625c12.121094-11.363281 23.335938-23.5625 33.4375-36.609375h51.347657c3.308593 9.289062 12.109374 16 22.527343 16 13.230469 0 24-10.769531 24-24s-10.769531-24-24-24c-10.417969 0-19.21875 6.710938-22.527343 16h-39.753907c8.65625-12.753906 16.359375-26.113281 23.054688-40h72.699219c3.308593 9.289062 12.109374 16 22.527343 16 13.230469 0 24-10.769531 24-24s-10.769531-24-24-24c-10.417969 0-19.21875 6.710938-22.527343 16h-65.441407c6.984375-16.824219 12.390625-34.335938 16.382813-52.273438zm67.3125-16c4.414062 0 8 3.59375 8 8s-3.585938 8-8 8c-4.417969 0-8-3.59375-8-8s3.582031-8 8-8zm-448 16c-4.417969 0-8-3.59375-8-8s3.582031-8 8-8c4.414062 0 8 3.59375 8 8s-3.585938 8-8 8zm0 64c-4.417969 0-8-3.59375-8-8s3.582031-8 8-8c4.414062 0 8 3.59375 8 8s-3.585938 8-8 8zm56 56c-4.417969 0-8-3.59375-8-8s3.582031-8 8-8c4.414062 0 8 3.59375 8 8s-3.585938 8-8 8zm-56 64c-4.417969 0-8-3.59375-8-8s3.582031-8 8-8c4.414062 0 8 3.59375 8 8s-3.585938 8-8 8zm448-16c4.414062 0 8 3.59375 8 8s-3.585938 8-8 8c-4.417969 0-8-3.59375-8-8s3.582031-8 8-8zm-56-64c4.414062 0 8 3.59375 8 8s-3.585938 8-8 8c-4.417969 0-8-3.59375-8-8s3.582031-8 8-8zm56-56c4.414062 0 8 3.59375 8 8s-3.585938 8-8 8c-4.417969 0-8-3.59375-8-8s3.582031-8 8-8zm-456-168c0-26.472656 21.527344-48 48-48 13.007812 0 25.175781 5.121094 34.285156 14.40625l11.425781-11.191406c-8.222656-8.398438-18.351562-14.167969-29.417969-17.054688 3.058594-54.625 48.339844-98.160156 103.707032-98.160156 51.421875 0 95.679687 38.320312 102.941406 89.136719l15.839844-2.265625c-2.070313-14.464844-6.757813-28.039063-13.503906-40.304688 15.136718-19.160156 38.195312-30.566406 62.722656-30.566406 44.109375 0 80 35.886719 80 80-17.34375 0-33.578125 6.824219-45.714844 19.214844l11.425781 11.191406c9.113281-9.285156 21.28125-14.40625 34.289063-14.40625 26.472656 0 48 21.527344 48 48s-21.527344 48-48 48h-24v-4.214844l-160-109.480468-156.511719 107.09375-3.488281 2.746093v3.855469h-24c-26.472656 0-48-21.527344-48-48zm232 302.710938c-73.289063-43.992188-123.433594-117.640626-138.863282-200.542969l.519532-.519531-.738282-.738282c-2.894531-15.957031-4.65625-32.222656-4.886718-48.71875l143.96875-98.496094 143.976562 98.503907c-.21875 16.472656-1.953125 32.710937-4.851562 48.664062l-.789063.792969.550781.550781c-15.382812 82.769531-65.550781 156.488281-138.886718 200.503907zm0 0"/></svg>