<svg id="Layer_5" enable-background="new 0 0 64 64" height="512" viewBox="0 0 64 64" width="512" xmlns="http://www.w3.org/2000/svg"><g><path d="m32 39c-4.962 0-9 4.038-9 9s4.038 9 9 9 9-4.038 9-9-4.038-9-9-9zm0 16c-3.86 0-7-3.14-7-7s3.14-7 7-7 7 3.14 7 7-3.14 7-7 7z"/><path d="m33 21h2v2h-2z"/><path d="m41 21h2v2h-2z"/><path d="m37 21h2v2h-2z"/><path d="m21 13h2v2h-2z"/><path d="m29 13h2v2h-2z"/><path d="m25 13h2v2h-2z"/><path d="m53 29c-1.412 0-2.812.303-4.098.882-.552-.715-1.198-1.331-1.902-1.863v-7.019h2v4h4.184c.414 1.161 1.514 2 2.816 2 1.654 0 3-1.346 3-3s-1.346-3-3-3c-1.302 0-2.402.839-2.816 2h-2.184v-4h-4v-4h10.184c.414 1.161 1.514 2 2.816 2 1.654 0 3-1.346 3-3s-1.346-3-3-3c-1.302 0-2.402.839-2.816 2h-10.184v-4h4v-4h2.184c.414 1.161 1.514 2 2.816 2 1.654 0 3-1.346 3-3s-1.346-3-3-3c-1.302 0-2.402.839-2.816 2h-4.184v4h-2v-3c0-1.654-1.346-3-3-3h-24c-1.654 0-3 1.346-3 3v3h-2v-4h-4.184c-.414-1.161-1.514-2-2.816-2-1.654 0-3 1.346-3 3s1.346 3 3 3c1.302 0 2.402-.839 2.816-2h2.184v4h4v4h-10.184c-.414-1.161-1.514-2-2.816-2-1.654 0-3 1.346-3 3s1.346 3 3 3c1.302 0 2.402-.839 2.816-2h10.184v4h-4v4h-2.184c-.414-1.161-1.514-2-2.816-2-1.654 0-3 1.346-3 3s1.346 3 3 3c1.302 0 2.402-.839 2.816-2h2.434c-2.151 2.099-3.645 4.876-4.094 8.002-4.499-.127-8.156 3.535-8.156 7.998 0 4.411 3.589 8 8 8h8v2.777l2.802.713c.119.319.252.639.4.956l-1.48 2.49 5.342 5.342 2.49-1.48c.317.147.636.281.956.4l.713 2.802h7.555l.713-2.802c.319-.119.639-.252.956-.4l2.49 1.48 5.342-5.342-1.48-2.49c.147-.317.281-.636.4-.956l2.801-.713v-2.777h6c5.514 0 10-4.486 10-10s-4.486-10-10-10zm3-6c.551 0 1 .449 1 1s-.449 1-1 1-1-.449-1-1 .449-1 1-1zm4-10c.551 0 1 .449 1 1s-.449 1-1 1-1-.449-1-1 .449-1 1-1zm-4-10c.551 0 1 .449 1 1s-.449 1-1 1-1-.449-1-1 .449-1 1-1zm-48 2c-.551 0-1-.449-1-1s.449-1 1-1 1 .449 1 1-.449 1-1 1zm-4 10c-.551 0-1-.449-1-1s.449-1 1-1 1 .449 1 1-.449 1-1 1zm4 10c-.551 0-1-.449-1-1s.449-1 1-1 1 .449 1 1-.449 1-1 1zm33 1c-2.15 0-4.21.684-5.92 1.947-2.493-4.258-7.104-6.947-12.08-6.947-1.387 0-2.728.213-4 .597v-2.597h26v7.849c-1.242-.544-2.595-.849-4-.849zm-22-15h26v6h-26zm1-8h24c.551 0 1 .449 1 1v5h-26v-5c0-.551.449-1 1-1zm-5 18h2v1.368c-.701.336-1.368.732-2 1.176zm30 29.223-2.354.599-.169.528c-.179.56-.416 1.125-.704 1.683l-.254.493 1.246 2.095-3.143 3.143-2.095-1.246-.493.254c-.558.288-1.124.525-1.683.704l-.528.169-.6 2.355h-4.445l-.599-2.354-.528-.169c-.56-.179-1.125-.416-1.683-.704l-.493-.254-2.095 1.246-3.143-3.143 1.246-2.095-.254-.493c-.288-.558-.525-1.124-.704-1.683l-.169-.528-2.356-.6v-4.445l2.354-.599.169-.528c.179-.559.416-1.125.704-1.684l.254-.493-1.246-2.095 3.143-3.143 2.095 1.246.493-.254c.558-.288 1.124-.525 1.683-.704l.528-.169.6-2.355h4.445l.599 2.354.528.169c.56.179 1.125.416 1.683.704l.493.254 2.095-1.246 3.143 3.143-1.246 2.095.254.493c.288.559.525 1.125.704 1.684l.169.528 2.356.599zm8-3.223h-6v-2.777l-2.802-.713c-.119-.319-.252-.639-.4-.956l1.48-2.489-5.342-5.342-2.49 1.48c-.317-.147-.636-.281-.956-.4l-.713-2.803h-7.555l-.713 2.802c-.319.119-.639.252-.956.4l-2.49-1.48-5.342 5.342 1.48 2.489c-.147.317-.281.637-.4.956l-2.801.714v2.777h-8c-3.309 0-6-2.691-6-6s2.691-6 6-6c.27 0 .555.024.897.075l1.071.161.075-1.08c.436-6.256 5.688-11.156 11.957-11.156 4.633 0 8.898 2.722 10.866 6.936l.591 1.265 1.007-.967c1.501-1.441 3.467-2.234 5.536-2.234 2.738 0 5.257 1.384 6.739 3.703l.51.798.825-.466c1.198-.677 2.555-1.035 3.926-1.035 4.411 0 8 3.589 8 8s-3.589 8-8 8z"/><path d="m53 33v2c2.206 0 4 1.794 4 4h2c0-3.309-2.691-6-6-6z"/><path d="m13 35h2c0-4.411 3.589-8 8-8v-2c-5.514 0-10 4.486-10 10z"/></g></svg>