<?xml version="1.0" encoding="iso-8859-1"?>
<!-- Generator: Adobe Illustrator 21.0.0, SVG Export Plug-In . SVG Version: 6.00 Build 0)  -->
<svg xmlns="http://www.w3.org/2000/svg" xmlns:xlink="http://www.w3.org/1999/xlink" version="1.1" id="Capa_1" x="0px" y="0px" viewBox="0 0 512 512" style="enable-background:new 0 0 512 512;" xml:space="preserve" width="512" height="512">
<g>
	<path d="M76.298,300.934c41.517,0,75.294-33.645,75.294-75v-90c0-8.284-6.742-15-15.059-15h-36.307l43.041-21.437   c5.102-2.541,8.325-7.735,8.325-13.417v-70c0-11.127-11.782-18.401-21.793-13.417L76.298,29.311L22.797,2.665   C12.807-2.311,1.004,4.933,1.004,16.081v70c0,5.682,3.223,10.875,8.325,13.417l43.041,21.437H16.063   c-8.317,0-15.059,6.716-15.059,15v90C1.004,267.289,34.781,300.934,76.298,300.934z M33.712,240.934h85.172   C104.687,280.805,47.924,280.849,33.712,240.934z M121.475,76.811l-30.118,15V55.352l30.118-15V76.811z M31.122,40.352l30.118,15   v36.459l-30.118-15V40.352z M121.475,150.934v60H31.122v-60H121.475z"/>
	<path d="M512,86.081v-70c0-11.128-11.782-18.401-21.793-13.417l-53.501,26.646L383.205,2.665   c-9.99-4.976-21.793,2.268-21.793,13.417v70c0,5.682,3.223,10.875,8.324,13.417l43.041,21.437h-36.307   c-8.317,0-15.059,6.716-15.059,15v90c0,41.355,33.777,75,75.294,75s75.294-33.645,75.294-75v-90c0-8.284-6.742-15-15.059-15   h-36.307l43.041-21.437C508.777,96.957,512,91.763,512,86.081z M391.529,40.352l30.118,15v36.459l-30.118-15V40.352z    M394.12,240.934h85.172C465.095,280.805,408.332,280.849,394.12,240.934z M481.882,210.934h-90.353v-60h90.353V210.934z    M481.882,76.811l-30.118,15V55.352l30.118-15V76.811z"/>
	<path d="M496.941,360.934H329.779c2.087-10.203,1.515-1.144,1.515-165c0-8.284-6.742-15-15.059-15h-36.307l43.041-21.437   c5.102-2.541,8.325-7.735,8.325-13.417v-70c0-11.127-11.783-18.401-21.793-13.417L256,89.311l-53.501-26.646   c-10.029-4.994-21.793,2.313-21.793,13.417v70c0,5.682,3.223,10.875,8.325,13.417l43.041,21.437h-36.307   c-8.317,0-15.059,6.716-15.059,15c0,165.012-0.564,154.836,1.515,165H15.059c-8.317,0-15.059,6.716-15.059,15v120   c0,8.284,6.742,15,15.059,15h481.882c8.317,0,15.059-6.716,15.059-15v-120C512,367.65,505.258,360.934,496.941,360.934z    M210.824,345.934v-15h90.353v15c0,24.813-20.266,45-45.176,45S210.824,370.747,210.824,345.934z M301.176,136.811l-30.118,15   v-36.459l30.118-15V136.811z M210.824,100.352l30.118,15v36.459l-30.118-15V100.352z M301.176,210.934v90h-90.353v-90H301.176z    M481.882,480.934H30.118v-90h165.688c30.208,39.991,90.182,39.989,120.388,0h165.688V480.934z"/>
	<path d="M165.647,420.934H76.298c-8.317,0-15.059,6.716-15.059,15s6.742,15,15.059,15h89.349c8.317,0,15.059-6.716,15.059-15   S173.964,420.934,165.647,420.934z"/>
	<ellipse cx="316.235" cy="435.934" rx="15.059" ry="15"/>
	<ellipse cx="376.471" cy="435.934" rx="15.059" ry="15"/>
	<ellipse cx="436.706" cy="435.934" rx="15.059" ry="15"/>
</g>















</svg>
