<svg height="496pt" viewBox="0 0 496 496" width="496pt" xmlns="http://www.w3.org/2000/svg"><path d="m472 0h-200c-13.230469 0-24 10.769531-24 24v96h16v-56h30.121094c-8.816406 10.96875-14.121094 24.871094-14.121094 40 0 26.039062 16.222656 49.414062 40 59.121094v37.085937c-6.703125-5.078125-14.960938-8.207031-24-8.207031-8.824219 0-16 7.175781-16 16v96h-16v-131.3125l-28.6875-28.6875h-43.3125v-144h-48v144h-16v-96h-48v96h-16v-64h-48v64h-16v16h228.6875l19.3125 19.3125v180.6875c0 13.230469 10.769531 24 24 24h32v16h-16v96h160v-96h-16v-16h40c13.230469 0 24-10.769531 24-24v-336c0-13.230469-10.769531-24-24-24zm-312 16h16v128h-16zm-64 48h16v80h-16zm-64 32h16v48h-16zm232-72c0-4.40625 3.585938-8 8-8h200c4.414062 0 8 3.59375 8 8v24h-105.089844c-9.167968-5.089844-19.703125-8-30.910156-8s-21.742188 2.910156-30.910156 8h-49.089844zm179.96875 160.328125c-4.089844-.664063-8.183594-.273437-11.96875 1.046875v-8.519531c0-12.128907-8.609375-22.671875-20.03125-24.527344-4.457031-.726563-8.921875-.207031-12.976562 1.433594-1.039063-3.601563-2.878907-6.867188-5.273438-9.609375 9.121094-11.3125 14.28125-25.480469 14.28125-40.152344 0-15.128906-5.304688-29.03125-14.121094-40h86.121094v240h-16v-95.144531c0-12.128907-8.609375-22.671875-20.03125-24.527344zm-147.96875-80.328125c0-26.472656 21.527344-48 48-48s48 21.527344 48 48c0 11.96875-4.542969 23.511719-12.550781 32.304688-3.90625-.550782-7.832031-.199219-11.449219 1.070312v-25.375c0-7.046875-3.078125-13.710938-8.457031-18.289062-5.382813-4.566407-12.488281-6.550782-19.519531-5.390626-11.414063 1.863282-20.023438 12.40625-20.023438 24.535157v32.527343c-14.480469-8.460937-24-24.136718-24-41.382812zm-24 264c-4.414062 0-8-3.59375-8-8v-40h17.078125c.9375 4.105469 2.441406 8.070312 4.625 11.71875l18.296875 30.496094v5.785156zm32 112v-32h88v-16h-88v-16h128v16h-24v16h24v32zm16-80v-42.214844l-20.574219-34.304687c-2.242187-3.726563-3.425781-8-3.425781-12.34375v-103.136719c13.230469 0 24 10.769531 24 24v40h16v-159.144531c0-4.296875 2.894531-8.136719 6.59375-8.742188 2.421875-.378906 4.765625.238281 6.582031 1.789063 1.792969 1.523437 2.824219 3.746094 2.824219 6.097656v160h16v-112c0-2.351562 1.03125-4.574219 2.824219-6.097656 1.824219-1.542969 4.152343-2.175782 6.574219-1.789063 3.707031.605469 6.601562 4.445313 6.601562 8.742188v111.144531h16v-96c0-2.351562 1.03125-4.574219 2.824219-6.097656 1.824219-1.542969 4.152343-2.175782 6.574219-1.789063 3.707031.605469 6.601562 4.445313 6.601562 8.742188v95.144531h16v-64c0-2.351562 1.03125-4.574219 2.824219-6.097656 1.824219-1.542969 4.152343-2.175782 6.574219-1.789063 3.707031.605469 6.601562 4.445313 6.601562 8.742188v99.921875c0 5.421875-1.863281 10.75-5.265625 15l-26.734375 33.414062v42.808594zm152-32h-40v-5.191406l23.230469-29.039063c3.257812-4.082031 5.5625-8.792969 7.027343-13.761719h17.742188v40c0 4.398438-3.585938 7.992188-8 7.992188zm0 0"/><path d="m96 360v16c0 13.230469 10.769531 24 24 24s24-10.769531 24-24v-48c0-13.230469-10.769531-24-24-24s-24 10.769531-24 24v16h16v-16c0-4.40625 3.585938-8 8-8s8 3.59375 8 8v48c0 4.40625-3.585938 8-8 8s-8-3.59375-8-8v-16zm0 0"/><path d="m176 376v-48c0-9.878906-2.65625-19.648438-7.6875-28.238281l-13.816406 8.085937c3.609375 6.144532 5.503906 13.113282 5.503906 20.152344v48c0 22.054688-17.945312 40-40 40-9.929688 0-19.472656-3.710938-26.871094-10.449219l-10.769531 11.832031c10.351563 9.425782 23.71875 14.617188 37.640625 14.617188 30.871094 0 56-25.121094 56-56zm0 0"/><path d="m155.832031 284.976562c-10.03125-8.367187-22.761719-12.976562-35.832031-12.976562-30.871094 0-56 25.121094-56 56v48c0 8.96875 2.199219 17.921875 6.367188 25.878906l14.167968-7.414062c-3.007812-5.761719-4.535156-11.976563-4.535156-18.464844v-48c0-22.054688 17.945312-40 40-40 9.335938 0 18.414062 3.289062 25.574219 9.265625zm0 0"/><path d="m177.601562 419.199219 12.796876 9.609375c11.511718-15.328125 17.601562-33.585938 17.601562-52.808594v-48c0-48.519531-39.480469-88-88-88-20.246094 0-40.023438 7.054688-55.6875 19.871094l10.144531 12.386718c12.800781-10.480468 28.984375-16.257812 45.542969-16.257812 39.703125 0 72 32.304688 72 72v48c0 15.726562-4.976562 30.664062-14.398438 43.199219zm0 0"/><path d="m120 448c-39.703125 0-72-32.304688-72-72v-48c0-16.558594 5.777344-32.742188 16.257812-45.550781l-12.378906-10.136719c-12.816406 15.664062-19.878906 35.441406-19.878906 55.6875v48c0 48.519531 39.480469 88 88 88h34.742188c27.050781 0 52.480468 10.527344 71.601562 29.65625l11.3125-11.3125c-22.152344-22.152344-51.59375-34.34375-82.914062-34.34375zm0 0"/><path d="m24 176h192v16h-192zm0 0"/><path d="m112 208h16v16h-16zm0 0"/><path d="m144 208h16v16h-16zm0 0"/><path d="m80 208h16v16h-16zm0 0"/></svg>