<svg height="512pt" viewBox="-16 0 512 512.001" width="512pt" xmlns="http://www.w3.org/2000/svg"><path d="m137.042969 79.519531h29.597656c4.140625 0 7.5-3.355469 7.5-7.5 0-4.140625-3.359375-7.5-7.5-7.5h-29.597656c-.238281 0-.429688-.191406-.429688-.429687v-48.660156c0-.238282.191407-.429688.429688-.429688h118.597656c4.144531 0 7.5-3.355469 7.5-7.5s-3.355469-7.5-7.5-7.5h-118.597656c-8.507813 0-15.429688 6.921875-15.429688 15.429688v48.660156c0 8.507812 6.921875 15.429687 15.429688 15.429687zm0 0"/><path d="m464.375 243.0625h-35.214844v-3.566406c0-21.019532-17.101562-38.121094-38.125-38.121094h-80.367187c-.648438-1.132812-1.4375-2.203125-2.402344-3.164062l-62.28125-62.28125c-.964844-.964844-2.035156-1.753907-3.164063-2.402344v-54.007813h90.777344c8.507813 0 15.429688-6.921875 15.429688-15.429687v-48.660156c0-8.507813-6.917969-15.429688-15.425782-15.429688h-43.4375c-4.140624 0-7.5 3.355469-7.5 7.5s3.359376 7.5 7.5 7.5h43.4375c.234376 0 .425782.191406.425782.429688v48.660156c0 .238281-.191406.429687-.425782.429687h-132.4375c-4.144531 0-7.5 3.359375-7.5 7.5 0 4.144531 3.355469 7.5 7.5 7.5h26.65625v54.007813c-1.128906.648437-2.199218 1.4375-3.164062 2.402344l-62.28125 62.28125c-.957031.957031-1.753906 2.023437-2.410156 3.164062h-80.359375c-21.023438 0-38.125 17.101562-38.125 38.125v5.613281c-23.460938 3.617188-41.480469 23.945313-41.480469 48.402344s18.019531 44.785156 41.480469 48.40625v59.601563c-23.460938 3.621093-41.480469 23.949218-41.480469 48.40625 0 27.007812 21.972656 48.976562 48.980469 48.976562 24.457031 0 44.785156-18.015625 48.402343-41.476562h37.503907v47.070312c0 4.144531 3.359375 7.5 7.5 7.5 4.144531 0 7.5-3.355469 7.5-7.5v-116.164062c0-1.496094 1.21875-2.714844 2.714843-2.714844h31.179688v30.074218c0 7.699219 6.265625 13.96875 13.964844 13.96875h30.074218v64.625c0 9.765626 7.945313 17.710938 17.710938 17.710938h165.917969c9.765625 0 17.710937-7.945312 17.710937-17.710938v-23.8125h35.214844c8.507812 0 15.425781-6.921874 15.425781-15.429687v-196.558594c.003907-8.507812-6.917969-15.425781-15.425781-15.425781zm-291.394531-34.246094 62.28125-62.28125c.03125-.03125.082031-.03125.117187 0l62.28125 62.28125c.03125.03125.03125.082032 0 .113282l-62.28125 62.28125c-.03125.03125-.082031.03125-.113281 0l-62.285156-62.28125c-.027344-.027344-.023438-.085938 0-.113282zm-157.980469 84.699219c0-18.734375 15.246094-33.980469 33.980469-33.980469 18.738281 0 33.980469 15.242188 33.980469 33.980469 0 18.734375-15.242188 33.980469-33.980469 33.980469-18.734375 0-33.980469-15.246094-33.980469-33.980469zm33.980469 190.390625c-18.734375 0-33.980469-15.242188-33.980469-33.980469 0-18.734375 15.246094-33.976562 33.980469-33.976562 18.738281 0 33.980469 15.242187 33.980469 33.976562 0 18.738281-15.246094 33.980469-33.980469 33.980469zm134.800781-143.355469v30.070313h-31.179688c-9.769531 0-17.714843 7.945312-17.714843 17.714844v54.09375h-37.503907c-3.242187-21.015626-19.890624-37.664063-40.902343-40.90625v-59.605469c23.457031-3.617188 41.480469-23.945313 41.480469-48.402344s-18.019532-44.785156-41.480469-48.40625v-5.613281c0-12.75 10.375-23.121094 23.125-23.121094h80.359375c.65625 1.140625 1.457031 2.207031 2.410156 3.160156l62.285156 62.285156c.960938.964844 2.03125 1.75 3.160156 2.398438v42.363281h-30.074218c-7.699219 0-13.964844 6.265625-13.964844 13.96875zm15 1.03125h73.078125v73.082031h-73.078125zm215.378906 152.707031c0 1.492188-1.214844 2.710938-2.710937 2.710938h-165.917969c-1.492188 0-2.710938-1.21875-2.710938-2.710938v-64.625h30.074219c7.699219 0 13.964844-6.269531 13.964844-13.96875v-30.074218h76.660156v69.425781c0 8.507813 6.917969 15.429687 15.429688 15.429687h35.210937zm50.644532-39.242187c0 .238281-.195313.429687-.429688.429687h-85.425781c-.238281 0-.429688-.191406-.429688-.429687v-131.785156c0-4.144531-3.359375-7.5-7.5-7.5-4.144531 0-7.5 3.355469-7.5 7.5v47.359375h-76.660156v-30.070313c0-7.703125-6.265625-13.96875-13.964844-13.96875h-30.074219v-42.363281c1.128907-.648438 2.199219-1.433594 3.164063-2.398438l62.28125-62.285156c.964844-.960937 1.753906-2.03125 2.402344-3.160156h80.367187c12.75 0 23.125 10.371094 23.125 23.121094v3.566406h-35.210937c-8.511719 0-15.429688 6.917969-15.429688 15.425781v30.25c0 4.140625 3.355469 7.5 7.5 7.5 4.140625 0 7.5-3.359375 7.5-7.5v-30.25c0-.234375.191407-.425781.429688-.425781h85.425781c.234375 0 .429688.191406.429688.425781zm0 0"/><path d="m246.230469 238.960938 19.175781-19.175782c2.917969-2.914062 4.519531-6.789062 4.519531-10.910156s-1.601562-7.996094-4.515625-10.910156l-19.179687-19.179688c-6.015625-6.015625-15.800781-6.015625-21.820313 0l-19.175781 19.179688c-2.914063 2.914062-4.519531 6.789062-4.519531 10.910156s1.605468 7.996094 4.519531 10.910156l19.175781 19.175782c2.914063 2.914062 6.789063 4.519531 10.910156 4.519531 4.121094 0 7.996094-1.605469 10.910157-4.519531zm-30.390625-29.785157c-.035156-.03125-.125-.125-.125-.300781 0-.179688.089844-.269531.125-.304688l19.175781-19.179687c.085937-.082031.195313-.125.304687-.125.109376 0 .222657.042969.304688.125l19.175781 19.179687c.035157.035157.125.125.125.304688 0 .175781-.089843.269531-.125.300781l-19.175781 19.179688c-.035156.035156-.125.125-.304688.125-.175781 0-.269531-.089844-.304687-.125zm0 0"/><path d="m433.78125 305.148438h-22.46875c-4.140625 0-7.5 3.359374-7.5 7.5 0 4.144531 3.359375 7.5 7.5 7.5h22.46875c4.140625 0 7.5-3.355469 7.5-7.5 0-4.140626-3.359375-7.5-7.5-7.5zm0 0"/><path d="m433.78125 349.269531h-22.46875c-4.140625 0-7.5 3.355469-7.5 7.5s3.359375 7.5 7.5 7.5h22.46875c4.140625 0 7.5-3.355469 7.5-7.5s-3.359375-7.5-7.5-7.5zm0 0"/><path d="m433.78125 393.386719h-22.46875c-4.140625 0-7.5 3.359375-7.5 7.5 0 4.144531 3.359375 7.5 7.5 7.5h22.46875c4.140625 0 7.5-3.355469 7.5-7.5 0-4.140625-3.359375-7.5-7.5-7.5zm0 0"/><path d="m305.828125 264.828125c-2.921875-2.9375-7.667969-2.949219-10.605469-.027344-2.9375 2.917969-2.953125 7.667969-.03125 10.605469l6.832032 6.871094c1.464843 1.476562 3.390624 2.210937 5.320312 2.210937 1.910156 0 3.824219-.726562 5.285156-2.179687 2.9375-2.921875 2.953125-7.667969.03125-10.605469zm0 0"/><path d="m325.304688 246.097656-9.355469-2.535156c-3.996094-1.082031-8.117188 1.277344-9.199219 5.277344-1.082031 3.996094 1.277344 8.113281 5.277344 9.199218l9.351562 2.535157c.65625.179687 1.316406.261719 1.96875.261719 3.300782 0 6.328125-2.199219 7.234375-5.539063 1.082031-3.996094-1.28125-8.117187-5.277343-9.199219zm0 0"/><path d="m288.363281 281.566406c-1.0625-4.003906-5.167969-6.390625-9.171875-5.332031-4.003906 1.0625-6.390625 5.167969-5.328125 9.171875l2.480469 9.367188c.890625 3.359374 3.925781 5.582031 7.242188 5.582031.636718 0 1.285156-.082031 1.925781-.253907 4.003906-1.058593 6.390625-5.164062 5.332031-9.167968zm0 0"/><path d="m164.746094 264.789062-6.871094 6.832032c-2.9375 2.921875-2.953125 7.671875-.03125 10.605468 1.464844 1.476563 3.390625 2.214844 5.320312 2.214844 1.910157 0 3.824219-.726562 5.285157-2.183594l6.875-6.832031c2.9375-2.917969 2.949219-7.667969.03125-10.605469-2.921875-2.9375-7.671875-2.953124-10.609375-.03125zm0 0"/><path d="m191.316406 276.351562c-4-1.082031-8.117187 1.277344-9.203125 5.277344l-2.535156 9.351563c-1.082031 3.996093 1.28125 8.117187 5.277344 9.199219.65625.179687 1.316406.265624 1.96875.265624 3.300781 0 6.328125-2.199218 7.234375-5.539062l2.535156-9.355469c1.082031-3.996093-1.28125-8.117187-5.277344-9.199219zm0 0"/><path d="m163.917969 248.792969c-1.0625-4.003907-5.167969-6.398438-9.171875-5.332031l-9.367188 2.480468c-4.003906 1.0625-6.390625 5.167969-5.328125 9.171875.890625 3.359375 3.925781 5.582031 7.242188 5.582031.636719 0 1.285156-.082031 1.925781-.253906l9.367188-2.480468c4.003906-1.058594 6.390624-5.164063 5.332031-9.167969zm0 0"/><path d="m170.132812 155.949219c1.910157 0 3.824219-.726563 5.289063-2.183594 2.9375-2.917969 2.949219-7.667969.03125-10.605469l-6.832031-6.871094c-2.921875-2.9375-7.671875-2.949218-10.605469-.03125-2.941406 2.921876-2.953125 7.671876-.03125 10.605469l6.832031 6.875c1.460938 1.472657 3.390625 2.210938 5.316406 2.210938zm0 0"/><path d="m149.261719 157.992188c-4-1.078126-8.117188 1.28125-9.199219 5.277343-1.085938 4 1.277344 8.117188 5.273438 9.203125l9.355468 2.535156c.65625.175782 1.316406.261719 1.964844.261719 3.304688 0 6.328125-2.199219 7.234375-5.539062 1.082031-4-1.277344-8.117188-5.277344-9.203125zm0 0"/><path d="m179.800781 127.632812 2.480469 9.371094c.890625 3.359375 3.921875 5.582032 7.242188 5.582032.636718 0 1.285156-.082032 1.925781-.253907 4.003906-1.0625 6.390625-5.164062 5.332031-9.171875l-2.480469-9.367187c-1.0625-4.003907-5.167969-6.394531-9.171875-5.328125-4.003906 1.058594-6.390625 5.164062-5.328125 9.167968zm0 0"/><path d="m312.796875 136.339844c-2.917969-2.9375-7.667969-2.953125-10.605469-.03125l-6.871094 6.832031c-2.941406 2.921875-2.953124 7.667969-.03125 10.605469 1.464844 1.476562 3.390626 2.214844 5.316407 2.214844 1.914062 0 3.828125-.730469 5.289062-2.183594l6.871094-6.832032c2.9375-2.921874 2.953125-7.667968.03125-10.605468zm0 0"/><path d="m276.585938 123.664062-2.535157 9.355469c-1.085937 3.996094 1.277344 8.117188 5.277344 9.199219.65625.179688 1.316406.261719 1.964844.261719 3.304687 0 6.328125-2.199219 7.234375-5.539063l2.535156-9.351562c1.082031-4-1.28125-8.117188-5.277344-9.203125-4-1.078125-8.117187 1.28125-9.199218 5.277343zm0 0"/><path d="m313.96875 175.355469c.636719 0 1.28125-.078125 1.925781-.25l9.367188-2.480469c4.003906-1.0625 6.390625-5.164062 5.328125-9.167969-1.058594-4.003906-5.164063-6.398437-9.167969-5.332031l-9.367187 2.480469c-4.003907 1.0625-6.390626 5.164062-5.332032 9.167969.890625 3.363281 3.925782 5.582031 7.246094 5.582031zm0 0"/><path d="m173.203125 447.5625c-.011719 0-.023437 0-.039063 0-4.125 0-7.476562 3.378906-7.5 7.507812-.019531 4.144532 3.320313 7.519532 7.464844 7.539063h.039063c4.121093 0 7.476562-3.332031 7.496093-7.460937v-.097657c.023438-4.140625-3.316406-7.46875-7.460937-7.488281zm0 0"/><path d="m173.132812 472.257812c-.011718 0-.023437 0-.039062 0-4.121094 0-7.476562 3.378907-7.5 7.507813-.019531 4.144531 3.320312 7.519531 7.460938 7.539063h.042968c4.121094 0 7.476563-3.332032 7.496094-7.460938v-.09375c.023438-4.144531-3.316406-7.472656-7.460938-7.492188zm0 0"/><path d="m173.0625 496.953125c-.011719 0-.027344 0-.039062 0-4.125 0-7.480469 3.378906-7.5 7.507813-.023438 4.144531 3.320312 7.519531 7.460937 7.539062h.039063c4.125 0 7.476562-3.332031 7.5-7.460938v-.09375c.019531-4.144531-3.320313-7.472656-7.460938-7.492187zm0 0"/></svg>