<svg enable-background="new 0 0 64 64" height="512" viewBox="0 0 64 64" width="512" xmlns="http://www.w3.org/2000/svg"><g id="Icons"><g><path d="m33 30.5h4.3c.333 0 .575-.321.479-.642-.93-3.146-2.653-5.441-4.611-6.139-.324-.115-.668.124-.668.471v5.81c0 .276.224.5.5.5zm.5-5.514c1.249.772 2.383 2.409 3.114 4.514h-3.114z"/><path d="m26.7 30.5h4.3c.276 0 .5-.224.5-.5v-5.81c0-.341-.337-.587-.668-.471-1.958.698-3.682 2.993-4.611 6.139-.095.321.146.642.479.642zm3.8-5.514v4.514h-3.114c.731-2.105 1.865-3.741 3.114-4.514z"/><path d="m26 18.5c.827 0 1.5-.673 1.5-1.5v-2c0-.827-.673-1.5-1.5-1.5s-1.5.673-1.5 1.5v2c0 .827.673 1.5 1.5 1.5zm-.5-3.5c0-.276.225-.5.5-.5s.5.224.5.5v2c0 .276-.225.5-.5.5s-.5-.224-.5-.5z"/><path d="m26 20.5c1.93 0 3.5-1.57 3.5-3.5v-2c0-1.93-1.57-3.5-3.5-3.5s-3.5 1.57-3.5 3.5v2c0 1.93 1.57 3.5 3.5 3.5zm-2.5-5.5c0-1.378 1.121-2.5 2.5-2.5s2.5 1.122 2.5 2.5v2c0 1.378-1.121 2.5-2.5 2.5s-2.5-1.122-2.5-2.5z"/><path d="m38 18.5c.827 0 1.5-.673 1.5-1.5v-2c0-.827-.673-1.5-1.5-1.5s-1.5.673-1.5 1.5v2c0 .827.673 1.5 1.5 1.5zm-.5-3.5c0-.276.225-.5.5-.5s.5.224.5.5v2c0 .276-.225.5-.5.5s-.5-.224-.5-.5z"/><path d="m38 20.5c1.93 0 3.5-1.57 3.5-3.5v-2c0-1.93-1.57-3.5-3.5-3.5s-3.5 1.57-3.5 3.5v2c0 1.93 1.57 3.5 3.5 3.5zm-2.5-5.5c0-1.378 1.121-2.5 2.5-2.5s2.5 1.122 2.5 2.5v2c0 1.378-1.121 2.5-2.5 2.5s-2.5-1.122-2.5-2.5z"/><path d="m32 20.333c.827 0 1.5-.673 1.5-1.5v-5.833c0-.827-.673-1.5-1.5-1.5s-1.5.673-1.5 1.5v5.833c0 .828.673 1.5 1.5 1.5zm-.5-7.333c0-.276.225-.5.5-.5s.5.224.5.5v5.833c0 .276-.225.5-.5.5s-.5-.224-.5-.5z"/><path d="m30.786 36.771c1.177.537 1.303.549 2.436-.018 7.922-3.608 12.278-8.988 12.278-17.473v-6.525c0-.661-.429-1.248-1.043-1.427-1.985-.58-3.658-2.019-4.592-3.946-.262-.544-.786-.882-1.365-.882h-12.994c-.578 0-1.102.338-1.366.882-.929 1.923-2.603 3.36-4.591 3.942-.612.179-1.04.765-1.042 1.425l-.007 6.531c0 9.003 4.607 13.878 12.286 17.491zm-9.14-8.756c2.417-3.509 6.174-5.515 10.354-5.515 4.12 0 7.956 2.051 10.326 5.503-.115.197-.126.246-.584.913-1.003-1.626-2.41-2.976-4.108-3.931-.457-.258-.953.28-.659.715.83 1.23 1.494 2.761 1.92 4.424.057.221.256.376.484.376h1.12c-.715.799-1.339 1.37-2.158 2.026-.026-.203-.055-.406-.089-.607-.039-.242-.248-.419-.493-.419h-4.759c-.276 0-.5.224-.5.5v3.986c-.515.229-.466.251-1 .01v-3.996c0-.276-.224-.5-.5-.5h-4.76c-.246 0-.455.178-.494.421-.032.207-.063.412-.089.618-.809-.642-1.466-1.238-2.187-2.039h1.15c.229 0 .428-.155.484-.376.426-1.664 1.09-3.194 1.92-4.424.292-.433-.199-.974-.659-.715-1.702.958-3.116 2.317-4.126 3.956-.169-.245-.405-.605-.593-.926zm19.283 1.485h-1.165c-.237-.849-.534-1.662-.881-2.421.804.698 1.494 1.513 2.046 2.421zm-3.518 3.735c-1.156.825-2.458 1.588-3.911 2.29v-3.025h3.83c.034.245.057.49.081.735zm-6.911 2.293c-1.457-.709-2.757-1.47-3.911-2.288.024-.247.047-.494.081-.741h3.83zm-7.432-6.028c.555-.909 1.245-1.723 2.048-2.42-.347.758-.643 1.572-.88 2.42zm-3.561-16.75c.001-.219.134-.411.323-.466 2.259-.662 4.158-2.29 5.21-4.466.095-.196.273-.318.466-.318h12.994c.192 0 .37.122.465.317 1.057 2.182 2.956 3.812 5.212 4.471.19.056.323.248.323.467v6.525c0 2.924-.544 5.5-1.656 7.771-2.573-3.479-6.557-5.551-10.844-5.551-4.284 0-8.279 2.077-10.87 5.563-1.102-2.26-1.63-4.832-1.63-7.782z"/><path d="m57 43.5h-4c-.827 0-1.5.673-1.5 1.5s.673 1.5 1.5 1.5h4c.827 0 1.5-.673 1.5-1.5s-.673-1.5-1.5-1.5zm0 2h-4c-.275 0-.5-.224-.5-.5s.225-.5.5-.5h4c.275 0 .5.224.5.5s-.225.5-.5.5z"/><path d="m47.5 45c0 .827.673 1.5 1.5 1.5s1.5-.673 1.5-1.5-.673-1.5-1.5-1.5-1.5.673-1.5 1.5zm2 0c0 .276-.225.5-.5.5s-.5-.224-.5-.5.225-.5.5-.5.5.224.5.5z"/><path d="m31.411 40.321c.369.133.774.137 1.134-.006 10.736-4.27 15.955-11.15 15.955-21.035v-9.21c0-.892-.774-1.603-1.633-1.496-2.231.28-4.343-1.425-4.712-3.794-.106-.742-.722-1.28-1.465-1.28h-17.38c-.742 0-1.358.538-1.464 1.273-.37 2.367-2.479 4.067-4.706 3.8-.89-.103-1.63.616-1.63 1.497l-.01 9.21c0 9.8 5.198 16.68 15.911 21.041zm-14.901-30.251c0-.287.224-.534.51-.504 2.747.331 5.362-1.745 5.815-4.645.035-.244.234-.421.475-.421h17.38c.24 0 .439.177.476.427.453 2.904 3.073 4.989 5.824 4.639.273-.032.51.226.51.504v9.21c0 9.428-5.013 16.005-15.325 20.106-.123.049-.277.047-.406.001-10.417-4.241-15.269-10.63-15.269-20.106z"/><path d="m58 11.5h-8v1h8c.827 0 1.5.673 1.5 1.5v32c0 .827-.673 1.5-1.5 1.5-10.748 0-41.545 0-52 0-.827 0-1.5-.673-1.5-1.5v-32c0-.827.673-1.5 1.5-1.5h8.01v-1h-8.01c-1.379 0-2.5 1.122-2.5 2.5v32c0 1.378 1.121 2.5 2.5 2.5h20.74l-1.164 7h-3.576c-1.379 0-2.5 1.122-2.5 2.5v1c0 .827.673 1.5 1.5 1.5h22c.827 0 1.5-.673 1.5-1.5v-1c0-1.378-1.121-2.5-2.5-2.5h-3.576l-1.164-7h20.74c1.379 0 2.5-1.122 2.5-2.5v-32c0-1.378-1.121-2.5-2.5-2.5zm-14.5 46.5v1c0 .276-.225.5-.5.5h-22c-.275 0-.5-.224-.5-.5v-1c0-.827.673-1.5 1.5-1.5h20c.827 0 1.5.673 1.5 1.5zm-6.09-2.5h-10.82l1.164-7h8.492z"/><path d="m57.5 15v26c0 .276-.225.5-.5.5h-50c-.275 0-.5-.224-.5-.5v-26c0-.276.225-.5.5-.5h7.01v-1h-7.01c-.827 0-1.5.673-1.5 1.5v26c0 .827.673 1.5 1.5 1.5h50c.827 0 1.5-.673 1.5-1.5v-26c0-.827-.673-1.5-1.5-1.5h-7v1h7c.275 0 .5.224.5.5z"/></g></g></svg>