<?xml version="1.0" encoding="iso-8859-1"?>
<!-- Generator: Adobe Illustrator 21.0.0, SVG Export Plug-In . SVG Version: 6.00 Build 0)  -->
<svg version="1.1" id="Capa_1" xmlns="http://www.w3.org/2000/svg" xmlns:xlink="http://www.w3.org/1999/xlink" x="0px" y="0px"
	 viewBox="0 0 512 512" style="enable-background:new 0 0 512 512;" xml:space="preserve">
<g>
	<g>
		<g>
			<path d="M469.333,29.867H42.667C19.114,29.896,0.028,48.982,0,72.534v307.2c0.028,23.552,19.114,42.638,42.667,42.667h273.067
				v51.2c0.001,3.075,1.655,5.912,4.332,7.426c2.676,1.514,5.96,1.471,8.596-0.113l38.272-22.963l38.272,22.963
				c2.636,1.584,5.92,1.627,8.596,0.113c2.676-1.514,4.331-4.351,4.332-7.426v-51.2h51.2c23.552-0.028,42.638-19.114,42.667-42.667
				v-307.2C511.972,48.982,492.886,29.896,469.333,29.867z M401.067,458.531l-29.739-17.843c-0.354-0.158-0.719-0.29-1.092-0.393
				c-0.546-0.26-1.118-0.46-1.707-0.597c-0.539-0.084-1.085-0.112-1.63-0.085c-1.144-0.092-2.291,0.148-3.302,0.691
				c-0.367,0.102-0.726,0.231-1.075,0.384L332.8,458.531v-82.492c2.775,0.044,5.539-0.362,8.183-1.203l23.322-7.543
				c1.708-0.553,3.548-0.553,5.256,0l23.33,7.552c2.57,0.83,5.253,1.257,7.953,1.263h0.222V458.531z M408.414,354.399
				c-1.897,3.75-6.242,5.56-10.24,4.267l-23.33-7.552c-5.121-1.673-10.641-1.673-15.761,0l-23.322,7.543
				c-4,1.324-8.364-0.494-10.24-4.267l-11.162-21.845c-2.444-4.799-6.345-8.701-11.145-11.145l-21.828-11.153
				c-3.75-1.897-5.56-6.242-4.267-10.24l7.552-23.33c1.676-5.12,1.679-10.64,0.009-15.761l-7.543-23.322
				c-1.316-3.999,0.5-8.359,4.267-10.24l21.845-11.162c4.799-2.444,8.701-6.345,11.145-11.145l11.153-21.828
				c1.897-3.75,6.242-5.56,10.24-4.267l23.33,7.552c5.118,1.673,10.635,1.673,15.753,0l23.322-7.543
				c4-1.324,8.364,0.494,10.24,4.267l11.162,21.845c2.444,4.799,6.345,8.701,11.145,11.145l21.828,11.153
				c3.75,1.897,5.56,6.242,4.267,10.24l-7.552,23.33c-1.673,5.121-1.673,10.641,0,15.761l7.543,23.322
				c1.316,3.999-0.5,8.359-4.267,10.24l-21.845,11.162c-4.799,2.444-8.701,6.345-11.145,11.145L408.414,354.399z M494.933,379.734
				c0,14.138-11.461,25.6-25.6,25.6h-51.2v-36.087c2.214-2.037,4.053-4.445,5.436-7.117l11.145-21.82
				c0.818-1.6,2.116-2.904,3.712-3.729l21.845-11.145c11.243-5.695,16.639-18.749,12.698-30.72l-7.543-23.322
				c-0.553-1.709-0.553-3.548,0-5.257l7.552-23.33c3.914-11.962-1.486-24.991-12.715-30.677l-21.82-11.11
				c-1.6-0.818-2.904-2.116-3.729-3.712l-11.145-21.837c-5.7-11.238-18.747-16.635-30.72-12.706l-23.322,7.544
				c-1.708,0.553-3.548,0.553-5.257,0l-23.33-7.552c-11.962-3.907-24.986,1.491-30.677,12.715l-11.11,21.82
				c-0.818,1.6-2.116,2.904-3.712,3.729l-21.837,11.145c-11.249,5.689-16.65,18.747-12.706,30.72l7.543,23.322
				c0.553,1.708,0.553,3.548,0,5.257l-7.552,23.33c-3.914,11.962,1.486,24.991,12.715,30.677l21.82,11.145
				c1.6,0.818,2.904,2.116,3.729,3.712l11.145,21.845c1.377,2.69,3.217,5.116,5.436,7.168v35.994H42.667
				c-14.138,0-25.6-11.461-25.6-25.6v-307.2c0-14.138,11.462-25.6,25.6-25.6h426.667c14.138,0,25.6,11.461,25.6,25.6V379.734z"/>
			<path d="M366.933,200.534c-37.703,0-68.267,30.564-68.267,68.267c0.042,37.685,30.582,68.224,68.267,68.267
				c37.703,0,68.267-30.564,68.267-68.267S404.636,200.534,366.933,200.534z M366.933,320.001c-28.277,0-51.2-22.923-51.2-51.2
				c0.028-28.265,22.935-51.172,51.2-51.2c28.277,0,51.2,22.923,51.2,51.2S395.21,320.001,366.933,320.001z"/>
			<path d="M68.267,166.401c-9.426,0-17.067-7.641-17.067-17.067c0-4.713-3.82-8.533-8.533-8.533s-8.533,3.82-8.533,8.533
				c0,18.851,15.282,34.133,34.133,34.133s34.133-15.282,34.133-34.133s-15.282-34.133-34.133-34.133
				c-6.905,0.002-13.132-4.158-15.773-10.538c-2.642-6.38-1.178-13.724,3.707-18.604c6.758-6.442,17.383-6.442,24.141,0
				c3.208,3.198,5.005,7.545,4.992,12.075c0,4.713,3.821,8.533,8.533,8.533c4.713,0,8.533-3.821,8.533-8.533
				c0-18.851-15.282-34.133-34.133-34.133S34.133,79.283,34.133,98.134s15.282,34.133,34.133,34.133
				c9.426,0,17.067,7.641,17.067,17.067S77.692,166.401,68.267,166.401z"/>
			<path d="M153.6,166.401c-9.426,0-17.067-7.641-17.067-17.067c0-4.713-3.82-8.533-8.533-8.533s-8.533,3.82-8.533,8.533
				c0,18.851,15.282,34.133,34.133,34.133s34.133-15.282,34.133-34.133s-15.282-34.133-34.133-34.133
				c-6.905,0.002-13.132-4.158-15.773-10.538c-2.642-6.38-1.178-13.724,3.707-18.604c6.758-6.442,17.383-6.442,24.141,0
				c3.208,3.198,5.005,7.545,4.992,12.075c0,4.713,3.82,8.533,8.533,8.533s8.533-3.821,8.533-8.533
				c0-18.851-15.282-34.133-34.133-34.133s-34.133,15.282-34.133,34.133s15.282,34.133,34.133,34.133
				c9.426,0,17.067,7.641,17.067,17.067S163.026,166.401,153.6,166.401z"/>
			<path d="M264.533,166.401h-42.667V72.534c0-4.713-3.821-8.533-8.533-8.533c-4.713,0-8.533,3.82-8.533,8.533v93.867
				c0,9.426,7.641,17.067,17.067,17.067h42.667c4.713,0,8.533-3.82,8.533-8.533S269.246,166.401,264.533,166.401z"/>
			<path d="M42.667,217.601h25.6c4.713,0,8.533-3.82,8.533-8.533s-3.82-8.533-8.533-8.533h-25.6c-4.713,0-8.533,3.82-8.533,8.533
				S37.954,217.601,42.667,217.601z"/>
			<path d="M230.4,200.534h-128c-4.713,0-8.533,3.82-8.533,8.533s3.82,8.533,8.533,8.533h128c4.713,0,8.533-3.82,8.533-8.533
				S235.113,200.534,230.4,200.534z"/>
			<path d="M230.4,243.201h-25.6c-4.713,0-8.533,3.82-8.533,8.533s3.82,8.533,8.533,8.533h25.6c4.713,0,8.533-3.82,8.533-8.533
				S235.113,243.201,230.4,243.201z"/>
			<path d="M42.667,260.267h128c4.713,0,8.533-3.82,8.533-8.533s-3.82-8.533-8.533-8.533h-128c-4.713,0-8.533,3.82-8.533,8.533
				S37.954,260.267,42.667,260.267z"/>
			<path d="M230.4,285.867H42.667c-4.713,0-8.533,3.821-8.533,8.533s3.82,8.533,8.533,8.533H230.4c4.713,0,8.533-3.82,8.533-8.533
				S235.113,285.867,230.4,285.867z"/>
			<path d="M209.067,328.534H64c-16.495,0-29.867,13.372-29.867,29.867c0,16.495,13.372,29.867,29.867,29.867h145.067
				c16.495,0,29.867-13.372,29.867-29.867C238.933,341.906,225.562,328.534,209.067,328.534z M209.067,371.201H64
				c-7.069,0-12.8-5.731-12.8-12.8c0-7.069,5.731-12.8,12.8-12.8h145.067c7.069,0,12.8,5.731,12.8,12.8
				C221.867,365.47,216.136,371.201,209.067,371.201z"/>
		</g>
	</g>
</g>
<g>
</g>
<g>
</g>
<g>
</g>
<g>
</g>
<g>
</g>
<g>
</g>
<g>
</g>
<g>
</g>
<g>
</g>
<g>
</g>
<g>
</g>
<g>
</g>
<g>
</g>
<g>
</g>
<g>
</g>
</svg>
