<svg id="Layer_5" enable-background="new 0 0 64 64" height="512" viewBox="0 0 64 64" width="512" xmlns="http://www.w3.org/2000/svg"><g><path d="m12 17c-2.206 0-4 1.794-4 4 0 1.858 1.28 3.411 3 3.858v2.142h2v-2.142c1.72-.447 3-2 3-3.858 0-2.206-1.794-4-4-4zm0 6c-1.103 0-2-.897-2-2s.897-2 2-2 2 .897 2 2-.897 2-2 2z"/><path d="m58 1h-37c-1.537 0-2.95.701-3.884 1.856-1.388-1.157-3.172-1.856-5.116-1.856-4.411 0-8 3.589-8 8v4.184c-1.161.414-2 1.514-2 2.816v12c0 1.654 1.346 3 3 3h4v7h-4c-2.206 0-4 1.794-4 4v8.784c0 1.631.443 3.232 1.283 4.63l1.205 2.009c-.886.523-1.488 1.476-1.488 2.577v3h24v-3c0-1.101-.602-2.054-1.488-2.576l1.205-2.009c.839-1.398 1.283-3 1.283-4.63v-5.785-3-3c0-1.654-1.346-3-3-3-.395 0-.77.081-1.116.22-.345-1.275-1.501-2.22-2.884-2.22-.537 0-1.034.153-1.471.401-.532-.839-1.464-1.401-2.529-1.401-.352 0-.686.072-1 .184v-2.184h4c1.302 0 2.402-.839 2.816-2h36.184c2.757 0 5-2.243 5-5v-18c0-2.757-2.243-5-5-5zm-46 2c3.309 0 6 2.691 6 6v4h-2v-4c0-2.206-1.794-4-4-4s-4 1.794-4 4v4h-2v-4c0-3.309 2.691-6 6-6zm2 10h-4v-4c0-1.103.897-2 2-2s2 .897 2 2zm10 48h-20v-1c0-.551.449-1 1-1h18c.551 0 1 .449 1 1zm.002-6.615-1.568 2.615h-16.868l-1.569-2.615c-.652-1.087-.997-2.332-.997-3.601v-8.784c0-1.103.897-2 2-2h9c0 1.654-1.346 3-3 3h-5v2.414l1.536 1.536c.944.944 1.464 2.2 1.464 3.535v2.515h2v-2.515c0-1.87-.728-3.627-2.05-4.95l-.536-.535h2.586c1.063 0 2.045-.339 2.856-.907.553.564 1.32.907 2.144.907.537 0 1.034-.153 1.471-.401.532.839 1.464 1.401 2.529 1.401.395 0 .77-.081 1.116-.22.345 1.275 1.501 2.22 2.884 2.22.352 0 .686-.072 1-.184v2.968c0 1.269-.345 2.514-.998 3.601zm-.002-16.385c.551 0 1 .449 1 1v3 3c0 .551-.449 1-1 1s-1-.449-1-1v-2-4c0-.551.449-1 1-1zm-4-2c.551 0 1 .449 1 1v2 4c0 .551-.449 1-1 1s-1-.449-1-1v-1-5c0-.551.449-1 1-1zm-4-1c.551 0 1 .449 1 1v1 5c0 .551-.449 1-1 1-.305 0-.579-.147-.765-.372.477-.766.765-1.661.765-2.628 0-.737-.405-1.375-1-1.722v-2.278c0-.551.449-1 1-1zm-3 1v2h-2v-7h2zm7-8c0 .551-.449 1-1 1h-14c-.551 0-1-.449-1-1v-12c0-.551.449-1 1-1h14c.551 0 1 .449 1 1zm38-1h-36v-11c0-1.302-.839-2.402-2-2.816v-4.184c0-1.734-.56-3.336-1.501-4.648.548-.833 1.478-1.352 2.501-1.352h37c1.654 0 3 1.346 3 3v4h-3c-1.13 0-2.162.391-3 1.026v-4.026c0-1.103-.897-2-2-2h-27c-1.103 0-2 .897-2 2v16c0 1.103.897 2 2 2h27c1.103 0 2-.897 2-2v-4.026c.838.635 1.87 1.026 3 1.026h3v4c0 1.654-1.346 3-3 3zm-5-4h-27v-16h27zm8-11v6h-3c-1.654 0-3-1.346-3-3s1.346-3 3-3z"/><circle cx="58" cy="15" r="1"/><path d="m48 34c0-1.654-1.346-3-3-3s-3 1.346-3 3 1.346 3 3 3 3-1.346 3-3zm-4 0c0-.551.449-1 1-1s1 .449 1 1-.449 1-1 1-1-.449-1-1z"/><path d="m40.05 38.95c1.365 1.365 3.157 2.047 4.95 2.047s3.585-.682 4.95-2.047l-1.414-1.414c-1.949 1.949-5.122 1.949-7.071 0z"/><path d="m37.222 41.778c2.145 2.145 4.961 3.216 7.778 3.216s5.634-1.072 7.778-3.216l-1.414-1.414c-3.51 3.509-9.219 3.509-12.729 0z"/><path d="m35.808 43.192-1.414 1.414c2.924 2.924 6.765 4.386 10.606 4.386s7.682-1.462 10.606-4.386l-1.414-1.414c-5.068 5.069-13.316 5.069-18.384 0z"/></g></svg>