<svg id="Layer_1" data-name="Layer 1" xmlns="http://www.w3.org/2000/svg" viewBox="0 0 595.28 841.89"><defs><style>.cls-1,.cls-2,.cls-3{fill:none;stroke-miterlimit:10;}.cls-1{stroke:#2470b4;}.cls-1,.cls-2{stroke-width:10px;}.cls-2{stroke:#ee3025;}.cls-3{stroke:#f8be40;stroke-width:6px;}</style></defs><path class="cls-1" d="M72.55,692.68c-11-3.45-19.92-9.53-22.69-21.4-1.12-4.82-1.61-10.48-.17-15.07,6.52-20.84,12.2-42.11,23.81-60.94,25.1-40.71,61.62-64.12,108.8-71.24,4.3-.65,7.15.76,10.21,3.74,19.66,19.19,42.71,30.48,70.84,29.05,19.94-1,37.21-8.93,52.64-21.22,2.9-2.31,6-4.57,8.3-7.4,3.36-4.1,7.21-4.82,12.15-4C396.07,534.7,436.58,568,457.2,625.09c3.29,9.12,6.36,18.33,9.34,27.55,5.69,17.65-1.73,32.66-19.05,38.9a20.62,20.62,0,0,0-2.31,1.14Z"/><path class="cls-1" d="M164.11,385.21c.42-24.56,5.77-48.95,21.28-70.52,35-48.56,110.91-48.75,146.13-.22,15,20.63,21.23,44,21.25,69.12,0,43.8-12.15,83.56-40.33,117.68-9.71,11.76-21.58,21-36.29,25.68-20.73,6.65-39.4,1.59-56.18-11.31-21.92-16.84-34.91-39.93-44.28-65.3C168.1,429.8,164.52,408.45,164.11,385.21Z"/><path class="cls-2" d="M282.91,253.27c-8.05-.69-15.23-1.61-22.43-1.83-5.81-.18-12.46,2.31-17.25.22S236,243,232,238.88c-20.07-20.72-44.43-28.09-72.06-20s-45,27-50.23,55.38c-5.39,29.23,4.77,53.13,28.39,71.18,2.23,1.71,3,3.1,2.53,6.06-1.73,11.3-3,22.68-4.43,34.27.2-.06-.25.23-.45.11-5.34-3.27-8.92-.77-12.4,3.35a113.66,113.66,0,0,1-9.73,9.78c-6,5.52-12.1,5.64-17.84.05q-13.87-13.5-27.39-27.39c-5.68-5.85-5.63-11.78,0-17.81q5.94-6.42,12.38-12.38c2.43-2.24,3.24-4.29,1.37-7.28A38.44,38.44,0,0,1,79.21,328c-3.33-8.43-3.3-8.41-12.55-8.46-4.95,0-9.92.08-14.83-.39-6-.58-9.9-4.45-10-10.37-.24-14.14-.27-28.3,0-42.44.13-6.51,5-10.56,12.08-10.8,6-.2,12-.2,18,0,3.09.12,5-.64,5.74-3.87a35,35,0,0,1,1.94-5.48c4-9.71,4-9.7-3.31-17-3-3-6.14-5.89-8.89-9.11-4.33-5-4.65-10.51-.08-15.33Q81.77,189.5,97,175.05c5.12-4.85,11.1-4.23,16.56.91,4.5,4.25,8.68,8.84,13.25,13,1.12,1,3.47,1.84,4.76,1.37,5.44-2,10.7-4.45,16.43-6.93,0-6.66,0-13.54,0-20.42.06-9.41,4.27-13.72,13.52-13.75q18.58-.06,37.16,0c8.75,0,12.94,4.19,13.12,13,.12,5.83.19,11.68,0,17.51-.11,2.95.85,4.47,3.66,5.42A81,81,0,0,1,227.12,190c2.76,1.46,4.36.9,6.33-1.21,3.86-4.14,7.93-8.09,12-12,6.78-6.53,12.72-6.62,19.36-.1q13.08,12.81,25.9,25.89c6.62,6.73,6.58,12.56,0,19.38-3.68,3.82-7.34,7.68-11.28,11.23-2.74,2.47-3.62,4.61-1.59,8.12S281,248.71,282.91,253.27Z"/><path class="cls-2" d="M378.25,415.67c.46-6.41.88-12.38,1.32-18.34a157.78,157.78,0,0,0-4.38-51.5c-1-3.91.52-5.67,4-6.41a25.12,25.12,0,0,1,5.27-.51c13.26,0,26.53-.13,39.79,0,10,.1,14.5,4.74,14.56,14.69,0,6.18.15,12.38-.06,18.56-.09,2.87.62,4.44,3.56,5.4A97,97,0,0,1,455.46,383c2.72,1.35,4.42.95,6.43-1.19,4.36-4.63,8.9-9.11,13.49-13.52,6.9-6.61,13.57-6.63,20.42.08q14.38,14.13,28.5,28.52c6.57,6.72,6.5,13.26,0,20-4.66,4.83-9.6,9.41-14.14,14.36a5.92,5.92,0,0,0-.9,4.87c.89,3,2.65,5.75,3.79,8.71,3.46,8.9,3.41,8.91,12.75,8.92,5,0,9.91-.11,14.86.05,7.9.25,12.71,4.75,12.81,12.51q.31,21.75,0,43.5c-.11,8-5.25,12.67-13.72,12.88-6.72.17-13.45-.16-20.15.19a6.31,6.31,0,0,0-4.41,3.13c-2.58,5.38-4.66,11-7.22,17.25,5,4.89,10.36,10,15.58,15.26,7.51,7.57,7.5,14,0,21.54q-13.64,13.76-27.42,27.36a22.36,22.36,0,0,1-6.41,4.53c-5.35,2.33-8.14,1.08-10.23-4.35a172.22,172.22,0,0,0-30.6-51.09c-1-1.17-1.85-2.47-2.77-3.72,39.12-27.48,40.91-72.32,26.53-99.47-8.95-16.92-22.17-29.17-39.87-36.37C417.19,410.59,408.57,410.55,378.25,415.67Z"/><path class="cls-3" d="M349.61,498.39c5.9-13.38,11.85-26.51,17.46-39.79a100.34,100.34,0,0,0,4.78-15.1,10.6,10.6,0,0,1,5.87-7.45c34.85-18.47,78.89,3.8,84.43,42.95,3.52,24.88-6,44.06-26.35,58.27-2.35,1.64-4.08,1.86-6.47-.17a171.4,171.4,0,0,0-77.62-37.88A9.11,9.11,0,0,1,349.61,498.39Z"/><path class="cls-3" d="M223.23,256.4c-37.5,11.75-62,36.79-76.17,72.4-14.78-9.15-23.3-30.75-20.08-50.11a53.39,53.39,0,0,1,96.25-22.29Z"/></svg>