<svg id="Layer_1" data-name="Layer 1" xmlns="http://www.w3.org/2000/svg" viewBox="0 0 712 712"><defs><style>.cls-1{fill:#236fb4;}.cls-2{fill:#f9bf42;}</style></defs><path class="cls-1" d="M612,498.86v37c-3.54,5.67-3.65,11.33,0,17v38c-5.84,16.36-17.81,21.23-34.58,21.19q-230.1-.56-460.21-.06c-11,0-17.23-5.89-17.21-17.27q.36-238.85,0-477.7c0-8.14,2.54-13.83,10.09-17H386.06c3.56,2.66,7.5,4.93,10.62,8,33.43,33.24,66.66,66.69,100.15,99.88A23.55,23.55,0,0,1,504.34,226c-.18,63.47-.1,127-.1,190.42v6.66h6.19c24.49,0,49-.07,73.47,0,11.91,0,20.68,5.43,25.89,16.26.86,1.78,1.48,3.68,2.21,5.52v37C608.75,487.53,608,493.2,612,498.86ZM369.32,127.28H127.46V584.54H369.33c0-7.79-.06-15.26,0-22.73,0-2.81-.21-5.88.79-8.39,2.43-6.11,1-11.77.19-18-1.4-10.48-2-21.43-.55-31.83a82.14,82.14,0,0,0-.12-26.37c-1.4-8.09-.38-16.61-.33-24.94.1-17.94,11.49-29.23,29.49-29.24q36.23,0,72.46,0h5.44V234.83H386.89c-12.65,0-17.56-4.88-17.56-17.48q0-42,0-84ZM396.94,476.6H584.83V450.72H396.94Zm0,53.95H584.69V504.37H397Zm0,54H584.61V558.29H396.94ZM397,207.28h59.12L397,148.17Z"/><path class="cls-2" d="M315.87,423.43c0,4.65.11,8.46,0,12.26-.3,8.57-5.68,14.32-13.39,14.45s-13.32-5.34-13.79-13.95c-.21-4,0-7.95,0-12.75-2.37,0-4.3,0-6.22,0-7.65-.14-15.33.09-22.94-.57-6.45-.57-11-6.29-11.27-12.67a13.31,13.31,0,0,1,10-13.31,30.56,30.56,0,0,1,7.4-.78c19.15-.06,38.31,0,57.46,0h5.74V369.57H315.22c-16.82,0-33.64,0-50.46,0-11.37,0-16.56-5.2-16.57-16.4q0-24.24,0-48.46c0-11,5.08-16.16,16.15-16.32,7.8-.11,15.6,0,24.5,0,0-5.14-.37-9.92.09-14.62.81-8.41,8.14-13.46,16.39-11.76,6.11,1.26,10.27,6.71,10.52,14,.14,3.95,0,7.9,0,12.38,8.72,0,16.84-.14,25,0,9,.2,14.74,5.11,15.19,12.6.52,8.51-5.62,14.63-15.15,14.69-18.48.11-37,0-55.45,0H275.6v26.19c1.82.11,3.72.31,5.62.31,19.32,0,38.64,0,58,0,12.1,0,16.87,4.85,16.87,17q0,24.22,0,48.46c0,10.25-4.87,15.43-15.1,15.71C332.82,423.61,324.69,423.43,315.87,423.43Z"/></svg>