<svg id="Layer_1" data-name="Layer 1" xmlns="http://www.w3.org/2000/svg" viewBox="0 0 595.28 841.89"><defs><style>.cls-1{fill:#236fb4;}.cls-2{fill:#e83a3c;}.cls-3{fill:#f9bf42;}</style></defs><path class="cls-1" d="M553.64,607c-.68,1.66-1.38,3.31-2,5a29.63,29.63,0,0,1-27.44,19q-226.44,0-452.88,0a29.55,29.55,0,0,1-29.61-29.52q-.06-180.48,0-361A29.51,29.51,0,0,1,71.28,211q226.2-.06,452.39,0a29.61,29.61,0,0,1,28.27,19.94c.5,1.37,1.13,2.69,1.7,4Zm-20-305.73h-472V596.52c0,11.5,3,14.48,14.54,14.48H519.08c11.56,0,14.57-3,14.57-14.46q0-144.75,0-289.5Zm-472-20.66h472V245.32c0-11.46-3-14.43-14.59-14.43H76.17c-1.5,0-3-.08-4.49,0-5.75.47-9.86,4.2-10,9.91C61.49,254,61.64,267.12,61.64,280.59Z"/><path class="cls-2" d="M483.4,345.89c11.31.5,21.55,6.42,27.2,18.8s4.06,24.56-5.08,34.87c-7.06,8-14.9,15.26-22.44,22.8Q422.3,483.19,361.39,543.89a32.92,32.92,0,0,1-11.61,7.18c-13.41,4.89-27,9.15-40.56,13.75-4.55,1.54-8.81,1.9-12.53-1.77s-3.51-7.91-2-12.49c4.8-14.16,9.33-28.4,14.3-42.5a24,24,0,0,1,5.49-8.69Q385.61,428,456.88,356.8C463.66,350,471.47,345.9,483.4,345.89Zm-42.9,56.94L347.39,496l16,16.05,93.11-93.13Zm31.32,1.48c6.23-6,12.8-11.85,18.74-18.27,4.6-5,3.88-12.1-.83-16.61s-11.37-4.9-16.24-.4c-6.42,5.94-12.31,12.45-18.2,18.47ZM320.64,539c9.73-3.62,20.4-4,28.31-10.64l-17.54-17.76C324.5,518.49,324.22,529.28,320.64,539Z"/><path class="cls-3" d="M233.34,365.92H93.43c-7.41,0-11.73-3.66-11.77-9.89a9.81,9.81,0,0,1,9.1-10c1-.09,2,0,3,0H373.58c6.88,0,11,2.86,11.94,8.15a9.9,9.9,0,0,1-9.77,11.78c-5.82.16-11.66,0-17.49,0Z"/><path class="cls-3" d="M225.56,445.93q-44.2,0-88.41,0c-5.58,0-9.6-3.29-10.41-8.16a9.88,9.88,0,0,1,6.39-11.15A15.38,15.38,0,0,1,138,426q88.17,0,176.33,0c6.94,0,11.22,3.84,11.25,9.9s-4.25,10-11.12,10Q270,446,225.56,445.93Z"/><path class="cls-3" d="M172.64,526q-40.2,0-80.42,0c-4.91,0-8.36-2.16-10-6.7-1.44-3.92-.74-7.87,2.58-10.42a13.61,13.61,0,0,1,7.67-2.74q80.16-.24,160.33-.1c6.53,0,10.75,3.94,10.82,9.82.07,6.1-4.21,10.1-11,10.11Q212.6,526,172.64,526Z"/><path class="cls-3" d="M157.49,566c-21.81,0-43.62,0-65.42,0-5.54,0-9.56-3.36-10.34-8.23a9.92,9.92,0,0,1,6.46-11.11,15.76,15.76,0,0,1,4.9-.58q64.42,0,128.84,0c7.35,0,11.68,3.74,11.67,10s-4.33,10-11.69,10Q189.69,566,157.49,566Z"/><path class="cls-3" d="M292.83,405.92q-25.21,0-50.42,0c-7.39,0-11.71-3.68-11.75-9.91s4.29-10,11.6-10q50.92,0,101.84,0c7.26,0,11.6,3.88,11.5,10.15-.09,6-4.37,9.78-11.35,9.79Q318.54,406,292.83,405.92Z"/><path class="cls-3" d="M136.38,386c14.31,0,28.62,0,42.93,0,6.95,0,11.23,3.8,11.29,9.85s-4.21,10.08-11,10.09q-43.43,0-86.85,0c-6.84,0-11.11-4-11-10.1S86,386,93,386C107.43,385.93,121.9,386,136.38,386Z"/><path class="cls-3" d="M135.8,485.94c-14.3,0-28.61,0-42.92,0-6.92,0-11.2-3.86-11.22-9.92s4.24-10,11.11-10q43.43,0,86.85,0c6.82,0,11.08,4,11,10.16-.1,5.87-4.32,9.75-10.87,9.77C165.09,486,150.45,485.94,135.8,485.94Z"/><path class="cls-3" d="M91.67,445.92a10,10,0,1,1,9.93-10.15A9.82,9.82,0,0,1,91.67,445.92Z"/><path class="cls-2" d="M448.61,255.92a10,10,0,1,1-10.08-10A9.83,9.83,0,0,1,448.61,255.92Z"/><path class="cls-2" d="M483.61,255.73a10,10,0,1,1-10.28-9.79A9.84,9.84,0,0,1,483.61,255.73Z"/><path class="cls-3" d="M518.61,255.78a10,10,0,1,1-10.23-9.84A9.85,9.85,0,0,1,518.61,255.78Z"/></svg>