<svg id="Layer_1" data-name="Layer 1" xmlns="http://www.w3.org/2000/svg" viewBox="0 0 595.28 841.89"><defs><style>.cls-1{fill:#236fb4;}.cls-2{fill:#f9bf42;}.cls-3{fill:#02994a;}</style></defs><path class="cls-1" d="M363.84,676.68V578.24H380c.06-7.3.94-13.79-2.46-20.42-9.09-17.72-17.45-35.8-26.29-53.64-5-10.12-5.67-21.13-7.1-32-1.48-11.24-2.68-22.52-4.31-33.74-1.36-9.37-7.68-16.32-12.29-24.13-2.14-3.62-4.4-7.63-4.91-11.67-1.68-13.23,8.5-23.64,21.95-23.23a53.24,53.24,0,0,1,50.95,42.49c2.32,10.9,4.4,21.85,7.7,33,.57-2.8,1.63-5.6,1.63-8.39.1-49.54.07-99.09.07-149.42h-5.58c-19.78,0-39.57.11-59.35-.09a12.45,12.45,0,0,0-9.87,4Q195.27,436.2,60.22,571.2a46.1,46.1,0,0,0-3.61,4.59L45,563c.39-.42,1.59-1.78,2.87-3.06Q185.61,422.1,323.31,284.27a11.38,11.38,0,0,1,8.95-3.75c23.22.17,46.44,0,69.67.16,3.14,0,4.77-.88,6.32-3.74,5.79-10.69,17.17-15.07,29-11.79,1.4.39,3.66.5,4.5-.32,11.3-11,22.41-22.26,33.91-33.78L446,201.88l94.28-23.61c-7.81,31.27-15.46,61.94-23.29,93.29l-28.14-29.91c-12.83,12.8-24.14,24-35.35,35.38-.62.63-.62,2.11-.52,3.16.42,4.41,1.4,8.81,1.44,13.21.15,21.68.07,43.36.07,65v6c9.38-2.64,17.47-1,24.56,4.76,17.46-12.33,34.65-4.29,40.75,11.46,5.2,0,10.64-.94,15.62.19,11,2.49,18.12,12.15,18.14,23.35q.09,55,0,109.94c0,10.76-3.52,20.61-9.43,29.54-2.94,4.43-5.85,9-9.51,12.82-5.88,6.09-6.79,13.07-5.26,21.4h15.74v98.81ZM438,420.75v-3.69q0-63,0-125.93c0-6.43-3.19-10.42-8.16-10.5s-8.27,3.94-8.37,10.3c0,1.2,0,2.41,0,3.61,0,47.48-.36,95,.22,142.44a71.36,71.36,0,0,1-10.2,38.67c-.75,1.27-2.3,2.82-3.55,2.89-6,.3-11.95.13-18,.13-1.9-9.32-3.71-18.05-5.47-26.78s-3.44-17.51-5.25-26.25c-3.5-16.88-18.44-29.66-34.39-29.52-5.51.05-7.22,2.89-4.46,7.52,1.14,1.91,2.4,3.76,3.7,5.58,5.62,7.9,10.64,16.16,12.14,25.89,1.72,11.2,2.58,22.54,4.42,33.71,1.6,9.76,2.7,19.93,6.42,28.93,6.8,16.47,15.06,32.37,23.32,48.19,4.57,8.77,7.56,17.54,6.36,27.5a21.93,21.93,0,0,0,.26,4.25H512.36c0-5.22.3-10.19-.07-15.11-.61-7.9,7.74-10.59,8.74-17.47a7.45,7.45,0,0,1,5.14-6.22c1.4-.41,2-1.45,2.65-2.39A42,42,0,0,0,537.11,511q.09-52.12,0-104.25c0-6.41-3.23-10.42-8.21-10.46s-8.25,4-8.32,10.35c-.05,4.74,0,9.47,0,14.07H504.1v-5.36c0-8.26,0-16.52,0-24.78,0-6.79-3.25-10.89-8.39-10.8s-8.11,4.15-8.16,11c0,2.58,0,5.16,0,7.74v22.1H471.07V392.45c0-8.38-2.62-12.51-8-12.7-5.61-.2-8.51,4.15-8.51,12.75,0,9.39,0,18.78,0,28.25Zm90.61,207.11h-148V660.3h148Zm0-33h-148v15.92h148ZM508.13,238.3c2.91-11.8,5.9-23.91,9.12-37l-36.9,9.22Z"/><path class="cls-2" d="M148.76,379.69c-59.39,0-107.19-48.15-107.12-107.84.07-59.1,48.18-106.92,107.54-106.89A107.2,107.2,0,0,1,256.31,272.78C256.23,331.89,208.11,379.72,148.76,379.69Zm91.07-107.55c-.12-49.88-41.32-90.87-91.16-90.69-49.68.18-90.49,41.11-90.54,90.79-.06,49.86,41.05,91,90.89,91S239.94,322,239.83,272.14Z"/><path class="cls-3" d="M320.94,676.93H257.89a1.11,1.11,0,0,1-1.11-1.11v-245a1.11,1.11,0,0,1,1.11-1.11h63.05a1.11,1.11,0,0,1,1.11,1.11v245A1.11,1.11,0,0,1,320.94,676.93ZM273.2,447.11V659a1.1,1.1,0,0,0,1.11,1.11h30.21a1.11,1.11,0,0,0,1.11-1.11V447.11a1.11,1.11,0,0,0-1.11-1.11H274.31A1.11,1.11,0,0,0,273.2,447.11Z"/><path class="cls-3" d="M223.1,496.9V675.62a1.11,1.11,0,0,1-1.11,1.11H158.63a1.11,1.11,0,0,1-1.11-1.11V496.9a1.1,1.1,0,0,1,1.11-1.11H222A1.1,1.1,0,0,1,223.1,496.9Zm-49,16.3V659.05a1.11,1.11,0,0,0,1.11,1.11h30.22a1.11,1.11,0,0,0,1.11-1.11V513.2a1.11,1.11,0,0,0-1.11-1.11H175.2A1.11,1.11,0,0,0,174.09,513.2Z"/><path class="cls-3" d="M63.8,581.36H123c.57,0,2.57.46,2.57,1v90.09a1,1,0,0,1-1,1H65.34a1,1,0,0,1-1-1L62.77,582.4A1,1,0,0,1,63.8,581.36Zm16,16.24V657a1,1,0,0,0,1,1h28.29a1,1,0,0,0,1-1V597.7a1.05,1.05,0,0,0-1-1c-.58,0-1.09-.09-1.59-.1H80.8A1,1,0,0,0,79.76,597.6Z"/><path class="cls-2" d="M182,330.11h-24.7v16.28H140.74c0-4.06-.19-8.12,0-12.16.22-3.48-.7-5.32-4.32-6.75-12.86-5.09-21.3-18.09-20-30.12h15.32c4.66,13.93,7.63,17.86,33.35,16,0-6.42.68-13-.18-19.28-1.09-8-7.64-13.46-15.94-13.38-17.58.17-34.11-15.13-33.1-35.25.51-10.08.09-20.21.09-30.71h24.52V198.35h16.64v16.93c15.27,5.36,23.85,15.52,25,31.94H166c-4.11-13.3-8.12-16.21-22.29-16.21H132.58c0,6.42-.47,12.43.11,18.33.81,8.38,7.47,14.11,16,14.72C170,265.58,182,278.49,182,300Z"/><path class="cls-2" d="M74.91,280.21V264.35H90.74v15.86Z"/><path class="cls-2" d="M223,280.32H207.18v-15.9H223Z"/></svg>