<svg id="Layer_1" data-name="Layer 1" xmlns="http://www.w3.org/2000/svg" viewBox="0 0 595.28 841.89"><defs><style>.cls-1{fill:#236fb4;}.cls-2{fill:#ee2e24;}</style></defs><path class="cls-1" d="M397.09,612.13c3.34,6.82,5.72,11.54,8,16.31,4.66,9.9,3.35,14.72-6.09,19.64q-22.8,11.89-45.92,23.21c-9,4.38-14.22,2.4-18.8-6.6-8-15.8-15.91-31.66-24.28-48.36-9.91,4.82-19.4,9.37-28.83,14-16.54,8.19-22.28,4.88-23.52-13.64a44.43,44.43,0,0,0-.95-4.59H246.32q-71.06,0-142.1,0c-39.3,0-62.55-23.16-62.56-62.2q0-159.43,0-318.87c0-39,23.35-62.36,62.45-62.37,128.78,0,257.57.5,386.34-.31,39.16-.25,63.52,29,63.18,63.23-1,106-.36,212-.39,318,0,39.25-23.11,62.47-62.22,62.54q-41.31.07-82.6,0ZM530.35,306.05H64.55v8.54q0,118.56,0,237.12c0,24.11,13.8,37.84,38.11,37.88,48.54.07,97.09-.15,145.63.19,7.67.06,10.14-1.76,10.06-9.78q-.6-64.83.08-129.66c.05-4.91,2.46-11.24,6-14.33,5.26-4.57,11-.35,15.88,3.34q67.7,51,135.46,102c10.82,8.16,9.92,16.82-2.26,23-10.48,5.32-21.05,10.47-31.32,15.57.7,8,4.75,9.9,11.5,9.84,32.56-.27,65.12-.08,97.68-.13,25.47,0,38.93-13.47,38.94-38.85q0-117.67,0-235.35Zm0-24V248.45c0-6.22,0-12.43,0-18.65-.07-24.74-13-38.11-37.5-38.13q-187.35-.09-374.7,0c-7.1,0-14.21-.14-21.3.16-15.53.64-30,11.23-31.21,26.43-1.69,21-.43,42.3-.43,63.86ZM389.41,550.69,281,469.45V604.86c6.18-3,11.19-5.32,16.16-7.76,22.2-10.91,22.63-10.75,33.87,11.54,6.32,12.55,12.72,25.07,19.35,38.12L380.36,632c-7.25-14.52-14-27.95-20.67-41.42-9.29-18.79-8.73-20.42,9.67-29.7C375.42,557.87,381.44,554.76,389.41,550.69Z"/><path class="cls-2" d="M235.7,363.15c1.74,1.26,5.89,2.92,7.85,6a136.37,136.37,0,0,1,10.38,20.41c2.54,6,1.95,12-4.54,15.17s-12.22,1.37-15.73-5.13A219.2,219.2,0,0,1,223.51,379C220.34,371.3,225.58,363.47,235.7,363.15Z"/><path class="cls-2" d="M377.88,421.25c-1.05,1.46-2.56,5.42-5.42,7.15a207.32,207.32,0,0,1-22.11,11.07c-6.29,2.84-11,.06-14.07-5.46-3.28-6-1.17-11.23,4.26-14.42a167.46,167.46,0,0,1,22.13-11.08C370.61,405.29,378,410.74,377.88,421.25Z"/><path class="cls-2" d="M188.55,521.41c-4.13-3.73-8.75-6-9.78-9.37s0-10,2.55-11.69a111.67,111.67,0,0,1,25.82-13c3.06-1.05,9.35,2.1,11.49,5.19,1.86,2.7,1.56,10.26-.55,11.76C209.13,510.62,199.15,515.47,188.55,521.41Z"/><path class="cls-2" d="M322,367.59c-4,10.85-6.82,20.19-11,28.87-2.53,5.24-8.86,7.58-13.53,3.8-3.41-2.75-6.43-8.89-5.87-13,1-7.72,4.58-15.16,7.49-22.56,2.24-5.69,7.23-8.67,12.73-6.42C315.77,359.89,318.59,364.34,322,367.59Z"/><path class="cls-2" d="M182.57,419.32c11,4.12,20.53,6.67,28.85,11.35,2.9,1.62,4.93,9.37,3.54,12.74s-8,6.93-11.6,6.35a80.1,80.1,0,0,1-24.91-8.42c-3.12-1.69-5.58-8.45-4.88-12.26S179.38,422.55,182.57,419.32Z"/><path class="cls-2" d="M223.36,225.62c7,.61,10.91,4.49,11.49,11.19.51,5.87-5.18,11.59-11.14,11.32-6.85-.31-11.16-4.14-11.24-11.09S216.61,226.43,223.36,225.62Z"/><path class="cls-2" d="M155.52,235c1.52-5.62,5.24-9.86,12.27-9.11s10.6,5.33,9.94,12.15-5.26,10.39-12.16,10C159.51,247.76,154.8,241.75,155.52,235Z"/><path class="cls-2" d="M109.4,248.19c-6.69-.73-11.82-6.7-10.73-12.44,1.25-6.57,5.31-10.44,12.37-9.94,6,.42,11,6.45,10,12.27C119.88,244.8,115.58,248.18,109.4,248.19Z"/></svg>