<?xml version="1.0" encoding="utf-8"?>
<!-- Generator: Adobe Illustrator 24.2.3, SVG Export Plug-In . SVG Version: 6.00 Build 0)  -->
<svg version="1.1" id="Layer_1" xmlns="http://www.w3.org/2000/svg" xmlns:xlink="http://www.w3.org/1999/xlink" x="0px" y="0px"
	 viewBox="0 0 712 712" style="enable-background:new 0 0 712 712;" xml:space="preserve">
<style type="text/css">
	.st0{fill:#236FB4;}
	.st1{fill:#F9BF42;}
	.st2{fill:#02994A;}
	.st3{fill:none;stroke:#2470B4;stroke-width:10;stroke-miterlimit:10;}
	.st4{fill:none;stroke:#EE3025;stroke-width:10;stroke-miterlimit:10;}
	.st5{fill:none;stroke:#F8BE40;stroke-width:6;stroke-miterlimit:10;}
	.st6{fill:none;stroke:#236FB4;stroke-width:10;stroke-miterlimit:10;}
	.st7{fill:none;stroke:#2470B4;stroke-width:8;stroke-miterlimit:10;}
	.st8{fill:none;stroke:#00994A;stroke-width:8;stroke-miterlimit:10;}
	.st9{fill:#F8BE40;}
	.st10{fill:none;stroke:#EE3025;stroke-width:7;stroke-miterlimit:10;}
	.st11{fill:#EE2E24;}
	.st12{fill:#E83A3C;}
	.st13{fill:none;stroke:#F8BE40;stroke-width:19;stroke-miterlimit:10;}
	.st14{fill:#FFFFFF;}
	.st15{fill:#069647;}
	.st16{fill:none;stroke:#069647;stroke-width:10;stroke-miterlimit:10;}
	.st17{fill:none;stroke:#069647;stroke-width:6;stroke-miterlimit:10;}
	.st18{fill:none;stroke:#069647;stroke-width:7;stroke-miterlimit:10;}
	.st19{fill:#1D5688;}
	.st20{fill:none;stroke:#069647;stroke-width:19;stroke-miterlimit:10;}
	.st21{fill:none;stroke:#069647;stroke-width:2;stroke-miterlimit:10;}
</style>
<path class="st0" d="M100,297.87c19.53-2.86,36.83,2.76,51.94,14.8c11.18,8.91,22.75,10.02,35.41,4.38
	c1.23-0.55,3.25-1.49,3.22-2.19c-0.05-1.39-0.94-3.14-2.06-4.05c-15.87-12.88-22.95-29.59-22.57-49.88
	c0.22-11.81-0.62-23.74,4.55-34.81c10.18-21.78,27.09-33.94,51.39-35.22c1.27-0.07,2.54-0.2,4.42-0.35
	c-2.57-6.22-5.09-11.95-7.25-17.82c-0.5-1.36-0.39-3.79,0.5-4.7c13.75-14.04,27.66-27.91,41.8-42.07c7.54,4.89,15,9.5,22.2,14.5
	c2.75,1.91,4.76,1.68,7.65,0.35c7.52-3.48,15.18-6.73,22.98-9.53c2.96-1.07,4.26-2.5,4.82-5.42c1.65-8.47,3.5-16.89,5.33-25.59
	c21.03,0,41.95,0,63.21,0c1.8,8.45,3.68,16.84,5.32,25.28c0.6,3.09,1.92,4.63,5.07,5.76c7.8,2.79,15.47,6.04,22.95,9.6
	c3.01,1.43,4.99,1.23,7.63-0.58c7.13-4.89,14.47-9.47,22.03-14.37c14.07,14.09,28.1,28.06,41.95,42.21
	c0.86,0.88,0.85,3.35,0.33,4.74c-2.2,5.85-4.76,11.56-7.41,17.89c14.93-0.41,27.61,3.89,38.45,13c14,11.77,21.45,26.95,21.92,45.24
	c0.22,8.45,0.12,17.01-0.94,25.38c-1.84,14.49-9.25,26.11-20.36,35.51c-1.48,1.25-2.25,3.33-3.35,5.03
	c1.64,0.87,3.19,2.06,4.94,2.57c12.74,3.69,25.51,7.29,38.31,10.75c1.22,0.33,2.87-0.15,4.08-0.75c4.76-2.37,9.72-4.51,14.07-7.51
	c8.89-6.12,18.64-6.14,29.35-5.05c0,1.54,0,3.14,0,4.74c0,36.98-0.07,73.96,0.11,110.93c0.02,3.81-1.35,5.47-4.54,7.06
	c-46.59,23.17-93.11,46.5-139.72,69.63c-3.27,1.62-4.54,3.52-4.8,7.08c-0.84,11.43-8.79,20.28-20.03,22.37
	c-3.07,0.57-4.47,1.62-5.01,4.88c-1.77,10.77-9.69,18.16-20.6,20.27c-1.42,0.27-3.3,2.03-3.65,3.43
	c-3.4,13.37-10.6,20.02-23.98,21.69c-1.04,3.44-1.76,7.02-3.18,10.31c-3.33,7.74-10.01,11.65-17.54,14.41c-4,0-8,0-12,0
	c-4.86-3.04-9.98-5.74-14.49-9.23c-2.8-2.17-4.61-3-8.19-1.32c-12.72,5.95-27.75,0.17-33.58-12.62c-1.36-2.98-1.98-6.29-2.99-9.64
	c-0.52-0.12-1.15-0.29-1.79-0.41c-12.19-2.43-19.81-9.39-22.2-21.86c-0.23-1.2-2.15-2.66-3.51-2.97
	c-11.61-2.59-18.82-9.96-21.31-21.7c-0.27-1.26-2.01-2.88-3.3-3.14c-11.68-2.35-19.33-10.08-21.55-21.96
	c-0.24-1.29-0.94-2.93-1.96-3.57c-7.44-4.66-15.01-9.11-21.92-13.26c-1.96,2.31-3.58,5.88-5.3,5.93
	c-6.22,0.17-12.78,0.17-18.67-1.59c-16.54-4.93-32.78-10.83-49.18-16.21c-8.96-2.94-18-5.61-27.01-8.4
	C100,412.49,100,355.18,100,297.87z M595.16,332.49c-2.41,1.22-4.02,2.01-5.61,2.84c-47.08,24.78-94.22,49.47-141.19,74.47
	c-5.88,3.13-11.67,4.6-18.08,3.73c-3.27-0.44-6.49-1.35-9.68-2.25c-14.06-3.98-28.11-8.02-42.15-12.05
	c-9.81-2.82-19.43-2.52-28.67,2.06c-14.74,7.3-29.46,14.64-44.13,22.09c-6.9,3.5-9.35,10.84-6.01,17.15
	c3.25,6.14,10.07,7.51,17.17,3.33c8.74-5.16,17.41-10.43,26.13-15.63c16.28-9.71,30.21-8.55,44.28,4.02
	c21.99,19.64,43.87,39.4,65.73,59.18c2.17,1.96,3.8,2.93,6.87,1.38c43.98-22.13,88.05-44.07,132.02-66.24
	c1.58-0.8,3.13-3.4,3.18-5.2c0.3-10.49,0.15-20.98,0.15-31.48C595.16,371.09,595.16,352.28,595.16,332.49z M386.02,481.48
	c14.74,12.29,29.03,24.25,43.38,36.13c5.28,4.37,11.7,4.26,15.17-0.02c3.38-4.16,2.4-9.17-2.84-13.89
	c-21.77-19.63-43.55-39.25-65.35-58.84c-8.34-7.5-15.09-8.11-24.86-2.3c-9.29,5.53-18.53,11.15-27.86,16.62
	c-8.51,4.99-17.46,5.43-26.27,1.2c-10.41-5-15.5-13.75-15.73-25.23c-0.23-11.52,4.65-20.38,14.84-25.78
	c11.89-6.3,24.02-12.14,36.04-18.2c1.42-0.71,2.79-1.52,4.82-2.64c-15.27-5.61-30.16-9.83-45.51-7.21
	c-20.94,3.57-41.61,8.68-62.43,12.97c-2.72,0.56-3.81,1.88-4.5,4.35c-4.37,15.67-8.84,31.32-13.29,46.97
	c-2.57,9.04-5.18,18.08-7.79,27.19c8.66,5.18,16.88,10.1,24.69,14.77c6.15-6,11.68-11.8,17.62-17.12
	c15.75-14.12,38.38-6.97,43.06,13.61c0.67,2.94,1.94,3.94,4.69,4.56c11.18,2.5,17.99,9.43,20.21,20.75c0.22,1.1,0.58,2.17,0.83,3.09
	c13.27,2.33,21.84,9.09,24.19,22.62c0.19,1.07,2.01,2.38,3.28,2.65c6.77,1.48,11.81,5.21,16.67,10.14
	c7.3,7.41,15.24,14.25,23.44,20.66c4.36,3.41,10.23,1.95,12.93-1.84c2.86-4.02,1.86-8.57-2.92-12.65
	c-4.56-3.89-9.22-7.66-13.83-11.5c-9.29-7.76-18.58-15.53-28.13-23.52c3.66-4.39,7.04-8.43,10.62-12.73
	c3.39,2.8,6.46,5.31,9.51,7.84c11.27,9.37,22.5,18.78,33.81,28.1c5.49,4.52,11.56,4.56,15.18,0.34c3.71-4.33,2.65-8.98-3.29-14.01
	c-5.46-4.63-10.99-9.18-16.48-13.78c-8.12-6.79-16.23-13.59-24.55-20.55C379.06,489.84,382.34,485.9,386.02,481.48z M274.2,366.86
	c1.09-0.08,2.23-0.04,3.31-0.27c16.56-3.45,33.01-3.45,49.38,1.24c16.25,4.65,32.52,9.2,48.8,13.74
	c17.44,4.85,34.89,9.65,52.35,14.42c1.9,0.52,3.9,0.7,5.86,0.95c3.11,0.39,4.56-0.79,4.5-4.16c-0.16-9.16,0.15-18.33-0.13-27.48
	c-0.4-12.92-7.4-21.28-20.11-24.5c-13.36-3.38-26.69-6.92-40.15-9.9c-4.72-1.04-6.24-3-5.84-7.68c0.42-4.96,0.3-10,0-14.98
	c-0.22-3.59,0.89-5.67,4.12-7.52c9.63-5.52,16.71-13.63,19.08-24.52c2.99-13.76,3.37-27.82-1.32-41.37
	c-5.72-16.53-22.08-27.79-38.58-27.22c-19.01,0.66-34.15,11.45-38.55,29.51c-2.24,9.19-1.88,19.12-1.94,28.72
	c-0.08,12.12,4.19,23.48,14.29,29.87c9.67,6.11,11.71,13.51,10.39,23.47c-0.19,1.47-0.24,3.03,0.01,4.49
	c0.8,4.64-1.46,6.23-5.72,7.2c-13.6,3.11-27.12,6.56-40.63,10.02C280.3,344.2,272.55,354.71,274.2,366.86z M545.34,339.71
	c-2.13-0.6-2.84-0.82-3.57-1c-11.11-2.8-22.2-5.68-33.35-8.31c-2.95-0.7-4.12-1.9-4.01-5.01c0.21-5.82,0.19-11.66-0.06-17.48
	c-0.14-3.37,0.85-5.37,3.93-7.13c11.33-6.5,18.55-16.39,20.25-29.3c1.1-8.35,0.79-16.98,0.26-25.43
	c-1.18-18.85-17.45-36.23-35.11-38.16c-21.33-2.32-39.5,9.15-44.82,29.52c-2.02,7.72-1.65,16.12-1.94,24.23
	c-0.62,17.5,6.64,30.78,21.74,39.87c1.55,0.93,2.83,3.5,2.96,5.39c0.39,5.64-0.21,11.34,0.25,16.97c0.36,4.46-1.44,6.06-5.49,6.91
	c-7.5,1.59-14.91,3.64-23.29,5.74c14.98,14.62,11.44,32.8,11.99,50.72C485.29,371.34,514.71,355.84,545.34,339.71z M232.14,376.58
	c6.29-1.35,12.25-2.91,18.3-3.83c4.91-0.74,6.34-2.75,6.82-7.94c0.64-6.92,3.21-13.72,5.51-20.39c0.97-2.82,3.36-5.16,5.37-8.11
	c-8.17-2.03-15.83-4.05-23.55-5.8c-3.21-0.73-4.76-1.95-4.53-5.64c0.37-5.8,0.27-11.66,0.01-17.47c-0.14-3.05,0.82-4.84,3.5-6.33
	c9.24-5.12,16.18-12.62,19.04-22.78c4.14-14.69,4.25-29.77-0.95-44.17c-6.56-18.17-23.53-27.93-43.52-26.28
	c-16.03,1.33-31.29,15.41-34.45,32.8c-1.24,6.8-0.65,13.92-0.9,20.9c-0.63,17.53,6.47,30.81,21.58,39.9
	c1.48,0.89,2.81,3.26,2.91,5.02c0.35,6.31-0.03,12.65,0.21,18.97c0.12,3.17-1.14,4.37-4.06,4.98c-4.54,0.94-9,2.26-14.47,3.68
	c10.4,6.07,19.73,11.49,29.04,16.96c4.58,2.69,10.87,4.46,13.19,8.48c2.31,4.01,0.61,10.33,0.68,15.63
	C231.87,375.47,231.98,375.79,232.14,376.58z M297.49,256.9c0.64-6.94,0.57-14.03,2.03-20.79c5.18-23.95,25.41-42.28,48.93-45.02
	c25.04-2.92,48.36,10.31,59.48,33.35c6.73,13.95,6.3,28.73,5.77,43.53c-0.33,9.27-2.62,18.3-7.94,25.92
	c-4.33,6.2-9.83,11.6-15,17.18c-2.59,2.8-2.61,4.93,0.68,5.79c9.48,2.47,18.98,4.85,28.53,7.05c1.84,0.42,3.98,0.14,5.86-0.3
	c8.08-1.91,16.14-3.92,24.15-6.08c1.75-0.47,3.3-1.66,4.94-2.52c-1.06-1.69-1.92-3.55-3.2-5.05c-4.09-4.79-9.25-8.9-12.36-14.24
	c-12.84-22.06-11.68-45.36-4.86-68.98c0.57-1.98,1.01-4.75,0.09-6.32c-15.17-25.93-37.81-41.91-67.49-45.13
	c-38.12-4.13-68.06,10.92-88.93,43.41c-2.05,3.2-2.22,5.83-0.95,9.61c6.75,20.18,7.15,40.49-0.82,60.48
	c-3.58,8.98-9.85,16.11-17.42,22.12c-2.96,2.35-2.9,5.1,0.09,5.89c9.8,2.56,19.64,4.96,29.51,7.26c1.53,0.36,3.32,0.04,4.89-0.35
	c8.54-2.11,17.07-4.28,25.57-6.58c1.39-0.38,3.72-1.65,3.64-2.27c-0.19-1.54-1.29-3.15-2.43-4.36c-3.06-3.28-6.63-6.11-9.44-9.57
	C300.41,288.1,297.06,273.13,297.49,256.9z M265.16,207.57c21.7-31.56,51.63-49.54,90.69-49.61c38.98-0.07,68.9,17.96,90.58,48.94
	c13.04-6.53,23.2-14.98,26.45-29.43c0.18-0.8,0.85-1.52,0.9-2.3c0.06-0.9,0.01-2.15-0.54-2.7c-8.29-8.35-16.67-16.61-25.17-25.03
	c-6.82,4.42-13.28,8.81-19.97,12.81c-1.48,0.88-4.27,1.2-5.63,0.39c-12.37-7.38-25.42-13.03-39.48-16.21
	c-2.69-0.61-3.68-1.97-4.13-4.66c-1.07-6.38-2.44-12.72-4.04-18.99c-0.39-1.53-2.08-3.86-3.22-3.9
	c-11.12-0.29-22.25-0.18-33.56-0.18c-1.73,7.87-3.65,15.27-4.89,22.78c-0.54,3.27-2.01,4.5-4.89,5.15
	c-13.57,3.07-26.25,8.38-38.02,15.77c-2.49,1.56-4.25,1.57-6.69-0.11c-6.42-4.41-13.05-8.52-19.99-13
	c-8.26,8.3-16.4,16.37-24.34,24.62c-0.84,0.88-1.09,3.1-0.62,4.33c2.17,5.74,4.61,11.39,7.12,17c0.57,1.26,1.63,2.48,2.78,3.27
	C253.82,200.17,259.25,203.67,265.16,207.57z M116.75,314.43c0,3.06,0,5.04,0,7.02c0,32.13,0,64.26,0,96.39
	c0,11.82-0.09,23.64,0.11,35.46c0.03,1.57,1.15,4.07,2.36,4.51c10.7,3.87,21.53,7.37,32.68,11.09
	c10.05-40.19,19.97-79.89,29.91-119.67c-19.53-11.37-38.59-22.55-57.78-33.53C122.22,314.66,119.66,314.9,116.75,314.43z
	 M184.47,479.68c4.9-17.06,9.68-33.61,14.42-50.18c5.25-18.35,10.53-36.69,15.6-55.08c0.53-1.93,0.51-5.38-0.62-6.17
	c-5.21-3.66-10.91-6.64-17.05-10.22c-9.81,39.22-19.41,77.59-29.07,116.21C173.59,476.13,178.88,477.86,184.47,479.68z
	 M263.57,479.83c-0.68,0.19-2.11,0.18-2.85,0.89c-6.54,6.3-13.36,12.4-19.22,19.3c-2.31,2.72-1.13,7.12,1.93,9.94
	c3.16,2.9,7.35,3.92,10.46,1.21c6.47-5.65,12.87-11.61,18.1-18.36C275.98,487.65,270.63,479.71,263.57,479.83z M299.13,513.16
	c-2.18-2.65-3.79-5.63-6.28-7.37c-3.33-2.33-7.18-1.43-10.1,1.28c-4.87,4.52-9.61,9.21-14.18,14.04c-4.15,4.4-4.26,9.67-0.66,13.36
	c3.71,3.8,9.25,3.63,13.72-0.65c4.44-4.25,8.86-8.56,13-13.1C296.35,518.85,297.3,516.31,299.13,513.16z M323.82,537.99
	c-2.15-2.64-3.79-5.91-6.43-7.58c-3.26-2.05-7.18-1.21-10.11,1.59c-4.57,4.36-9.05,8.84-13.44,13.38
	c-4.73,4.9-5.01,10.16-0.94,14.08c3.79,3.65,9.22,3.33,13.77-1.03c4.33-4.14,8.63-8.32,12.65-12.76
	C321.03,543.79,321.98,541.21,323.82,537.99z M324.84,586.79c0.64-0.21,2.41-0.29,3.38-1.22c6.11-5.84,12.37-11.59,17.88-17.97
	c2.65-3.07,1.85-7.33-1.09-10.47c-3.1-3.31-7.52-4.38-10.79-1.64c-6.45,5.42-12.68,11.32-17.92,17.89
	C312.01,578.76,317.07,586.83,324.84,586.79z M351.02,587.7c4.48,4.76,9.07,9.49,15.9,6.5c2.39-1.05,4.8-4.89,4.97-7.59
	c0.43-6.69-5.96-8.54-9.38-12.23C358.35,579.19,354.8,583.32,351.02,587.7z"/>
</svg>
