<svg id="Layer_1" data-name="Layer 1" xmlns="http://www.w3.org/2000/svg" viewBox="0 0 595.28 841.89"><defs><style>.cls-1{fill:#ee2e24;}.cls-2{fill:#02994a;}.cls-3{fill:#236fb4;}</style></defs><path class="cls-1" d="M312.48,165.15c3.15,1.95,6.81,3.33,7.11,7.95.33,4.89-2.28,8.83-7.13,9-10.13.32-20.27.28-30.41.12-4.17-.06-6.79-2.64-7.43-6.74-.68-4.33,1.27-7.38,5.25-9.14l2.63-1.17Z"/><path class="cls-1" d="M41.64,418c.79-.76,1.57-1.54,2.37-2.3,4.85-4.59,12.77-2.93,13.62,3.58a281.92,281.92,0,0,1,1.85,32.64c.06,4.15-3.62,6.42-7.51,6.56-4.12.14-7.4-2-8.29-6.4s-1.38-8.72-2-13.09Z"/><path class="cls-2" d="M343.52,478c-1.29-.12-1.94-.16-2.59-.26-6-.9-9.42,1-12.76,6.82-10.72,18.59-27.59,27.78-49.05,28.2-11.65.22-23.31,0-35,0h-6.43c1.74,6.11,3.13,11.51,4.85,16.82,1.22,3.77,2.41,7.43-1,10.64s-7.32,2.2-11.1.44c-15.39-7.13-28.93-16.36-37.07-32-.84-1.6-2.73-2.83-4.38-3.82-19.66-11.77-31.48-35.71-28.15-57.19,4.06-26.13,20.56-44.61,44.93-50.1,3.55-.79,7.32-.66,10.85-1.5,1.47-.35,3.42-1.93,3.76-3.3,8.5-33.58,35.38-54.7,70-54.75,26.15,0,52.3-.2,78.44,0,37.94.37,69.19,30.95,69.24,68.37C438.2,434,426,455,402.07,469a17.14,17.14,0,0,0-6,6.18c-8.37,15-21.51,24.68-36.16,32.65-3.5,1.9-7.21,3.4-10.85,5S342,515,338.89,512s-2.59-6.53-1-10.11C341.09,494.38,343.72,486.75,343.52,478Zm14.37,13.46c10.52-6.42,20.12-13.37,25.09-24.63a20.29,20.29,0,0,1,10.36-10.66,54.17,54.17,0,0,0,28.89-57.87c-4.39-23.3-24.61-43.2-47.85-44.19-29.25-1.26-58.58-1.08-87.86-.51-19.08.37-33.94,9.93-44.2,25.91-9.64,15-10.31,31.19-4.71,47.87,1.7,5.07-.1,9.32-4.24,10.61-4.41,1.37-8.32-.71-9.88-5.85a100,100,0,0,1-3.75-15.94c-.5-3.75-1.79-4.57-5.36-4.39-17.56.9-33.14,14.59-37.59,33.34-4.27,18,4.52,38.49,20.58,46.89A22.37,22.37,0,0,1,208,503.26c3.14,6.87,8.52,11.87,15.72,16.09-.3-3-.59-5.15-.71-7.29-.65-11.89,1.8-14.42,13.66-14.49,16-.09,32,.24,47.93-.58,12.88-.67,22.47-7.77,30.28-19.21-8.57,0-16.21.61-23.71-.16a211.51,211.51,0,0,1-27.33-4.8c-5-1.18-6.86-5.54-5.47-9.58,1.45-4.22,5.31-6.32,10.05-4.6,9.6,3.49,19.49,3.82,29.51,3.74,16.48-.12,33-.05,49.45,0,8.69,0,11.13,1.94,11.52,10.62C359.16,478.89,358.3,484.85,357.89,491.5Z"/><path class="cls-3" d="M446.89,573.52c-8.73,8.42-13.69,18.47-14.47,30.39-.42,6.47.15,13-.22,19.47-.28,4.69,1.5,6.07,6,6,27.31-.14,54.63-.07,81.94-.07,13.32,0,13.58,0,13.23-13.07-.21-7.93-1.18-15.86-2.13-23.75-.65-5.37,1.08-9,5.51-10.1,4.06-1,7.74,1.48,9.16,6.41,4,13.69,3.37,27.71,2.21,41.62-.72,8.52-9,14.2-19,14.23-22.15.08-44.3,0-66.45,0-8.83,0-17.66.09-26.48,0-11.38-.15-18.83-6.84-19.07-18.05-.3-14.24-1.48-28.65,4.27-42.35a66.57,66.57,0,0,1,15.5-22.39,8.29,8.29,0,0,0,2.26-6.28c-3.93-22.22,8.29-44,28.66-50.52,22.42-7.2,44.63,2.34,54.67,23.49,12.18,25.62-5.35,57.73-33.26,61.46-16.41,2.2-29.73-2.94-40.64-15.09A19.59,19.59,0,0,0,446.89,573.52Zm35.43,2a28.84,28.84,0,1,0-28.92-28.92A29.24,29.24,0,0,0,482.32,575.51Z"/><path class="cls-3" d="M76.32,573.42A44.69,44.69,0,0,0,61.72,603c-.66,7.27-.08,14.65-.24,22-.08,3.33,1.5,4.41,4.53,4.4q46.21,0,92.44,0c3.21,0,4.48-1.5,4.26-4.64-.75-10.74-1.27-21.5-2.23-32.23-.49-5.45,1.15-9,5.61-10.07,4.19-1,7.85,1.75,9.26,7,3.63,13.39,3.19,27.06,2.09,40.65-.72,8.79-8.84,14.64-19.1,14.67q-44,.09-87.93,0c-2,0-4,.07-6,0-10.46-.52-17.71-7.15-17.93-17.62a220.11,220.11,0,0,1,1.15-31.35c1.68-13.5,8.79-24.5,18.6-33.88a8.25,8.25,0,0,0,2.2-6.29c-3.79-22.1,8.2-43.7,28.25-50.34,22.35-7.41,44.47,1.86,54.89,23,12.61,25.56-5,58.06-33.13,61.86C101.35,592.39,87.88,586.44,76.32,573.42Zm35.5-55.58a29.1,29.1,0,0,0-29.2,28.59c-.21,15.61,12.92,28.87,28.81,29.08,15.71.21,29-12.88,29.16-28.68A29.07,29.07,0,0,0,111.82,517.84Z"/><path class="cls-3" d="M76.3,268.62c-9.23,9.1-14.15,19.51-14.7,31.84-.26,5.65-.08,11.32-.08,17,0,7.34,0,7.35,7.61,7.35H155c1.16,0,2.33,0,3.49,0,2.78-.06,4.38-1.23,4.18-4.27-.72-10.74-1.16-21.51-2.18-32.22-.56-5.91.9-9.48,5.59-10.49,4.49-1,7.83,1.73,9.36,7.41,3.5,13.08,3,26.4,2,39.66-.63,9-8.59,15.06-18.64,15.09-27.64.06-55.27,0-82.9,0-3.83,0-7.66.08-11.49,0-10.17-.29-17.63-6.89-17.94-17-.46-15.07-2.3-30.58,4.95-44.59,3.91-7.54,9.49-14.29,14.9-20.93,1.9-2.34,2.74-4.09,2.16-6.94a44.15,44.15,0,0,1,25.61-49.05c18.62-8.17,40-2.27,53,14.6,11.8,15.36,11.15,38.15-1.54,53.65A43.89,43.89,0,0,1,79,271.57C78.2,270.72,77.43,269.88,76.3,268.62ZM140.59,242a29.2,29.2,0,0,0-29-28.89c-15.76,0-29,13.19-29,28.87s13.36,29,29,29S140.57,257.63,140.59,242Z"/><path class="cls-3" d="M447.67,268.14c-9.46,8.88-14.31,18.84-15.21,30.5-.55,7.12,0,14.31-.22,21.47-.09,3.57,1.61,4.69,4.83,4.69q45.69,0,91.38,0c3.48,0,5.32-1.23,5-5-.8-10.74-1.32-21.5-2.31-32.22-.48-5.27,1-8.59,5.34-9.72s7.92,1.16,9.34,6.05c4,13.83,3.42,28,2.23,42.08-.64,7.62-8.4,13.81-16.66,13.86q-48.69.25-97.38,0a16.64,16.64,0,0,1-16.7-16c-.79-17.76-2.22-35.82,8-51.82,3.44-5.41,8.19-10,12.08-15.12,1.12-1.49,2.21-3.84,1.85-5.49a44.49,44.49,0,0,1,31.44-51.89c17.44-5,37.65,2.31,48.24,17.88s9.73,37.51-2,51.71c-18.24,22-48.68,22.78-67.94,1.61A11.74,11.74,0,0,1,447.67,268.14Zm34.91-55.07a29.21,29.21,0,0,0-29.18,28.66c-.2,15.6,12.94,28.94,28.75,29.21,15.51.27,29-13,29.2-28.77C511.59,226.59,498.33,213.18,482.58,213.07Z"/><path class="cls-1" d="M553.64,428.59c-.73,7.6-1,15.29-2.45,22.73-.5,2.54-3.72,5.27-6.36,6.46-3.27,1.46-6.63-.3-8.38-3.57a11.83,11.83,0,0,1-1.19-5.71c.29-8.95.73-17.91,1.27-26.86.35-5.84,4.16-9.67,8.94-9.32s7.77,4,7.85,9.76c0,2.16,0,4.32,0,6.48Z"/><path class="cls-1" d="M395.61,185.18a50.61,50.61,0,0,1,5.23,1.94c7.87,3.89,15.73,7.78,23.5,11.86,3.3,1.73,5.79,4.79,4.67,8.47a13.7,13.7,0,0,1-5.59,6.81c-1.52,1-4.62.45-6.53-.43-8.39-3.92-16.63-8.17-24.87-12.41-3.95-2-5.87-5.24-4.76-9.79C388.27,187.5,391.29,185.81,395.61,185.18Z"/><path class="cls-1" d="M341.34,168.59c9.81,2.49,19.68,4.75,29.38,7.57a8,8,0,0,1,5.46,9.91,8.12,8.12,0,0,1-9.67,5.92c-9.57-2-19.1-4.29-28.56-6.78a8.09,8.09,0,0,1-6.16-9C332.52,171.73,336.18,169,341.34,168.59Z"/><path class="cls-1" d="M199.6,640.21a26.47,26.47,0,0,1,3.23.75c8.74,3.13,17.52,6.19,26.19,9.53,5,1.92,6.92,6.18,5.39,10.82-1.42,4.28-6.07,6.52-11,4.83q-13.2-4.5-26.22-9.49c-4.4-1.68-6.52-5.08-5.56-9.9C192.44,642.57,195.5,640.83,199.6,640.21Z"/><path class="cls-1" d="M43.1,390.84c1.67-9.13,3.16-18.3,5.07-27.38,1.1-5.26,5.23-8.06,9.69-7.29s7.43,4.56,6.67,10c-1.27,9-2.91,18-4.61,27-1.09,5.69-4.9,8.56-9.67,7.77C45.63,400.16,43.18,396.53,43.1,390.84Z"/><path class="cls-1" d="M58.44,470.13c1.34,1.27,4.86,3.08,5.85,5.81,3.36,9.35,6,19,8.6,28.58,1.16,4.28-1,7.47-4.91,9.23s-8.81.37-10.18-3.66c-3.47-10.18-6.61-20.51-9.1-31C47.55,474.31,51.74,470.31,58.44,470.13Z"/><path class="cls-1" d="M279.78,676.67c-7.26-.89-16.34-1.83-25.37-3.15-5.57-.81-8.47-4.68-7.87-9.65.54-4.6,4.11-7.41,9.75-6.92,9.25.81,18.48,1.91,27.69,3.09a8.25,8.25,0,0,1,7.47,9C291.07,673.81,287.15,676.87,279.78,676.67Z"/><path class="cls-1" d="M207.44,195.74c-1,1.19-2.3,4.17-4.59,5.45-8.38,4.7-17,8.94-25.69,13.14a8.07,8.07,0,0,1-10.85-3.11c-2.17-3.69-1.47-8.76,2.51-11,9-5,18.1-9.79,27.51-13.9C201.86,183.94,207.44,188.33,207.44,195.74Z"/><path class="cls-1" d="M551.94,390.74c-.4,5.39-3,8.8-7.51,9.37s-8.22-1.81-9.26-7q-2.74-13.64-4.83-27.42c-.83-5.54,1.71-9.23,6.33-10.27,4.35-1,8.62,1.72,9.79,7C548.53,371.81,550.14,381.29,551.94,390.74Z"/><path class="cls-1" d="M367.79,667.8c-2.35-2.24-5.58-4.07-6.85-6.81a6.94,6.94,0,0,1,3.66-9.7c9.84-4,19.8-7.7,29.93-10.84,4-1.23,7.4,1.25,8.87,5.43s-.32,8.66-5.06,10.53c-8.95,3.52-18.07,6.63-27.13,9.88a19.32,19.32,0,0,1-2.42.55Z"/><path class="cls-1" d="M547.46,478.78C544,489.32,540.87,500,537,510.33c-1.45,3.87-5.72,4.56-9.49,3.33s-6.45-4.5-5.45-8.44c2.63-10.27,5.71-20.44,9.08-30.5,1.4-4.17,5.33-5.51,9.45-4.39C544.48,471.39,546.64,474.25,547.46,478.78Z"/><path class="cls-1" d="M312.07,676.74a8.5,8.5,0,0,1-8.43-8.14c-.18-4.45,3.39-8.09,8.51-8.69,8.07-1,16.14-1.93,24.22-2.86a29.31,29.31,0,0,1,4-.18c4.58.09,7.91,2.76,8.34,6.89.47,4.55-1.4,8-5.92,9.08-5.64,1.29-11.41,2-17.16,2.79C321.5,676.17,317.34,676.33,312.07,676.74Z"/><path class="cls-1" d="M227.15,192.34c-5.09,0-8.06-2.12-9.07-6.36s.7-8.14,4.75-9.29c10.19-2.88,20.55-5.31,30.95-7.35,4.3-.84,7.33,2.15,8.37,6.25s-.66,8.13-4.73,9.29C247.22,187.8,236.82,190,227.15,192.34Z"/></svg>