<svg id="Layer_1" data-name="Layer 1" xmlns="http://www.w3.org/2000/svg" viewBox="0 0 595.28 841.89"><defs><style>.cls-1{fill:#ee2e24;}.cls-2{fill:#236fb4;}.cls-3{fill:#f9bf42;}</style></defs><path class="cls-1" d="M494,468.67c10.55-5.91,21.88-7.85,33.88-4.46a41.47,41.47,0,0,1,22.37,15.42c5.11,6.8,4.63,9.63-2.36,14.43q-46.08,31.68-92.16,63.31c-17.64,12.11-35.24,24.29-52.94,36.32-21.12,14.34-44.91,19.37-69.62,15.86-33-4.69-65.67-11.48-98.48-17.44-7.36-1.34-14.27-.66-20.71,3.45-12.91,8.23-25.81,16.47-38.84,24.5-2.77,1.71-3.19,3.31-2.25,6.29,4.11,13,8,26.06,11.91,39.11,2.51,8.37.23,11.53-8.29,11.53q-51,0-101.94,0c-6.73,0-8.74-1.93-9.56-8.65Q56.76,600.79,48.5,533.26q-3.36-27.46-6.69-54.92c-.87-7.16,1.49-9.82,8.85-9.83,22.35,0,44.69.07,67-.08,5.06,0,7.83,1.94,9.2,6.79,2.33,8.3,5,16.49,7.63,25,8.78-2.13,15.58-6.73,21.55-12.53,13.86-13.47,29.51-23.9,48.39-28.85,25.59-6.71,50.53-4.71,74.25,7.16a85.94,85.94,0,0,0,41.62,9.18c12-.33,24.56,2,35.84-.87s21.31-10.62,31.78-16.44c18.31-10.18,36.14-10,53.7,1.79a5.64,5.64,0,0,0,4.82.52c17.51-9.37,32.65-5.6,46.21,7.88A4.87,4.87,0,0,0,494,468.67ZM167.59,608.87l39.22-24.74c7.93-5,16.57-7.29,25.86-5.84,11.83,1.86,23.58,4.2,35.37,6.24,23.78,4.1,47.46,9.08,71.39,11.92,18.42,2.18,36.87-1.36,52.46-11.85C439.2,552.76,486,520.18,533,487.87c1.32-.9,2.56-1.92,3.89-2.93-9.87-9.61-22.44-11.7-34.37-5.37-25.74,13.65-51.34,27.53-77,41.38a6.39,6.39,0,0,0-3,2.89c-3.25,9.22-3.3,9-13.27,8.57-29.3-1.27-58.6-4.13-87.92-.26-4.43.58-7.82-.87-8.35-5.8s2.53-7,6.88-7.61a96.42,96.42,0,0,1,13.21-1.23c21,.14,42,.52,63.07.8,3.77.05,7.54,0,11.36,0-2.16-16.15-17.79-29.55-34.77-29.75-19.95-.24-39.89-.05-59.84-.11-3.31,0-6.63-.31-9.93-.61-11.8-1.1-22.16-6.37-32.85-11C237.5,462.84,206.28,466.05,177.6,487c-12.68,9.27-22.77,22.14-39.13,26.35Zm2,54.65a6.29,6.29,0,0,0,0-1.42q-26.91-88.51-54-177c-.44-1.43-3-3-4.62-3.13-6.63-.36-13.29-.15-19.93-.15H56c7.42,60.89,14.78,121.2,22.15,181.66ZM480.42,476.05a5.59,5.59,0,0,0-.59-1.31,6.13,6.13,0,0,0-1.22-1.11c-7.87-5.46-15.88-7-24.78-2-13.88,7.8-28,15.18-41.94,22.69,2.85,5.06,5.41,9.64,8.05,14.34ZM384,475.77c5.35,2.67,10.41,5.25,15.52,7.7a4.09,4.09,0,0,0,3.06.41c9.15-4.79,18.22-9.73,27.74-14.85C417,460.79,404.05,462.86,384,475.77Z"/><path class="cls-2" d="M385.91,403.05c0,4.72.07,8.75,0,12.77-.15,6.7-2.37,9-9.07,9.05-11.45.09-22.9,0-34.35,0H220.58c-9.46,0-11-1.53-11-10.89,0-3.47,0-6.93,0-10.95H102.1c-8.93,0-10.65-1.73-10.65-10.63,0-14-.18-28.08.07-42.11.43-24.06,21.56-45.63,45.44-47a11.48,11.48,0,0,1,10.13,4.13c12.76,14.11,32.62,14.48,45.32.55,4.16-4.57,8.56-5.52,13.8-4.15,5.66,1.48,11.15,3.6,17.37,5.65A58.31,58.31,0,0,1,254,292c7.61-1.64,13.61-1.26,19.68,5.39,13.5,14.76,37.34,14.18,50.72-.85,4.91-5.52,9.88-6.11,16.21-4.67,12.78,2.91,19.88,6.87,30.64,17.14,7.83-2,15.19-3.94,22.61-5.62,3.92-.88,6.9.69,9.65,3.85,12.46,14.35,33,14.71,45.67.55,3.82-4.25,7.85-4.94,12.81-4.14a50,50,0,0,1,41.74,48.74c.08,13.3,0,26.6,0,39.9,0,9-1.68,10.72-10.56,10.73H385.91Zm-161.76,7.77H371.79c0-23.76.88-47.22-.29-70.58-.84-16.68-15.72-31.38-32.08-34.61a8.08,8.08,0,0,0-6.17,1.58c-21,19.26-48.67,19.12-69.84-.38a7.4,7.4,0,0,0-5.69-1.6c-17.89,3.95-31.35,14.7-33,32.8C222.48,362,224.15,386.25,224.15,410.82Zm-8.59-89.72c-5.46-1-9.63-6.82-15.47-1.52-18,16.3-42.37,16.07-60.64-.23a8,8,0,0,0-6.15-1.62c-14.21,3.25-24.53,12.12-26.89,26.2-2.47,14.7-1.65,29.95-2.26,45H209.06C211.55,366.32,205.3,343.35,215.56,321.1Zm274.75,68.09c0-13.27.58-26-.15-38.72a35.43,35.43,0,0,0-25.54-32.14c-2.22-.63-5.72-.34-7.35,1C437.56,336,414.82,335.9,395.65,319c-1.08-1-2.95-1.95-4.16-1.67-4,1-7.83,2.47-11.82,3.81,10.53,22.41,4.18,45.59,6.79,68.1Z"/><path class="cls-2" d="M349.4,226.18c-1.26,8.89-1.42,18.11-4,26.61-6.71,22.2-29.38,37-51.36,34.76-25.16-2.62-44.41-20.65-46.31-45-1-12.6-1.39-25.69.94-38,4.76-25.1,28.4-41.75,53.12-39.51,26,2.35,45.55,23.33,46.5,49.87.14,3.69,0,7.39,0,11.08ZM260.22,226l.57,0c0,4.25-.12,8.49,0,12.73.65,19.52,16.34,34.81,36.15,35.3a36.32,36.32,0,0,0,37.38-33.91,235.58,235.58,0,0,0,0-27.1c-1.06-18.93-15.25-32.83-34.65-34.52C282.87,177,266.09,189,262,206.25,260.53,212.61,260.77,219.39,260.22,226Z"/><path class="cls-2" d="M470.62,247.18c.51,10.35.39,20.6-4.53,30.2a45,45,0,0,1-85.26-19.65c-.05-9.57-.45-19.3,1.1-28.66,3.62-21.89,24-37.42,46.12-36.3a44.86,44.86,0,0,1,42.52,41.15C470.91,238.32,470.62,242.76,470.62,247.18Zm-13,.74-.33,0c0-3.69.08-7.39,0-11.08-.41-16.44-13-29.23-29.94-30.47-15.36-1.12-30.3,10.24-32.26,25.85a124.18,124.18,0,0,0-.23,29.22c1.78,15.79,14.28,26.47,30,27.29,14.7.76,28.37-9.68,31.66-24.83C457.66,258.72,457.32,253.25,457.64,247.92Z"/><path class="cls-2" d="M123.52,247.5c.76-7.12.74-14.43,2.44-21.32,5.19-21.08,26.51-35.75,47.39-33.31,23.29,2.73,40.73,21.3,41,44,.09,9.56.49,19.3-1.05,28.66-3.67,22.29-23.85,37.74-46.38,36.63a44.91,44.91,0,0,1-42.34-41.35c-.34-4.39-.05-8.84-.05-13.26Zm14.06-.56h.24c0,3.51,0,7,0,10.53.29,16.89,12.62,29.75,29.83,31.17,15.47,1.27,30.49-10.3,32.44-26.31a124.62,124.62,0,0,0,.08-29.21c-1.82-15.64-14.7-26.38-30.35-26.85a31.38,31.38,0,0,0-31.39,25.22C137.43,236.5,137.83,241.79,137.58,246.94Z"/><path class="cls-3" d="M120,657.06a20.57,20.57,0,0,1-20.74-21.15A21.06,21.06,0,0,1,120,615.11a21.4,21.4,0,0,1,21.2,21.08A21,21,0,0,1,120,657.06Zm.17-13.31a7.54,7.54,0,0,0,7.38-7.44,7.35,7.35,0,0,0-7.78-7.5,7.61,7.61,0,0,0-7.22,7.61A8.07,8.07,0,0,0,120.12,643.75Z"/></svg>