<svg id="Layer_1" data-name="Layer 1" xmlns="http://www.w3.org/2000/svg" viewBox="0 0 595.28 841.89"><defs><style>.cls-1{fill:#236fb4;}.cls-2{fill:#f9bf42;}.cls-3{fill:#ee2e24;}</style></defs><path class="cls-1" d="M294.64,581.79c-6.08-7.53-13.86-8-21.54-9.52-.17-2.18-.33-4.35-.54-7.06h-31c-12,0-18.32-6.43-18.36-18.55,0-5.68,1.8-12.49-.71-16.72s-9.38-5.66-14.28-8.45q-70.92-40.23-82.92-120.9c-.81-5.43-.92-11-1.22-16.47-.21-3.71-1.36-6.65-5-8.23s-6.69-.24-9.25,2.45c-3.54,3.74-7,7.53-10.41,11.16L51.76,341.82c3.51-3.28,7.28-6.73,11-10.26,2.62-2.52,4.29-5.34,2.67-9.19s-4.67-5.24-8.63-5.2c-5,0-9.91,0-15.13,0V251.07c3.67,0,7.38,0,11.09,0,4.74-.05,9.93.95,12.49-4.78,2.76-6.18-2.13-9.1-5.51-12.57-2.52-2.58-5.3-4.9-7.68-7.08L99.6,179.07c3.19,3.38,6.7,7.17,10.27,10.9,2.57,2.68,5.49,4.06,9.25,2.35,3.61-1.64,4.92-4.55,4.91-8.31,0-5,0-9.95,0-15.27h66.1c0,4.88,0,9.65,0,14.43-.06,4.07.88,7.46,5.09,9.21s7-.1,9.59-2.9c3.39-3.63,6.72-7.3,10.41-11.32C228.41,191.48,241,204,253.32,216.7c2.86,3,5.55,3.47,9.53,3.08,44-4.29,87.34-3.95,127.15,19.61a164.17,164.17,0,0,1,60.53,61.41c1.09,1.93,2.16,3.87,3.88,7V284.52h16.53c.08,1.69.23,3.36.23,5,0,30.32.58,60.65-.25,90.94-.38,14-3.47,27.89-5.37,41.82-.18,1.32-.59,2.61-1,4.19,10.54,3.36,18-2.5,25.38-7.79l45,45.2c-6.42,8.3-11.88,17.3-7.11,28.87s14.73,14.46,25.8,15.75V572.3c-10.89,1.34-21,4.1-25.73,15.62s.3,20.68,7.22,29l-45.21,45.22c-8.39-6.5-17.39-11.94-29-7.17s-14.46,14.73-15.7,25.8c-1.58.08-2.77.18-3.95.18H381.69c-.81-3.74-1.38-7.27-2.33-10.69a22.65,22.65,0,0,0-20.51-16.87,8.2,8.2,0,0,0-5.56,2.62C337.5,673,318.2,681.36,295,681c-33.88-.54-65.61-27.75-70.55-61.27a146,146,0,0,1-1.08-22.63c.08-8.52,7.46-15.23,16.33-15.28,16.36-.08,32.72,0,49.08,0Zm60.88-198.06h49.84V488.28c2.62-2.41,4.6-4.06,6.39-5.9,31.32-32.12,46.35-70.57,41.93-115.3-5.69-57.53-36-98.19-88.82-121.28-34.46-15.08-71.08-14.72-107.06-8.11-107.42,19.73-154,150.35-84,234.08,4.74,5.68,10.13,10.82,15.22,16.2l1.34-.79V449.93h49.62v98.43h33.15v-82h49.47v81.93h33Zm10.16,253.61c13.89,3.82,23.6,12,29,25.23.42,1,2.66,1.79,4.06,1.81,9.64.16,19.28,0,28.91.16,2.91.06,4.11-1,5.24-3.55,9.07-20.56,30.83-29.55,51.88-21.49,2.32.89,3.86,1,5.78-1,6.8-7.08,13.91-13.85,20.67-21a6,6,0,0,0,1.2-5.08c-8-22.2.57-43,21.77-52.84a6,6,0,0,0,3-4.32c.26-10,.24-20,0-29.94a5.57,5.57,0,0,0-2.65-4c-21.91-10.59-30.2-30.54-22.07-53.11a5.08,5.08,0,0,0-.61-4.35c-7.73-8.06-15.67-15.92-23.61-23.9-8.95,4.06-17.93,5.5-27.36,3.38a3.78,3.78,0,0,0-3.23,1.44c-2.23,4.15-4.14,8.48-6.15,12.72,48,23.58,63.15,76.29,45.92,117.49-8.7,20.8-23.09,36.59-43.28,46.62-27.65,13.73-55.54,12.84-83.23-.45C369.16,626.71,367.51,631.74,365.68,637.34ZM128,343.62c-2.18-1.29-4.14-2.35-6-3.57-22.1-14.71-33-35.44-30.77-61.83C93.41,252.9,107,234.54,130,223.78c24.18-11.31,52.81-6.17,72.42,12.11,1.28,1.2,3.79,2.67,4.94,2.17,10-4.3,19.88-9,29.4-13.43l-21.55-21.58c-16,14.21-40.25,4.94-42.07-17.9H140.88c-1.61,22.71-25.72,32.07-41.82,18.17l-23,23c6.6,7.61,8.73,16.54,4.53,26.44s-12.19,14.35-22.41,15.14v32.59c10.46.72,18.13,5.26,22.27,14.67,4.41,10,2.29,19.14-4.57,27,7.72,7.7,15.37,15.35,23.15,23.13,7.13-6.58,15.83-8.3,25.91-5.37C126,354.39,127,349.21,128,343.62ZM239.8,598.51c-1.14,26.17,7.86,46.74,31,59,21.43,11.34,42.74,9.25,62-5.38,17.57-13.33,23.86-31.9,22.47-53.6Zm131.9-61.22c.38,3.41.6,6.84,1.16,10.22,3.32,20,21.49,35,41.61,34.22,21.23-.76,38.07-17,40.06-38.51,1.81-19.53-12.33-38.58-32.07-42.73-2.27-.47-5.35.46-7.41,1.76-12,7.58-23.61,15.93-35.91,23C373.88,528.29,370.38,530.84,371.7,537.29Zm-28.89,27.63c2.8,5.54,4.57,9.83,7.08,13.64a8.1,8.1,0,0,0,5.56,3.09c9.76.63,16,7,16.67,16.87a7.89,7.89,0,0,0,3.19,5.51c16.28,9.74,33.87,13.17,52.5,9.2,39.88-8.51,64.88-44,58.73-84.58-4-26.56-19.47-45.16-44-56.64L432.1,485.32c2.11.94,4,1.74,5.85,2.61a57.88,57.88,0,0,1-24.24,110.31c-22.57-.07-39.34-10.47-51-29.59-.87-1.44-2.28-3.45-3.57-3.56C354.24,564.67,349.26,564.92,342.81,564.92ZM132.8,326.7c1.48-3.61,2.58-7.07,4.26-10.23s1.22-5.09-1.69-7.68c-9.62-8.51-13.42-19.4-10.46-32.05,3-13,11.33-21.3,24.27-24.7,10.72-2.81,20.35,0,29.24,6.59l12.5-10c-12-12.84-33-17.4-50.55-11.05a49.81,49.81,0,0,0-32.83,44.6C106.61,300,117.31,319.17,132.8,326.7ZM372.2,510.37c4.52-2.51,8.43-4.9,12.54-6.91,3.05-1.49,3.91-3.56,3.89-6.92-.14-30.65-.08-61.3-.09-92,0-1.48-.19-3-.28-4.32H372.2Zm-82.52-27.6V548.3h15.93V482.77Zm-66.83,27.64v-44h-16.2c0,10.92-.06,21.42.09,31.92a5.11,5.11,0,0,0,1.85,3.75C213,504.94,217.69,507.45,222.85,510.41Zm-76.28-214,19.07-25.65c-7.09-4.83-15.88-3.63-21.17,2.8C138.67,280.65,139.37,289.19,146.57,296.42ZM331.85,581.58c-1.94-5.15-3.54-9.65-5.35-14.07-.38-.92-1.51-2.15-2.31-2.17-7.08-.17-14.17-.1-21.17-.1l12.21,16.34Z"/><path class="cls-2" d="M140.69,680.84H124.43V532.36h9.44l-26.36-42.27C98.68,504.2,90.2,517.73,81.3,531.94l9.33.42v82H74.52V548.7H51.13l56.34-90.17c18.85,30.15,37.29,59.66,56.19,89.88h-23Z"/><path class="cls-2" d="M544,251H521V383H504.71V234.76h9.45l-26.42-42.32-26.15,41.82,9.28.46v32.6H454.81V251.09H431.37l56.35-90.2C506.56,191,525,220.52,544,251Z"/><path class="cls-2" d="M74.79,631.63H90.65v48.9H74.79Z"/><path class="cls-3" d="M256.84,399.89c6.58-22,22-34,43.29-32.84,5.8.3,11.59,2.76,17.15,4.88,2.51.95,3.84,1,5.72-.93,6.46-6.69,13-13.31,19.75-19.7,2.55-2.4,2.24-4.14.77-7-11-21.45-1.35-47.94,20.66-57a41.32,41.32,0,0,1,55.59,25.93,40.61,40.61,0,0,1-13,43.84c-13.69,11.11-28.94,12.92-44.88,5.28-3.59-1.72-5.52-1.59-8.22,1.33-6.08,6.56-12.68,12.65-18.82,19.16-1,1.1-1.7,3.85-1.06,5a41.6,41.6,0,0,1-21.64,59c-23.35,8.86-47.45-4.08-55-29.56-.05-.17-.13-.32-.36-.93-5.14,0-10.48-.3-15.75.18-1.63.15-3.48,2.16-4.51,3.77-5.83,9.15-14,13.73-24.8,12.39-10.07-1.25-17-7.15-20.37-16.76a24.72,24.72,0,0,1,13.48-30.54,24.35,24.35,0,0,1,31.26,10.2c1.88,3.36,3.78,4.66,7.54,4.34C247.92,399.62,252.23,399.89,256.84,399.89Zm148.21-74.34a25.16,25.16,0,0,0-24.57-24.88c-13.3-.15-24.76,11.05-25,24.44s11.31,25.17,24.83,25.15A25.2,25.2,0,0,0,405.05,325.55ZM297.48,432.94c13.31.08,24.74-11.19,24.91-24.56s-11-24.78-24.42-25-25.17,11.26-25.16,24.8A25.2,25.2,0,0,0,297.48,432.94Zm-74.33-24.65a8.22,8.22,0,1,0-8.37,8.07A8.61,8.61,0,0,0,223.15,408.29Z"/><path class="cls-3" d="M388.49,325.47a8.23,8.23,0,1,1-8.09-8.24A8.09,8.09,0,0,1,388.49,325.47Z"/><path class="cls-3" d="M305.83,408a8.24,8.24,0,1,1-8.26-8.08A8.11,8.11,0,0,1,305.83,408Z"/></svg>