<svg id="Layer_1" data-name="Layer 1" xmlns="http://www.w3.org/2000/svg" viewBox="0 0 595.28 841.89"><defs><style>.cls-1{fill:#236fb4;}.cls-2{fill:#f9bf42;}.cls-3{fill:#ee2e24;}</style></defs><path class="cls-1" d="M205.59,656H532.53V267.52h-6.21q-30.41,0-60.82,0c-11.35,0-14.37-3.1-14.38-14.6q0-30.4,0-60.82v-6H205.59v6.37c0,20.79,0,41.59,0,62.39,0,7.74-3.5,12.06-9.61,12.45a9.88,9.88,0,0,1-10.81-8.9,34.55,34.55,0,0,1-.23-4.66q0-37.44,0-74.87c0-10.86,3-13.81,14-13.81q129.2,0,258.38-.11a18.86,18.86,0,0,1,14.66,6q37.83,38.26,76.09,76.1a17.88,17.88,0,0,1,5.65,13.77q-.18,200.94-.1,401.88c0,11.34-2.8,14.17-14,14.17H199c-11.17,0-14.08-2.91-14.08-14.2q0-38,0-75.91c0-7.62,3.65-11.93,9.85-12.15a9.75,9.75,0,0,1,10.37,8.21,34.63,34.63,0,0,1,.43,6.2q0,30.15,0,60.31ZM472.3,202.25v43.91h43.9Z"/><path class="cls-2" d="M307.93,421q0,59.77,0,119.53c0,10.35-3.26,13.57-13.7,13.57H197.57c-9.06,0-12.64-3.42-12.64-12.51q-.06-120.57,0-241.14c0-9.1,3.57-12.52,12.62-12.52q48.6,0,97.19,0c9.74,0,13.19,3.39,13.19,13Q307.95,361,307.93,421Zm-21,112.18V308.83h-81V533.16Z"/><path class="cls-2" d="M451.37,441.27q0,49.65,0,99.3c0,10-3.45,13.51-13.33,13.51H340.81c-8.9,0-12.68-3.64-12.68-12.61q-.08-100.08,0-200.17c0-8.73,4.06-12.64,12.82-12.65q48.87,0,97.74,0c8.71,0,12.66,4,12.67,12.79Q451.41,391.36,451.37,441.27ZM349.16,349.5V533.13H430.4V349.5Z"/><path class="cls-2" d="M164.47,451.62q0,44.94,0,89.88c0,9.09-3.46,12.58-12.48,12.58q-49.09,0-98.2,0c-8.48,0-12.11-3.47-12.11-11.89q-.06-90.39,0-180.79c0-8.66,3.64-12.11,12.47-12.12H151.8c9.26,0,12.66,3.52,12.66,13Q164.48,406.95,164.47,451.62ZM62.7,370.24V533.15h80.86V370.24Z"/><path class="cls-3" d="M246.49,513.34c-3.27,0-6.56.13-9.83,0-6.54-.34-11-4.88-10.76-10.81s4.49-9.68,11.07-9.77c6.38-.08,12.77-.09,19.15,0s10.79,4.35,10.84,10.08c.05,5.5-4.13,10-10.12,10.44-3.43.27-6.9,0-10.35,0Z"/><path class="cls-3" d="M246.6,349.26c-3.45,0-6.9.09-10.35,0-5.87-.19-10-4-10.33-9.44s3.28-10.46,8.89-10.85a167,167,0,0,1,23.25,0c5.65.41,9.3,5.59,8.82,10.9s-4.59,9.19-10.45,9.37C253.16,349.35,249.88,349.27,246.6,349.26Z"/><path class="cls-3" d="M389.86,492.74c3.47,0,6.94-.12,10.4,0,5.4.22,9.25,3.79,9.8,8.87.58,5.34-2,10.41-7.3,10.87a144.29,144.29,0,0,1-26.29-.08c-5.15-.5-7.73-5.77-7.07-11.07a9.82,9.82,0,0,1,9.55-8.57C382.58,492.61,386.22,492.75,389.86,492.74Z"/><path class="cls-3" d="M390.1,369.94c3.63,0,7.28-.19,10.9.05a9.62,9.62,0,0,1,9.09,9c.47,5.31-2.35,10.31-7.54,10.72a161.29,161.29,0,0,1-25.82,0c-5.08-.42-7.87-5.59-7.35-10.88a9.9,9.9,0,0,1,9.29-8.85,9.08,9.08,0,0,1,1-.07H390.1Z"/><path class="cls-3" d="M103,410.64c-3.62,0-7.25.16-10.87,0a10.05,10.05,0,0,1-9.65-9.09c-.54-4.83,2.64-10.26,7.71-10.67a157.77,157.77,0,0,1,25.72,0c5,.42,8.27,6,7.67,10.69a10.26,10.26,0,0,1-9.71,9.09c-.34,0-.69,0-1,0H103Z"/><path class="cls-3" d="M103.08,492.74c3.45,0,6.91-.11,10.35,0a10.26,10.26,0,0,1,10.19,9.16c.58,4.86-3,10.45-8.23,10.87a152.51,152.51,0,0,1-24.74,0c-5.33-.44-8.73-5.94-8.15-10.91.62-5.2,4.68-8.88,10.23-9.08C96.17,492.64,99.63,492.74,103.08,492.74Z"/></svg>