<?xml version="1.0" encoding="utf-8"?>
<!-- Generator: Adobe Illustrator 24.2.3, SVG Export Plug-In . SVG Version: 6.00 Build 0)  -->
<svg version="1.1" id="Layer_1" xmlns="http://www.w3.org/2000/svg" xmlns:xlink="http://www.w3.org/1999/xlink" x="0px" y="0px"
	 viewBox="0 0 712 712" style="enable-background:new 0 0 712 712;" xml:space="preserve">
<style type="text/css">
	.st0{fill:#236FB4;}
	.st1{fill:#F9BF42;}
	.st2{fill:#02994A;}
	.st3{fill:none;stroke:#2470B4;stroke-width:10;stroke-miterlimit:10;}
	.st4{fill:none;stroke:#EE3025;stroke-width:10;stroke-miterlimit:10;}
	.st5{fill:none;stroke:#F8BE40;stroke-width:6;stroke-miterlimit:10;}
	.st6{fill:none;stroke:#236FB4;stroke-width:10;stroke-miterlimit:10;}
	.st7{fill:none;stroke:#2470B4;stroke-width:8;stroke-miterlimit:10;}
	.st8{fill:none;stroke:#00994A;stroke-width:8;stroke-miterlimit:10;}
	.st9{fill:#F8BE40;}
	.st10{fill:none;stroke:#EE3025;stroke-width:7;stroke-miterlimit:10;}
	.st11{fill:#EE2E24;}
	.st12{fill:#E83A3C;}
	.st13{fill:none;stroke:#F8BE40;stroke-width:19;stroke-miterlimit:10;}
	.st14{fill:#FFFFFF;}
	.st15{fill:#069647;}
	.st16{fill:none;stroke:#069647;stroke-width:10;stroke-miterlimit:10;}
	.st17{fill:none;stroke:#069647;stroke-width:6;stroke-miterlimit:10;}
	.st18{fill:none;stroke:#069647;stroke-width:7;stroke-miterlimit:10;}
	.st19{fill:#1D5688;}
	.st20{fill:none;stroke:#069647;stroke-width:19;stroke-miterlimit:10;}
	.st21{fill:none;stroke:#069647;stroke-width:2;stroke-miterlimit:10;}
</style>
<g>
	<path class="st0" d="M208.35,681.74c-0.08-2.75-0.22-5.5-0.23-8.25c-0.01-94.35-0.01-188.71-0.01-283.06c0-2.33,0-4.65,0-6.98
		c-0.41-0.25-0.81-0.5-1.22-0.74c-25.17,34.56-50.33,69.13-75.88,104.21c-10.37-7.52-20.44-14.82-31.02-22.49
		c9.56-13.18,18.97-26.17,28.4-39.14c25.3-34.78,50.68-69.51,75.82-104.4c2.48-3.44,4.32-7.77,5.11-11.95
		c8.11-43.15,44.96-74.85,87.66-75.07c44.99-0.23,82.26,29.93,90.78,73.5c0.63,3.2,0.93,5.91,5.59,5.88
		c30.74-0.2,61.49-0.11,92.23-0.14c1.02,0,2.03-0.29,3.4-0.5c0-24.03,0-47.86,0-72.29c-27.93,0-55.62,0-83.22,0
		c-7.77-61.54,18.58-112.5,78.21-128.9c1.63-0.45,3.24-0.96,5.51-1.64c0-10.36,0-20.87,0-31.7c12.88,0,25.08,0,37.94,0
		c0,10.74,0,21.23,0,31.49c65.15,21.56,88.44,57.66,84.06,130.26c-27.59,0-55.24,0-83.83,0c0,19,0,37.35,0,55.69
		c0,18.43,0,36.87,0,56.33c-23.16,0-45.97,0-68.77,0c-22.86,0-45.72,0-69.39,0c0,3.32,0,6.02,0,8.72c0,104.32,0,208.64-0.02,312.96
		c0,2.74-0.29,5.48-0.44,8.22c-12.72,0-25.45,0-38.17,0c0-56.72,0-113.43,0-170.49c-34.94,0-69.35,0-104.34,0
		c0,57.05,0,113.77,0,170.49C233.8,681.74,221.07,681.74,208.35,681.74z M350.34,471.96c0.34-1.12,0.57-1.51,0.57-1.9
		c0.01-50.01,0.57-100.03-0.21-150.03c-0.45-28.79-30.41-52.12-58.61-47.4c-28.05,4.69-45.62,25.34-45.65,53.81
		c-0.05,46.41-0.01,92.82-0.01,139.23c0,2.04,0,4.07,0,6.29C281.59,471.96,315.87,471.96,350.34,471.96z M572.06,201.76
		c-1.26-23.35-26.47-57.23-68.28-54.75c-29.34,1.74-59.79,29.59-58.58,54.75C487.47,201.76,529.76,201.76,572.06,201.76z"/>
	<path class="st0" d="M298.94,30.26c44.74,0.03,81.14,36.51,81.09,81.27c-0.05,44.48-37.04,81.34-81.45,81.16
		c-44.52-0.18-81.22-37.04-81.15-81.52C217.5,66.57,254.1,30.23,298.94,30.26z M298.54,153.97c23.81,0.08,42.88-18.67,43.11-42.39
		c0.23-23.26-19.29-42.99-42.66-43.15c-23.38-0.16-42.78,19.1-43.01,42.69C255.75,134.71,274.79,153.88,298.54,153.97z"/>
</g>
</svg>
