<svg id="Layer_1" data-name="Layer 1" xmlns="http://www.w3.org/2000/svg" viewBox="0 0 595.28 841.89"><defs><style>.cls-1{fill:#236fb4;}.cls-2{fill:#ee2e24;}.cls-3{fill:#f9bf42;}.cls-4{fill:#02994a;}</style></defs><path class="cls-1" d="M239.86,478.87c-25.65-2-41.28-18.87-41.29-43.83,0-17.89-.22-35.78,0-53.66.62-43.48,21-74.25,60.22-92.8.77-.37,1.54-.74,2.3-1.13.13-.07.2-.24.61-.75-21.1-15.07-31.92-35.48-29.94-61.63,1.34-17.74,9.38-32.47,22.79-44.19,27.51-24,70-20.56,93.68,7.59,23.34,27.7,21.66,72.65-14.31,98L362,303a31.22,31.22,0,0,0,2.41-2c9.87-9.83,19.8-19.6,29.47-29.62a10.66,10.66,0,0,0,2.72-6.63c.21-19.26.09-38.52.13-57.78.05-24.11,17.91-41.94,42.07-42s48.51,0,72.76,0,41.94,17.91,42,42.06c0,11,.08,22,0,33a41,41,0,0,1-40.53,40.41q-49.8.18-99.59,0A10.76,10.76,0,0,0,405,284c-10.34,10.53-20.87,20.87-30.66,30.6,5.43,10,11,19.06,15.38,28.65,5.12,11.19,7.09,23.25,7.05,35.6-.05,18.75,0,37.49,0,56.24,0,24.95-15.6,41.76-41.29,43.79v5.87c0,51.59-.18,103.18.12,154.77.09,15.62-5.14,27.72-19.65,34.3-14.13,6.42-26.8,2.82-38.13-7.84-1.42,1.14-2.81,2.34-4.27,3.45-10.79,8.29-22.58,10-34.82,4.1s-18.72-16-18.77-29.62c-.13-35.08,0-70.17,0-105.25v-6.57c-1.8,1.64-2.91,2.56-3.93,3.58-11.44,11.43-23,22.77-34.2,34.39a12,12,0,0,0-3.06,7.5c-.26,19.26-.09,38.52-.16,57.78-.08,23.38-18.15,41.37-41.61,41.43q-36.89.09-73.79,0c-23.38-.07-41.34-18.15-41.43-41.6,0-11.18-.08-22.36,0-33.54a41,41,0,0,1,40.57-40.36q49.79-.16,99.59,0a10.81,10.81,0,0,0,8.5-3.58c15.34-15.55,30.91-30.87,46.18-46.49a12.39,12.39,0,0,0,3.17-7.46C240.11,495.58,239.86,487.35,239.86,478.87Zm115.68-17.06c14.19-.19,24.54-10.75,24.65-25.23q.24-28.38,0-56.76a80.73,80.73,0,0,0-1.55-15.35c-9-43.94-46.72-71.34-91.33-66.58-36.5,3.89-68.23,34.76-71.07,71.33-1.8,23.09-1.27,46.39-.92,69.58.19,13.31,11.65,23.32,24.72,22.85V355.08h16.32V639c0,1.89-.09,3.79.07,5.67a16.89,16.89,0,0,0,14.76,15.54c6.72.9,14.48-3.57,16.81-10.27a29.46,29.46,0,0,0,1.37-9.59q.12-94.17.06-188.33v-5.92h16.48V639.43c0,1.72-.08,3.45.06,5.16a16.89,16.89,0,0,0,16.26,15.68c8.37.14,15.67-6.53,16.63-15.28a51,51,0,0,0,.11-5.67q0-139.05,0-278.11v-6h16.59Zm-58.08-181.3c27,.13,49.67-22.42,49.71-49.48,0-26.85-22.16-49.26-49.1-49.57s-49.75,22.11-50,49.22S270.36,280.38,297.46,280.51Zm115.88-16.57c33.92,0,67.25.34,100.56-.17,13-.2,22.7-10.88,23.11-23.91.37-11.33.34-22.68,0-34-.38-13.64-10.79-24.16-24.42-24.32q-37.37-.42-74.75,0c-13.07.13-23.85,9.66-24.33,22.66C412.8,223.89,413.34,243.64,413.34,263.94ZM182,578.36a5.78,5.78,0,0,0-1.41-.56c-32.82,0-65.65-.28-98.47.06-13.35.13-23.54,10.87-23.89,24.27-.3,11.16-.27,22.34,0,33.5.31,13.65,10.56,24.35,24.19,24.54q37.64.51,75.27,0a24.23,24.23,0,0,0,24.23-23.93C182.31,617,182,597.77,182,578.36Z"/><path class="cls-2" d="M132.18,346.54a90.65,90.65,0,0,1-90.5-91c0-50.36,40.69-90.68,91.37-90.6,50,.08,90.32,40.84,90.25,91.22C223.23,306.2,182.5,346.59,132.18,346.54ZM124,182.62c-26-.71-55.65,25-63.42,54.68-8.7,33.2,7.25,68.64,38,84.42,29.35,15.07,67.59,8.5,87.58-15.3L159.9,286.76c-15.38,11.8-31.58,14.23-48.29,4.48-15-8.78-22.06-22.71-20.12-39.93C93.66,232,105.56,220.35,124,215Zm72.5,110.65c13-24.07,14.14-48,1.66-71.77-12-22.78-31.28-35.63-57.15-39.47V214.9c27.78,10,37.43,28.22,29.88,56a4.89,4.89,0,0,0,1.43,4.13C180,281.08,187.91,286.87,196.48,293.27ZM132.74,231c-13.3-.17-24.75,11-25,24.38s11.26,25.14,24.77,25.14a24.76,24.76,0,0,0,.25-49.52Z"/><path class="cls-3" d="M454.38,536.59h16.41v73.83H487.4V487.33H504V610.5h16.43V470.74h16.4V610.61h16.5v16.23h-181V611h16.05V528.5h16.41v81.94h16.61V512.09h16.4v98.25h16.61Z"/><path class="cls-3" d="M372.1,659.93V644.21H520.17v15.72Z"/><path class="cls-3" d="M553.27,660.16H537.55v-16h15.72Z"/><path class="cls-4" d="M520.33,198.33V214.2H430.2V198.33Z"/><path class="cls-4" d="M430,247.12V231.27h57.11v15.85Z"/><path class="cls-4" d="M504.2,247.14V231.43h16v15.71Z"/><path class="cls-4" d="M165.25,627.54v15.85H75V627.54Z"/><path class="cls-4" d="M165.26,594.61v15.86H108.15V594.61Z"/><path class="cls-4" d="M75,610.44V594.63h15.9v15.81Z"/></svg>