<svg id="Layer_1" data-name="Layer 1" xmlns="http://www.w3.org/2000/svg" viewBox="0 0 712 712"><defs><style>.cls-1{fill:#236fb4;}.cls-2{fill:#f9bf42;}.cls-3{fill:#ee2e24;}</style></defs><path class="cls-1" d="M556,326.31V535.69c-.42,1.07-.87,2.13-1.24,3.21A24.72,24.72,0,0,1,531.11,556q-75.18,0-150.34,0A24.72,24.72,0,0,1,356,531.13c0-2.68,0-5.36,0-8.39H216.56c-16.79,0-33.58,0-50.37,0-7.18,0-10.18-3-10.18-9.78q0-157.77,0-315.52c0-12.09,4.71-22.17,13.46-30.47,6.35-6,14.16-8.95,22.45-10.95H470.06a12.28,12.28,0,0,0,1.79.7c20.52,4.16,34.07,20.6,34.13,41.48,0,10.15,0,20.3,0,30.45,0,8-2.85,10.84-10.76,10.85q-25.19,0-50.36,0h-5.17V306h4.38q43.53,0,87.05,0a24.69,24.69,0,0,1,23.64,17.07C555.13,324.19,555.59,325.24,556,326.31ZM356,505.84v-4.93Q356,416,356,331a24.69,24.69,0,0,1,25-25c12.37,0,24.74,0,37.11,0h4.36v-5.17c0-30.47-.15-60.93,0-91.4,0-12.52-.73-25.33,8.11-36.49-1.95-.1-3.22-.21-4.48-.21q-112.87,0-225.76,0a36.66,36.66,0,0,0-8.89.87c-12,3-18.72,12.7-18.72,26.69q0,150.57,0,301.15v4.37ZM372.73,431q0,48.21,0,96.44c0,9.45,2.37,11.86,11.68,11.86H527.7c9.09,0,11.56-2.48,11.56-11.6q0-96.64,0-193.27c0-9.18-2.44-11.66-11.49-11.66H384.48c-9.38,0-11.75,2.38-11.75,11.79Q372.72,382.74,372.73,431ZM489,222.37c0-9.35.42-18.31-.11-27.22-.71-12.07-10.43-21.25-22.63-22.23s-24,6.58-25.7,18.43c-1.47,10.1-.3,20.57-.3,31Z"/><path class="cls-2" d="M297.75,272.52h79.62c1.17,0,2.35-.06,3.51,0,4.94.35,8.55,3.93,8.55,8.44s-3.61,8.09-8.53,8.47c-.78.05-1.56,0-2.34,0h-162c-6.29,0-10.06-2.71-10.55-7.5-.54-5.29,3.18-9.34,9-9.43,7.68-.12,15.35,0,23,0Z"/><path class="cls-2" d="M297.92,231q41.2,0,82.42,0c6.9,0,11.26,6.24,8,11.85-1.14,2-3.7,3.39-5.91,4.48-1.39.68-3.31.36-5,.36H217.72c-1,0-2.09,0-3.12,0-5.43-.38-8.71-3.69-8.59-8.62s3.72-8,9.11-8q32.22,0,64.45,0Z"/><path class="cls-2" d="M272.35,414.48q-28.08,0-56.18,0c-3.42,0-6.47-.69-8.6-3.6a8.24,8.24,0,0,1,4.78-13,18.35,18.35,0,0,1,4.63-.39q55.61,0,111.2,0c.65,0,1.3,0,1.95,0,5.49.18,9.31,3.68,9.3,8.48s-3.83,8.43-9.33,8.45C310.85,414.52,291.6,414.48,272.35,414.48Z"/><path class="cls-2" d="M272.4,331H215.77c-6,0-9.69-3.14-9.76-8.19s3.44-8.48,9.5-8.49q57.21-.07,114.43,0c5.78,0,9.69,3.77,9.49,8.63s-4,8-9.62,8Q301.1,331,272.4,331Z"/><path class="cls-2" d="M272.92,356h56.63c5.91,0,9.78,3.22,9.89,8.17s-3.79,8.5-9.62,8.51q-57.22.07-114.44,0c-6,0-9.5-3.42-9.37-8.62.13-4.92,3.76-8,9.49-8.05Z"/><path class="cls-2" d="M272.65,456q-28.9,0-57.8,0c-3.79,0-6.53-1.58-8.12-5-1.39-3-1.21-6.12,1.06-8.37a12.66,12.66,0,0,1,6.32-3.19c3-.56,6.23-.21,9.35-.22H327a43,43,0,0,1,4.68.14,8.28,8.28,0,0,1-.8,16.54c-18.22.06-36.45,0-54.67,0Z"/><path class="cls-3" d="M456,339.27h55c9.25,0,11.71,2.49,11.71,11.86q0,29.87,0,59.72c0,9.37-2.47,11.88-11.69,11.88H401c-9.24,0-11.7-2.5-11.71-11.86V351.15c0-9.49,2.44-11.88,12.08-11.88Zm-49.83,66.54h99.61V356.26H406.16Z"/><path class="cls-3" d="M406.54,472.55c2.6,0,5.21-.14,7.8,0,5,.32,8.35,3.89,8.27,8.57a8.23,8.23,0,0,1-8.19,8.26c-5.58.23-11.19.22-16.77,0a8.25,8.25,0,0,1-8.28-8.56c.07-4.5,3.38-8,8.19-8.26C400.54,472.39,403.54,472.55,406.54,472.55Z"/><path class="cls-3" d="M456.07,489.47c-2.73,0-5.47.12-8.2,0-5-.27-8.46-3.73-8.5-8.38a8.28,8.28,0,0,1,8.36-8.48c5.46-.2,10.93-.19,16.39,0,5,.16,8.46,3.69,8.5,8.35s-3.34,8.2-8.36,8.51C461.54,489.6,458.8,489.47,456.07,489.47Z"/><path class="cls-3" d="M505.61,489.47c-2.61,0-5.21.12-7.81,0-5-.29-8.43-3.79-8.43-8.44s3.42-8.24,8.43-8.42q8.19-.27,16.39,0c5,.18,8.43,3.76,8.43,8.42s-3.4,8.16-8.43,8.44C511.34,489.6,508.47,489.47,505.61,489.47Z"/><path class="cls-3" d="M405.66,456c-2.86,0-5.73.12-8.58,0a8,8,0,0,1-7.69-7.83c-.21-4.37,2.51-8.24,6.82-8.49a170.89,170.89,0,0,1,19.47,0c4.34.24,7.09,4,6.93,8.41A8.15,8.15,0,0,1,415,456a6.77,6.77,0,0,1-.78,0h-8.58Z"/><path class="cls-3" d="M455.79,456c-2.87,0-5.73.11-8.59,0a8,8,0,0,1-7.8-7.71c-.27-4.53,2.53-8.41,7.07-8.67a171,171,0,0,1,19.08,0c4.54.26,7.32,4.15,7,8.69a8,8,0,0,1-7.83,7.68C461.77,456.08,458.78,456,455.79,456Z"/><path class="cls-3" d="M506,456c-2.86,0-5.73.09-8.59,0a8.1,8.1,0,0,1-8-7.91c-.18-4.51,2.7-8.27,7.28-8.51a176.73,176.73,0,0,1,18.7,0c4.59.25,7.44,4,7.25,8.53a8.08,8.08,0,0,1-8,7.89C511.71,456.07,508.85,456,506,456Z"/><path class="cls-3" d="M406.13,506c2.86,0,5.73-.11,8.58,0a8,8,0,0,1,7.87,7.63c.31,4.55-2.46,8.46-7,8.73a168.85,168.85,0,0,1-19.09,0c-4.55-.25-7.36-4.09-7.12-8.63a8,8,0,0,1,7.77-7.74C400.14,505.93,403.14,506,406.13,506Z"/><path class="cls-3" d="M456.2,506c2.86,0,5.73-.11,8.58,0a8,8,0,0,1,7.81,7.7c.27,4.54-2.52,8.41-7.06,8.67a168.67,168.67,0,0,1-19.08,0c-4.53-.26-7.33-4.15-7.05-8.69a8.12,8.12,0,0,1,7.83-7.7c.26,0,.52,0,.78,0h8.19Z"/><path class="cls-3" d="M506,506c2.86,0,5.72-.09,8.58,0a8,8,0,0,1,8.05,7.87c.19,4.53-2.66,8.29-7.24,8.54a174.1,174.1,0,0,1-18.7,0c-4.59-.24-7.46-4-7.29-8.5a8.1,8.1,0,0,1,8-7.92C500.25,505.94,503.12,506,506,506Z"/></svg>