<?xml version="1.0" encoding="utf-8"?>
<!-- Generator: Adobe Illustrator 24.2.3, SVG Export Plug-In . SVG Version: 6.00 Build 0)  -->
<svg version="1.1" id="Layer_1" xmlns="http://www.w3.org/2000/svg" xmlns:xlink="http://www.w3.org/1999/xlink" x="0px" y="0px"
	 viewBox="0 0 712 712" style="enable-background:new 0 0 712 712;" xml:space="preserve">
<style type="text/css">
	.st0{fill:#236FB4;}
	.st1{fill:#F9BF42;}
	.st2{fill:#02994A;}
	.st3{fill:none;stroke:#2470B4;stroke-width:10;stroke-miterlimit:10;}
	.st4{fill:none;stroke:#EE3025;stroke-width:10;stroke-miterlimit:10;}
	.st5{fill:none;stroke:#F8BE40;stroke-width:6;stroke-miterlimit:10;}
	.st6{fill:none;stroke:#236FB4;stroke-width:10;stroke-miterlimit:10;}
	.st7{fill:none;stroke:#2470B4;stroke-width:8;stroke-miterlimit:10;}
	.st8{fill:none;stroke:#00994A;stroke-width:8;stroke-miterlimit:10;}
	.st9{fill:#F8BE40;}
	.st10{fill:none;stroke:#EE3025;stroke-width:7;stroke-miterlimit:10;}
	.st11{fill:#EE2E24;}
	.st12{fill:#E83A3C;}
	.st13{fill:none;stroke:#F8BE40;stroke-width:19;stroke-miterlimit:10;}
	.st14{fill:#FFFFFF;}
	.st15{fill:#069647;}
	.st16{fill:none;stroke:#069647;stroke-width:10;stroke-miterlimit:10;}
	.st17{fill:none;stroke:#069647;stroke-width:6;stroke-miterlimit:10;}
	.st18{fill:none;stroke:#069647;stroke-width:7;stroke-miterlimit:10;}
	.st19{fill:#1D5688;}
	.st20{fill:none;stroke:#069647;stroke-width:19;stroke-miterlimit:10;}
	.st21{fill:none;stroke:#069647;stroke-width:2;stroke-miterlimit:10;}
</style>
<g>
	<path class="st0" d="M307.1,71.3c3.2,2.9,6,6.1,4.4,11c-1.6,4.6-5.1,5.8-9.6,5.7c-20.8-0.1-41.5-0.1-62.3,0
		c-13.6,0-19.8,6.1-19.8,19.6c0,49.3,0,98.6,0,148c0,1.8,0.2,3.6,0.2,4.8c13.9,0,27.3-0.2,40.8,0c25.9,0.4,51.3,3.9,75.9,12.3
		c1.5,0.5,3.6-0.3,5.3-0.9c4.8-1.6,9.5-4.4,14.4-4.9c7.9-0.8,15.9-0.5,23.9,0c12.4,0.9,21.7,11.4,21.8,23.9
		c0.1,12.3-8.8,22.5-21,24.1c-3.4,0.5-6.9,0.6-10.7,0.9c-0.1,1.8-0.4,3.5-0.4,5.1c0,8.7,0,17.4,0,26.4c3.8,0.3,7.1,0.4,10.4,0.7
		c12.4,1.3,21.7,11.6,21.7,24c0,12.3-8.9,22.8-21.1,23.9c-8.3,0.8-16.7,1.1-25,0.1c-5.9-0.7-11.6-3.7-17.4-5.7c0,9.1,0,19.3,0,30.6
		c11.4-11.7,25.6-7.9,39-8c14.1-0.2,24.8,11.2,24.4,24.8c-0.3,13.6-10.9,23.7-24.9,23.8c-2.2,0-4.4,0-6.9,0c0,5.7,0,10.8,0,16.7
		c2.3,0,4.7,0,7,0c13.8,0.1,24.2,9.9,24.8,23.3c0.6,13.4-9.6,25.3-23.4,25.1c-11.4-0.2-21.3,1.7-30.4,8.6c-3.3,2.5-7.5,3.7-10.3,5
		c0,11.6,0,22.4,0,33.9c3,0,5,0,6.9,0c77,0,153.9,0,230.9,0c13.6,0,19.6-6,19.6-19.7c0-30.2-0.1-60.4,0.2-90.7
		c0-2.9,1.6-6.7,3.7-8.5c1.7-1.5,6.2-1.8,8.1-0.6c2.3,1.5,4.5,5.2,4.6,7.9c0.4,18.5,0.2,37.1,0.2,55.6c0,12.8,0,25.6,0,38.4
		c-0.1,19.8-13.1,33.5-32.9,34.7c-2,0.1-4.1,0.1-6.1,0.1c-75.7,0-151.3,0-227,0c-2.4,0-4.7,0-7.6,0c1.4,17.7-9.8,25.8-22.9,32.4
		c-16.8,8.4-34.9,12.1-53.3,14.5c-8.3,1.1-16.6,1.8-24.9,2.2c-5.9,0.3-9.8-3.2-9.8-8.2c0-4.7,3.4-8,9.1-8.4
		c20.9-1.6,41.7-3.7,61.5-11.2c6.5-2.4,12.9-5.7,18.6-9.7c2.6-1.9,4.3-6.3,4.8-9.7c0.8-6,0.2-12.2,0.2-17.4
		c-68.2,25.4-136.1,25.4-204.6,0c0,6.4-0.8,13.9,0.4,21.2c0.5,3.1,4.3,6.8,7.5,8.2c11.3,4.8,22.8,9.7,34.7,12.8
		c10.8,2.8,22.3,3.4,33.4,4.9c1.8,0.3,3.7,0.4,5.5,0.7c5.3,1,8,4.3,7.5,9.2c-0.4,4.4-3.9,7.9-8.7,7.5c-26.8-2.1-53.5-5.5-77.8-18.4
		c-4.5-2.4-8.6-5.8-12.4-9.3c-4.9-4.6-7.2-10.5-7.1-17.4c0.2-14.5,0.3-28.9,0-43.4c-0.2-9,3.2-16.1,10.1-21.1
		c7.1-5.2,15-9.3,22-13.5c-1.2-21.1-1.1-42.5,0-64.8c-2.5-1.2-6.6-2.6-10.1-4.8c-5.2-3.2-10.3-6.6-14.8-10.6
		c-5-4.5-7.3-10.4-7.2-17.4c0.2-14.3,0.3-28.6,0-42.8c-0.2-8.9,2.9-16.1,9.8-21.3c5.6-4.2,11.8-7.6,18-10.8c2.7-1.4,3.7-2.8,3.7-5.8
		c-0.2-10.4,0.2-20.8-0.1-31.1c-0.4-10.2,4-17.9,11.8-23.8c12.1-9.2,26.2-13.6,40.6-17.1c6.1-1.5,12.3-2.5,18.9-3.9
		c0-2.2,0-4.4,0-6.6c0-47.8,0.5-95.7-0.2-143.5c-0.3-20.6,6.5-35.2,26.7-41.9C255.2,71.3,281.1,71.3,307.1,71.3z M250.3,332.5
		c25.2-0.5,50.4-2,74.5-10c8.6-2.9,16.9-7.4,24.6-12.3c5.2-3.3,5-7.7-0.1-11.3c-5.4-3.8-11.3-7.2-17.4-9.6
		c-19.7-7.7-40.4-10.5-61.3-11.7c-29.7-1.8-59.2-0.2-88.2,7.4c-10.9,2.9-21.8,6.2-30.5,14c-4.7,4.2-4.9,7.9,0.2,11.5
		c5.7,4,11.9,7.5,18.4,9.9C196.2,330.1,223.2,331.9,250.3,332.5z M352.8,329.4c-32.7,16.3-67.3,19.8-102.4,19.8
		c-35.1,0-69.6-3.7-102.1-19.9c0,6.6,0.2,12.4-0.1,18.1c-0.3,5.3,1.7,9.3,6.1,11.5c7.5,3.8,15.1,8.1,23.1,10.4
		c45.3,12.8,91,12.8,136.7,2.6c10.7-2.4,20.9-7.2,30.9-11.8c3.2-1.5,6.9-5.5,7.4-8.9C353.6,344.3,352.8,337,352.8,329.4z
		 M352.9,488.3c-68.6,25.4-136.4,25.4-204.6-0.1c0,5.6,0.2,11.5-0.1,17.4c-0.2,4.6,1.5,8.2,5.3,10.3c7.1,3.8,14.2,8.1,21.9,10.4
		c45.3,13.6,91.3,13.5,137.2,3.7c11.5-2.5,22.5-7.9,33.4-12.9c3-1.4,6-5.5,6.5-8.8C353.6,501.6,352.9,494.6,352.9,488.3z
		 M116.8,400.4c0,5,0.4,10.7-0.1,16.3c-0.5,5.8,1.9,10,6.6,12.4c7.6,3.8,15.2,8,23.2,10.3c43.1,12.2,86.7,12.1,130.4,3.9
		c13.3-2.5,26.4-6,37.7-13.9c2.8-2,6.1-5.3,6.6-8.3c1-7,0.3-14.2,0.3-20.6C253.1,425.8,185.2,426,116.8,400.4z M218.6,578.7
		c16.6-1.5,33.2-2.5,49.7-4.8c14.8-2.1,29.5-5.7,42.7-13.2c3.5-2,6.5-4.8,9.3-7.7c0.9-1,1.1-3.7,0.4-4.9c-0.6-1-3.1-1.4-4.6-1.2
		c-7.3,1.1-14.5,2.8-21.8,3.8c-29.2,4-58.3,4-87.5,0c-20.2-2.8-40.1-7-58-17.4c-1.2-0.7-3-1.4-4-0.9c-7.9,3.6-16,6.8-23.2,11.4
		c-6.4,4.1-6.1,8.8,0.4,13c5.8,3.8,12.1,7.2,18.7,9.5C165.6,575.4,191.9,577.6,218.6,578.7z M253.8,489.9c18.6,0.2,40.4-1.7,61.7-7
		c11.7-2.9,23.3-6.2,32.9-14c6-4.8,6.3-8.8,0-12.9c-7.2-4.7-15.4-7.8-23.2-11.5c-0.9-0.4-2.5,0-3.5,0.6
		c-24.1,13.8-50.9,17.6-77.9,19.7c-30.4,2.4-60.7,0.7-90.6-6c-3.6-0.8-5.8,1.6-4.3,5c0.8,1.9,2.4,4,4.1,5c5.9,3.4,11.8,7.1,18.1,9.4
		C196.8,487.6,223.5,489.9,253.8,489.9z M133.3,360.8c-3,1.6-5.8,2.9-8.4,4.6c-10.3,6.6-10.7,12.5,0.2,18c10.6,5.3,22,9.7,33.6,12.5
		c31.5,7.6,63.5,7.5,95.6,4.4c9-0.9,17.9-2.8,26.9-4.2c-0.1-0.5-0.1-0.9-0.2-1.4c-3.7,0.2-7.3,0.3-11,0.5
		c-31.3,1.9-62.2-0.1-92.5-8.3C160.6,382.5,144.4,376.8,133.3,360.8z M367.6,430.1c0-0.1,0-0.2,0-0.3c-4.2,0.2-8.5,0.1-12.7,0.9
		c-1.7,0.3-3.2,2.6-4.5,4.2c-0.2,0.3,0.7,1.8,1.4,2.5c7.4,7.2,16.4,9.2,26.3,7.6c4.3-0.7,7.2-3,7-7.8c-0.1-4.4-2.8-6.7-7-7.1
		C374.6,429.8,371.1,430.1,367.6,430.1z M351.5,377.2c0.9,0.7,1.7,1.6,2.4,1.7c8.8,0.2,17.7,0.9,26.4,0.1c5.1-0.5,6.4-8.4,2.5-12.1
		c-2.4-2.3-15.9-3.2-18.5-1C360.2,369.4,356.1,373.1,351.5,377.2z M358.4,283.6c3,3.5,6.3,5.9,7.5,9.2c2.3,5.9,6.5,6,11.4,5.6
		c5-0.4,7.9-3.1,7.6-7.6c-0.3-4.6-2.9-7-7.5-7.1C371.5,283.5,365.4,283.6,358.4,283.6z M370.2,510c5.3,0.1,10.7,1.7,13.5-3.5
		c1.2-2.1,1-6.1-0.3-8.1c-3.1-4.8-8.3-3.4-13.3-3C370.2,500.3,370.2,504.8,370.2,510z"/>
	<path class="st0" d="M585.2,71.3c4.6,2.3,9.7,3.9,13.7,6.9c8.7,6.4,13,15.4,13,26.3c0,105.8,0,211.6,0,317.4
		c0,6.8-3.3,10.8-8.6,10.6c-5.2-0.2-8.1-4.1-8.1-11.1c0-104.1,0-208.3,0-312.4c0-15.2-5.9-21.1-21.2-21.1c-76.7,0-153.5,0-230.2,0
		c-7.6,0-12-4.1-10.2-10.1c0.7-2.4,3-4.4,4.5-6.6C420.6,71.3,502.9,71.3,585.2,71.3z"/>
	<path class="st0" d="M407.4,131.1c48,0,96,0,144.1,0c10.5,0,12.6,2.2,12.6,12.8c0,24.8,0,49.7,0,74.5c0,8.8-2.9,11.7-11.6,11.7
		c-96.6,0-193.2,0-289.8,0c-8.9,0-11.8-2.8-11.8-11.6c-0.1-25.4-0.1-50.8,0-76.2c0-8.6,2.7-11.2,11.4-11.2
		C310.6,131.1,359,131.1,407.4,131.1z M546.9,148.3c-93.1,0-185.8,0-278.5,0c0,21.7,0,43.1,0,64.3c93.1,0,185.7,0,278.5,0
		C546.9,191,546.9,169.8,546.9,148.3z"/>
	<path class="st0" d="M447.6,266.8c3.7,0,7.4-0.1,11.1,0c13.2,0.6,23,10.5,23.4,23.5c0.4,12.7-8.5,23.5-21.4,24.7
		c-8.8,0.8-17.8,0.8-26.6,0c-13-1.2-21.8-12.2-21.2-25.4c0.5-12.1,10.5-22,23-22.7C439.8,266.6,443.7,266.8,447.6,266.8
		C447.6,266.8,447.6,266.8,447.6,266.8z M447.6,298.4C447.6,298.4,447.6,298.4,447.6,298.4c3,0,5.9,0,8.9,0c0.4,0,0.7,0,1.1,0
		c5-0.3,7.9-3.2,7.6-7.6c-0.3-4.6-3-7-7.5-7.1c-6.8-0.1-13.7-0.1-20.5,0c-4.7,0.1-7.4,3-7.4,7.3c0,4.3,2.6,7.2,7.3,7.4
		C440.5,298.4,444,298.4,447.6,298.4z"/>
	<path class="st0" d="M527.8,266.8c3.9,0,7.8-0.2,11.7,0c12.6,0.8,22.1,10.6,22.6,23.1c0.5,12.8-8.2,23.8-21,25
		c-9,0.8-18.2,0.8-27.2,0c-12.9-1.2-21.6-12.3-21-25.6c0.5-11.9,10.4-21.7,22.7-22.5C519.7,266.6,523.7,266.8,527.8,266.8z
		 M527.6,298.3C527.6,298.4,527.6,298.4,527.6,298.3c3,0,5.9,0,8.9,0c0.4,0,0.7,0,1.1,0c5-0.3,7.9-3.1,7.7-7.5
		c-0.3-4.6-2.9-7.1-7.5-7.2c-6.8-0.1-13.7-0.1-20.5,0c-4.7,0.1-7.4,2.9-7.5,7.2c-0.1,4.3,2.6,7.2,7.2,7.4
		C520.5,298.5,524,298.3,527.6,298.3z"/>
	<path class="st0" d="M527.4,396.3c-4.3,0-8.6,0.4-12.8-0.1c-13.1-1.4-22-11.8-21.8-25c0.3-12.2,9.8-22.4,22.5-23.2
		c8.1-0.5,16.3-0.5,24.4,0c12.9,0.9,22.2,11.1,22.3,23.9c0.1,12.5-8.8,22.8-21.4,24.2c-4.4,0.5-8.9,0.5-13.3,0.7
		C527.4,396.7,527.4,396.5,527.4,396.3z M527.5,379.5c3.5,0,7,0.1,10.5,0c4.6-0.2,7.2-2.8,7.2-7.4c0-4.3-2.5-7-6.8-7.2
		c-7.2-0.3-14.4-0.2-21.6,0c-4.4,0.1-6.9,3.1-7,7.1c-0.1,4.3,2.5,7.3,7.2,7.5C520.5,379.6,524,379.5,527.5,379.5z"/>
	<path class="st0" d="M447.4,348.1c4.3,0,8.5-0.3,12.8,0.1c12.6,1.1,21.8,11.2,21.9,23.7c0.2,12.5-8.7,23.2-21.3,24.3
		c-8.8,0.8-17.8,0.8-26.6,0c-12.8-1.1-21.6-11.8-21.4-24.7c0.2-12.1,9.5-22.2,21.8-23.3C438.8,347.8,443.1,348.1,447.4,348.1z
		 M447.3,379.5c3.5,0,7,0.1,10.5,0c4.6-0.2,7.3-2.7,7.3-7.3c0-4.6-2.7-7.2-7.2-7.3c-7-0.2-14-0.2-21,0c-4.7,0.1-7.2,3.2-7.1,7.5
		c0.1,4.1,2.6,6.9,7,7.1C440.3,379.6,443.8,379.5,447.3,379.5z"/>
	<path class="st0" d="M527.7,461.7c-3.3,0-6.7,0-10,0c-13.8-0.1-24.5-10.1-24.8-23.2c-0.3-13.7,9.6-24.7,23.3-25.4
		c7.6-0.4,15.2-0.4,22.8,0c13.5,0.7,23.4,11.6,23.1,25c-0.3,13.4-10.7,23.5-24.4,23.7C534.4,461.7,531.1,461.7,527.7,461.7z
		 M527.9,430.1c-3.7,0-7.4-0.2-11.1,0c-4.3,0.3-6.9,2.9-7,7.1c-0.1,4.2,2.5,7.3,6.6,7.6c7.4,0.5,14.8,0.5,22.1,0
		c4-0.2,6.8-3,6.7-7.4c-0.1-4.4-2.6-6.9-6.8-7.2C534.9,429.8,531.4,430.1,527.9,430.1z"/>
	<path class="st0" d="M447.7,478.4c3.2,0,6.3,0,9.5,0c13.8,0.1,24.3,9.8,24.9,23.1c0.6,13.5-9.3,24.7-23.2,25.5
		c-7.6,0.4-15.2,0.4-22.8,0c-14-0.8-23.9-12.2-23.2-26.1c0.6-12.8,11.3-22.5,24.9-22.6C441.1,478.4,444.4,478.4,447.7,478.4z
		 M447.4,495.1c-3.5,0-7-0.3-10.5,0.1c-4.4,0.4-7.3,3.2-7.2,7.6c0.1,4.2,2.6,7,7,7.1c7.2,0.2,14.4,0.3,21.6,0
		c4.2-0.2,6.8-2.8,6.9-7.2c0-4.7-2.8-7.1-7.2-7.6C454.5,494.8,450.9,495.1,447.4,495.1z"/>
	<path class="st0" d="M527.1,527.5c-4.8-0.3-9.7-0.1-14.4-1c-13-2.5-21-13.6-19.7-26.7c1.2-12,11.7-21.2,24.4-21.3
		c6.7,0,13.3,0,20,0c13.8,0.1,24.2,9.9,24.7,23.3c0.5,13.6-9.5,24.5-23.3,25.4c-3.9,0.3-7.8,0-11.7,0
		C527.1,527.3,527.1,527.4,527.1,527.5z M527.6,510C527.6,510,527.6,510,527.6,510c3.5,0.1,7,0.3,10.5,0c4.5-0.4,7.2-2.9,7.1-7.6
		c-0.1-4.4-2.9-7-7-7.2c-7.2-0.4-14.4-0.4-21.6,0c-4.2,0.2-6.9,3.1-6.9,7.3c0,4.1,2.4,7,6.8,7.3C520.2,510.2,523.9,510,527.6,510z"
		/>
	<path class="st0" d="M447.4,461.7c-3.3,0-6.7,0-10,0c-13.6-0.1-24.3-10.3-24.5-23.5c-0.2-13.6,9.9-24.6,23.6-25.2
		c7.2-0.3,14.5-0.3,21.7,0c13.8,0.5,24.2,11.3,24,24.8c-0.2,13.6-10.8,23.8-24.7,23.9C454,461.7,450.7,461.7,447.4,461.7z
		 M447.6,445c3.5,0,7.1,0.3,10.5-0.1c4.3-0.5,7.2-3,7-7.7c-0.1-4.4-2.8-6.9-7-7c-7-0.3-14-0.2-21,0c-4.6,0.1-7.4,2.9-7.3,7.4
		c0,4.5,2.9,7.1,7.4,7.5C440.6,445.2,444.1,445,447.6,445z"/>
	<path class="st0" d="M161.3,227c-4.4,0-8.9,0.1-13.3,0c-5.4-0.2-9-3.8-8.8-8.6c0.2-4.6,3.7-7.9,8.8-8c9.2-0.1,18.5-0.1,27.7,0
		c5.1,0.1,8.6,3.7,8.6,8.3c0,4.5-3.6,8.1-8.7,8.3C170.9,227.1,166.1,227,161.3,227z"/>
	<path class="st0" d="M161.6,252.7c-4.6,0-9.2,0.2-13.9,0c-5.1-0.2-8.6-3.7-8.6-8.3c0-4.6,3.5-8.3,8.5-8.4c9.4-0.2,18.9-0.2,28.3,0
		c4.9,0.1,8.5,4.2,8.3,8.6c-0.2,4.4-3.4,7.8-8.3,8C171.2,252.9,166.4,252.7,161.6,252.7C161.6,252.7,161.6,252.7,161.6,252.7z"/>
	<path class="st0" d="M184.4,189.8c0.1,4.6-3.8,8.4-8.6,8.3c-4.6,0-8.2-3.4-8.4-7.9c-0.2-4.5,3.6-8.6,8.2-8.8
		C180.1,181.4,184.3,185.3,184.4,189.8z"/>
</g>
</svg>
