<svg id="Layer_1" data-name="Layer 1" xmlns="http://www.w3.org/2000/svg" viewBox="0 0 595.28 841.89"><defs><style>.cls-1{fill:#236fb4;}.cls-2{fill:#f9bf42;}</style></defs><path class="cls-1" d="M320.62,55.89c9.86,2.17,19.87,3.8,29.55,6.59,68.94,19.92,113,64.79,132.68,133.6,11,38.6,4.92,75.92-8.6,112.77-21.28,58-49.32,112.73-80.34,165.92-26,44.53-53.22,88.32-80.06,132.34-6.66,10.93-16.12,10.92-22.91.3-46-72-90.13-145.1-127.64-222-15.54-31.85-29.39-64.35-39.71-98.38-14.23-46.91-7.84-91.54,15.17-133.62,27.71-50.66,70.82-81.76,127.39-93.93,5.43-1.17,10.84-2.4,16.26-3.61ZM302.27,581.78c1.89-2.89,3.44-5.07,4.79-7.37,31.09-53.1,63-105.77,93-159.49,22.59-40.45,42-82.57,56.49-126.79,8.43-25.74,11.48-51.71,5.71-78.4-18.46-85.41-98.82-142.34-185.09-128-60.75,10.1-102.82,44.66-126.25,101.17-12.63,30.49-15.25,62.14-5.77,94.53A536.15,536.15,0,0,0,185.43,377c25.83,49,53,97.33,80.21,145.6C276.88,542.55,289.7,561.59,302.27,581.78Z"/><path class="cls-2" d="M77.58,546.1c75.42,61,150,121.36,224.79,181.9L527.09,546.15c-6.3-4.38-12.19-8.53-18.13-12.61q-40.2-27.6-80.41-55.18a33.54,33.54,0,0,1-5.85-4.64c-4-4.37-4.68-9.41-1.16-14.29,3.4-4.7,8.14-6.46,13.77-4a35.48,35.48,0,0,1,5.9,3.36q54,37,108,74.06c11.93,8.19,12.19,15.59.92,24.71q-118.53,95.91-237,191.83c-8.86,7.17-12.61,7.12-21.52-.09Q174.37,654.43,57.15,559.61c-14.57-11.78-14.48-17.93.81-28.43q53.12-36.51,106.33-72.85a34.27,34.27,0,0,1,5.23-3.18c5.78-2.57,11.7-.75,14.89,4.38,3,4.86,2.18,10.66-2.58,14.7a127.26,127.26,0,0,1-10.52,7.55Q128,511.48,84.68,541.14C82.65,542.53,80.64,544,77.58,546.1Z"/><path class="cls-2" d="M372.39,242.72c-.11,38-32.2,69.75-70.28,69.66-37.69-.09-70-32.44-70-70.15,0-37.38,32.7-70.1,70.1-70.12C340.36,172.1,372.51,204.45,372.39,242.72ZM256,242.4c.06,25.53,20.89,46.53,46.23,46.6S349.47,267.08,349,242A46.71,46.71,0,0,0,302.17,196,46.05,46.05,0,0,0,256,242.4Z"/></svg>