<svg id="Layer_1" data-name="Layer 1" xmlns="http://www.w3.org/2000/svg" viewBox="0 0 595.28 841.89"><defs><style>.cls-1{fill:#236fb4;}.cls-2{fill:#ee2e24;}</style></defs><path class="cls-1" d="M289.69,609.64v66.88h-248c.7-10.19,1.35-20.22,2.09-30.25q2.9-39.3,5.85-78.58c1.32-17.44,2.11-35,7.15-51.9a6.87,6.87,0,0,0-1.25-5.34C38.65,489.2,37.58,463.08,53,440.74q12.85-18.67,26-37.11c13-18.21,15.84-37.71,8.83-59-4.37-13.31-9.11-26.74-11.25-40.49-5.08-32.52,4.13-62.27,23.41-88.18,29.26-39.33,69.48-56.27,117.75-48.86,48.09,7.38,80.51,35.9,97.5,81.58q14.75,39.61.55,79.55a210.68,210.68,0,0,0-8.62,30.06c-3,15.39,1.18,29.64,9.9,42.47s17.71,25.33,26.57,38c16.22,23.19,16.29,46.33.36,69.84a5.25,5.25,0,0,0-.49,4.41c7.48,14.47,15.16,28.82,22.95,43.5,1.37-.83,2.54-1.45,3.62-2.2,13.37-9.34,26.79-18.62,40-28.15a8.41,8.41,0,0,0,3.22-5.59c.7-15,10.62-25.15,25.62-25,4,0,6-2,8.14-4.38,6.53-7.05,14.09-12,24.06-12.24,13.65-.3,25.13,6.84,30.43,18.87s2.77,25.43-6.76,35.18c-8.4,8.6-17,17-25.48,25.54-21,21-42.53,41.57-62.94,63.16-30,31.72-76.05,26.74-103.4,1.84C298.55,619.46,294.65,614.84,289.69,609.64ZM157.44,248.14v16c-11.18,2.87-16.11,8-16.16,17.33-.13,24.74-.29,49.49.05,74.23.29,20.46,14.6,37.21,34.79,39.75,12,1.51,24.33.92,36.51.95,26.37.06,44-17.55,44.1-43.79q.06-24.74,0-49.48c0-11.43-3.75-17-14.48-21.05a53.27,53.27,0,0,1-22.76-16.3c-8-9.85-12.29-21.06-12.21-33.95h16.27c1.64,18,10.74,29.71,27.53,35.89,13.75,5.05,22.06,17.73,22.1,32.31.05,18.38.21,36.77,0,55.15-.32,23.18-11.21,40.12-31.3,51.34-1.61.9-3.27,1.7-6.46,3.35,2.85,2.14,4.56,4.36,6.69,4.86,37.69,8.88,65.36,30.59,83.54,64.64,2.49,4.66,4.95,9.34,7.68,14.5.84-1.4,1.43-2.19,1.83-3.06,6.58-14.21,5-27.71-3.75-40.44-9.72-14.15-19.89-28-29.36-42.31-10.64-16.11-14.83-34.07-11.22-53,2.2-11.54,6.07-22.82,9.82-34,7-20.73,7.32-41.36.46-62.12-13.8-41.83-42-68.21-85.57-75.29-40.1-6.51-74.07,7.07-99.51,38.8-18,22.46-27.13,48.67-23,77.75,1.84,13.09,6.22,25.93,10.45,38.56,9,26.89,5.52,51.65-10.89,74.72-9,12.6-18,25.17-26.56,38-9.23,13.76-9.39,28.08-1.69,42.74.6-.37,1-.48,1.16-.73a14.7,14.7,0,0,0,1-1.77c19.37-37.78,49.29-63.14,89.62-76.37,2.2-.72,3.79-3.3,6.28-5.58-3-1.52-4.48-2.25-5.95-3.05-18.91-10.3-30.5-26.05-31.32-47.59-1-26.77-.47-53.61-.17-80.41C125.06,262,140.47,247.76,157.44,248.14ZM199,564.68c-18.1-16.45-30.55-35.79-37-58.88-3.6-12.84-4.55-25.95-4.29-39.24.22-11.24,0-22.5,0-34.14-1.29.39-1.94.53-2.55.77C108.08,451.48,79.61,485.52,69.58,535c-.28,1.37,1.15,3.79,2.48,4.65,10.65,6.91,21.46,13.57,32.24,20.28,1.1.68,2.32,1.17,4.18,2.09V512.14h16.33V660H273.23V512.2h16.66v50.55l46.27-29c-11.69-20.87-22-42.06-34.9-61.61-14.17-21.55-35.4-34.38-61.06-40.86,0,2.44,0,4.45,0,6.46-.32,17.16.45,34.43-1.25,51.45C235.92,519.35,221.44,544,199,564.68Zm90.19,18.18c8.57,9.76,16,19.56,24.77,27.91,20.46,19.46,56.84,25,80.73-1.14,7.42-8.11,15.5-15.6,23.27-23.37q32.24-32.25,64.46-64.53c6.79-6.84,6.88-15.87.56-22-6.13-6-14.86-5.68-21.66.79-2.86,2.72-5.39,5.84-8.48,8.25a13,13,0,0,1-7,2.95c-14.93.35-16,1.18-15.83,16.32a8,8,0,0,1-3.9,7.54c-18.07,12.48-36,25.12-54,37.71-9.26,6.48-18.52,12.94-28.14,19.66l-9.48-13.54,18.34-13.09c-3.16-5.92-6.12-11.46-9.29-17.38ZM107.9,660.13a13,13,0,0,0,.34-1.88c0-24.4.09-48.79-.11-73.18,0-1.71-1.69-4-3.25-5-11.23-7.27-22.63-14.29-34-21.37-1.08-.66-2.27-1.13-3.73-1.85-2.57,34.72-5.09,68.87-7.63,103.28Zm66-198.1h50.15c-1.87-16.55,2.82-33.14-3.59-49.06h-43C171.09,428.89,175.78,445.49,173.9,462Zm49.36,17.14H174.68A102.27,102.27,0,0,0,199,540.74C214,522.45,222,502.33,223.26,479.17Z"/><path class="cls-2" d="M397,445.86c-11.13,0-21.59,0-32,0-15.16,0-25.67-10.43-25.69-25.46q0-48.7,0-97.41c0-15.09,10.48-25.53,25.6-25.54q81.69,0,163.37,0c14.83,0,25.39,10.48,25.41,25.21q.07,49,0,97.92c0,14.73-10.58,25.24-25.35,25.27-19.07.05-38.16.52-57.2-.2-9.15-.35-15.94,1.84-21.82,9-5.22,6.33-11.54,11.76-17.37,17.6-6.45,6.46-14,8.47-22.6,5.18-7.92-3-12.27-10.24-12.31-19.59C396.94,454.06,397,450.31,397,445.86Zm16.46-16.46c0,7.67-.24,14.85.1,22,.16,3.48-2.27,8.75,2.37,9.9,2.34.57,6.18-3.11,8.71-5.52,8-7.58,15.48-15.62,23.49-23.15a12.08,12.08,0,0,1,7.46-3.1c23.36-.24,46.72-.13,70.08-.15,8.68,0,11.53-2.78,11.53-11.3q0-46.38,0-92.75c0-8.63-2.8-11.44-11.39-11.44H367.05c-8.59,0-11.37,2.8-11.37,11.44q0,43.29,0,86.57c0,17,.54,17.49,17.72,17.49Z"/><path class="cls-1" d="M174.5,379.79V363.42h27.88c13.68,0,18-3.23,21.75-16.22h15.73c1,15.74-12.8,31.57-29,32.46C198.9,380.32,186.89,379.79,174.5,379.79Z"/><path class="cls-1" d="M190.86,231.88c-1.16,16.46,2.22,31.12,13.91,43.06L193,286.64c-14.81-15.34-20.4-33.62-18.4-54.76Z"/><path class="cls-1" d="M174.2,305.81a8.22,8.22,0,1,1-7.94-8.36A8.08,8.08,0,0,1,174.2,305.81Z"/><path class="cls-1" d="M232,313.88a8.22,8.22,0,1,1,8.22-8.09A8.06,8.06,0,0,1,232,313.88Z"/><path class="cls-2" d="M471.67,380.49v32.2H455.25v-82c9.74,0,19.62-1.12,29.13.25,17.12,2.47,25.55,22.2,16.47,37-1.64,2.66-2,4.36-.23,7.22a23.78,23.78,0,0,1,3.6,10.51c.5,8.86.17,17.77.17,26.92H487.83V393C487.83,381.23,484.49,378.52,471.67,380.49Zm.3-17.2c5.65-.05,11.6,1.76,14.59-4.21a10.17,10.17,0,0,0-.39-8.51c-3.28-5.23-8.9-3.65-14.2-3.4Z"/><path class="cls-2" d="M421.52,330.55h16.21V412.5H421.89V380.29H405.33v32.26H389.12V330.79H405V363h16.57Z"/></svg>