<svg id="Layer_1" data-name="Layer 1" xmlns="http://www.w3.org/2000/svg" viewBox="0 0 595.28 841.89"><defs><style>.cls-1{fill:#236fb4;}.cls-2{fill:#ee2e24;}</style></defs><path class="cls-1" d="M140.89,494V429.42H108.46V413h32.38V396.29c-9,0-17.93-.11-26.81.06-3,0-4.53-.59-5.19-3.94-2-10.43-9-17.93-16-25.28C84.36,358.32,75.4,350,67.55,340.66c-26.45-31.3-32.62-67-18.65-105C63,197.17,91.64,173.78,132,166.78c58.44-10.15,113.68,30.15,123.3,88.77.44,2.7.69,5.43,1.07,8.45h82.85c4.11-36.28,21.22-64.72,52.71-83.78,22.3-13.5,46.72-17.81,72.32-13.44a107.29,107.29,0,0,1-8.2,212.64c-29.53,2.8-56.11-5.7-78.83-24.95-22.53-19.1-34.86-43.73-37.87-73.32H256.92c-1.36,6.75-2.39,13.53-4.14,20.12C248,319.14,238,334,225.51,347.29c-8.83,9.38-18.07,18.39-26.67,28-7.05,7.86-8.48,12.57-8,20.71h99.23c8.3-22.75,21.95-33.11,43-32.61,17.78.42,32,12.43,38.54,33h49.6v16.3H371.55c-2.88,11.5-8.85,20.62-18.72,26.87a41.67,41.67,0,0,1-25.56,6.24c-17.15-1-31.22-13.34-37-32.7h-99.4v17.38c9.06-2.46,17.18-1,24.22,4.86,14.61-10.66,32.86-7.3,40.45,10.77,5.65.26,11.22-.31,16.36.93,10.6,2.57,17.62,12.27,17.67,23.2.09,17.36,0,34.71,0,52.07v6.06h49.61c4-35.86,20.57-63.91,51-83.09,22.54-14.21,47.4-18.92,73.58-14.57A107.3,107.3,0,0,1,456,643.38c-29.53,2.8-56.1-5.73-78.81-25-22.54-19.1-34.83-43.75-37.87-73.31H288.89a114.14,114.14,0,0,1-15.1,42.59c-.79,1.33-.66,3.31-.66,5,0,19.42,0,38.84,0,58.26,0,15.44-10.39,25.8-25.86,25.81q-48.46,0-96.92,0c-15.15,0-25.6-10.43-25.63-25.52,0-18.9,0-37.81-.1-56.71,0-2-.71-4.62-2.08-5.78C107,575.57,98.05,559,95.26,538.88c-3-21.73-10.28-42.2-18.37-62.47-6.3-15.79,4.5-31,21.41-30.51,15.28.46,27.25,7.57,34.2,21.05,3.52,6.82,4.44,15,6.5,22.54.43,1.55.71,3.13,1.06,4.71Zm40.7-125.2c10.95-11.35,21.62-22.28,32.13-33.34,20.8-21.89,30.34-47.73,25-77.77-9.15-51.66-56.47-83.75-107.93-73.87-54.56,10.47-87.07,71.55-65.32,122.63,6,14,15.76,25.22,26.21,36,8.24,8.49,18,16.26,23.68,26.29,6,10.62,13.46,12.29,23.63,11.06.34,0,.76.12,1,0,1.19-.69,2.77-1.2,3.43-2.26C153,362.11,167,359,181.59,368.84Zm-7.43,126.21V409.93c0-7,.11-14.09-.06-21.13-.12-5.22-3.63-8.88-8.11-8.94s-8,3.58-8.34,8.74c-.09,1.37,0,2.75,0,4.12q0,50,0,100c0,10.56-5.94,18-15,19-9.95,1-17.19-4.77-19.41-15.67-1-4.87-1.49-9.85-2.67-14.67-2.36-9.67-8.45-16-18.25-18.09-2.88-.61-6.76-.48-9,1-3.38,2.27-1,5.89.21,8.86a281.37,281.37,0,0,1,18.9,66.58,55.12,55.12,0,0,0,21,36,8.85,8.85,0,0,0,5,1.93q59.28.16,118.56,0c1.59,0,4.06-1.41,4.62-2.78,3.41-8.37,7.85-16.69,9.19-25.45,2-13,1.92-26.3,2.26-39.49.33-12.71.14-25.43,0-38.14-.05-5.61-3.47-9.39-8.13-9.47s-8.12,3.71-8.36,9.25c-.08,2.06,0,4.12,0,6.18V495H240.68a4.4,4.4,0,0,1-.44-1.2q-.08-17.79-.09-35.56c0-8.24-2.85-12.45-8.34-12.39s-8.2,4.23-8.2,12.52v36.56H207.37c-.09-1-.2-1.67-.2-2.33,0-12.55.07-25.09-.07-37.63-.06-5.48-3.82-9.29-8.46-9.12s-7.81,3.82-8,9.09c-.14,4.29,0,8.59,0,12.89v27.23ZM502.93,342.78c28.59-20.39,41.21-62.82,29.65-98.15-12.3-37.59-47.75-63.16-87.05-62.79-39.12.37-74.29,26.61-85.79,63.83-12,38.69,4,77.55,30,97a61.08,61.08,0,0,1,23.59-35.22c-6.51-6.31-8.76-13.58-8.22-21.92.24-3.77-.19-7.58.11-11.33.25-3.32-.93-5.14-3.77-7-13.72-8.81-17.84-27.64-7.22-39.93a123.1,123.1,0,0,1,28.5-24.45c13.88-8.47,30.26-5.38,45.36-3.63,17.25,2,28.89,13,34,29.72,5.09,16.54,1,31.2-11,43.54-2.45,2.51-3.83,4.89-3.55,8.5.74,9.77.09,19.24-8.27,26.49A60.21,60.21,0,0,1,502.93,342.78ZM141.13,594.49c0,18.8,0,37,0,55.21,0,7.55,3.07,10.56,10.7,10.57q46.91,0,93.81,0c8,0,11-2.95,11-10.82q.06-25.51,0-51c0-1.3-.23-2.61-.36-3.93Zm362.21,12c29-21.09,41.11-63.8,28.55-99.92a91.22,91.22,0,0,0-88.55-60.7c-39.53,1.36-74.26,28.89-84.54,66.88-10.53,38.95,7,76.61,30.65,93.57,2.49-4.15,2.48-7.69-.37-12.17C375.7,573,369.34,550,373.1,525c5.09-33.85,34-60.57,67-62.56,36.3-2.18,67.92,19.22,77.46,53.38,7.83,28,1,54-13.83,78.18C501,598.42,500.53,602,503.34,606.46ZM401.12,581.84l17.94-14.62c-12.3-10.51-15-24.62-13.85-40,.13-1.75,1.05-4,2.38-5q13.73-9.59,27.84-18.55a5.75,5.75,0,0,1,5-.12q22.42,13.14,44.57,26.73a6.28,6.28,0,0,1,2.48,4.35,41.82,41.82,0,0,1-.57,9.2c-1.51,9.51-6.61,17.12-13.07,23.49L491.7,582c9.06-16.67,14.35-34.33,11.47-53.59-3.33-22.25-15.85-37.76-36.81-45.66s-40.7-4.17-57.68,10.46C390.75,508.64,386,528.79,390,551.5,391.93,562.33,395.38,572.62,401.12,581.84Zm39.24-345.51c2.66,3.93,5.07,7.63,7.62,11.23,6.11,8.65,14.26,14.23,24.83,15.83,1.5.23,3.63,0,4.64-.89,7.91-7.15,11.83-15.87,9.27-26.68-2.51-10.65-9.08-18.23-19.81-19.82a122.47,122.47,0,0,0-30.19-.43c-4.7.49-10.13,4-13.2,7.74a38.25,38.25,0,0,1-12.22,10.3,11.27,11.27,0,0,0-3.37,17.56c2.35,2.79,4.65,4,8.27,1.36C424,247,432.08,241.84,440.36,236.33ZM420.31,587.47c-8.57,7.65-13.46,16.07-14.38,26.46-.14,1.5,1.1,4,2.37,4.62,25.33,11.55,50.77,11.55,76.13,0,1.14-.51,2.63-2.14,2.55-3.15-.86-11.07-5.6-20.19-14.72-27.94l-25.94,26.28C437.74,605.09,429.19,596.45,420.31,587.47ZM355.59,404.61A25.12,25.12,0,0,0,331,379.82c-13.3-.12-24.7,11.05-24.92,24.42s11.32,25.11,24.81,25.05A25.16,25.16,0,0,0,355.59,404.61Zm80.08-144.74c-14.09,7.53-14.09,7.53-14.09,23.22,0,1.71-.07,3.43,0,5.14.29,5.66,3.39,9,9,9.06,10.45.16,20.91.14,31.37,0,5.07-.06,8.4-2.86,8.92-7.49a82.26,82.26,0,0,0,.07-9.41C456.64,277.25,453.89,275.63,435.67,259.87Zm10.53,301.4a25.23,25.23,0,0,0,23.31-16.33c1-2.72.7-4.31-2-5.85-8.89-5.12-17.62-10.5-26.42-15.78a7.8,7.8,0,0,0-1.79-1c-3-.83-17.65,10.18-17.75,13.3A25.19,25.19,0,0,0,446.2,561.27Zm-8.1-246.21c-17.47,3.5-30.63,17.85-32.24,34.81-.13,1.38.47,3.7,1.43,4.18a75.53,75.53,0,0,0,30.43,8.43,17.47,17.47,0,0,0,.36-2.33C438.1,345.25,438.1,330.34,438.1,315.06Zm16.76,47.48a77.55,77.55,0,0,0,30.22-8.31,4.48,4.48,0,0,0,1.85-3.5c-.6-16.59-15.12-32.67-32.07-35.54Zm-9,227.13L457,579.55c-7.45-2.1-14.1-2.56-20.93.26Z"/><path class="cls-2" d="M454.3,412.56H438.48V396.65H454.3Z"/><path class="cls-2" d="M471.38,396.56H487.2v15.9H471.38Z"/><path class="cls-2" d="M111.51,302.25l10.68-10.43,17.16,18.23,52.78-75.29,13.62,9.54-62.68,89.58Z"/><path class="cls-2" d="M339.07,404.35a8.21,8.21,0,1,1-8.28-8A8.08,8.08,0,0,1,339.07,404.35Z"/></svg>