<svg id="Layer_1" data-name="Layer 1" xmlns="http://www.w3.org/2000/svg" viewBox="0 0 595.28 841.89"><defs><style>.cls-1{fill:#236fb4;}.cls-2{fill:#ee2e24;}</style></defs><path class="cls-1" d="M96.5,493.39H209.61c13.16,0,18.39,4.24,21.06,17,6.56,31.34,34.92,54.22,67.17,54.19a68.74,68.74,0,0,0,67.08-54.31c2.65-12.54,7.9-16.85,20.63-16.86H499.64c-2.3-11.36-4.44-22.1-6.65-32.82-3.39-16.47-6.6-33-10.31-49.39a43,43,0,0,0-42.19-33.59c-31.33-.09-62.65,0-94,0-7.05,0-12.36-3.22-15.4-9.4-2.95-6-2.69-12.49,2-17.33,2.88-3,7.45-6,11.3-6,34.59-.42,69.23-1.24,103.76.18,32.53,1.34,60.47,27.66,67.41,60.92q16.8,80.52,33.09,161.14c2.17,10.7,4.77,21.56,4.94,32.38.59,38.09-28,70.51-65.74,75.6a96.5,96.5,0,0,1-12.81,1q-177.36.07-354.72,0c-38.45,0-69-24.48-77.31-61.87-3-13.41-.76-26.58,2-39.75,11-53.16,22.22-106.29,32.82-159.54,4.09-20.52,11.48-38.83,28-52.47,13.42-11.06,28.72-17.62,46.22-17.77,32.36-.27,64.71-.2,97.07-.14,9.86,0,16.89,7,17,16.3s-7.23,16.72-17.16,16.74c-30.64.06-61.27,0-91.91,0-23,0-39.79,13.2-44.69,35.71-5.55,25.49-10.6,51.09-15.83,76.65A19.46,19.46,0,0,0,96.5,493.39Zm409.8,33.24h-6c-33.21,0-66.42.08-99.63-.09-4.21,0-6.12,1.16-7.78,5.23-15.82,38.81-44.79,61.31-86.36,65.43-46.13,4.57-88-22.75-104.33-66.35-1.26-3.35-2.83-4.31-6.29-4.3-34.06.13-68.13.08-102.2.09-1.36,0-2.72.14-4.2.22-.49,1.59-1.06,3-1.37,4.52-3.73,18.07-7.3,36.18-11.17,54.21-4.91,22.83,3,42.09,21.4,51.92,7.68,4.1,15.92,4.86,24.42,4.86q174.73-.06,349.46,0c2.24,0,4.47-.16,6.71-.15,22.67.08,46.41-21.88,40.23-52.53-1.86-9.21-3.67-18.43-5.56-27.64C511.24,550.32,508.79,538.64,506.3,526.63Z"/><path class="cls-2" d="M314.29,225.69v40.42q0,65.83,0,131.65A16.47,16.47,0,0,1,282,403a25.24,25.24,0,0,1-.72-7.12q-.06-81.83,0-163.65v-6.81c-8.9,9.68-16.88,18.34-24.84,27q-21.1,23-42.18,46.07c-5.19,5.68-11.51,7.47-18.69,4.86-11.16-4.07-14.38-17.52-6.23-26.68,12.7-14.26,25.73-28.23,38.61-42.33q27.87-30.48,55.72-61c9.13-10,19-10.07,28.13-.1q46,50.29,91.91,100.62c2.78,3.06,5.42,6.9,6.43,10.82,2,7.71-1.8,14.62-8.6,18a16.13,16.13,0,0,1-19.38-3.5c-10-10.65-19.83-21.51-29.71-32.29q-17.77-19.41-35.55-38.84C316.36,227.56,315.73,227,314.29,225.69Z"/><path class="cls-2" d="M281.28,484c0-5.5-.08-11,0-16.49a16.48,16.48,0,0,1,32.95-.17q.19,16.75,0,33.5a16.48,16.48,0,0,1-32.94.17C281.17,495.29,281.29,489.62,281.28,484Z"/></svg>