<svg id="Layer_1" data-name="Layer 1" xmlns="http://www.w3.org/2000/svg" viewBox="0 0 595.28 841.89"><defs><style>.cls-1{fill:#236fb4;}.cls-2{fill:#ee2e24;}.cls-3{fill:#fff;}.cls-4{fill:#e83a3c;}</style></defs><path class="cls-1" d="M259.88,684.2c-2.4-2.16-4.86-4.24-7.18-6.49s-4.48-4.66-6.92-7.21c-6.32,3.72-12.45,7.41-18.65,11-3.58,2-7.26,2-10.53-.68-3.06-2.49-4.3-5.94-2.91-9.62a11.86,11.86,0,0,1,4.29-5.44c7.86-5.12,15.9-10,24-14.78,5-3,8.83-2.33,12.87,1.89S263,661.61,267,666c7,7.57,6.75,11.79-.95,18.19Z"/><path class="cls-1" d="M414.38,351.35c-.67,54-6.63,90.45-18.32,126-7.63,23.19,2,47.73,23.3,59.93,1.18.68,2.39,1.33,3.51,2.11,4.63,3.2,6.06,8.1,3.68,12.43-2.5,4.54-7.6,6-12.86,3.39A67.74,67.74,0,0,1,385,528.73c-10.66-18.06-13-37.21-6.57-57.25,10.95-33.92,17-68.63,17.22-104.32.42-71.6-44.9-130.9-114.68-147.33-48.78-11.48-93,.12-131.06,32.92-25.64,22.09-41.53,50.19-47.77,83.41-2.13,11.38-2.5,23.1-3.66,34.67-2,20.44-21.3,39.32-41.85,40.94a29.6,29.6,0,0,1-7.58,0c-4.72-.88-7-4.37-6.89-8.88.08-4.33,2.58-7.41,6.93-8.46,3.14-.76,6.45-.88,9.55-1.76,13.84-3.91,22-15,22.31-30.81.45-26.28,6.39-51.17,18.63-74.41,19.25-36.53,48-62.75,86.36-78.3a159.77,159.77,0,0,1,79-11c45.83,5.19,83.68,25.79,112.61,61.73C402.82,291.34,414.77,327.6,414.38,351.35Z"/><path class="cls-1" d="M453.44,366.75a395.13,395.13,0,0,1-19.8,122.08,34.33,34.33,0,0,1-1.75,4.8c-2.16,4.3-6.48,6.18-10.68,4.81-4.66-1.51-7.42-5.44-6.25-10.28,1.92-8,4.48-15.75,6.66-23.64,10.21-37.06,15-74.81,12.87-113.19-2-35.11-13.64-67.13-34.11-95.79-23.92-33.51-55.51-56.87-94.57-69.8a182.29,182.29,0,0,0-88.14-6.84c-45.93,7.59-83.94,29.4-113.86,64.82-22.43,26.55-36.47,57.22-41.36,91.79C61.3,343.62,61,351.85,60.26,360c-.1,1.19-.1,2.4-.29,3.58-1,6.48-4.49,9.62-10.1,9.21-5.19-.39-8.55-4.14-8.21-10.41.59-10.92.9-21.95,2.77-32.69,7.46-43,26.59-80.3,57.43-111.22a202.9,202.9,0,0,1,99.59-55.29c39.73-9.22,78.91-7,117,7.55C381.23,194.67,423,239.14,444.17,302.68A181.62,181.62,0,0,1,453.44,366.75Z"/><path class="cls-1" d="M375.57,373.2a371.55,371.55,0,0,1-17.82,94.63c-12.16,37.17,5.19,81.78,38.88,101.63,2.5,1.47,5.06,2.87,7.48,4.49,4.92,3.29,6.4,8.35,3.87,12.79s-7.52,5.79-12.93,3.12a98.06,98.06,0,0,1-30.94-23.41c-27.33-31.39-35.42-67.26-22.92-107.05a334.45,334.45,0,0,0,15.27-93.79c1.13-53.93-39.65-101.86-92.88-109.17-58-8-109.93,28-122.51,85.32a129.17,129.17,0,0,0-2.45,24.47c-1.07,45.54-38.43,83.65-84.12,85.5-7.29.29-11.9-3-12.24-8.78-.31-5.45,3.84-9.11,10.94-9.63,33.06-2.46,57.8-22.79,65.1-54.41,1.91-8.25,1.75-17,2.51-25.47,5.12-57.95,46.87-104,104.19-114.79,67.63-12.78,135.65,33.81,147.52,101.4C374.43,351,374.6,362.14,375.57,373.2Z"/><path class="cls-1" d="M336.08,374c-1.53,28-7.28,55-15.68,81.5-17.4,55,5.67,116.72,54.72,147.18,1.88,1.17,3.85,2.24,5.63,3.56,4.75,3.54,5.8,8.53,2.87,13A8.77,8.77,0,0,1,371,621.57c-10.18-7.18-20.92-13.93-29.77-22.57-31.12-30.36-46.24-67.81-44.76-111.24a153.83,153.83,0,0,1,6.82-38.69c8.21-27.21,13.2-54.73,13.78-83.16.74-36.46-27.2-68.35-63.05-71.27-37.1-3-70.35,23.11-75.19,59.43-1.47,11-1.33,22.24-3.19,33.16-8.75,51.2-50.29,92.58-101.48,101.61-5,.88-10.14,1.59-15.24,2-6.88.51-11.38-3-11.71-8.61-.31-5.31,3.73-9.17,10.35-9.71,16.22-1.33,31.7-5.29,45.88-13.44,30.83-17.74,49.4-44.13,54.74-79.39,1.89-12.47,1.55-25.4,4.46-37.59,9.08-38.14,45.36-68.06,90.56-66,37.29,1.68,73.09,31.81,80.4,69.92C335.33,355.11,335.29,364.62,336.08,374Z"/><path class="cls-1" d="M296.16,365.35c-1.91,54.44-17.05,99.47-45.7,139.91-26.77,37.77-61.44,66-104,84.2-12.82,5.48-26.44,9.15-39.8,13.27-6,1.84-11.08-1.07-12.3-6.09C93,591.1,96,587,102.2,584.77c16.39-5.81,33.33-10.5,48.93-18C188.24,549,217.62,522,240.26,487.65c16.87-25.56,28.36-53.47,33.53-83.63a274.12,274.12,0,0,0,3.43-42.37c.2-15-13.86-27.66-29.38-27.94s-29.48,12.54-30.14,27.83c-.88,20.25-3.12,40.23-10.36,59.34-18.07,47.65-50.69,81.09-98.49,98.84C96,524.5,82.11,526.5,68.64,529.48a9.14,9.14,0,0,1-11.24-7.19c-.93-5.44,1.89-9.46,7.71-10.78,11.3-2.58,23-3.95,33.86-7.83,51.07-18.28,83.23-54.2,96-106.87,2.86-11.86,3.37-24.35,4.27-36.61,1.33-18.19,14.69-36.28,31.65-41.82,20.27-6.63,41-1,53.55,14.1C293.57,343.53,297,356.15,296.16,365.35Z"/><path class="cls-1" d="M266.65,552.22c-6.24,5.59-12.64,11-18.69,16.8a282.66,282.66,0,0,1-110.49,65.92,22.83,22.83,0,0,1-3.94,1c-5.1.69-9.13-1.78-10.36-6.23-1.29-4.64.51-9,5.24-10.94,7.27-3,14.83-5.22,22.09-8.18,43.92-17.88,80.42-45.63,109.77-82.83l1.6-2c2.67-3.32,5.95-5.09,10.33-4,4.21,1,5.87,4.16,7.13,7.93,4,12,7.3,24.25,12.48,35.68,12,26.42,30.41,47.77,53.89,64.78,1.53,1.11,3.09,2.16,4.58,3.3,5.39,4.12,6.46,9,3,13.69-3.1,4.25-8.68,5.12-13.57,1.3-9.56-7.48-19.38-14.77-28-23.21a178.16,178.16,0,0,1-43.87-69.14c-.51-1.45-1.12-2.86-1.72-4.28a3.65,3.65,0,0,0-.57-.7Z"/><path class="cls-1" d="M256.72,374.43c-2.39,38.8-14.13,74.4-36.14,106.42-22.25,32.37-51.35,56.83-87.74,71.7-14.91,6.09-30.84,9.73-46.41,14.11-6.8,1.91-11.67-.42-13.36-5.23-2-5.8,1.45-11,8.42-12.66,7.31-1.71,14.77-2.9,21.91-5.15,70.42-22.18,114-69.46,130.65-141.25,2.75-11.89,3.07-24.37,4.19-36.61.63-6.94,4-11.2,9.53-11s9,4.49,9,11.5C256.71,369,256.72,371.7,256.72,374.43Z"/><path class="cls-1" d="M253.81,617c-11.48,7.81-22.5,16.28-34.43,23.19-14.46,8.39-29.61,15.62-44.6,23.05-5.46,2.7-11,.58-13.09-4.19s-.13-10,5.63-12.55c21.05-9.24,41.27-20,60-33.41,7.08-5.09,13.84-10.64,20.71-16,7.36-5.76,12.58-5.15,17.41,2.74a217.49,217.49,0,0,0,47.47,54.91c3.75,3.08,6.34,7,4.12,11.59-1.28,2.63-4.76,5.42-7.52,5.74s-6.52-1.66-9-3.66A217.35,217.35,0,0,1,257.84,622c-1.06-1.56-2.16-3.08-3.28-4.59C254.38,617.16,254,617.07,253.81,617Z"/><path class="cls-2" d="M438.79,267.82c6,1.22,12.21,1.88,18,3.73,36.88,11.75,59.92,36.5,67.94,74.46,1.77,8.37,1.56,17.2,1.85,25.84s.11,17.33,0,26c0,1.8.48,2.52,2.31,3,7.35,2.1,14.6,4.53,21.94,6.66,2.07.6,2.76,1.5,2.76,3.69q-.1,69.81,0,139.6c0,2.08-.68,2.86-2.57,3.53-19.84,7-40.27,11.54-61,14.86a363.33,363.33,0,0,1-69.94,4.64c-37.67-1.3-74.58-7.19-110.33-19.54-1.62-.56-2.6-1.08-2.6-3.17q.1-70.54.06-141.1c0-.39,0-.79.1-1.83,7.58-2.3,15.28-4.85,23.11-6.88,3-.79,3.83-2,3.78-5-.19-11.25-.13-22.51-.06-33.77.3-43.64,31.83-82.73,74.43-92.29,4.44-1,8.95-1.66,13.43-2.48ZM535.55,540.5c0-.85.1-1.44.1-2q0-57.25.05-114.51c0-2-.72-2.67-2.53-3.19a379.32,379.32,0,0,0-74.1-13.59,342.19,342.19,0,0,0-67.12,1,393.44,393.44,0,0,0-63.73,12.39c-2.56.72-3.1,1.85-3.09,4.28q.11,56.06.05,112.12v3.47a364.54,364.54,0,0,0,210.37,0ZM508.72,396c0-8.25.17-16.11-.05-24-.19-7.26-.05-14.64-1.33-21.73C497.9,298,440.72,270,393.86,295c-24.73,13.21-38.78,34.39-41.18,62.49-1,11.49-.43,23.1-.57,34.65,0,1.17,0,2.35,0,3.81,7.09-1.24,13.8-2.63,20.58-3.48,2.94-.37,3.39-1.48,3.4-4.11,0-10.65-.45-21.38.64-31.94,2.53-24.54,24.15-44.73,49-46.68a54.52,54.52,0,0,1,59.1,54.55c0,7.77.18,15.55-.08,23.31-.11,3.29.58,4.61,4.14,5C495.37,393.34,501.78,394.76,508.72,396Zm-42.26-6.26c0-10.13.75-20.13-.17-30-1.62-17.49-15.28-30.15-33.2-32-15.66-1.63-31.59,8.78-37,24.51-4.17,12.2-1.27,24.85-2.3,37.53A376.82,376.82,0,0,1,466.46,389.71Z"/><path class="cls-3" d="M535.55,540.5a364.54,364.54,0,0,1-210.37,0V537q0-56.07-.05-112.12c0-2.43.53-3.56,3.09-4.28A393.44,393.44,0,0,1,392,408.19a342.19,342.19,0,0,1,67.12-1,379.32,379.32,0,0,1,74.1,13.59c1.81.52,2.53,1.2,2.53,3.19q-.11,57.26-.05,114.51C535.65,539.06,535.59,539.65,535.55,540.5Zm-96.18-25.2c0-7.48.09-14.72-.05-22,0-2.35.57-3.57,2.86-4.65A26.87,26.87,0,0,0,425,438.19a27.1,27.1,0,0,0-21.34,22.95,26.8,26.8,0,0,0,15.2,27.64c2,.94,2.79,1.92,2.68,4.18-.22,4.47-.06,9-.06,13.44v8.9Z"/><path class="cls-3" d="M508.72,396c-6.94-1.21-13.35-2.63-19.85-3.34-3.56-.38-4.25-1.7-4.14-5,.26-7.76.1-15.54.08-23.31a54.52,54.52,0,0,0-59.1-54.55c-24.83,2-46.45,22.14-49,46.68-1.09,10.56-.62,21.29-.64,31.94,0,2.63-.46,3.74-3.4,4.11-6.78.85-13.49,2.24-20.58,3.48,0-1.46,0-2.64,0-3.81.14-11.55-.41-23.16.57-34.65,2.4-28.1,16.45-49.28,41.18-62.49,46.86-25,104,2.94,113.48,55.24,1.28,7.09,1.14,14.47,1.33,21.73C508.89,379.86,508.72,387.72,508.72,396Z"/><path class="cls-3" d="M466.46,389.71a376.82,376.82,0,0,0-72.65.05c1-12.68-1.87-25.33,2.3-37.53,5.39-15.73,21.32-26.14,37-24.51,17.92,1.87,31.58,14.53,33.2,32C467.21,369.58,466.46,379.58,466.46,389.71Z"/><path class="cls-4" d="M439.37,515.3H421.46v-8.9c0-4.48-.16-9,.06-13.44.11-2.26-.69-3.24-2.68-4.18a26.8,26.8,0,0,1-15.2-27.64,27,27,0,0,1,52.23-5.43,26.74,26.74,0,0,1-13.69,33c-2.29,1.08-2.9,2.3-2.86,4.65C439.46,500.58,439.37,507.82,439.37,515.3Zm0-50.67a9,9,0,1,0-9.05,8.87A9.24,9.24,0,0,0,439.37,464.63Z"/><path class="cls-3" d="M439.37,464.63a9,9,0,1,1-8.87-9.05A9.23,9.23,0,0,1,439.37,464.63Z"/></svg>