<svg id="Layer_1" data-name="Layer 1" xmlns="http://www.w3.org/2000/svg" viewBox="0 0 595.28 841.89"><defs><style>.cls-1{fill:#236fb4;}.cls-2{fill:#ee2e24;}</style></defs><path class="cls-1" d="M289.57,429.2V266.1c0-12,6.41-18.5,18.33-18.5H502.32c11.74,0,18.23,6.43,18.24,18.08q0,45.65,0,91.31v5.54c12.7,3,16.5,8,16.5,21.08v126c5,3.26,9.52,5.5,13.11,8.81,4.12,3.81,3.41,9.41,3.41,14.59q0,54.42,0,108.85c0,12-6.38,18.42-18.44,18.42H390.7c-3.31,5-5.24,10.28-9,12.93s-9.23,3.4-14,3.44c-35.58.26-71.16.06-106.74.21-6.8,0-13-.65-17.69-6.67-8,6.06-16.87,6.78-26.15,6.68-23.2-.24-46.41,0-69.62-.1-43.7-.19-83.37-34-87.63-77.62-3-30.46-4.85-61.51,4-91.62,9.23-31.5,28.41-55.68,56.48-72.67,3-1.83,4.34-3.69,4.2-7.28-.27-7.39-.25-14.8,0-22.18.13-3.38-1.07-5.16-3.88-7-12.85-8.22-26.83-15.29-38-25.41-36.12-32.72-49.19-73.92-36.05-120.91,13-46.66,45.12-75,92.72-85a107.23,107.23,0,0,1,21-2c26.3-.22,52.6-.12,78.9-.08,24,0,44.25,15.89,49.17,38.36,5.21,23.76-6.32,46.37-28.88,56.65-.92.42-1.83.89-2.48,1.2-1.82,10.37-.11,19.43,6.69,27.68,4.87,5.9,9.22,12.44,9.34,20.74C273.18,320,269,328,260.1,333.27c-2.72,1.61-3.71,3.32-3.65,6.48.2,10.83.15,21.66.05,32.5A41,41,0,0,1,216,412.63c-8.24.08-16.47,0-25.42,0,0,11.35,0,22.45.08,33.55,0,.77,1,1.72,1.7,2.28,10.33,7.83,20.71,15.6,31.23,23.5,0-7.9,0-16.4,0-24.9,0-11.26,6.64-17.86,17.93-17.87C257.28,429.18,273.07,429.2,289.57,429.2Zm214.16-66V264.5H437.82v48.7H371.91V264.4H306.42V428.94h65.34V412.45h-15.9v-16.4h16.22c0-5.37,0-10.16,0-15,0-11.29,6.61-17.91,17.87-17.92q42,0,84.06,0ZM173.81,627.27c-8.44,0-16.48,0-24.53,0A41,41,0,0,1,108.06,586c-.07-17.7,0-35.41,0-53.12,0-1.48.19-2.95.28-4.35h16.17v5.82c0,17-.13,34,0,51.07.14,14.46,10.66,25,25.06,25.33q12.12.27,24.23-.07a7,7,0,0,0,4.38-2.4c3.48-3.9,6.67-8,10.36-12.59-7.83-7.79-16.36-16.49-25.14-24.93a18.39,18.39,0,0,1-5.59-17.83c2.2-11.32,8.75-19.29,19.71-23.15,8.8-3.1,16.6-1.95,23.48,5.26,11.52,12.06,23.5,23.67,35.31,35.44,1,1,2.08,1.79,3.71,3.18,0-12,0-23,0-34a14.15,14.15,0,0,0-.71-4C224,486.34,190.67,457,140.22,446.9c-2.67-.53-6.15-.53-8.37.75-32.46,18.77-51.91,46.7-55.64,84.12-1.89,18.91-1.57,38.13-1,57.17.73,22.65,10.67,41.16,28.39,55.5,20.79,16.84,45.17,16.85,70.17,15.56Zm83.07-115.38V659.94H371.65v-148H355.89c-2.11,11.63-7.74,16.29-19.51,16.3H292.57c-12.12,0-17.4-4.29-20-16.33ZM173.75,214.24c-1.24.33-2.4.62-3.55.95-8,2.35-13.39,9.62-12.61,17.18a16.64,16.64,0,0,0,16.71,15.16c22.16.16,44.33.42,66.49-.08,21.06-.47,35.55-19.47,31.31-40.07-3.08-15-16.63-25.75-32.93-25.83q-39.42-.17-78.86,0a94.88,94.88,0,0,0-14.87,1.2c-59.85,9.74-97.91,66.5-83.73,125.6,8.28,34.48,31,57.07,62.47,72.34V346.83c-18-1.59-31.26-13.6-32.59-29.22-.73-8.51.94-16.37,6-23.37,6.62-9.05,15.84-13.22,26.65-14,1.46-15.12,6.25-23.71,19.44-35.23-7.14-25.74,7.27-48.33,30-46.61Zm346.5,297.3V380H487.38V412.3H421.33V379.91H388.85V511.54ZM155,258.09c-15.59,9-14.26,24.2-14,39-5.32,0-9.94,0-14.56,0C115.5,297.16,108,304,108,313.66s7.61,16.41,18.53,16.48c4.74,0,9.48,0,14.51,0v99.27l32.72,8.93V412.5H157.81V396.18h5.78c17,0,34,.08,51,0,11.22-.08,20.55-6.77,23.06-16.45-10.87-.45-22.11,1.58-31.91-5.17-9.65-6.66-14.86-15.6-15.22-27.6h16.2c3.4,16.69,14.25,17.72,33.32,15.45,0-8.37.21-16.78-.06-25.18-.26-8.13,3.14-13.69,10.27-17.45,6.8-3.6,8-8.85,3.82-15.43a43,43,0,0,0-2.87-4.27c-8.26-10.1-13-21.33-11.28-34.66,0-.26-.27-.58-.64-1.32H234c-19.07,0-38.15-.15-57.21.07C169,264.23,161.8,262.65,155,258.09Zm266.9,270.35v115H536.7v-115H504v32.75H454.42v-32.8ZM272.67,494.93c2.25-11.58,7.82-16.2,19.47-16.2,15.46,0,30.93.07,46.39,0,6,0,10.8,2.28,14,7.16,1.8,2.73,2.63,6.09,3.86,9.1h15.35V446H240c0,15.14-.14,29.91.11,44.67.06,3.53,1.42,7,2.47,11.89C251.58,491.74,262.55,496.52,272.67,494.93Zm116,148.46h16.09V528.62H388.65ZM190.53,660.33c10.77,0,20.72,0,30.66,0,11.16,0,19-7,18.84-16.7s-7.78-16.28-18.68-16.34c-4.72,0-9.44,0-14.35,0,0-3.74.66-6.87-.19-9.5a11.69,11.69,0,0,0-5-6.32c-1.51-.8-5.16.1-6.34,1.51-2.22,2.65-4.56,6.16-4.7,9.4C190.21,634.82,190.53,647.32,190.53,660.33ZM388.65,296.81h32.58V264.47H388.65ZM240.06,614.49c0-4.68.08-9.3-.05-13.91,0-1.28-.27-2.92-1.07-3.74-10.46-10.63-21-21.14-31.27-31.37l-12.92,13.27c7.88,7.78,16.5,15.48,24.11,24.08C224.65,609.36,231.64,612.65,240.06,614.49Zm98.77-119h-49v15.88h49Zm99.64-115.67V395.9h32.3V379.82Zm33,148.58v16.09h15.81V528.4Zm-290,37,13.38-13c-3.92-1.85-4.72-8.27-10.66-7.08a11.68,11.68,0,0,0-9.62,9.56C173.32,560.88,179.85,561.62,181.51,565.35Z"/><path class="cls-2" d="M338.79,396.47v15.8H322.91v-15.8Z"/><path class="cls-2" d="M405.3,494.81V479h16v15.79Z"/><path class="cls-2" d="M454.13,495.09H438.48v-16h15.65Z"/><path class="cls-2" d="M190.1,280.88c1.45,12.88,3.33,16.68,8.73,16.08,10-1.11,7.8-9.44,8.44-16.09h15.49c2.74,11-.73,21.51-9.2,27.87A24.42,24.42,0,0,1,186,310.1c-10.9-6.78-13.22-17.1-11.64-29.22Z"/></svg>