<svg id="Layer_1" data-name="Layer 1" xmlns="http://www.w3.org/2000/svg" viewBox="0 0 595.28 841.89"><defs><style>.cls-1{fill:#236fb4;}.cls-2{fill:#f9bf42;}.cls-3{fill:none;stroke:#f8be40;stroke-miterlimit:10;stroke-width:19px;}</style></defs><path class="cls-1" d="M41.64,560c2.5-4.18,6.3-5.38,11-5.34,16.67.13,33.34.05,50,.05h5.85c.1-2.21.23-4,.24-5.74q1-141.53,2-283c.06-8,3.11-11,11.31-11q98.52,0,197,.1c4.23,0,6.28-1,8-5.13a118.94,118.94,0,0,1,114.35-72.88c53.93,2.1,101.16,43.44,110.37,96.61,11,63.77-28.37,122.87-91.58,136.71-9.68,2.12-19.77,2.32-30.56,3.5v5q0,89.76,0,179.52c0,32.19-20.75,58.23-52.13,64.9-7.08,1.51-14.55,1.55-21.84,1.56q-123.53.15-247,0c-33.19,0-59.47-21.57-66-54.07a21.89,21.89,0,0,0-1-2.79ZM320.17,272.14H127.49c-.66,94.25-1.33,188.15-2,282.58H300.08c14.87,0,15.41.65,15.55,15.43.13,12.64-.71,25.46,1.11,37.88,3.6,24.6,27,42.1,51.29,39.91,25.3-2.27,44.66-22.75,44.72-47.84.13-61.66,0-123.33.11-185,0-3.16-.78-4.51-4.14-5.34-28.6-7.05-51.61-22.55-68.61-46.67-2.15-3-4.19-4.33-8-4.3-26.34.19-52.67.1-79,.1-7.87,0-11.58-2.77-11.52-8.55s3.71-8.3,11.73-8.3H328A119.89,119.89,0,0,1,320.17,272.14Zm216.76,23.41c.24-55.83-44.75-101.33-100.44-101.58S334.91,239.14,334.75,295c-.15,55.63,45.09,101,100.89,101.17A100.75,100.75,0,0,0,536.93,295.55ZM58.45,571.76c0,9-.05,17.61,0,26.25.19,29.1,21.14,50,50.19,50q103,0,206,0c1.57,0,3.14-.15,5.06-.25-17.43-19-21.88-33.64-20.95-59.61.2-5.43,0-10.86,0-16.43Z"/><path class="cls-1" d="M303.4,504q-26.72,0-53.43,0c-6.66,0-10.12-2.85-10.17-8.23s3.57-8.53,10-8.53q53.42-.06,106.84,0c6.44,0,10.18,3.16,10.22,8.37S363.32,504,356.82,504Q330.11,504,303.4,504Z"/><path class="cls-1" d="M303.42,414.8c18.16,0,36.33-.06,54.49,0,5.54,0,8.85,3.11,9,7.91s-3,8.1-8.38,8.69a35.38,35.38,0,0,1-4,.11H333q-40.5,0-81,0a20.87,20.87,0,0,1-6.9-.76c-4.12-1.48-5.92-4.8-5.19-9.12.79-4.63,3.88-6.8,8.47-6.81Q275.92,414.78,303.42,414.8Z"/><path class="cls-1" d="M293.85,341.81c15.43,0,30.87-.06,46.3,0,4.71,0,7.52,3.11,7.65,7.91s-2.56,8.1-7.12,8.69a29.56,29.56,0,0,1-3.4.11H319q-34.41,0-68.82,0a15.37,15.37,0,0,1-5.86-.76c-3.5-1.48-5-4.8-4.41-9.12.67-4.64,3.29-6.81,7.19-6.81C262.7,341.8,278.28,341.82,293.85,341.81Z"/><path class="cls-1" d="M196.75,521c-14.81.06-26.94-11.56-26.92-25.79,0-13.91,12-25.62,26.51-25.82s26.93,11.78,26.89,25.91S211.24,520.89,196.75,521Zm-.4-16.85c5.53.09,10-3.85,10.08-8.83,0-4.83-4.68-9.17-10-9.13-5.07,0-9.61,4.08-9.81,8.75C186.46,499.82,190.86,504,196.35,504.1Z"/><path class="cls-1" d="M197,325.1c14.44.23,26.42,12.09,26.27,26-.14,14.21-12.52,25.95-27.1,25.7-14.39-.25-26.4-12.14-26.29-26C169.94,336.67,182.4,324.87,197,325.1ZM196.49,360c5.32,0,10-4.24,9.93-9.1,0-4.69-4.45-8.8-9.58-8.95-5.33-.15-10.05,4-10.17,8.85S191.12,360,196.49,360Z"/><path class="cls-1" d="M196.79,448.9c-14.66.11-27-11.67-27-25.82,0-13.88,12-25.67,26.46-25.89s27,11.76,26.93,25.9S211.24,448.8,196.79,448.9ZM196.13,432c5.43.19,10.1-3.74,10.3-8.68.2-4.78-4.47-9.26-9.74-9.35s-10,4.2-10,9S190.9,431.85,196.13,432Z"/><path class="cls-2" d="M453.83,322c0-9.94-7.11-17.45-17.36-18.3-18.63-1.55-30.52-10.48-34.87-26.2-4.62-16.68,3.71-34.67,19.71-41.24,4.23-1.74,5.55-3.82,5.11-8s.63-7.7,4.64-9.7c5.74-2.85,12.06,1.18,11.8,8.16-.2,5.35,1.64,7.48,6.55,9.54,13.12,5.48,20,16,21.2,30.16.48,5.83-2.87,9.94-7.78,10.31s-8.47-3.42-9-9.27c-.94-10.32-8.37-17.47-18.22-17.53-9.61,0-17.38,7-18.49,16.81-1.23,10.89,7.28,19.55,19.77,20.22,14.72.8,25.17,8.09,31,21.51A34.6,34.6,0,0,1,448,354.69c-4.21,1.51-5.38,3.51-4.94,7.44a15.72,15.72,0,0,1-.18,4,7.85,7.85,0,0,1-8.24,7.06c-4.39-.15-8.19-2.56-7.75-6.77.85-8.28-3.5-11.36-9.95-14.92C406.5,345.75,401.2,336,400.43,324c-.38-5.87,2.31-9.64,7.15-10.18,5.26-.59,8.5,2.35,9.4,8.52,1.69,11.63,8.49,18.07,18.92,17.9A18,18,0,0,0,453.83,322Z"/><ellipse class="cls-3" cx="435.85" cy="295.43" rx="110.37" ry="109.66"/></svg>