<svg id="Layer_1" data-name="Layer 1" xmlns="http://www.w3.org/2000/svg" viewBox="0 0 595.28 841.89"><defs><style>.cls-1{fill:#236fb4;}.cls-2{fill:#f9bf42;}</style></defs><path class="cls-1" d="M41.64,533c3-6.43,8.08-8.46,14.94-8.35,16.83.27,33.66.09,50.49.09h6.15c0-2.62,0-4.73,0-6.84Q114.12,379.42,115,241c.06-8.88.94-17.61,5.15-25.68,10.48-20.1,27.23-29.93,49.7-30,47.16-.1,94.32,0,141.48,0,61.82,0,123.66-.76,185.46.31,31.57.54,56.46,22.43,56.66,55.66.33,54.66.1,109.32.08,164,0,9.15-4.39,13.37-14.11,13.4-22,.08-44,0-66,0h-6.76v6.12c0,55.15.16,110.31-.22,165.47-.23,32.31-27.54,62-59.64,65.67a141.3,141.3,0,0,1-15.93.83c-92,0-184-.14-276,.14C90,657,69.85,648.23,54.82,628.3A64.11,64.11,0,0,1,42.6,599.15a9.16,9.16,0,0,0-1-2.16ZM454,208H170.13c-20.15,0-32.38,12.17-32.52,32.28q-1,139-1.91,277.94c0,2,0,3.92,0,6.52H333.47c12.28,0,15.91,3.71,15.94,16.14,0,16.33-.59,32.7.33,49,1.05,18.44,10.73,32.13,27.49,39.8,17.38,7.94,34.12,5.65,49.14-6.32,13.11-10.44,17.89-24.6,17.87-41q-.09-168.22,0-336.44c0-6.12.28-12.43,1.83-18.28C447.85,221,451.18,214.84,454,208ZM64.56,547.54c0,15-.42,29.59.1,44.19.81,22.42,21.56,42.26,44,42.28q116,.13,232,0c1.19,0,2.39-.26,4.11-.45-10.28-11.75-16.38-24.83-17.55-39.63-.93-11.77-.39-23.64-.49-35.47,0-3.6,0-7.21,0-10.93Zm466.38-151.7V390q0-72.45,0-144.91c0-2.5-.11-5-.29-7.49-1.24-16.8-18.24-30.56-34.89-28.27-18,2.47-29,15.55-29.06,34.63q-.06,73.46,0,146.91c0,1.61.15,3.22.23,5Z"/><path class="cls-2" d="M285,445q48.48,0,96.95,0c7.24,0,11.39,2.92,12.75,8.7a10.6,10.6,0,0,1-8.1,13.21,32.12,32.12,0,0,1-6.91.73q-94.95,0-189.9,0a24.43,24.43,0,0,1-9.19-1.62c-4.65-2-6.77-7.08-5.78-12.1s5.37-8.76,11.24-8.83c12.32-.16,24.65-.06,37-.07Z"/><path class="cls-2" d="M285.08,364.85q48.23,0,96.44,0c8,0,12,2.91,13.28,9.22a10.83,10.83,0,0,1-8.26,12.76,36.75,36.75,0,0,1-7,.47q-94.69,0-189.37,0a42.57,42.57,0,0,1-6-.33,11,11,0,0,1,.43-21.95,56.91,56.91,0,0,1,6-.19Z"/><path class="cls-2" d="M238.6,307c-17.49,0-35,.06-52.45,0-5.92,0-10.26-3.59-11.33-8.7-1-5,1.06-10,5.68-12.16a20.2,20.2,0,0,1,8.18-1.64q50.2-.17,100.41-.05c10.19,0,15.7,6,13.53,14.33-1.4,5.35-5.47,8.23-12.07,8.26C273.23,307.07,255.91,307,238.6,307Z"/></svg>