<svg id="Layer_1" data-name="Layer 1" xmlns="http://www.w3.org/2000/svg" viewBox="0 0 595.28 841.89"><defs><style>.cls-1{fill:#236fb4;}.cls-2{fill:#ee2e24;}.cls-3{fill:#e83a3c;}</style></defs><path class="cls-1" d="M174.64,162.83c2.68.83,5.38,1.57,8,2.5,17.08,6,26,18.76,27.91,36.06C213.12,225,206.67,245.61,186,262h6.71q78.12,0,156.24,0c15.2,0,26,8,29.5,21.66,4.27,16.69-8.07,34.14-25.27,34.39-33.09.48-66.19.2-99.28.29a64.51,64.51,0,0,0-10,.65c-12,1.94-21.57,12.54-21.82,24.79-.31,14.78-.21,29.57.07,44.35,0,1.72,2,4,3.66,5q32.76,19.25,65.76,38.06c4.72,2.68,6.48,6,6.45,11.32-.18,28.9-.09,57.8-.1,86.69,0,1.51.41,3.42-.34,4.44-1.54,2.12-3.64,5.09-5.68,5.24-2.35.16-5.38-1.91-7.16-3.88-1.19-1.31-1-4.12-1-6.27,0-26.88-.11-53.76.05-80.64,0-3.64-1-5.68-4.25-7.51-22-12.54-43.86-25.36-65.85-37.92-4.11-2.35-5.93-5.26-5.86-10.08.23-15.46,0-30.91.09-46.37.06-24.18,17.71-42,42-42.05q49.89-.18,99.79,0c5.23,0,9.56-1.45,12.72-5.74a13.73,13.73,0,0,0-9.18-21.89,47.47,47.47,0,0,0-6.53-.35c-71.07,0-142.13-.18-213.19.19A98.73,98.73,0,0,0,105,281c-13,4.06-17.91,12.35-17.92,25.91q0,50.16,0,100.3c0,14.56,8,25.06,22.14,28.55v-5.4q0-48.63,0-97.27c0-6,2.39-9.1,7-9.09,3.91,0,6.35,2,6.94,5.86a35.07,35.07,0,0,1,.13,5v226.8c0,7.69-2.18,11.23-6.92,11.24s-7.16-3.63-7.16-11.13q0-52.43,0-104.84v-6c-4-1.4-7.91-2.36-11.44-4.09C81.89,439.11,73.15,426.33,73,408.54c-.25-34.77-.14-69.55,0-104.33,0-16.11,8.28-27.18,22.2-34.41,11.13-5.79,23.19-7.56,35.55-7.82,4.35-.09,8.7,0,14,0a32.2,32.2,0,0,0-2.39-2.51c-20.11-16.13-28.15-48-18-71.8,5.59-13,15.74-20.53,29.34-23.71,1.29-.3,2.54-.73,3.81-1.11ZM197,215.54c0-24.72-8-35.27-25.18-38.28-15.6-2.73-30.2,3.82-34.6,16.66-6.27,18.3-3.36,35.6,9.35,50.33,11.16,12.94,27.65,12.43,38.88-.48C193.7,234.22,196.84,222.77,197,215.54Z"/><path class="cls-2" d="M539.58,545h-152v6q0,58.22,0,116.42c0,1.85.56,4.1-.28,5.45-1.44,2.32-3.45,5-5.82,5.83-3.32,1.18-6.24-.94-7.36-4.42a19.54,19.54,0,0,1-.66-5.93q-.06-40.57,0-81.14V581.4H221.86v5.72q0,40.56,0,81.14a20,20,0,0,1-.43,5.48c-1.06,3.66-3.66,5.65-7.56,5.18-3.6-.43-5.71-2.62-6-6.3-.13-1.51-.11-3-.11-4.54q0-25.44,0-50.9v-5.72H55.7v16.23q0,21.16,0,42.33c0,6-2.42,9-7,9s-7-3.25-7-9.14q0-31.25,0-62.49c0-8.39,2-10.41,10.35-10.41H207.7c0-7.11,0-13.61,0-20.11,0-8.3,1.72-10,10.13-10q74.6,0,149.18,0h6.4c0-9.16,0-17.69,0-26.23,0-7.64,2.21-9.81,9.9-9.81H544.1c7.36,0,9.53,2.19,9.53,9.63q0,64.5,0,129c0,1.81.19,4.3-.84,5.28-2,1.87-5,4.19-7.18,3.88s-4.29-3.42-5.8-5.71c-.78-1.19-.2-3.27-.2-5V545Z"/><path class="cls-3" d="M472.94,275.09v6.77q0,88.15,0,176.31a26.21,26.21,0,0,1-.13,5c-.78,3.9-3.06,6.39-7.28,6.19s-6.4-2.57-6.63-6.73c-.09-1.68,0-3.36,0-5q0-87.9,0-175.8v-6.46c-2,1.75-3.2,2.74-4.31,3.85-8.31,8.31-16.57,16.67-24.92,24.95-3.84,3.81-8,4.19-11.09,1.23s-2.73-7.27,1-11q20.06-20.21,40.19-40.31c4.32-4.31,7.85-4.33,12.16,0q20.17,20.07,40.21,40.28c3.93,4,4.21,7.91,1.08,11.05s-7.31,2.63-11.08-1.11C492.68,294.87,483.33,285.48,472.94,275.09Z"/><path class="cls-1" d="M174.09,431.62V438q0,61.72,0,123.45c0,7.94-2.4,11.67-7.32,11.47s-6.94-3.73-6.94-11.42q0-69,0-138.06a34,34,0,0,1,.11-4.52c.79-6,5.57-8.61,11-5.83,4.77,2.44,9.39,5.2,14.07,7.82,19.45,10.92,38.84,21.94,58.38,32.68,4.68,2.58,6.75,5.83,6.71,11.21-.19,21.49-.06,43-.11,64.49,0,1.82.21,4.25-.81,5.32-1.87,2-4.71,4.46-6.93,4.27s-4.53-3.16-6.06-5.41c-.89-1.3-.38-3.59-.39-5.43q0-29,0-58c0-2.62-.18-4.64-3-6.19-18.66-10.27-37.19-20.77-55.77-31.17A26.24,26.24,0,0,0,174.09,431.62Z"/></svg>