<svg id="Layer_1" data-name="Layer 1" xmlns="http://www.w3.org/2000/svg" viewBox="0 0 595.28 841.89"><defs><style>.cls-1{fill:#236fb4;}</style></defs><path class="cls-1" d="M553.64,564.85c-1.35,5.77-2.48,11.6-4.08,17.3C535.9,630.59,487.94,663,437.88,657.62,381.77,651.63,340,602.05,344,546a113.25,113.25,0,0,1,4-22c2-7.15,5.16-14,8-21.35-.71-.53-1.69-1.35-2.76-2.05-17.32-11.22-34.67-22.39-52-33.66-2.3-1.5-4-1.93-6.59-.21-17.66,11.6-35.47,23-53.22,34.45-.82.53-1.53,1.2-2.47,1.95a113.37,113.37,0,0,1,12,38.37c5.81,47.36-22.74,94.15-68,110.24-8.52,3-17.67,4.46-26.64,6-4.49.76-7.91-2.67-8.27-6.8-.34-3.8,2.45-7.14,6.69-8,1.47-.3,2.94-.58,4.43-.76a86.68,86.68,0,0,0,39.47-15.6c2.16-1.51,4.17-3.25,6.44-5a95.42,95.42,0,0,0-37.39-42c-.84-.53-1.72-1-2.57-1.54-6.69-4.06-7.18-9.21-1.23-14.35,9.41-8.13,12.55-18.21,9-30.06a26.66,26.66,0,0,0-23.56-18.69c-12.19-.61-22.36,5.24-27.21,15.66A27.44,27.44,0,0,0,127.19,561c.58.59,1.19,1.16,1.81,1.72,7.29,6.64,6.77,10.93-1.86,16.12a96,96,0,0,0-38.49,42.71c9.95,8.87,21.51,14.71,34.28,18.34a43.49,43.49,0,0,1,5.26,1.49c3.91,1.67,5.55,4.77,4.55,8.88-.94,3.93-3.79,6.12-7.73,5.47a78.08,78.08,0,0,1-13.45-3.53A105.18,105.18,0,0,1,42,544.58c4-50.55,45.13-91.86,95.76-95.75,36.48-2.8,66.37,10.4,90.14,38l2.74,3.2c15.66-10.09,30.75-20.83,46.82-29.82,10.23-5.71,14-12.46,13-24.06-1.16-12.56-.36-25.31-.2-38,0-3.42-.68-5-4.54-5.34-43.88-4.14-82.74-39.91-90.8-83.31-5.61-30.19.32-57.84,18.29-82.79,1.38-1.91,3.61-4.26,5.59-4.4a11,11,0,0,1,7.8,2.75c2.74,2.78,1.89,6.48-.44,9.58a89.68,89.68,0,0,0-14.92,30.23c-7.66,27.44-.61,60.93,17.24,80.22a116.77,116.77,0,0,1,36.28-40.27c-16.61-22.95-9.19-47.47,5.9-60a42.5,42.5,0,0,1,55.41.9c17.13,15.43,19.11,38.11,4.85,59a114.94,114.94,0,0,1,36.33,40.5c1.24-1.45,2.33-2.55,3.24-3.79,39.22-53.54,7.65-130.84-57.83-141.38-22.57-3.63-43.66.72-63.06,12.94-1,.62-1.95,1.3-3,1.84C242.49,217,238.26,216,236,212.5s-1.66-8.21,2.54-10.35c10.47-5.33,20.82-11.59,32-14.69,59.62-16.52,120.75,23,130.88,84,9.62,57.85-30.81,113.14-88.67,121.26-2.26.31-4.55.52-7.25.82v28.29c0,8.83-.1,17.66.09,26.49,0,1.56.81,3.76,2,4.53,18.91,12.41,37.93,24.63,56,36.31,9.07-7.93,17-16.39,26.38-22.77,27-18.4,56.63-22.7,88.14-14.09a19.82,19.82,0,0,1,4.18,1.56c3.32,1.78,4.88,4.67,3.93,8.31s-3.61,6.16-7.69,5.68a100.21,100.21,0,0,1-10.19-2.24c-50.82-11.51-101,22.76-108.53,74.39-3.55,24.49,2.27,46.91,17,66.9.68.92,1.49,1.73,2.43,2.81a113.52,113.52,0,0,1,36.13-40.25c-13.74-26-11.31-46.46,7.11-61a42.45,42.45,0,0,1,55,2.23c13.45,12.21,20.73,35.49,4.37,58.48a116.56,116.56,0,0,1,36.29,40.63c9.56-11.56,15.87-24.32,18.42-38.61,6.52-36.55-5.08-66.51-33.92-89.81-3.28-2.65-6.13-5.36-4.51-10,1.81-5.26,7.58-6.58,12.65-2.84A103.47,103.47,0,0,1,549.5,524c1.72,5.85,2.78,11.9,4.14,17.86ZM216.1,609.3C241,582.13,247,528.55,211.76,491.48a89.45,89.45,0,0,0-131.17,1.13C46,530.12,53,583.22,77,609c5.39-7.22,10.37-15,16.45-21.72s13.2-12.45,19.89-18.63c-15.65-22-8.77-44.92,3.86-57.12a42.63,42.63,0,0,1,53.27-5,41.82,41.82,0,0,1,17.08,22.67c4.62,14.55,1.2,27.8-7.51,40A115.08,115.08,0,0,1,216.1,609.3Zm291.29,11.37c-4.65-6.88-8.94-14-14-20.51-7.22-9.3-16.44-16.42-26.59-22.37-6.48-3.8-6.95-9.06-1.42-14,1-.89,2-1.74,2.95-2.69a27.37,27.37,0,0,0-34.89-41.8c-15.26,10.22-16.13,31.33-1.83,44.15,6.09,5.46,5.56,10.32-1.38,14.68a136,136,0,0,0-12.73,8.76,91.52,91.52,0,0,0-26.84,34.44C421.79,649.78,475.92,649.78,507.39,620.67ZM355.65,356.81a8.84,8.84,0,0,0-.4-1.34c-.65-1.35-1.31-2.69-2-4a95.93,95.93,0,0,0-36-37.25c-8.3-5-8.79-9.41-1.71-15.74.62-.55,1.23-1.12,1.81-1.71a27.38,27.38,0,0,0-38.94-38.51c-11.5,11.53-10.52,29.85,2.17,40.64,6.16,5.24,5.76,10.49-1.14,14.7-.71.43-1.45.81-2.15,1.25-16.7,10.3-29.39,24.13-37.53,42C273.44,386.72,325.86,384.36,355.65,356.81Z"/></svg>