<svg id="Layer_1" data-name="Layer 1" xmlns="http://www.w3.org/2000/svg" viewBox="0 0 595.28 841.89"><defs><style>.cls-1{fill:#236fb4;}.cls-2{fill:#f9bf42;}</style></defs><path class="cls-1" d="M72.81,676.89c-9.48-9.32-19.05-18.55-28.39-28-4-4.09-3.62-8.63.87-13.15q20.07-20.22,40.25-40.32c1.16-1.16,2.26-2.38,3.35-3.54-6.26-8.72-6.08-10.75,1.47-18.31,4.82-4.84,9.57-9.75,14.51-14.46,1.85-1.77,2.15-3.18,1.06-5.6-22.35-49.83-16.18-96.07,17.75-138.73.29-.37.49-.8,1.3-2.13H111.81c-5.5,0-11,.06-16.49,0-7.87-.11-10.88-3.06-10.9-11-.06-24-.14-48,.08-72,0-4.24-.88-7.06-5.1-8.28-10-2.88-12.93-9.54-12.35-19.66.84-14.78-.2-29.67.5-44.46.76-15.93,10.16-26.87,25.43-31.44,1.1-.33,2.16-.76,3.22-1.13C89.69,201.9,95,184,111.33,172.64a42.61,42.61,0,0,1,50,.93c12.61,9.46,22.47,28.17,13.69,51.18,1.42.44,2.83.91,4.25,1.32,14.39,4.24,24.31,16.73,24.54,31.65.25,17.15,0,34.31.15,51.47,0,4.9-2.32,8.2-6.62,9.47-9,2.67-11.38,8.28-10.71,17.38.92,12.42.23,24.95.23,38.3a133.62,133.62,0,0,1,59.34-2.17c.16-1.74.39-3.15.39-4.55,0-13.16-.08-26.32.09-39.48,0-3.12-1-4.76-3.77-6.1-14.8-7.08-13.35-5.64-13.38-21.77q0-19,0-38c0-19.75,8.31-31,27-36.92.62-.19,1.23-.42,1.84-.63-6.71-22.39-1.47-40.51,15-52a42.64,42.64,0,0,1,50,.71c13.13,9.82,22.53,29,13.88,51,.23.21.42.52.69.61,20.76,6.76,28.2,17.05,28.2,39,0,14.16-.23,28.32.1,42.47.15,6.34-1.82,10.89-7.94,12.75-7.76,2.37-9.71,7.19-9.48,15.14.64,22,.23,44,.22,66,0,9.61-2.58,12.21-12.06,12.25-6,0-12,0-18,.07a7.74,7.74,0,0,0-1.51.41c.76,1.13,1.35,2.18,2.1,3.09,61.91,75.34,21.2,188.76-74.52,207.33-27.13,5.26-53.34,1.65-78.31-10.12-3.53-1.67-5.53-1.37-8.06,1.43-4.25,4.68-8.89,9-13.37,13.48-7.59,7.58-9.68,7.77-18.48,1.36-10,10.06-20.11,20.23-30.28,30.29-5.78,5.72-11.74,11.27-17.62,16.9Zm88.56-293.15c8.42-2.42,8.42-2.42,8.42-9.92,0-14.5-.11-29,0-43.48.18-17.88-2.72-16,14.2-24.32a5.5,5.5,0,0,0,2.66-4c.19-14.49.28-29,0-43.47-.15-9.49-7.54-16.42-17.09-16.6-3.83-.07-7.81.63-11.44-.23-2.9-.69-6.75-2.68-7.65-5.05-1-2.61.7-6.37,1.61-9.53.33-1.12,1.84-1.87,2.68-2.89,6.61-8.05,8.13-17,4.11-26.6s-11.84-14.85-22.08-15.38c-10.08-.53-18.06,3.93-23.27,12.74-6,10.07-4.18,22,4.69,31,3,3,4.52,6.31,3,10.32-1.66,4.24-5.19,5.77-9.63,5.6-2.66-.1-5.33,0-8,0-12.47,0-18.94,6.55-19,19.15,0,11.16.57,22.36-.2,33.47-.54,7.77,1.62,12.41,9.2,14.75,6.25,1.94,8.22,6.66,8.14,13.19-.3,22.31-.11,44.63-.11,67v5.69c12.94,0,25.26-.37,37.53.15,7.2.3,10.88-4.77,16.13-7.44l-.38-1.26h-10.7V370.07h17.09Zm170.4,11.42v-6.07q0-30,0-59.93c0-16.74-1.74-15.16,13.63-22.63,2.32-1.13,3.49-2.33,3.46-5.19-.18-14.15,0-28.3-.12-42.45-.08-9.74-7.35-16.76-17.21-16.91-3.66-.06-7.5.66-10.93-.22-3.05-.79-6.5-2.73-8.22-5.22-2-2.95-1-6.75,1.85-9.52.71-.7,1.44-1.39,2.11-2.12a25.39,25.39,0,1,0-36.63.53c3.19,3.27,5.3,6.64,3.56,11.07-1.86,4.73-6,5.74-10.69,5.49-2.66-.14-5.33,0-8,0-10.8.09-17.86,7-17.91,17.73-.06,11.16.57,22.35-.21,33.45-.6,8.52,1.29,14.16,10.11,16.69,5.51,1.59,7.27,5.94,7.19,11.67-.25,17.14,0,34.29-.16,51.43,0,3.11,1,4.44,3.86,5.85,9.09,4.42,17.87,9.46,26.79,14.21,1.57.84,3.24,2,4.89,2.07C309.79,395.26,320.43,395.16,331.77,395.16Zm-111,213.44c59.94.35,110.6-49.31,111-108.78C332.16,438,283.31,387.32,222.93,387c-62.45-.37-112.28,48.42-112.8,110.45C109.62,558.11,159.49,608.25,220.75,608.6ZM75.59,655.52,114,617.14c-4-4.17-8.17-8.6-11.74-12.34L63.57,643.32Zm70.15-53-29.3-29.35-10.89,10.52c4.81,4.7,9.86,9.49,14.74,14.46s9.79,10.32,14.69,15.51Z"/><path class="cls-2" d="M432.68,676.89c-2-2.88-4.43-5.58-6-8.69s-2.31-6.56-3.45-9.85c-1.77-5.1-6.44-7.14-11.23-4.92a38.72,38.72,0,0,0-5.84,2.79c-7.28,5-13.7,3.71-19.54-2.37s-12-12.43-17.82-18.81c-3-3.27-3.22-7.12-1.18-11.12,1.58-3.11,3-6.31,4.48-9.46,2.56-5.45.68-10-4.95-11.94-3.77-1.28-7.57-2.5-11.35-3.77-4.64-1.55-7-4.67-7-9.68.06-9.66.08-19.32,0-29,0-5,2.24-8.2,6.9-9.77,3.62-1.21,7.27-2.33,10.9-3.53,6.43-2.14,8.23-6.39,5.33-12.53a16.28,16.28,0,0,0-1.24-2.71c-6.62-9.1-4.56-17,3.27-24.11,5.52-5,10.94-10.19,16.5-15.2,3.65-3.28,7.7-3.44,12-1.17,2.79,1.47,5.7,2.71,8.56,4.06,6.09,2.87,10.45,1.05,12.55-5.28,1.26-3.78,2.46-7.58,3.75-11.35,1.46-4.28,4.48-6.46,9-6.46h30c4.57,0,7.54,2.28,9,6.48,1.34,3.76,2.48,7.58,3.74,11.36,2.13,6.36,6.43,8.14,12.58,5.24l2.25-1.05c13.57-6.39,14.07-6.49,25.24,3.95,5.2,4.86,9.8,10.4,14.52,15.76,3,3.46,3.52,7.33,1.24,11.53-1.58,2.92-2.86,6-4.28,9-2.85,6-1,10.31,5.45,12.45,3,1,6.17,1.64,8.92,3.09,3.1,1.64,5.8,4,8.68,6.07v37c-2.83,2.12-5.47,4.6-8.55,6.26-2.88,1.55-6.22,2.25-9.37,3.3-6.08,2-7.9,6.3-5.16,12.15,1.35,2.85,2.52,5.81,4.08,8.54,2.68,4.72,2,9-1.53,12.78-5.55,5.95-11.21,11.79-16.85,17.66-6,6.2-12.45,7.74-19.95,2.54a38.2,38.2,0,0,0-6.73-3.21c-3.29-1.41-8.57.74-9.82,4.11-1.37,3.74-2.14,7.75-3.89,11.28-1.55,3.11-4.1,5.72-6.2,8.56ZM536.6,564.51c-13.3-.87-21.61-7.93-24.65-20.9,0-.16-.19-.31-.19-.46-.05-3-.59-6.18,0-9.08a26.42,26.42,0,0,1,3.77-8.1c2.26-3.59,1.39-6.05-1.43-9-8.79-9.22-8.58-9.13-20.25-4-3.09,1.36-7.23,2.11-10.36,1.24-11.15-3.07-20.45-8.47-21.94-21.71-.14-1.22-2.52-3-4-3.1-5.12-.38-10.29-.15-15.41-.15a30.3,30.3,0,0,0-1.37,2.95c-5.81,17.39-3.44,15-18.76,20.94-4.92,1.91-8.94,2.27-13.71-.08-11.35-5.58-11.44-5.41-20,4.12a2.9,2.9,0,0,1-.34.36c-2.95,2.36-3.24,5-1.14,8.15,5.19,7.79,6.73,15.78.92,24a3.75,3.75,0,0,0-.48,1.41c-1.24,6.13-5.23,9.35-11.1,10.68-1.61.37-3.14,1.14-4.76,1.43-4.32.76-5.71,3-5.59,7.53.35,12.9.2,12.68,12.17,17.33a17,17,0,0,1,8,6.64c5.93,10,7.8,20.21.22,30.57-.75,1,.33,4.51,1.62,5.74,3.55,3.38,7.65,6.19,11.56,9.18.14.11.64-.16.9-.35,9.7-7,19.57-6.84,29.58-.73a1.89,1.89,0,0,0,.46.2c3.87,1.11,6.11,3.73,7.28,7.52,1.35,4.38,2.9,8.69,4.35,13h6c12.62,0,12.41-.08,16.81-12a15.75,15.75,0,0,1,6.13-7.79c10.05-5.86,20.46-8.54,30.94-.45.86.67,3.18.74,3.88.09,4-3.74,8.7-7.28,11.07-12,1.1-2.16-2.53-6.72-4-10.19-.46-1.07-1.27-2.1-1.36-3.2-.19-2.55-.59-5.29.07-7.68,3.14-11.31,8.74-20.28,21.85-21.84,1.21-.15,3-2.52,3.07-4C536.83,575.75,536.6,570.58,536.6,564.51Z"/><path class="cls-1" d="M499.26,224.72c.9.33,1.81.7,2.74,1,16.61,5.06,25.84,16.78,26.14,34.08.29,16.15,0,32.32.1,48.47,0,5.09-2,9-6.84,10.44-8.82,2.61-10.84,8.18-10.55,17,.71,21.63.25,43.3.22,64.95,0,9.21-2.76,12-11.93,12q-39.48,0-78.95,0c-8.83,0-11.53-2.8-11.53-11.74,0-24.15-.08-48.3.08-72.46,0-3.29-.92-5-3.94-6.47-15.05-7.15-13.13-5.92-13.2-21.35q-.08-19.74,0-39.48c.06-18.6,8.71-30.16,26.61-35.65.77-.24,1.53-.52,2.31-.78-8.63-22,.43-41,13.3-50.84a42.56,42.56,0,0,1,49.93-1.51C500.38,183.6,505.76,201.61,499.26,224.72Zm-5.5,170.21V389.2q0-29.71,0-59.44c0-17.76-1.38-15.71,14-23.57a6.06,6.06,0,0,0,2.92-4.31c.21-14.65.26-29.3,0-43.95A16.4,16.4,0,0,0,494.63,242c-4-.15-8,0-12,0s-6.81-1.75-8.32-5.29a8.31,8.31,0,0,1,1.94-9.63c.7-.72,1.43-1.4,2.12-2.13a25.34,25.34,0,0,0-27.22-41.09c-17.66,6.42-22.44,28.17-9.07,42,3.22,3.32,5,6.76,3.07,11.14-1.85,4.22-5.64,5.26-10,5.08-2.82-.12-5.66,0-8.49,0-11,.09-18,7.09-18.05,18.19s.57,22-.2,32.95c-.6,8.5,1.25,14.17,10.09,16.68,5.53,1.56,7.26,5.85,7.2,11.61-.24,22.64-.09,45.29-.09,67.93v5.6Z"/><path class="cls-1" d="M118.92,267.19V250.44h33.43v16.83l-8,.71v33.46H127V268.05Z"/><path class="cls-1" d="M314.51,250.44v16.82l-8,.7c0,9.79-.14,19.39.07,29,.08,3.59-.78,4.93-4.66,4.92C289,301.85,289,302,289,289.3V268.06l-8-.87V250.44Z"/><path class="cls-1" d="M323.19,386.65H306.41V370.11h16.78Z"/><path class="cls-1" d="M314.74,497.87c0,51.82-42.31,94-94.05,93.9-51.37-.13-93.69-42.52-93.75-93.89,0-51.75,42.13-93.89,94-93.93A93.57,93.57,0,0,1,314.74,497.87Zm-94.07,76.46a76.8,76.8,0,0,0,77.06-76.05c.33-42.13-34.32-77.16-76.47-77.31a76.68,76.68,0,0,0-.59,153.36Z"/><path class="cls-2" d="M451.26,625.82c-28,0-51.15-23.07-51.34-51.07s23.3-51.62,51.37-51.6,51.39,23.42,51.27,51.63A51.57,51.57,0,0,1,451.26,625.82ZM417.4,574.66a34,34,0,1,0,33.73-34A33.53,33.53,0,0,0,417.4,574.66Z"/><path class="cls-1" d="M468.67,301.48H451.42V268.12l-8.46-.93V250.47h33.43v16.82l-7.72.63Z"/><path class="cls-1" d="M468.49,386.58V370.14h16.73v16.44Z"/><path class="cls-1" d="M178.23,497.62H161.74c-2.11-30.7,27-60.72,58.9-59.19v16.14C191,461.8,181.31,471.55,178.23,497.62Z"/></svg>