<svg id="Layer_1" data-name="Layer 1" xmlns="http://www.w3.org/2000/svg" viewBox="0 0 712 712"><defs><style>.cls-1{fill:#236fb4;}</style></defs><path class="cls-1" d="M438.43,31.44c2.93,1,5.91,1.92,8.78,3.11,21.18,8.83,32.32,24.86,33.92,47.64.13,1.89.19,3.78.32,6.54h6.87c18.38,0,36.76,0,55.15,0,39.72.13,68.46,28.62,68.47,68.26q.12,227.85,0,455.7c0,39.43-28.64,67.84-68,67.85q-188,0-375.91,0c-39.34,0-68-28.47-68-67.86q-.1-227.85,0-455.7c0-39.57,28.8-68.12,68.49-68.25,20.46-.06,40.92,0,61.62,0,.74-6,.84-11.77,2.2-17.18C237.37,51.68,250.07,39,269.6,33c1.36-.42,2.65-1,4-1.53ZM230.62,129.78c-20.56,0-40.4.59-60.19-.17-18.89-.74-29.69,11.31-29.66,29.48q.43,225.62.17,451.23c0,20.33,9.5,29.71,29.95,29.71H541.07c1.9,0,3.8.06,5.7-.06,10.89-.68,20.45-7.72,23.06-17.7A52.75,52.75,0,0,0,571,609.08q.09-224.34,0-448.69c0-1.9.05-3.8-.06-5.7-.9-15.13-10.5-24.68-25.6-24.85-19.86-.22-39.72-.07-59.58,0a30.75,30.75,0,0,0-4.34.61c-.14,2.42-.23,4.5-.39,6.59-2.1,28.24-22.9,49.8-50,50.07-50.07.5-100.15.41-150.22,0-16.27-.13-29.53-7.69-39.55-20.69C233.25,155.85,230.78,143.64,230.62,129.78ZM355.8,146.57c23.22,0,46.43,0,69.65,0,10.89,0,14.59-3.67,14.63-14.32q.07-23.1,0-46.21c0-10.22-3.89-14-14.23-14q-69.64,0-139.3,0c-11,0-14.6,3.72-14.62,14.9q0,22.15,0,44.32c0,12,3.4,15.34,15.5,15.35Q321.6,146.61,355.8,146.57Z"/><path class="cls-1" d="M335.73,405.27H293.81c-21.13,0-42.26.08-63.38,0-10-.06-17.69-5.83-20.41-14.92-2.48-8.29.36-17.84,8-22.07a34.14,34.14,0,0,1,15.61-3.73c31.48-.33,63-.17,94.44-.17h7.61V357q0-48.48,0-96.95c0-13,8.17-21.88,20.12-21.93s20.38,8.81,20.39,21.68q.06,48.48,0,97v7.59h8c31.48,0,63-.18,94.44.18a32.56,32.56,0,0,1,15.5,4c7.7,4.54,10.26,13.88,7.64,22.2-2.82,9-10.48,14.49-20.7,14.52q-48.16.09-96.34,0h-8.54v7q0,49.42,0,98.86c0,10.78-7.38,18.91-17.93,20.26a20.14,20.14,0,0,1-21.79-14.46,30.17,30.17,0,0,1-.75-8.13q-.07-47.85,0-95.69Z"/></svg>