<svg id="Layer_1" data-name="Layer 1" xmlns="http://www.w3.org/2000/svg" viewBox="0 0 595.28 841.89"><defs><style>.cls-1{fill:#236fb4;}.cls-2{fill:#f9bf42;}</style></defs><path class="cls-1" d="M553.64,639c-3.26,3.8-7.38,4.82-12.33,4.82q-243.75-.14-487.48-.07c-10,0-12.19-2.22-12.19-12.38q0-37.26,0-74.5c0-7.81,2.62-10.5,10.51-10.53,19.17-.06,38.33,0,57.5,0h5c0-4.3-.16-7.94,0-11.56.34-6.46,2.2-12.29,6.61-17.35,10.63-12.17,21.2-24.4,31.43-36.91A79.06,79.06,0,0,0,162.66,465c9.82-20.37,19.63-40.76,28.57-61.52,2.74-6.35,3-13.86,3.86-20.9,1.64-12.51,2.93-25.07,4.44-38.27-12.91,6.48-23.33,14.45-27.93,28.27-6.89,20.7-15.09,40.84-25.79,59.91-6.58,11.73-20.46,15.31-30.37,6.85-3.52-3-5.77-8-7.45-12.48-1.84-4.93-1.9-10.5-3.54-15.52-2.27-6.94-1.23-13.13,1.57-19.71,6.43-15.14,12.63-30.4,18.29-45.84,6.19-16.88,18.66-27.58,33.63-36a7.81,7.81,0,0,1,10.92,2.65c2.31,3.87,1.1,8.47-3,11.24-3.73,2.5-7.62,4.77-11.24,7.43a42,42,0,0,0-14.51,18.68c-5.71,14.52-11.49,29-17.54,44.24,7.8,0,15,.14,22.25-.14,1.07,0,2.52-1.85,3-3.13,3-7.59,5.86-15.2,8.46-22.92a55.47,55.47,0,0,1,22.65-29.56,272,272,0,0,1,25.51-14.66c2.49-1.26,6.55-1.08,9.21,0,3.47,1.46,4,5.18,3.49,9-2.28,18.5-4.36,37-6.46,55.54a50.36,50.36,0,0,0,0,5.4h61.69c1.79-15.46,3.57-30.8,5.35-46.14.94-8.1,1.81-16.21,2.86-24.29.82-6.28,3.17-8.4,9.52-8.45,13.84-.1,27.68-.42,41.5.06,16.91.59,32.93-4.21,49.25-7.2,10.77-2,21.46-4.39,32.24-6.61V280.86c-14.18,2.87-28,5.5-41.77,8.49s-27.72,5-42,4.76c-30.83-.44-61.67.05-92.5-.22a70.34,70.34,0,0,0-35.36,8.88c-2.4,1.33-6,2.27-8.32,1.43s-4.93-4.08-5.05-6.39a10.13,10.13,0,0,1,3.94-7.69,74.09,74.09,0,0,1,36-12c.81,0,1.61-.18,2.34-.26-6.73-19.61-3.18-39.71-3.29-59.5-.05-10.95,9.67-19.34,21.4-19.86,12.47-.56,25-.5,37.48,0,10.71.4,18.1,7.19,20.37,17.41s-1.89,19.14-11,24.59c-1.34.81-1.93,2.91-2.82,4.44-.14.25,0,.65,0,1-.16,10.75,1.32,21.69-4.51,32,31.26.44,61.73,1.5,91.81-6.92,22.53-6.32,45.65-10.56,68.52-15.66,8-1.78,13.83.55,17.16,6.62,3.43,6.23,2.25,12.16-3.73,17.94-11.14,10.77-22.26,21.56-33.58,32.15a16.1,16.1,0,0,1-7.3,3.83q-33.18,7-66.46,13.44a96.16,96.16,0,0,1-16.87,1.55c-13.79.22-27.6.07-41.77.07-2.42,21.14-4.8,41.88-7.28,63.5,6.6,0,12.84-.77,18.83.14,22.6,3.44,37.81,21.34,38.12,44.36.17,12.66,0,25.33,0,38v5.59c12.94,3.66,21.78,11.43,26.93,23.95q0-12,0-24a69.19,69.19,0,0,1,.17-7.49c.45-4.2,2.95-6.54,7.16-7a34.08,34.08,0,0,1,3.5-.09q79.76,0,159.49-.07c4.74,0,8.47,1.05,10.95,5.26v41c-3.2,3-6.46,6-11.27,3.74s-4.8-6.65-4.72-11.14c.12-7.44,0-14.88,0-22.46H388.81v143H537.68v-5.73c0-23.15.05-46.3,0-69.45,0-4.34.76-8.09,5.19-9.78,4.15-1.57,7.47,0,9.95,3.53.15.2.57.22.86.33ZM372,525.18H223.21V627.12H372ZM57.77,627.07H206.43V563H57.77ZM329.1,481.73c0-15.35.57-30.33-.16-45.25-.77-15.86-12.82-26.46-28.77-26.5-29.82-.05-59.65.07-89.48-.12-3.66,0-5.17,1.38-6.56,4.42-8.75,19-17.4,38.12-26.66,56.91a121.27,121.27,0,0,1-13.13,20.49c-7.21,9.29-15.17,18-23.65,27.95,9.59,0,18,.06,26.4-.1.91,0,2-1.17,2.65-2,17.58-22.67,37.94-43.52,47.33-71.61.73-2.2,2-4.2,2.89-6.35,1.8-4.42,5.12-6.29,9.77-6.28,18.17,0,36.33-.05,54.49.06a21.27,21.27,0,0,1,16.08,6.84c4.08,4.39,5.66,9.63,5.6,15.55-.08,8.61,0,17.22,0,26ZM206.79,545.68c0-8.35,0-16.81,0-25.27,0-9.39,2.39-11.81,11.82-11.82q32.49,0,65,0h6.17c0-17.47,0-34.28,0-51.09,0-7.12-.82-7.91-8.18-7.92-14.33,0-28.66.2-43-.13-4.46-.11-6.53,1.41-7.94,5.43A140.82,140.82,0,0,1,203.42,501c-6.23,7.14-11.81,14.84-17.85,22.5a26.53,26.53,0,0,1,11.9,16.88C199,547,198.86,547.06,206.79,545.68Zm69.37-302.53H242.82c0,6.85-.51,13.5.13,20a16.63,16.63,0,0,0,33.11-.5C276.59,256.28,276.16,249.82,276.16,243.15ZM243,226.85c14.1,0,27.89.09,41.68-.06,3.83,0,6.17-2.28,6.19-6.37,0-4.3-2.56-5.84-6.45-5.84q-15.48,0-31,0C243.82,214.56,242.09,216.47,243,226.85ZM355,508.58c-4.09-7.18-9.46-10.43-16.6-10.6-7.33-.18-14.66-.05-22-.05H306.23c-.88,10.15-.44,10.65,8.57,10.65H355ZM181.49,546.33c-.11-6.74-3.6-10.37-9.87-10.43-12.46-.11-24.92,0-37.38,0a12.8,12.8,0,0,0-2.66.54c-.75,9.64-.51,9.9,8.68,9.9h41.23ZM120.75,410.14c1,4.93,1.85,9.66,3.11,14.26a5.23,5.23,0,0,0,3.16,3.28,4.8,4.8,0,0,0,4-1.91c2.85-4.93,5.3-10.08,8.15-15.63ZM429.64,288l13.26-14.52-13.26,3.7Z"/><path class="cls-2" d="M418.59,428.9c1-6.06,2.52-13.73,3.51-21.47a8.33,8.33,0,0,0-1.89-6c-4.63-5-9.69-9.61-14.59-14.36s-6.45-10.44-4.22-16.86,7.05-9.35,13.53-10.21c6.76-.9,13.52-1.8,20.21-3.07a7.11,7.11,0,0,0,4.34-3.18c3.26-6,6.19-12.13,9.15-18.27s7.48-9.61,14.44-9.61,11.46,3.75,14.41,9.72,5.89,12.3,9.15,18.27A7,7,0,0,0,491,357c7,1.28,14.14,2,21.18,3.22,6.22,1,10.64,4.48,12.65,10.64,1.95,6,.46,11.2-3.83,15.58-4.89,5-10.18,9.61-14.86,14.79A9.88,9.88,0,0,0,504,408.1c.74,6.59,2.27,13.09,3.35,19.64,1,6.29-.95,11.54-6.09,15.37s-10.77,4.19-16.46,1.35c-6.24-3.11-12.29-6.63-18.61-9.57a8.21,8.21,0,0,0-6.18-.06c-6.62,3.08-12.91,6.89-19.53,10C429.79,449.77,418.41,442.25,418.59,428.9Zm45.2-84.6c-5.32,8.29-9.08,19-16.63,24.52s-18.82,5.82-28.46,8.4a56.12,56.12,0,0,0,5.32,4.72c13.71,9.72,17.9,22.46,12.69,38.44-.86,2.66-1,5.55-1.62,9.21,4.26-2.52,7.64-4.29,10.79-6.42,11.28-7.65,22.5-8,33.91-.25,3.32,2.26,6.92,4.1,11.43,6.75-1.16-5.49-1.84-9.74-3-13.86-3.32-12.07-.07-21.93,9.44-29.94,3.51-3,6.83-6.17,10.83-9.8-6.35-.78-11.78-1.4-17.21-2.13-9.13-1.23-16.35-4.9-19.94-14.24C469.23,354.15,466.12,349,463.79,344.3Z"/></svg>