<svg id="Layer_1" data-name="Layer 1" xmlns="http://www.w3.org/2000/svg" viewBox="0 0 595.28 841.89"><defs><style>.cls-1{fill:#236fb4;}.cls-2{fill:#ee2e24;}</style></defs><path class="cls-1" d="M116.26,365.66c1.07-11.72,2.11-23.08,3.14-34.44q3.73-41.25,7.46-82.51,3.08-34.23,6.1-68.48c.56-6.17.81-12.41,2-18.47,2.44-12.92,12.54-21.34,25.6-20.65,15.56.82,31.07,2.55,46.6,3.92q34.8,3.06,69.59,6.16,34,3,67.91,6.12,34.8,3.13,69.6,6.28c10.28.93,20.63,1.46,30.84,2.94a20.6,20.6,0,0,1,10.74,5.21c10.64,10.36,20.71,21.29,31.09,31.92a19.64,19.64,0,0,1,5.79,16.39q-4.37,46.84-8.61,93.72c-1.71,18.89-3.29,37.78-5,57.51,5.17,0,10,0,14.81,0,15.7.08,25,9.18,25,24.77.06,31.4.1,62.81-.08,94.21,0,4.34,1.07,7.54,4.38,10.25a52.49,52.49,0,0,1,5.58,5.58c6.65,7.28,7,17.17.47,24.47-2.28,2.55-2.76,4.48-1.07,7.34,1.13,1.93,1.45,4.38,2.77,6.12s3.21,3.56,5.08,3.85c11.48,1.72,17.54,8.42,17.61,20.19,0,8.47.06,16.93,0,25.39-.09,11.36-6.23,18.49-17.39,19.7-3.09.33-4.77,1.25-5.59,4.26-.64,2.34-2.24,4.44-2.66,6.78-.33,1.82-.14,4.37.93,5.71,7,8.74,6.75,18.17-1.18,26.26q-9.29,9.47-18.74,18.76c-8.39,8.24-17.46,8.47-26.67,1.11-1.22-1-3.5-1.09-5.19-.86s-3.41,1.56-5.2,2.06c-4.16,1.14-6.36,2.94-6.4,8-.07,8-7.89,15.16-16,15.36q-16.07.4-32.15,0c-8.84-.19-16.11-7.36-16.69-16.73-.22-3.73-1.6-5.18-4.87-6.17a88.82,88.82,0,0,1-9.16-3.86c-12.17,10.09-20.95,10.17-31.29-1.55-7.6-8.61-15.76-11.49-27.26-11.4-76.71.55-153.43.4-230.15.13a115.58,115.58,0,0,1-27.27-3.45c-19.14-4.76-28.9-17.94-29-37.73-.09-26.33,0-52.66,0-79q0-75.31.12-150.63c0-17.28,7.38-24.58,24.8-24.59C83,365.65,99.29,365.66,116.26,365.66Zm344.39,5.61c4-44.92,8-89.5,12.06-134.48-12.66-1.16-24.59-2.37-36.55-3.32-10.54-.83-17.89-8.37-17.31-18.33.29-5.06,1-10.09,1.43-15.14.5-5.71.92-11.42,1.39-17.44-22.71-2-44.78-3.91-66.84-5.9-31.42-2.84-62.83-5.79-94.25-8.6s-62.9-5.06-94.25-8.51c-11.08-1.22-13.72,2-14.43,12.63-1.26,18.74-3.18,37.43-4.86,56.13q-3.71,41.25-7.46,82.49t-7.45,82.49c-1.24,13.81-2.43,27.63-3.67,41.75,1.75.14,3.21.34,4.68.34q78.66,0,157.33.11c3.59,0,5.29-1.39,6.89-4.31,8.69-15.78,17.63-31.43,26.33-47.2,4.81-8.72,11.68-12.9,21.92-12.82,35.9.29,71.8.11,107.71.11ZM386.49,487.34a87,87,0,0,1,8.42-3.46c3.79-1.13,5.55-2.87,5.85-7.33a17.32,17.32,0,0,1,16.75-16.07q15.78-.36,31.58,0c8.2.19,16.1,7.1,16.38,15,.18,5.06,1.95,7.43,6.57,8.52,2,.47,3.75,1.78,5.73,2.28,1.19.29,3.05.24,3.82-.49,5.33-5.05,11.49-6.85,19.2-5.12v-82c0-8.46-.8-9.26-9.37-9.26-47.94,0-95.88.07-143.82-.13-4.71,0-7.08,1.73-9.2,5.59-9.21,16.79-18.84,33.34-27.91,50.21-3.24,6-7.32,8.53-14.28,8.5-62-.21-124.08-.12-186.12-.12h-6.72V642.87H331c2.62-4.91,5-9,7-13.34a8.39,8.39,0,0,0,.75-4.93c-.45-2.16-1.94-4.09-2.52-6.24-.92-3.49-2.64-5-6.52-5.32-10.17-.93-16.29-7.78-16.52-17.95-.2-9.21-.13-18.43,0-27.64.13-11.71,5.88-17.89,17.42-19.6,1.88-.28,3.9-2.13,5.1-3.8a15.79,15.79,0,0,0,2.7-6.73c.29-2,.13-4.73-1-6.22-6.73-8.74-6.48-17.88,1.29-25.85,5.78-5.92,11.68-11.72,17.54-17.56C366.45,477.48,375.15,477.27,386.49,487.34Zm32.21-8.68c0,2.75,0,4.8,0,6.85.11,8.05-1.44,9.83-9.17,12.58-6.33,2.26-12.53,5-18.62,7.82s-9.2,2.75-14.08-2.2a59.08,59.08,0,0,1-4.69-6.13l-.09,2.47-21.3,19.64a60.45,60.45,0,0,1,5,3.93c5.88,5.67,6,8,2.5,15.34a172.66,172.66,0,0,0-7.53,18.13c-2.5,7.11-4.76,9.11-12.13,9.18-2.35,0-4.69,0-7.2,0,0,9.35,0,17.79,0,26.23a14.24,14.24,0,0,0,.48,2.45c2,0,3.82,0,5.66,0,8.46-.12,10.67,1.59,13.28,9.81,1.19,3.74,2.09,7.82,4.26,11,7,10.13,6.83,18.9-3.54,26.52-.12.08-.11.32.11-.42l20.51,21.76A63.69,63.69,0,0,1,376.4,658c5.21-5.51,8.09-5.73,14.91-2.51a175.74,175.74,0,0,0,19.19,7.88c5.38,1.78,8.31,4.79,8.28,10.5,0,2.77,0,5.55,0,8.55h29v-5.84c0-9.25,1.24-10.89,9.93-13.7,4.08-1.33,8.52-2.33,12-4.7,9.62-6.56,17.64-5.93,24.56,3.73.19.25.66.29-.15,0l21.24-20.24c-1.19-1-2.53-2.06-3.75-3.22-6.73-6.46-6.9-8.76-2.75-17.23a141.07,141.07,0,0,0,6.76-16.62c2.63-7.7,4.92-9.63,13-9.7H535V566.25h-6.62c-7.76,0-10.17-1.83-12.61-9.29a129.69,129.69,0,0,0-4.91-13.15c-6.15-13.47-6.23-13.43,3.94-24.5.22-.24.25-.64-.07.23L494,498a37,37,0,0,1-3.18,4.43c-6.36,6.63-8.56,6.85-16.7,2.65a104.69,104.69,0,0,0-12.32-5.43c-13.32-4.8-13.34-4.72-14.08-19.19a11.74,11.74,0,0,0-.43-1.82ZM114.62,384.22c-2.13-.11-3.79-.27-5.45-.28-13.91,0-27.82.22-41.72-.12-5.63-.13-7.25,1.53-7.24,7.32.11,75-.07,150-.16,225,0,2.63.16,5.26.26,7.89.26,7,4,11.7,10.15,14.3,4.25,1.79,8.87,2.68,14.14,4.21v-153c0-11.28-.14-22.56,0-33.84.18-12.2,8-19.92,20.15-20.28,1.65,0,3.29-.2,5.28-.32C111.59,418.05,113.09,401.31,114.62,384.22ZM440,184.79c-.9,10-1.79,20-2.72,30.38l37,3.32C469.83,210.48,444.11,185.3,440,184.79Z"/><path class="cls-2" d="M399.77,283.06l-67.7-6.1q-34.76-3.13-69.53-6.27c-18.32-1.62-36.65-3.11-55-4.81-7.58-.71-11.11-4.42-10.52-10.44.58-5.82,5.29-8.59,12.56-7.9,23.36,2.21,46.73,4.24,70.09,6.36q41.22,3.73,82.42,7.49c10.1.91,20.2,1.76,30.29,2.66,2.43.21,4.88.35,7.28.76,6.25,1.06,9.24,4.75,8.56,10.34C407.64,280.13,403.47,283.21,399.77,283.06Z"/><path class="cls-2" d="M390.81,334.08q-42-3.87-84.09-7.71c-27.1-2.44-54.21-4.78-81.31-7.18-8-.71-16.08-1.44-24.11-2.24-5.68-.56-9.21-4.37-9-9.54s4-8.82,9.87-8.4c15.91,1.14,31.8,2.58,47.68,4q34.5,3,69,6.2c25.42,2.28,50.84,4.51,76.25,6.87,5.64.52,8.94,4.54,8.62,9.85-.31,5-4,8.22-9.52,8.23-1.13,0-2.25-.13-3.38-.21Z"/><path class="cls-2" d="M491.88,580.85c-.17,32.55-26.87,59.07-59,58.64a59.29,59.29,0,0,1-58.4-59.42c.22-32,26.91-58.38,58.89-58.3A58.74,58.74,0,0,1,491.88,580.85ZM433,621a40.35,40.35,0,1,0-40.34-40.58C392.47,602.52,410.7,620.86,433,621Z"/></svg>