<svg id="Layer_1" data-name="Layer 1" xmlns="http://www.w3.org/2000/svg" viewBox="0 0 595.28 841.89"><defs><style>.cls-1{fill:#236fb4;}.cls-2{fill:#ee2e24;}</style></defs><path class="cls-1" d="M456.16,505.2c0,1.62,0,2.48,0,3.34.5,11.33-2.88,15.05-14.31,15.29-7.78.16-15.57,0-23.82,0,6.53,6.25,4.66,14.34,4.61,22.11s0,15.27,0,22.9c0,6.23-2,9.3-7.94,11.23-4.1,1.33-8.48,1.82-12.57,3.16-1.68.55-2.95,2.36-4.39,3.61-.11.1-.06.35-.15.49-5.94,8.93-4.51,16.84,2.1,25.08,4.8,6,4.1,9.93-1.42,15.69-8.29,8.63-16.77,17.1-25.68,25.07-2.12,1.89-6.26,1.86-9.51,2a7.81,7.81,0,0,1-5.14-2.2c-7.22-7-14.62-7.14-23.15-2.16-3.07,1.8-5.29,3.21-5.86,6.82-.48,3.07-1.35,6.08-2.09,9.1-1.68,6.89-4.39,9.79-11.33,10-12.3.37-24.64.41-36.92-.18-2.85-.14-5.76-3.17-8.24-5.33a7.06,7.06,0,0,1-1.82-4.74c-.2-11.08-6.55-16.59-16.65-18.68a9.54,9.54,0,0,0-5.64.35c-3.42,1.63-6.52,3.91-9.79,5.87-5.88,3.51-9.3,3.36-14.7-.93a84.25,84.25,0,0,1-6.87-6.36c-5.9-5.88-11.75-11.81-17.61-17.72-5.38-5.42-5.89-9.08-2.24-15.8a3.33,3.33,0,0,1,.55-.89c8.11-7.6,6.78-15.9,1.63-24.33a9,9,0,0,0-4.17-3.69c-3.73-1.32-7.68-2-11.54-3-6.77-1.74-9.54-4.7-9.66-11.59-.22-12-.37-24,.18-35.89.16-3.35,2.86-6.58,4.54-10.18H153.83c-12.55,0-15.41-2.8-15.46-15.15,0-.86-.07-1.71-.15-3.32h-5.56q-38.77,0-77.55,0c-9.61,0-13.64-4.11-13.47-13.62.78-42.61,35.81-80.46,78.22-82.92,19.11-1.11,38.43,0,57.57,1.22,5.9.38,10.07,0,14.88-3.62,22.44-16.72,47.75-25.67,75.86-25.95,19.6-.2,39.21-.25,58.81,0,29.44.42,55.59,10.3,78.67,28.42,2.51,2,4.64,2.75,7.89,1.92,4.83-1.24,9.87-2.39,14.82-2.36,18.34.13,36.95-1.07,55,1.58,38.87,5.7,69,41.62,70.29,81,.33,10.25-3.59,14.35-13.77,14.35H456.16ZM193.61,562.06c4.47,1.27,8.75,2.53,13.06,3.72,4.6,1.27,7,4.29,8.56,8.81A138.62,138.62,0,0,0,223.59,594c2.64,5,2.84,9.48,0,14.2-2,3.4-4.14,6.74-6.75,11,2.47,2.14,5.07,4.17,7.42,6.45,6.74,6.59,6.83,6.82,14.53,1.56,6-4.08,11.55-4.24,18-.93a99.39,99.39,0,0,0,17.78,7c5.62,1.64,8.9,4.9,10.53,10.32,1.16,3.86,1.48,9.23,4.14,11,2.87,1.94,8.08.14,12.17.68,5.14.68,7.33-1.4,7.62-6.27a27.6,27.6,0,0,1,.65-3.57c1.32-6.75,4.93-10.73,12-12.62,6.59-1.76,12.87-5,19-8.15,3.79-2,7.15-2.3,10.8-.35,4.24,2.28,8.44,4.63,13.81,7.57,1.89-2.3,3.72-4.84,5.87-7.08s4.8-4.38,7-6.39c-2.61-4.88-4.67-8.87-6.85-12.8-2.41-4.34-2.16-8.31.33-12.72,2.7-4.79,5.6-9.87,6.53-15.15,1.71-9.74,7.58-13.77,16.47-15.12a19.79,19.79,0,0,0,4.52-1.11c.8-.32,1.89-1.27,1.9-1.94.06-5.71.85-11.69-.68-17-.58-2-6.66-2.44-10.24-3.57-1-.31-2-.58-3-.83-3.87-1-6.09-3.3-7.19-7.29-1.33-4.8-2.5-10-5.28-14-7.11-10.11-7-19.32.93-28.73a4.52,4.52,0,0,0,0-4.31c-3.61-4.36-7.58-8.42-11.45-12.61-4.07,2.6-7.15,4.53-10.18,6.51-4.56,3-8.93,3.43-14.12.83a153.94,153.94,0,0,0-20.66-8.31c-4.76-1.57-7.83-4.25-9.19-8.93-1.19-4.1-2.22-8.23-3.38-12.55-4.3,0-8.32.4-12.23-.09-5.74-.72-8.82,1.26-9.13,7.15,0,.68-.22,1.36-.32,2.05-1.06,7.09-4.86,11.23-12,13.15a67.62,67.62,0,0,0-17.16,7.19c-5.91,3.55-10.76,3-16.37-.37-9.13-5.55-9.26-5.33-17,2.33-6.07,6-6.27,6.18-1.17,13.22,4.47,6.18,4.89,12,1.14,18.78-3.05,5.55-5.09,11.71-7.09,17.76-1.73,5.26-4.74,8.68-10.21,9.91-3.84.86-7.63,1.92-11.43,2.9ZM434.52,502c-.92-5.19-1.58-9.8-2.57-14.34-10.18-46.78-52.66-83.31-100.33-85.48-20.77-.94-41.63-.83-62.43-.41-35,.7-63.63,15-85.59,42.22-13.58,16.82-21.17,36.2-23.3,58.21h40.76c-2.79-4.56-5.15-8.16-7.25-11.9-2.61-4.64-2.08-9.56,1.66-13.37,8.38-8.54,16.93-16.92,25.41-25.36,3.78-3.77,8.18-4.53,12.83-2.06,3.81,2,7.31,4.64,11.08,6.75,1.37.77,3.36,1.56,4.66,1.13,9.3-3.05,17.47-6.66,18.3-18.86.6-8.82,4.71-11.2,13.81-11.25,10.93-.06,21.85,0,32.78.07,5.94,0,9.76,2.94,11.34,8.72a103.45,103.45,0,0,1,2.37,10.1c.61,3.6,2.71,5.07,5.88,6.84,8.38,4.68,15.73,4.72,22.78-2.1a5.91,5.91,0,0,1,1.33-.81c6.79-3.71,10.85-3.19,16.28,2.18q10.9,10.8,21.76,21.66c7,7,7.43,10.64,2.21,19.14-1.75,2.84-3.56,5.64-5.64,8.92Zm19.33-18.73h76.82c-2.25-25.07-27.38-50.35-53.61-52.81-14.78-1.38-29.75-.79-44.63-1a18.17,18.17,0,0,0-4,.79c5.1,8.69,10.55,16.76,14.71,25.44S450.19,473.63,453.85,483.24Zm-312.39.08c4.47-19.39,13.07-36.89,25.59-53.22a45.37,45.37,0,0,0-5.49-.77c-12.13,0-24.29-.33-36.4.16a62.59,62.59,0,0,0-38.9,15.27,63.8,63.8,0,0,0-22,38.56Z"/><path class="cls-2" d="M386,261a128.08,128.08,0,0,1-41.79,87.37c-30.16,27.67-66.73,27-96.49-2.49-28.34-28.12-42.17-62.67-38.4-103,3.58-38.36,37.5-71.87,75.43-77.2C337.4,158.31,386.27,199.72,386,261Zm-21.17-4.78c-.59-5.28-.87-9.77-1.6-14.2-7.48-45.36-59.33-69.84-99-46.79a68.59,68.59,0,0,0-33.52,69.12c3.95,28.7,16.09,53.28,38.81,71.72,17.88,14.51,37.19,14.68,55.1.21C350.25,315.65,362.1,287.81,364.87,256.25Z"/><path class="cls-2" d="M204.09,324c-1.51,24.31-10.11,44.84-27.61,61-20.18,18.62-45.41,18-65.12-1.31a84.61,84.61,0,0,1-25.8-55.29,59.53,59.53,0,0,1,54.09-64.17C172,261.07,199,285.29,203,314.79,203.44,318,203.78,321.3,204.09,324Zm-21.88,4c.09-23.49-14.4-40.3-33.41-42.37-19.33-2.1-36.76,10.88-41,30.52C104,334,115.05,360.87,131,372c9.77,6.86,19.32,6.79,28.58-.95A63,63,0,0,0,182.21,328Z"/><path class="cls-2" d="M510.13,323.69c-1.51,24.33-10,44.75-27.22,60.89-20.3,19-45.75,18.63-65.47-.89-17.29-17.12-26.42-38-25.9-62.53.65-30.14,25.84-55.53,56.12-57.21,29.93-1.67,57.19,20.89,61.36,50.78C509.47,318,509.83,321.24,510.13,323.69ZM413.05,320c0,20.09,8.9,39.35,20.95,49.73,11.41,9.84,22.72,9.76,33.83-.53s17.5-23.16,19.87-37.93c2.49-15.44-2.15-28.66-14.73-38.16-12.09-9.13-25.56-10.41-39.12-3.43C420,296.79,413.45,308.77,413.05,320Z"/><path class="cls-2" d="M250.54,552.2a46.85,46.85,0,0,1,93.69-.25c.11,25.43-21.08,46.8-46.55,46.94A46.82,46.82,0,0,1,250.54,552.2Zm46.92-25.26A25.16,25.16,0,1,0,322.65,552,25.26,25.26,0,0,0,297.46,526.94Z"/></svg>