<svg id="Layer_1" data-name="Layer 1" xmlns="http://www.w3.org/2000/svg" viewBox="0 0 595.28 841.89"><defs><style>.cls-1{fill:#236fb4;}.cls-2{fill:#ee2e24;}</style></defs><path class="cls-1" d="M41.64,613.93c.87-2.8,1.66-5.64,2.64-8.4,7.11-19.93,21.39-31.52,42.37-36,0-13.63,0-27.43,0-41.23,0-6.64,2.72-9.27,9.43-9.37,1.33,0,2.66,0,4,0H289.28V482.85h-13c-6.89,0-9.22-1.88-10.73-8.52-2-8.75-4.07-17.48-5.85-26.27-.63-3.15-1.93-5.16-5.16-5.77a5.89,5.89,0,0,1-2.32-.88c-8.43-6.15-15.71-3.5-23.08,2.37-4.8,3.82-10.34,6.67-15.51,10-4.25,2.76-8.12,2.41-11.7-1.18q-16.08-16.08-32.17-32.16c-3.57-3.57-4.05-7.38-1.27-11.69,5.14-8,10.09-16.06,15.3-24,1.52-2.32,2.21-4.28.55-6.77a11.86,11.86,0,0,1-2-4.54C181,364.71,175,362,167.15,361c-6.56-.93-13-2.68-19.5-4.13-6-1.34-8-3.84-8-10.13q0-22,0-44c0-6.21,1.63-8.39,7.61-9.79,9.06-2.11,18.15-4.11,27.25-6.07,2.78-.6,4.78-1.59,5.41-4.8a19.71,19.71,0,0,1,2.79-6.9c3.33-5,2.53-9.12-1-13.85-4.82-6.55-8.78-13.73-13.23-20.57-2.81-4.31-2.33-8.08,1.26-11.66Q185.89,213,202,196.9c3.62-3.64,7.49-3.86,11.71-1.18,8.14,5.18,16.22,10.47,24.51,15.42,1.48.88,3.83.64,5.72.42,1.41-.17,2.69-1.45,4.11-1.69,9.37-1.61,12.55-7.93,13.63-16.56.81-6.4,2.71-12.66,4-19,1-4.94,3.9-7.55,9-7.55q23,0,46,0c5.13,0,7.86,2.77,8.91,7.68,1.9,8.94,4.08,17.82,5.88,26.78.61,3.07,1.62,5.17,4.93,5.9a17.08,17.08,0,0,1,6,2.38c5.83,4.12,10.68,2.56,16-1.41,5.84-4.38,12.27-8,18.47-11.89,5.45-3.43,8.44-3.24,12.88,1.16q15.81,15.66,31.46,31.46c4.22,4.27,4.47,7.2,1.19,12.45-4.95,7.91-9.9,15.8-15.07,23.56-1.6,2.4-2,4.4-.33,6.78a7,7,0,0,1,1.25,2.71c1.58,10.27,8.51,13.61,17.87,14.71,6.24.74,12.34,2.61,18.5,4,4.75,1.05,7,4,7,8.86-.05,15.16,0,30.33,0,45.49,0,5.7-2.21,8.18-8.15,9.51l-26.76,6a18,18,0,0,0-2,.33c-3.55,1.21-9.43,18.1-7.4,21.31,5,7.88,10,15.72,15,23.62,3.4,5.41,3.13,8.4-1.29,12.86q-15.49,15.62-31.11,31.1c-4.57,4.54-7.36,4.82-12.83,1.38-7.9-4.95-15.65-10.14-23.67-14.89-1.63-1-4.26-.9-6.24-.45-2.55.57-4.82,2.47-7.37,3-6.28,1.21-8.3,5.28-9.23,11.06-1.25,7.7-3.23,15.28-5,22.9-1.28,5.66-3.94,7.76-9.81,7.84-4.16.06-8.33,0-12.5.07a7.56,7.56,0,0,0-1.3.3v35.7H496.26c10.47,0,12.27,1.77,12.27,12.05v38.35c36.11,8,48,37.92,44.55,60-4.29,28-27.11,46.76-54.79,45.69-26.4-1-48.41-21.78-50.59-47.68-2.38-28.18,15.49-51.44,44.55-57.69V535.22H305.82V569.6c16.43,3.13,29.38,11.65,37.83,26.35,6.65,11.58,8.42,24,5.85,37.12-5,25.51-28.27,43.1-55.46,41.88-25.19-1.13-47-22.06-49.29-47.41-2.34-25.6,13.28-51.66,44.64-58V535.29H102.93v34.29c19.51,4,33.67,14.75,41.07,33.39,11.37,28.64-4.56,61.16-34,69.93a53.22,53.22,0,0,1-67.26-39.24c-.28-1.26-.76-2.49-1.14-3.73ZM385.92,437.39c7.58-7.68,14.92-14.94,22-22.47.89-.94,1-3.69.28-4.9-4.52-7.57-9.29-15-14.13-22.35-2.45-3.73-2.55-7.15-.56-11.2a128,128,0,0,0,7.9-18.79c1.81-5.92,5.17-8.67,11.09-9.75,9.08-1.66,18-4,27.11-6,0-10.73-.08-20.89.05-31,0-2.72-.92-3.63-3.58-4.15-8.63-1.72-17.16-3.94-25.78-5.7-4.44-.9-6.82-3.4-8.33-7.55A165.23,165.23,0,0,0,394,274.16c-2.53-4.92-2.39-8.89.67-13.41,5.29-7.83,10.21-15.92,15.49-24.21-7.65-7.59-15-15.07-22.61-22.25-.9-.85-3.71-.71-5,.06-7.42,4.44-14.68,9.15-21.93,13.88a10.31,10.31,0,0,1-10.79.86q-10.63-4.84-21.59-9c-3.81-1.45-6-3.69-6.81-7.73-1.77-8.62-4-17.15-5.7-25.78-.58-2.92-1.79-3.79-4.64-3.74q-13.49.22-27,0c-2.82,0-4.09.75-4.68,3.7-1.67,8.47-3.88,16.83-5.54,25.3-.92,4.67-3.53,7.07-7.86,8.64-6.7,2.43-13.32,5.14-19.74,8.21-4.39,2.09-8.11,2-12.14-.72q-10.59-7.06-21.51-13.61c-1.28-.77-4.08-1-5-.11-7.65,7.15-15,14.6-22.7,22.16,5.59,8.8,10.86,17.25,16.29,25.59,2.32,3.57,2.39,6.86.56,10.76-3.16,6.75-6,13.67-8.57,20.67-1.6,4.37-4.19,6.77-8.81,7.67-8.63,1.69-17.2,3.74-25.74,5.86-1.2.3-2.94,1.87-3,2.88-.22,10.63-.13,21.27-.13,32.12,9.73,2.14,19.1,4.36,28.54,6.22,5,1,7.69,3.76,9.35,8.49a181.34,181.34,0,0,0,8,19.29c2.14,4.38,2.14,8-.59,12.1-4.82,7.18-9.43,14.51-13.89,21.92-.7,1.17-.86,3.74-.09,4.55,7.32,7.69,14.89,15.14,22.48,22.75,8.81-5.59,17.27-10.86,25.62-16.29,3.42-2.22,6.6-2.31,10.32-.63,7.1,3.2,14.33,6.1,21.58,9,3.72,1.46,6,3.72,6.83,7.79,1.75,8.62,3.95,17.16,5.69,25.78.57,2.87,1.76,3.86,4.63,3.82q13.5-.21,27,0c2.85.05,4.08-.89,4.66-3.78,1.69-8.46,3.91-16.82,5.55-25.3.91-4.7,3.58-7.06,7.88-8.63a176.65,176.65,0,0,0,19.29-8c4.75-2.39,8.61-2.23,13,.72C369.27,427,377.36,432,385.92,437.39ZM94.68,659a36.88,36.88,0,1,0-37.05-36.63A37,37,0,0,0,94.68,659Zm202.9,0a36.88,36.88,0,1,0-37-36.7A37,37,0,0,0,297.58,659Zm202.87,0a37,37,0,0,0,37.09-37.13c-.11-20.09-17-36.74-37.17-36.63a36.88,36.88,0,0,0,.08,73.76Z"/><path class="cls-2" d="M297.78,245.89a78.73,78.73,0,0,1,78.75,79.18c0,43.18-35.73,78.86-78.9,78.75a79,79,0,1,1,.15-157.93Zm-.55,141.65c33.73.61,62.47-27.35,63.27-61.58.79-33.74-27.12-63.36-60.32-64-36-.7-64.81,26.51-65.5,61.8C234,358.43,261.91,386.89,297.23,387.54Z"/></svg>