<?xml version="1.0" encoding="utf-8"?>
<!-- Generator: Adobe Illustrator 24.2.3, SVG Export Plug-In . SVG Version: 6.00 Build 0)  -->
<svg version="1.1" id="Layer_1" xmlns="http://www.w3.org/2000/svg" xmlns:xlink="http://www.w3.org/1999/xlink" x="0px" y="0px"
	 viewBox="0 0 712 712" style="enable-background:new 0 0 712 712;" xml:space="preserve">
<style type="text/css">
	.st0{fill:#236FB4;}
	.st1{fill:#F9BF42;}
	.st2{fill:#02994A;}
	.st3{fill:none;stroke:#2470B4;stroke-width:10;stroke-miterlimit:10;}
	.st4{fill:none;stroke:#EE3025;stroke-width:10;stroke-miterlimit:10;}
	.st5{fill:none;stroke:#F8BE40;stroke-width:6;stroke-miterlimit:10;}
	.st6{fill:none;stroke:#236FB4;stroke-width:10;stroke-miterlimit:10;}
	.st7{fill:none;stroke:#2470B4;stroke-width:8;stroke-miterlimit:10;}
	.st8{fill:none;stroke:#00994A;stroke-width:8;stroke-miterlimit:10;}
	.st9{fill:#F8BE40;}
	.st10{fill:none;stroke:#EE3025;stroke-width:7;stroke-miterlimit:10;}
	.st11{fill:#EE2E24;}
	.st12{fill:#E83A3C;}
	.st13{fill:none;stroke:#F8BE40;stroke-width:19;stroke-miterlimit:10;}
	.st14{fill:#FFFFFF;}
	.st15{fill:#069647;}
	.st16{fill:none;stroke:#069647;stroke-width:10;stroke-miterlimit:10;}
	.st17{fill:none;stroke:#069647;stroke-width:6;stroke-miterlimit:10;}
	.st18{fill:none;stroke:#069647;stroke-width:7;stroke-miterlimit:10;}
	.st19{fill:#1D5688;}
	.st20{fill:none;stroke:#069647;stroke-width:19;stroke-miterlimit:10;}
	.st21{fill:none;stroke:#069647;stroke-width:2;stroke-miterlimit:10;}
</style>
<g>
	<path class="st0" d="M165.31,321.01c0,23.56,0,46.46,0,69.64c25.51,0,50.76,0,76.35,0c0-7.61,0-15.14,0-23.57
		c-4.64,4.19-8.78,7.93-12.92,11.65c-5.33,4.79-9.08,4.71-14.23-0.38c-5.33-5.27-10.67-10.54-15.89-15.91
		c-3.95-4.07-4.2-8.5-0.91-11.95c3.38-3.56,8.19-3.44,12.31,0.63c3.89,3.85,7.52,7.96,11.57,12.27c8.52-7.71,16.4-14.82,24.26-21.94
		c4.57-4.14,9.09-8.33,13.7-12.42c4.37-3.88,9.08-3.98,12.36-0.38c3.26,3.58,3.23,9.06-1.58,12.15
		c-11.31,7.24-13.74,17.31-12.49,29.79c0.89,8.91,0.22,17.97,0.16,26.97c-0.04,6.51-2.91,9.36-9.51,9.36
		c-29.99,0.03-59.98,0.03-89.97,0c-6.52-0.01-9.42-2.92-9.43-9.47c-0.03-27.65-0.03-55.31,0-82.96c0.01-6.55,2.9-9.46,9.42-9.47
		c29.99-0.03,59.98-0.03,89.97,0c5.96,0,9.42,2.94,9.51,7.85c0.09,5.13-3.38,8.12-9.71,8.13c-25.66,0.03-51.32,0.01-76.98,0.01
		C169.45,321.01,167.63,321.01,165.31,321.01z"/>
	<path class="st0" d="M165.2,476.99c0,23.56,0,46.34,0,69.52c25.5,0,50.87,0,76.52,0c0-7.51,0-14.94,0-23.38
		c-4.27,3.79-8.15,7.19-11.98,10.65c-6.66,6.02-9.73,5.99-16.05-0.3c-5.08-5.05-10.2-10.06-15.18-15.21
		c-3.91-4.04-4.08-8.51-0.7-11.94c3.32-3.36,8.02-3.28,11.96,0.51c4.06,3.9,7.9,8.02,12.07,12.27
		c12.45-11.27,24.4-22.09,36.36-32.91c0.86-0.78,1.68-1.63,2.61-2.32c3.63-2.7,7.93-2.47,10.87,0.52c3.08,3.14,3.25,7.85-0.03,11.22
		c-3.36,3.46-7.32,6.35-10.54,9.91c-1.58,1.74-2.94,4.43-2.98,6.72c-0.27,13.65-0.11,27.32-0.15,40.97
		c-0.02,6.87-2.82,9.67-9.71,9.68c-29.82,0.03-59.64,0.03-89.47,0c-6.88-0.01-9.73-2.83-9.74-9.67c-0.03-27.48-0.03-54.97,0-82.45
		c0.01-6.93,2.79-9.77,9.61-9.78c29.99-0.03,59.98-0.03,89.97,0c5.9,0.01,9.35,3.05,9.33,8.02c-0.02,4.97-3.41,7.94-9.39,7.95
		c-25.82,0.04-51.65,0.02-77.47,0.02C169.3,476.99,167.5,476.99,165.2,476.99z"/>
	<path class="st0" d="M165.29,165.03c0,23.6,0,46.51,0,69.7c25.5,0,50.76,0,76.37,0c0-7.56,0-15.11,0-23.57
		c-4.58,4.12-8.71,7.84-12.85,11.55c-5.38,4.83-9.09,4.79-14.25-0.27c-5.35-5.26-10.68-10.53-15.91-15.9
		c-4.12-4.23-4.27-8.86-0.63-12.31c3.45-3.27,7.93-3.05,11.94,0.91c3.9,3.85,7.54,7.95,11.62,12.28
		c9.22-8.34,17.83-16.13,26.44-23.92c3.95-3.58,7.84-7.24,11.85-10.75c4.12-3.61,8.79-3.58,11.99-0.11
		c3.17,3.45,2.77,8.11-1.06,11.97c-0.7,0.71-1.38,1.5-2.21,2.02c-9.02,5.56-11.75,13.51-10.8,23.96
		c0.93,10.25,0.24,20.64,0.19,30.97c-0.03,6.56-2.87,9.38-9.47,9.39c-30,0.03-60,0.03-89.99,0c-6.56-0.01-9.44-2.87-9.45-9.43
		c-0.04-27.66-0.03-55.32,0-82.98c0.01-6.57,2.89-9.48,9.4-9.49c30-0.04,60-0.03,89.99,0c5.96,0.01,9.42,2.95,9.5,7.87
		c0.09,5.14-3.38,8.1-9.72,8.11c-25.66,0.03-51.33,0.01-77,0.01C169.42,165.03,167.61,165.03,165.29,165.03z"/>
	<g>
		<path class="st0" d="M100,606.93c0-168.88,0-337.76,0-506.93c119.34,0,238.67,0,358.01,0c3.99,2.64,5.07,6.34,5.06,11.06
			c-0.12,68.81-0.08,137.62-0.08,206.43c0,1.97,0,3.95,0,5.78c11.86,3.8,14.45,7.39,16.39,22.44c13.19,0,26.42,0,39.73,0
			c0.1-1.98,0.11-3.65,0.29-5.3c1.03-9.57,7.21-15.78,16.8-16.78c2.48-0.26,5-0.07,7.49-0.24c15.27-1.01,23.58,8.73,22.44,21.41
			c-0.02,0.26,0.29,0.54,0.7,1.28c5.2,0,10.67-0.18,16.13,0.03c16.78,0.64,29.04,13.31,29.05,29.95
			c0.02,68.64,0.01,137.29-0.02,205.93c0,2.48-0.09,5.03-0.67,7.42c-3.35,13.89-15.18,22.49-30.83,22.49
			c-156.64,0.01-313.28-0.01-469.92,0.1C105.91,612,102.54,610.66,100,606.93z M116.32,116.2c0,160.08,0,319.75,0,479.43
			c63.37,0,126.41,0,188.56,0c-0.51-7.33-1.39-14.38-1.42-21.45c-0.14-37.49-0.07-74.97-0.07-112.46c0-28.32-0.08-56.65,0.03-84.97
			c0.07-17.87,12.63-30.37,30.52-30.69c3.61-0.07,7.22-0.01,10.93-0.01c0.09-1.63,0.16-2.61,0.18-3.59
			c0.28-11.19,6.67-18.13,17.73-18.91c4.14-0.29,8.35-0.27,12.47,0.14c9.44,0.94,15.73,7.6,16.52,17.04
			c0.14,1.61,0.19,3.23,0.28,4.89c13.49,0,26.69,0,38.81,0c1.64-5.2,2.19-10.32,4.74-14.07c2.52-3.71,7.07-6.03,11.12-9.28
			c0-68.03,0-136.94,0-206.08C336.54,116.2,226.62,116.2,116.32,116.2z M319.79,420.11c0,2.06,0,3.69,0,5.32
			c0,51.49,0,102.97,0,154.46c0,10.99,5.03,16.05,16.22,16.05c81.16,0.03,162.32,0.03,243.47,0c11.4,0,16.55-5.19,16.55-16.39
			c0-51.32,0-102.64,0-153.96c0-1.77,0-3.54,0-5.48C503.8,420.11,412.19,420.11,319.79,420.11z M319.93,403.56
			c92.39,0,184.09,0,276.06,0c0-10,0.19-19.64-0.07-29.28c-0.15-5.4-4.3-10.4-9.79-11.2c-6.49-0.94-13.13-0.84-20.26-1.22
			c0,5.25,0.83,9.77-0.24,13.79c-1.05,3.95-3.29,8.28-6.36,10.81c-3.07,2.52-7.75,3.91-11.84,4.2c-7.36,0.52-15.02,1.35-21.51-3.98
			c-7.82-6.42-6.45-15.44-6.75-24.1c-13.6,0-26.78,0-39.25,0c-1.08,6.54-1.21,12.86-3.29,18.45c-2.37,6.38-8.3,9.57-15.1,9.7
			c-7.54,0.14-15.34,1.5-22.17-3.6c-8.54-6.36-6.96-15.79-7.43-24.64c-13.53,0-26.59,0-39.12,0c-1.05,6.42-1.19,12.73-3.23,18.34
			c-2.33,6.38-8.18,9.71-14.99,9.88c-7.38,0.19-14.99,1.46-21.82-3.14c-9.29-6.26-7.35-16.2-8-25.73
			c-5.37,0.37-10.21,0.35-14.92,1.13c-5.32,0.88-9.68,5.2-9.82,9.94C319.72,383.03,319.93,393.17,319.93,403.56z M448.39,340.44
			c0,8.28-0.08,16.38,0.02,24.47c0.13,10.71-2.03,9.7,10.33,9.79c2.98,0.02,4.16-1.18,4.11-4.15c-0.11-6.46,0.1-12.94-0.06-19.4
			c-0.31-13.08,2.91-11.32-12.1-11.29C450.21,339.85,449.73,340.09,448.39,340.44z M535.7,357.08c0,2.65-0.05,5.31,0.01,7.96
			c0.23,10.52-2.16,9.51,9.9,9.67c3.58,0.05,4.54-1.49,4.45-4.81c-0.19-6.79,0.03-13.6-0.08-20.39c-0.18-10.99,2.11-9.55-10.23-9.78
			c-2.95-0.05-4.23,0.8-4.09,3.92C535.85,348.12,535.71,352.61,535.7,357.08z M375.5,357.39c0-2.67,0.04-5.33-0.01-7.99
			c-0.21-11.12,1.77-9.35-9.9-9.67c-3.59-0.1-4.61,1.31-4.52,4.69c0.19,6.82-0.03,13.66,0.07,20.49c0.15,10.46-2.3,9.76,10.43,9.8
			c3.16,0.01,4.01-1.49,3.94-4.32C375.41,366.05,375.49,361.72,375.5,357.39z"/>
		<path class="st0" d="M363,165.03c-16.49,0-32.97,0.02-49.46-0.01c-6.31-0.01-9.94-2.93-9.99-7.9c-0.05-4.95,3.69-8.08,9.85-8.08
			c33.47-0.02,66.95-0.02,100.42,0c6.06,0,9.93,3.31,9.8,8.19c-0.13,4.76-3.77,7.78-9.65,7.79
			C396.97,165.05,379.99,165.03,363,165.03z"/>
		<path class="st0" d="M363.51,207.97c-16.65,0-33.31,0.01-49.96-0.01c-6.28-0.01-9.95-2.93-10.01-7.88
			c-0.06-4.98,3.65-8.06,9.84-8.06c33.47-0.02,66.95-0.02,100.42,0c6.11,0,9.94,3.23,9.81,8.14c-0.12,4.76-3.8,7.79-9.64,7.8
			C397.15,207.98,380.33,207.97,363.51,207.97z"/>
		<path class="st0" d="M485.81,542.87c0,6.15,0.05,12.31-0.01,18.46c-0.08,7.11-2.96,10.18-9.94,10.24
			c-12.48,0.11-24.95,0.1-37.43,0c-7.02-0.05-9.93-3.02-9.99-10.15c-0.1-12.31-0.09-24.62,0-36.92c0.05-7.31,3.03-10.24,10.4-10.28
			c12.14-0.08,24.29-0.07,36.43,0c7.58,0.04,10.47,3.04,10.53,10.7C485.84,530.9,485.81,536.88,485.81,542.87z M469.11,554.99
			c0-8.36,0-16.1,0-24.01c-8.19,0-16.04,0-23.93,0c0,8.23,0,16.09,0,24.01C453.31,554.99,461.05,554.99,469.11,554.99z"/>
		<path class="st0" d="M457.51,444.2c6.15,0,12.31-0.08,18.46,0.02c6.69,0.11,9.76,3.14,9.8,9.87c0.09,12.47,0.08,24.95,0,37.42
			c-0.04,6.93-3.09,10-10.14,10.07c-12.31,0.11-24.62,0.11-36.93,0c-7.34-0.06-10.24-3.02-10.29-10.4
			c-0.08-12.31-0.1-24.62,0.01-36.92c0.06-7.08,3.04-9.96,10.11-10.04C444.87,444.14,451.19,444.2,457.51,444.2z M469.12,484.94
			c0-8.34,0-16.08,0-24.06c-8.17,0-16.02,0-23.95,0c0,8.23,0,16.1,0,24.06C453.29,484.94,461.03,484.94,469.12,484.94z"/>
		<path class="st0" d="M505.65,542.29c0-6.32-0.12-12.64,0.04-18.96c0.16-5.96,3.01-8.99,8.95-9.07
			c12.97-0.18,25.95-0.17,38.93-0.01c6.31,0.08,9.28,3.37,9.31,9.83c0.07,12.64,0.08,25.28-0.01,37.92
			c-0.04,6.38-3.09,9.5-9.56,9.56c-12.81,0.13-25.62,0.13-38.43-0.01c-6.23-0.07-9.07-3.02-9.21-9.3
			C505.53,555.6,505.64,548.95,505.65,542.29z M522.14,554.97c8.23,0,16.1,0,24.24,0c0-8.16,0-16.02,0-24.06c-8.22,0-16.1,0-24.24,0
			C522.14,538.93,522.14,546.67,522.14,554.97z"/>
		<path class="st0" d="M409.97,472.91c0,6.32,0.04,12.64-0.01,18.96c-0.05,6.26-2.79,9.54-8.88,9.65c-13.14,0.22-26.28,0.21-39.42,0
			c-5.92-0.1-8.69-3.24-8.73-9.21c-0.08-12.97-0.08-25.94,0-38.92c0.04-6.13,3.01-9.1,9.28-9.16c12.81-0.11,25.62-0.12,38.42,0
			c6.35,0.06,9.27,3.25,9.32,9.71C410.01,460.27,409.97,466.59,409.97,472.91z M369.27,460.84c0,8.21,0,16.08,0,23.94
			c8.33,0,16.35,0,24.42,0c0-8.15,0-15.88,0-23.94C385.53,460.84,377.63,460.84,369.27,460.84z"/>
		<path class="st0" d="M562.9,472.81c0,6.49,0.09,12.98-0.03,19.46c-0.1,5.82-3.04,9.14-8.86,9.24
			c-13.14,0.22-26.29,0.21-39.42,0.01c-5.98-0.09-8.83-3.12-8.9-9.11c-0.14-12.97-0.14-25.95-0.01-38.92
			c0.07-6.25,3.04-9.2,9.25-9.25c12.81-0.12,25.62-0.12,38.43,0c6.37,0.06,9.42,3.23,9.51,9.61
			C562.97,460.17,562.9,466.49,562.9,472.81z M546.45,460.91c-8.49,0-16.34,0-24.2,0c0,8.26,0,16.12,0,23.92c8.25,0,16.13,0,24.2,0
			C546.45,476.72,546.45,468.99,546.45,460.91z"/>
		<path class="st0" d="M352.91,542.56c-0.01-6.32-0.07-12.64,0.01-18.96c0.08-6,2.81-9.23,8.62-9.32
			c13.3-0.21,26.61-0.21,39.92,0.02c5.51,0.09,8.45,3.48,8.48,9.01c0.07,13.14,0.08,26.28-0.01,39.41
			c-0.03,5.28-2.95,8.67-8.19,8.76c-13.63,0.22-27.28,0.22-40.91-0.03c-5.05-0.09-7.79-3.34-7.89-8.44
			C352.82,556.2,352.92,549.38,352.91,542.56z M393.59,554.99c0-8.31,0-16.17,0-24.13c-8.27,0-16.17,0-24.35,0
			c0,8.12,0,15.99,0,24.13C377.38,554.99,385.28,554.99,393.59,554.99z"/>
	</g>
</g>
</svg>
