<svg id="Layer_1" data-name="Layer 1" xmlns="http://www.w3.org/2000/svg" viewBox="0 0 595.28 841.89"><defs><style>.cls-1{fill:#236fb4;}.cls-2{fill:#f9bf42;}</style></defs><path class="cls-1" d="M41.64,466.91c3.89-8.46,9.43-14.78,19.62-15,3.83-.07,7.66,0,11.49,0h4.9v-5.79c0-25.48-.05-51,0-76.45.07-34.4,26.29-60.61,60.71-60.68q39.24-.09,78.46,0c34.41.07,60.6,26.29,60.71,60.7,0,7.49.1,15,0,22.48a19.95,19.95,0,0,1-39.89.05c-.13-7.33.07-14.66-.06-22-.23-12.88-8.51-21.21-21.45-21.27q-38.48-.18-77,0c-12.78.05-21.4,8.19-21.5,20.68-.21,26.64-.06,53.29,0,79.94a20.46,20.46,0,0,0,.31,2.33h6q84.45,0,168.9,0c8.24,0,14.53,3.42,18.37,10.68,3.74,7.07,3.23,14.2-1.3,20.76-4.19,6.07-10.23,8.56-17.6,8.55q-68.48-.12-136.93,0H81.85v145H332c13.31,0,22.25,8.81,21.5,21.34-.46,7.58-4.36,13.09-11.1,16.59-1.28.66-2.54,1.35-3.8,2H41.64Z"/><path class="cls-2" d="M408.52,676.81c-6.59-3.12-12.48-7-14.18-14.73a37.14,37.14,0,0,1-.76-7.88q-.07-59.94,0-119.89c0-3.41-.88-5.13-4.19-6.69-22.82-10.82-35.37-29-35.72-54.28-.52-37.13-.3-74.26-.06-111.4.19-30.9,27-57.61,57.9-57.86q42-.34,83.94,0c30.92.25,57.71,27,57.9,57.86.24,37.14.46,74.27-.06,111.4-.35,25.3-12.9,43.46-35.72,54.28-3.31,1.56-4.2,3.28-4.19,6.69.1,38.8-.25,77.6.24,116.39.16,12.33-3.37,21.3-15.15,26.11h-10C476.71,672,473.22,663,473.34,650.7c.46-45.62.16-91.25.2-136.88,0-12,7.57-20,19.49-20.91,12.82-.93,20.42-8.87,20.45-21.8q.12-52.69,0-105.4c0-13.26-8.33-21.66-21.5-21.72q-38.46-.18-76.94,0c-13.17.06-21.47,8.46-21.5,21.72q-.14,52.69,0,105.4c0,12.93,7.63,20.87,20.45,21.8,11.92.88,19.48,8.89,19.49,20.91q.06,70.93,0,141.88a30,30,0,0,1-.75,6.39c-1.75,7.73-7.6,11.6-14.2,14.72Z"/><path class="cls-2" d="M453.43,285a60,60,0,1,1,60-59.86A59.86,59.86,0,0,1,453.43,285Zm0-79.9a20.39,20.39,0,0,0-19.83,19.82c-.11,10.75,9.32,20.18,20.07,20.08a20.39,20.39,0,0,0,19.83-19.82C473.57,214.41,464.14,205,453.39,205.08Z"/><path class="cls-1" d="M242.55,225.88a60,60,0,1,1-60.11-59.8A59.85,59.85,0,0,1,242.55,225.88Zm-59.87-19.8c-10.57-.07-19.78,8.94-20,19.62s9.05,20.21,19.87,20.28c10.57.07,19.77-8.95,20-19.62S193.5,206.15,182.68,206.08Z"/></svg>