<svg id="Layer_1" data-name="Layer 1" xmlns="http://www.w3.org/2000/svg" viewBox="0 0 48 48"><defs><style>.cls-1{fill:none;stroke:#f02d1e;stroke-miterlimit:10;}.cls-2{fill:#236eb3;}.cls-3{fill:#30ade0;}.cls-4{fill:#f02d1e;}</style></defs><rect class="cls-1" x="6.3" y="1.42" width="33.98" height="45.79" rx="1.44"/><rect class="cls-2" x="17" y="9.33" width="2.89" height="6.94" rx="0.26"/><rect class="cls-3" x="20.91" y="4.08" width="2.89" height="12.19" rx="0.26"/><rect class="cls-2" x="25.27" y="6.8" width="2.89" height="9.47" rx="0.26"/><rect class="cls-3" x="29.72" y="11.86" width="2.89" height="4.41" rx="0.26"/><path class="cls-4" d="M10.08,20.91H36.52a.63.63,0,0,0,0-1.25H10.08a.63.63,0,0,0,0,1.25Z"/><path class="cls-4" d="M10.08,24.7H36.52a.63.63,0,0,0,0-1.25H10.08a.63.63,0,0,0,0,1.25Z"/><path class="cls-4" d="M10.08,28.84h9.3a.63.63,0,0,0,0-1.25h-9.3a.63.63,0,0,0,0,1.25Z"/><path class="cls-4" d="M10.18,33h9.3a.63.63,0,0,0,0-1.25h-9.3a.63.63,0,0,0,0,1.25Z"/><path class="cls-4" d="M10.18,36.76h9.3a.63.63,0,0,0,0-1.25h-9.3a.63.63,0,0,0,0,1.25Z"/><path class="cls-4" d="M10.18,40.9h9.3a.63.63,0,0,0,0-1.25h-9.3a.63.63,0,0,0,0,1.25Z"/><path class="cls-1" d="M36.09,37.52a7.15,7.15,0,1,1-7.15-7.14v7.14Z"/><path class="cls-2" d="M37.89,35.83H30.73V28.69A7.15,7.15,0,0,1,37.89,35.83Z"/><path class="cls-4" d="M15,17.31H33a.63.63,0,0,0,0-1.25H15a.63.63,0,0,0,0,1.25Z"/></svg>