<svg id="Layer_1" data-name="Layer 1" xmlns="http://www.w3.org/2000/svg" viewBox="0 0 595.28 841.89"><defs><style>.cls-1{fill:#236fb4;}.cls-2{fill:#ee2e24;}.cls-3{fill:#f9bf42;}</style></defs><path class="cls-1" d="M212.33,242c0-17.2,0-33.72,0-50.23,0-16,10.71-26.78,26.67-26.79q104.76,0,209.53-.08a14.12,14.12,0,0,1,10.85,4.44q44.75,45,89.72,89.74a14.12,14.12,0,0,1,4.54,10.8q-.14,190.11-.08,380.2c0,16-10.75,26.83-26.65,26.83q-144,0-287.91,0c-15.87,0-26.64-10.85-26.67-26.8,0-16.51,0-33,0-50-57.47-4.35-103.89-28.86-137.61-75.63C50.41,490.73,39.58,452.55,42,411.11c2.61-45.6,20.26-84.92,52.73-117.18S166.39,245,212.33,242Zm17,359.66V647.4c0,9.93,2.64,12.52,12.71,12.52H523.59c10.4,0,12.95-2.52,12.95-12.82V275.89c-22.95,0-45.15,0-67.35,0-15.58,0-26.46-10.89-26.49-26.44q-.06-30.67,0-61.33V182h-201c-9.63,0-12.32,2.7-12.32,12.36q0,106.13,0,212.25v5.82H388c9.82,0,12.31,2.33,11.93,12.32a165.07,165.07,0,0,1-2,22.79c-12.58,70.35-52.55,118.18-119.54,142.65C263,595.82,246.4,597.81,229.35,601.69ZM113.07,540.86c38.34,37.32,106.33,56,169.33,30.09,57.72-23.72,103.24-88.1,99.53-141.29-1-.05-2-.16-3.06-.16q-75.44,0-150.86.13c-2.25,0-5,1.54-6.68,3.21q-37.1,36.77-74,73.8Q130.24,523.77,113.07,540.86Zm-13-11.56c1.33-1.16,1.89-1.6,2.39-2.1q53.71-53.7,107.33-107.48a10,10,0,0,0,2.44-6.49q.21-74.61.09-149.24c0-1.5-.2-3-.31-4.47-61.75,2.21-119.37,43.29-141.63,102.09C47.18,422.86,58.81,478.45,100.06,529.3ZM459.72,194.76c0,18.2,0,35.53,0,52.86,0,8.17,3.07,11.22,11.27,11.24q24.21,0,48.44,0a37.18,37.18,0,0,0,3.93-.42Z"/><path class="cls-2" d="M340.13,395.36q-41.31,0-82.62,0c-8.43,0-11-2.65-11-11.15q0-82.63,0-165.26c0-8.78,2.59-11.3,11.47-11.26,81.12.38,154.17,59.45,171.64,139.39,2.71,12.39,3.39,25.27,4.43,38,.6,7.32-2.79,10.3-10.19,10.31Q382,395.38,340.13,395.36Zm76.25-17.22c-4.09-88.94-79.9-151.42-152.57-152.39V378.14Z"/><path class="cls-3" d="M519,326.87H451.53V310.49H519Z"/><path class="cls-3" d="M451.67,361.36H519v16.57H451.67Z"/><path class="cls-3" d="M519.17,429.29H451.59V412.76h67.58Z"/><path class="cls-3" d="M442.55,489.27c42.06-.1,76.76,34.08,76.89,75.72.13,43-33.71,77.71-75.87,77.82-43.18.11-77.61-33.81-77.66-76.52A76.53,76.53,0,0,1,442.55,489.27ZM382.94,566c-.08,32.35,26.82,59.55,59.14,59.79,32.88.23,60.08-26.71,60.3-59.73.22-32.42-27.16-59.83-59.69-59.75A60.14,60.14,0,0,0,382.94,566Z"/><path class="cls-3" d="M394.3,572.54l12-12.62,18.48,19.55,45.48-45.61L482.07,547c-.39.45-1.22,1.56-2.2,2.53q-23.14,23.17-46.33,46.32c-6,6-9.83,6-15.83,0C409.8,588.05,401.93,580.16,394.3,572.54Z"/></svg>