<?xml version="1.0" encoding="utf-8"?>
<!-- Generator: Adobe Illustrator 25.0.0, SVG Export Plug-In . SVG Version: 6.00 Build 0)  -->
<svg version="1.1" id="Layer_1" xmlns="http://www.w3.org/2000/svg" xmlns:xlink="http://www.w3.org/1999/xlink" x="0px" y="0px"
	 viewBox="0 0 451.1 449.8" style="enable-background:new 0 0 451.1 449.8;" xml:space="preserve">
<style type="text/css">
	.st0{fill:#02994A;}
	.st1{fill:#236FB4;}
	.st2{fill:#EE2E24;}
	.st3{font-family:'MS-UIGothic';}
	.st4{font-size:11px;}
</style>
<path class="st0" d="M179.5,224.5l31.7-31.8l22.2,22.2l29.6-29.6v19.1h14.8V160h-44.4v14.8h19.1L233.4,194l-22.2-22.2L169,213.9
	L179.5,224.5z"/>
<path class="st1" d="M425.8,270.2h-2.5c4.7-10,2.6-21.9-5.3-29.6c10.2-10,10.5-26.4,0.5-36.5l-0.5-0.5c10.2-10,10.5-26.4,0.5-36.5
	c-0.2-0.2-0.3-0.3-0.5-0.5c10.3-10,10.5-26.4,0.5-36.6c-4.9-5-11.6-7.8-18.5-7.8h-33.3V92.6h22.2c28.6,0,51.8-23.2,51.8-51.8v-7.4
	h-37c-14,0-27.3,5.6-37,15.6l0-8.2c0-12.2,10-22.2,22.2-22.2h7.4V3.8h-7.4c-20.4,0-37,16.6-37,37v2.6
	c-12.6-15.7-31.6-24.8-51.8-24.8h-37V26c0,36.7,29.9,66.6,66.6,66.6h22.2v29.6h-33.3c-14.3,0-25.9,11.6-25.9,25.9
	c0,6.9,2.8,13.7,7.8,18.5c-10.2,10-10.5,26.4-0.5,36.5c0.2,0.2,0.3,0.3,0.5,0.5c-10.2,10-10.5,26.4-0.5,36.5
	c0.2,0.2,0.3,0.3,0.5,0.5c-8,7.7-10.1,19.6-5.3,29.6l-138.3,0c4.7-10,2.6-21.9-5.3-29.6c10.2-10,10.5-26.4,0.5-36.5
	c-0.2-0.2-0.3-0.3-0.5-0.5c10.2-10,10.5-26.4,0.5-36.5c-0.2-0.2-0.3-0.3-0.5-0.5c10.3-10,10.5-26.4,0.5-36.6
	c-4.9-5-11.6-7.8-18.5-7.8h-33.3V92.6h22.2c36.7,0,66.6-29.9,66.6-66.6v-7.4h-37c-20.2,0-39.2,9.2-51.8,24.8l0-2.6
	c0-20.4-16.6-37-37-37h-7.4v14.8h7.4c12.2,0,22.2,10,22.2,22.2V49c-9.8-10-23.1-15.6-37.1-15.6h-37v7.4c0,28.6,23.2,51.8,51.8,51.8
	h22.2v29.6l-33.3,0c-14.3,0-25.9,11.6-25.9,25.9c0,6.9,2.8,13.7,7.8,18.5c-10.2,10-10.5,26.4-0.5,36.5c0.2,0.2,0.3,0.3,0.5,0.5
	c-10.2,10-10.5,26.4-0.5,36.5c0.2,0.2,0.3,0.3,0.5,0.5c-8,7.7-10.1,19.6-5.3,29.6l-2.5,0c-12.3,0-22.2,9.9-22.2,22.2
	c0,12.3,9.9,22.2,22.2,22.2h140.7c-32.7,24.5-39.4,70.9-14.9,103.5c14,18.7,35.9,29.7,59.3,29.7h29.6c40.9,0,74-33.1,74-73.9
	c0-23.3-11-45.2-29.7-59.3h140.6c12.3,0,22.2-9.9,22.2-22.2C448,280.1,438.1,270.2,425.8,270.2L425.8,270.2z M403.6,48.2h21.5
	c-3.5,17.2-18.7,29.6-36.3,29.6h-21.5C370.9,60.6,386.1,48.2,403.6,48.2L403.6,48.2z M329.6,77.8c-25.7,0-47.5-19-51.2-44.4H300
	c25.7,0,47.5,19,51.2,44.4H329.6z M152,33.4h21.6c-3.7,25.4-25.5,44.4-51.2,44.4h-21.6C104.5,52.4,126.3,33.4,152,33.4L152,33.4z
	 M63.3,77.8c-17.6,0-32.7-12.4-36.3-29.6h21.5c17.6,0,32.7,12.4,36.3,29.6H63.3z M318.5,137h81.4c6.1,0,11.1,5,11.1,11.1
	c0,6.1-5,11.1-11.1,11.1h-81.4c-6.1,0-11.1-5-11.1-11.1C307.4,142,312.4,137,318.5,137z M318.5,174h81.4c6.1,0,11.1,5,11.1,11.1
	c0,6.1-5,11.1-11.1,11.1h-81.4c-6.1,0-11.1-5-11.1-11.1C307.4,179,312.4,174,318.5,174z M318.5,211h81.4c6.1,0,11.1,5,11.1,11.1
	c0,6.1-5,11.1-11.1,11.1h-81.4c-6.1,0-11.1-5-11.1-11.1C307.4,216,312.4,211,318.5,211z M318.5,248h81.4c6.1,0,11.1,5,11.1,11.1
	c0,6.1-5,11.1-11.1,11.1h-81.4c-6.1,0-11.1-5-11.1-11.1C307.4,253,312.4,248,318.5,248z M52.2,137h81.4c6.1,0,11.1,5,11.1,11.1
	c0,6.1-5,11.1-11.1,11.1l-81.4,0c-6.1,0-11.1-5-11.1-11.1C41,142,46,137,52.2,137L52.2,137z M52.2,174h81.4c6.1,0,11.1,5,11.1,11.1
	c0,6.1-5,11.1-11.1,11.1l-81.4,0c-6.1,0-11.1-5-11.1-11.1C41,179,46,174,52.2,174L52.2,174z M52.2,211h81.4c6.1,0,11.1,5,11.1,11.1
	c0,6.1-5,11.1-11.1,11.1l-81.4,0c-6.1,0-11.1-5-11.1-11.1C41,216,46,211,52.2,211L52.2,211z M52.2,248h81.4c6.1,0,11.1,5,11.1,11.1
	c0,6.1-5,11.1-11.1,11.1l-81.4,0c-6.1,0-11.1-5-11.1-11.1C41,253,46,248,52.2,248L52.2,248z M211.2,433c-32.7,0-59.2-26.5-59.2-59.2
	s26.5-59.2,59.2-59.2s59.2,26.5,59.2,59.2C270.4,406.5,243.9,433,211.2,433z M259.2,430c8.5-7.3,15.3-16.4,19.8-26.6h13
	C284.8,416,273,425.5,259.2,430z M298.2,359c2.5,9.7,2.5,19.9,0,29.6h-14.4c1.9-9.8,1.9-19.8,0-29.6L298.2,359z M292.1,344.2h-13
	c-4.5-10.3-11.3-19.4-19.8-26.6C273,322.1,284.8,331.6,292.1,344.2z M425.8,299.8H26.3c-4.1,0-7.4-3.3-7.4-7.4s3.3-7.4,7.4-7.4
	h399.6c4.1,0,7.4,3.3,7.4,7.4C433.2,296.5,429.9,299.8,425.8,299.8z"/>
<path class="st2" d="M223.4,403.2V381h22.2v-14.8h-22.2V344h-14.8v22.2h-22.2V381h22.2v22.2H223.4z"/>
<text transform="matrix(1.1313 0 0 1 73.023 262.0702)" class="st0 st3 st4">3 Month</text>
<text transform="matrix(1.1313 0 0 1 71.9721 189.9321)" class="st0 st3 st4">9 Month</text>
<text transform="matrix(1.1313 0 0 1 71.9721 225.9321)" class="st0 st3 st4">6 Month</text>
<text transform="matrix(1.1313 0 0 1 70.9721 151.9321)" class="st0 st3 st4">12 Month</text>
<text transform="matrix(1.1313 0 0 1 330.5602 148.1095)" class="st0 st3 st4">Long Term</text>
<text transform="matrix(1.1313 0 0 1 333.4144 225.6557)" class="st0 st3 st4">Real Time</text>
<text transform="matrix(1.1313 0 0 1 330.4144 188.6557)" class="st0 st3 st4">Accelerated</text>
<text transform="matrix(1.1313 0 0 1 336.8355 262.0701)" class="st0 st3 st4">Initialize</text>
</svg>
