<svg id="Layer_1" data-name="Layer 1" xmlns="http://www.w3.org/2000/svg" viewBox="0 0 595.28 841.89"><defs><style>.cls-1,.cls-2,.cls-3{fill:none;stroke-miterlimit:10;stroke-width:10px;}.cls-1{stroke:#2470b4;}.cls-2{stroke:#ee3025;}.cls-3{stroke:#236fb4;}</style></defs><path class="cls-1" d="M283.57,66.8h24.18c1.6.5,3.18,1.12,4.81,1.47,23.37,5,40.87,18.54,50.62,42.41,2.3,5.63,5.08,6.64,10,6.63,14.39,0,28.82-.15,43.18.82,9.37.63,13.29,6.38,13.33,16.52,0,8.18,0,16.36,0,24.88,19.63,0,38.26-.06,56.89,0,38.08.15,66.86,31.21,66.87,72.41.06,158.53-.2,317.06.21,475.59.08,33.51-20.41,55.17-41.81,63.23-4.34,1.63-8.81,2.88-13.22,4.31H96.52a14.7,14.7,0,0,0-2.82-1.32c-34.13-8-52-32-52-69.7V390.9c0-53.46-.12-106.93,0-160.39.1-34.85,22.65-64.82,54.35-69.34,18.77-2.68,38-1.25,57.08-1.63,4-.08,7.9,0,12.31,0,0-9.37-.07-17.86,0-26.35s3.84-13.44,11.33-15a52,52,0,0,1,10.11-.92c11.66-.11,23.32-.24,35,.06,4.21.11,6.31-1.34,8.1-5.59,9.52-22.53,25.71-36.58,47.66-42.95C279.66,68.2,281.61,67.46,283.57,66.8ZM400.84,213.35c1.33-3.95,2.41-4.88,2.41-6V152a2.24,2.24,0,0,0-2.4-2H362.34c-13.91,0-18.39-3.13-22.24-15.52-7-22.6-31.88-36.08-55.36-29.6-16.8,4.63-27.51,15.15-32.41,30.58C248.78,146.65,244,150,231.3,150H194.78a2.21,2.21,0,0,0-2.38,2v55.38c0,1.11,1.07,2,2.38,6Z"/><path class="cls-2" d="M164.19,405.4c-11.83,0-23.66.07-35.49,0-10-.09-14.39-4.54-14.41-14.49q0-31.62,0-63.25c0-10.35,4.81-15.15,15-15.16q35.24,0,70.46,0c9.75,0,14.47,4.59,14.51,14.48q.15,32.39,0,64.79c-.05,9.29-4.35,13.55-13.58,13.63C188.53,405.48,176.36,405.4,164.19,405.4Z"/><path class="cls-3" d="M382.81,344.17c27.51,0,55,0,82.53,0,9.52,0,15.82,6.21,15.67,15a13.79,13.79,0,0,1-10.49,13.58,33.7,33.7,0,0,1-8.27.88q-79.54.07-159.09,0c-1.39,0-2.79.06-4.18,0-9.08-.68-15.19-7.07-14.83-15.45s6.55-14,15.53-14C327.39,344.12,355.1,344.17,382.81,344.17Z"/><path class="cls-3" d="M382.81,474.53c27.51,0,55,0,82.53,0,9.52,0,15.82,6.21,15.67,15a13.79,13.79,0,0,1-10.49,13.57,33.22,33.22,0,0,1-8.27.88q-79.54.08-159.09,0c-1.39,0-2.79.06-4.18-.05-9.08-.68-15.19-7.06-14.83-15.45.35-8.22,6.55-14,15.53-14C327.39,474.48,355.1,474.53,382.81,474.53Z"/><path class="cls-2" d="M156.36,494.43c13.41-12.78,27.14-25.95,41-39,6.2-5.86,13.71-6.33,19.44-1.44,6.88,5.88,7,14,.09,20.66-14.68,14.09-29.49,28-44.25,42-2.55,2.42-5,4.94-7.65,7.26-6.27,5.49-13.52,5.48-19.32-.33q-13.73-13.74-27.09-27.83c-5.66-6-5.63-14.84-.32-20,5.48-5.3,13.41-4.67,19.78,1.43C143.86,482.83,149.84,488.33,156.36,494.43Z"/><path class="cls-3" d="M382.81,612.53c27.51,0,55,0,82.53,0,9.52,0,15.82,6.21,15.67,15a13.79,13.79,0,0,1-10.49,13.58,33.22,33.22,0,0,1-8.27.88q-79.54.08-159.09,0c-1.39,0-2.79.06-4.18,0-9.08-.68-15.19-7.07-14.83-15.45s6.55-14,15.53-14C327.39,612.48,355.1,612.54,382.81,612.53Z"/><path class="cls-2" d="M156.73,632l36.57-34.8c1.86-1.77,3.67-3.61,5.66-5.22,6-4.83,13.45-4.25,18.76,1.36,5.11,5.42,5.4,12.88-.14,18.23Q191,637.17,164,662.24c-5.53,5.13-12.43,4.69-17.75-.6-9.23-9.17-18.37-18.45-27.32-27.9-5.67-6-5.63-14.6-.39-19.8s13.46-4.58,19.66,1.24C144.12,620.7,150.16,626.06,156.73,632Z"/></svg>