<svg id="Layer_1" data-name="Layer 1" xmlns="http://www.w3.org/2000/svg" viewBox="0 0 595.28 841.89"><defs><style>.cls-1{fill:#236fb4;}.cls-2{fill:#ee2e24;}.cls-3{fill:#f9bf42;}</style></defs><path class="cls-1" d="M110.49,383.85c0-65.59-.09-131.17.19-196.75,0-4.95,1.34-11.4,4.59-14.38,3.08-2.83,9.48-2.22,14.47-2.66,1.29-.12,3,1.23,4.06,2.35,12,12.66,22.95,9.69,35.41-.5s15.86-9.22,29.24-.33c18.31,12.17,18.31,12.17,36.47,0,13.21-8.85,16.17-8.84,29.47.07,18.1,12.14,18.1,12.14,36.46-.14,13.15-8.78,16-8.76,29.46.22,17.95,12,17.95,12,35.81.12,13.82-9.17,17.15-10.2,29.88.27s23.36,12.19,35.52.21a12.7,12.7,0,0,1,15.59-2.16c5.93,3.16,7.39,8.53,7.38,14.84-.07,44.52.09,89-.18,133.57,0,6.51,1.52,9.08,8.39,10.28C515,338,553.44,382.8,553.64,434.24c.21,54.66-36.45,99.38-90.07,109.24-7.2,1.33-9.43,3.91-9.3,11.27.47,27.19.24,54.39.17,81.58-.07,25.55-15.42,40.95-40.71,40.95H86.65c-26.95,0-44.9-18.09-44.93-45.18,0-9.86.23-19.74-.07-29.59-.22-7.29,3.28-10.18,10.1-10.18,16.79,0,33.59-.29,50.38.14,6.76.17,8.51-2.14,8.49-8.67C110.41,517.15,110.49,450.5,110.49,383.85Zm14.93-199v11.35q0,192,0,384c0,13.39-1.34,12.11,11.9,12.12q119.57,0,239.14,0c12.38,0,15.1,2.76,15.13,14.95,0,10.13-.62,20.32.27,30.37a34.17,34.17,0,0,0,5.68,16.07c5.65,8,16.56,10.37,26,7.21s16-12.36,16.05-23.57c.18-27.73-.16-55.46.24-83.19.1-6.84-1.88-8.89-8.7-9.74-54.73-6.76-95-52-95.66-106.74-.64-54.95,38.29-100.84,92.81-109.39,3.6-.57,7.21-1.1,10.63-1.62v-141c-3,1.79-5.3,2.7-7,4.24-12,10.65-23,9.43-35.83.14-18.08-13.07-11-12.4-30.41.13-16.22,10.48-18.66,10.63-34.29.21-15.92-10.62-15.92-10.62-31.94,0-15.52,10.31-18.25,10.11-33.62.2-20.41-13.16-11.86-13.25-32.53.13-15,9.72-18.09,9.91-32.95,0-16.44-11-16.44-11-32.61-.19-2,1.33-3.95,2.72-6,4-7.24,4.69-14.47,4.73-21.69-.07C135.85,191.76,131.64,189,125.42,184.9ZM444.16,530.49a94.31,94.31,0,0,0,94.51-93.75c.5-51.89-42.28-94.87-94.34-94.78a94.27,94.27,0,0,0-.17,188.53ZM56.63,607.59c0,7.49,0,14.59,0,21.69.06,23,10.2,33.08,33.27,33.08q142.27,0,284.55,0H384.7c-12.72-17.77-6.09-36.93-9.13-54.79Z"/><path class="cls-2" d="M253,279.87c0-13.31-.06-26.61,0-39.91.06-9.67,2-11.55,11.83-11.66,8-.09,16-.19,24,0,15.1.44,24,8.94,24.22,23.86q.5,27.53,0,55.07c-.26,15.12-9.61,23.89-24.91,24.08-7.45.1-14.9,0-22.35,0-11-.05-12.73-1.78-12.75-13.18C253,305.41,253,292.64,253,279.87Zm14.84-36.47c0,23.58,0,45.93.08,68.27,0,1.34,1.22,3.83,1.89,3.84a226.67,226.67,0,0,0,24.46-.86c1.4-.15,3.38-4.18,3.41-6.45.28-18.93.2-37.86.13-56.79,0-5.19-3-7.86-8-8C282.87,243.28,276,243.4,267.83,243.4Z"/><path class="cls-3" d="M265.63,556.23q-47.92,0-95.86,0c-2.65,0-5.82.68-7.84-.5-2.6-1.54-6-4.69-5.89-7.05s3.52-5.27,6.1-7c1.46-1,4.13-.31,6.26-.31q97.86,0,195.7,0c2.39,0,5.41-.7,7,.46,2.49,1.8,5.35,4.84,5.54,7.53.15,2.06-3.24,5.07-5.73,6.38-2.13,1.12-5.2.52-7.86.52Q314.36,556.26,265.63,556.23Z"/><path class="cls-2" d="M348.14,331.32c-4,0-8.33,1-11.9-.28-3.15-1.09-5.44-4.63-8.12-7.09,2.59-2.51,4.89-6.68,7.83-7.2,6.47-1.14,13.27-.35,19.93-.49,10.41-.22,16.71-5.51,17-14.08s-5.93-14.34-16.12-15.05C340,286,328,273.66,328,257.7c.05-15.6,11.85-28.11,28.09-29.19,7.7-.52,15.46-.27,23.19-.11,4.8.1,8.48,2.17,8.25,7.63-.22,5.3-3.88,7.24-8.71,7.3-6.4.08-12.8,0-19.2.06-9.92.14-16,5.23-16.48,13.6-.46,8.77,5.27,14.37,15.72,15.34,21.74,2,34.49,20.89,26.9,40.16C381.24,324,372.27,330,360.13,331.23c-4,.4-8,.06-12,.06Z"/><path class="cls-3" d="M243.64,511.17c-25.55,0-51.11,0-76.66,0-5.42,0-11-.39-11.16-7.14-.15-7.3,5.77-7.75,11.43-7.75q76.67,0,153.33,0c4.93,0,10.3,0,11,6.42.77,6.84-3.9,8.45-9.7,8.44Q282.77,511.13,243.64,511.17Z"/><path class="cls-3" d="M242.48,361.34q36.79,0,73.59,0c2.39,0,5.27-.57,7.05.54,2.43,1.5,5.46,4.29,5.55,6.64s-2.77,5.33-5.09,6.94c-1.69,1.19-4.62.78-7,.78q-74.4,0-148.78,0c-2.12,0-4.86.5-6.23-.59-2.42-1.93-5.35-4.82-5.51-7.47-.13-2.07,3.28-4.95,5.75-6.38,1.83-1.07,4.68-.48,7.07-.48Q205.69,361.32,242.48,361.34Z"/><path class="cls-2" d="M193.51,243.36c-7.56,0-13.93,0-20.3,0-5.13,0-9.32-1.76-9.55-7.35-.23-5.79,4.06-7.66,9.13-7.68q28-.1,56,0c5.06,0,9.38,1.74,9.27,7.54-.1,5.61-4.19,7.52-9.37,7.5-6.37,0-12.74,0-20,0-.15,3.41-.39,6.24-.39,9.07q0,31.6,0,63.2c0,1.87-.06,3.74,0,5.6.19,5.52-1.69,10-7.77,9.79-5.53-.21-7.06-4.55-7-9.74.11-22.67.05-45.33,0-68Z"/><path class="cls-3" d="M235.2,466.27q-33.54,0-67.07,0c-2.39,0-5.32.49-7-.68-2.33-1.61-5.16-4.61-5.1-7s3.12-5,5.42-6.75c1.21-.94,3.6-.43,5.45-.43H304.23c1.33,0,3.11-.51,3.92.15,2.73,2.24,5.13,4.91,7.65,7.41-2.38,2.38-4.49,5.19-7.25,7-1.52,1-4.15.29-6.28.29Z"/><path class="cls-3" d="M234.69,421.29c-22.63,0-45.27-.07-67.91,0-5.57,0-10.88-.86-11-7.43s5.33-7.55,10.82-7.55q68.31,0,136.62,0c5.43,0,10.77.72,10.52,7.76-.23,6.35-5.12,7.19-10.35,7.18Q269.05,421.24,234.69,421.29Z"/><path class="cls-2" d="M492.49,396.38c-2.09,3.07-3.37,5.72-5.34,7.7q-37.47,37.67-75.1,75.16c-3.72,3.72-7.79,6.38-12.31,1.61s-1.69-8.73,2-12.41c25.05-25,50-50.17,75.25-75,2.25-2.21,6.46-3.43,9.68-3.28C488.58,390.26,490.33,393.93,492.49,396.38Z"/><path class="cls-2" d="M412.65,427a22.46,22.46,0,1,1,22.47-22.46A22.64,22.64,0,0,1,412.65,427Zm10.63-22.47c-5.1-3.43-8-6.94-10.78-6.81-2.5.11-4.82,4.17-7.23,6.49,2.48,2.51,4.65,6.43,7.54,7.06C415,411.72,418.12,408,423.28,404.5Z"/><path class="cls-2" d="M498.68,468.52a22.37,22.37,0,1,1-22-22.94A22.77,22.77,0,0,1,498.68,468.52Zm-11.79-.1c-5-3.61-7.92-7.37-10.15-7-2.9.51-5.21,4.33-7.77,6.72,2.31,2.43,4.48,6.66,6.94,6.83C478.69,475.18,481.72,471.73,486.89,468.42Z"/></svg>