<svg id="Layer_1" data-name="Layer 1" xmlns="http://www.w3.org/2000/svg" viewBox="0 0 712 712"><defs><style>.cls-1,.cls-2,.cls-3{fill:none;stroke-miterlimit:10;}.cls-1{stroke:#2470b4;}.cls-1,.cls-2{stroke-width:10px;}.cls-2,.cls-3{stroke:#069647;}.cls-3{stroke-width:6px;}</style></defs><path class="cls-1" d="M130.92,627.73c-11-3.45-19.93-9.52-22.7-21.4-1.12-4.81-1.6-10.48-.17-15.06,6.53-20.84,12.2-42.12,23.81-60.95,25.1-40.71,61.62-64.11,108.81-71.23,4.29-.65,7.15.75,10.2,3.74,19.66,19.19,42.71,30.48,70.84,29,19.94-1,37.21-8.92,52.64-21.22,2.9-2.31,6-4.56,8.3-7.4,3.36-4.09,7.21-4.81,12.15-3.95,59.64,10.45,100.14,43.75,120.76,100.85,3.3,9.12,6.36,18.32,9.34,27.55,5.69,17.65-1.73,32.65-19,38.9a23.46,23.46,0,0,0-2.31,1.13Z"/><path class="cls-1" d="M222.47,320.26c.43-24.56,5.77-48.95,21.28-70.51,35-48.57,110.91-48.76,146.13-.23,15,20.63,21.24,44,21.25,69.13,0,43.8-12.15,83.55-40.33,117.68-9.71,11.75-21.58,20.95-36.29,25.67-20.73,6.66-39.4,1.59-56.18-11.3-21.92-16.84-34.91-39.94-44.28-65.31C226.46,364.85,222.88,343.5,222.47,320.26Z"/><path class="cls-2" d="M436.61,350.72c.46-6.41.89-12.37,1.33-18.33a158.1,158.1,0,0,0-4.39-51.51c-1-3.9.52-5.66,4-6.4a25.88,25.88,0,0,1,5.27-.52c13.26,0,26.53-.12,39.79,0,10,.11,14.5,4.74,14.56,14.69,0,6.19.15,12.38-.05,18.57-.1,2.87.61,4.43,3.56,5.39a98.31,98.31,0,0,1,13.19,5.43c2.72,1.36,4.41,1,6.42-1.18,4.36-4.64,8.9-9.12,13.49-13.52,6.9-6.62,13.58-6.64,20.42.08q14.39,14.11,28.51,28.52c6.56,6.71,6.49,13.26,0,20-4.67,4.84-9.61,9.41-14.15,14.36a5.92,5.92,0,0,0-.9,4.87c.9,3,2.65,5.76,3.8,8.71,3.45,8.9,3.41,8.92,12.74,8.92,5,0,9.91-.1,14.86.05,7.9.26,12.71,4.76,12.82,12.52q.3,21.75,0,43.5c-.11,8-5.24,12.67-13.72,12.88-6.71.16-13.45-.16-20.15.18a6.31,6.31,0,0,0-4.41,3.13c-2.58,5.39-4.66,11-7.22,17.25,5,4.9,10.36,10,15.58,15.27,7.51,7.56,7.51,14,0,21.54q-13.62,13.75-27.42,27.35a21.85,21.85,0,0,1-6.41,4.53c-5.35,2.33-8.14,1.09-10.22-4.35a172.41,172.41,0,0,0-30.61-51.08c-1-1.17-1.85-2.48-2.77-3.72,39.13-27.48,40.91-72.32,26.53-99.48-8.95-16.91-22.17-29.16-39.87-36.36C475.55,345.65,466.93,345.6,436.61,350.72Z"/><path class="cls-3" d="M408,433.45c5.9-13.38,11.86-26.52,17.47-39.8a102.56,102.56,0,0,0,4.78-15.09,10.56,10.56,0,0,1,5.86-7.45c34.85-18.47,78.89,3.8,84.43,42.95,3.52,24.87-6,44.05-26.34,58.26-2.36,1.64-4.09,1.86-6.48-.16a171.49,171.49,0,0,0-77.61-37.89A9.18,9.18,0,0,1,408,433.45Z"/><path class="cls-2" d="M341.27,188.32c-8-.69-15.23-1.6-22.43-1.83-5.81-.18-12.45,2.31-17.25.22s-7.22-8.66-11.2-12.78c-20.07-20.72-44.42-28.08-72.06-20s-45,27-50.23,55.38c-5.39,29.22,4.77,53.13,28.39,71.18,2.23,1.7,3,3.09,2.53,6.05-1.72,11.31-3,22.69-4.43,34.28.2-.06-.25.23-.45.11-5.34-3.28-8.91-.77-12.4,3.34a113.66,113.66,0,0,1-9.73,9.78c-6,5.53-12.1,5.64-17.83.06q-13.89-13.51-27.39-27.4c-5.69-5.85-5.64-11.78-.06-17.8q6-6.42,12.39-12.38c2.43-2.25,3.24-4.3,1.37-7.29a38.48,38.48,0,0,1-2.92-6.23c-3.32-8.43-3.3-8.4-12.55-8.45-5,0-9.92.07-14.83-.4-6-.58-9.9-4.45-10-10.36-.24-14.15-.27-28.3,0-42.45.13-6.5,5-10.56,12.09-10.79,6-.2,12-.21,18,0,3.09.11,5-.65,5.75-3.88a35.7,35.7,0,0,1,1.93-5.48c4-9.7,4-9.69-3.31-17-3-3-6.14-5.89-8.89-9.1-4.33-5-4.64-10.51-.08-15.33q14.4-15.21,29.61-29.66c5.11-4.85,11.1-4.23,16.55.91,4.51,4.24,8.68,8.84,13.25,13,1.12,1,3.47,1.84,4.76,1.38,5.44-2,10.7-4.46,16.43-6.94,0-6.65,0-13.53,0-20.41.06-9.41,4.28-13.72,13.53-13.75q18.57-.07,37.15,0c8.76,0,13,4.19,13.12,13,.12,5.84.19,11.68,0,17.51-.11,3,.85,4.48,3.66,5.43a78.81,78.81,0,0,1,11.72,4.81c2.76,1.46,4.37.89,6.34-1.22,3.85-4.13,7.92-8.08,12-12,6.77-6.54,12.71-6.62,19.36-.11q13.06,12.82,25.9,25.89c6.61,6.73,6.58,12.56,0,19.38-3.68,3.83-7.34,7.69-11.28,11.24-2.74,2.47-3.61,4.61-1.59,8.12S339.4,183.77,341.27,188.32Z"/><path class="cls-3" d="M281.6,191.46c-37.51,11.75-62,36.78-76.18,72.39-14.78-9.14-23.3-30.74-20.08-50.1a53.39,53.39,0,0,1,96.26-22.29Z"/></svg>