<svg id="Layer_1" data-name="Layer 1" xmlns="http://www.w3.org/2000/svg" viewBox="0 0 712 712"><defs><style>.cls-1{fill:#236fb4;}.cls-2{fill:#069647;}</style></defs><path class="cls-1" d="M612,542c-.68,1.65-1.38,3.3-2,5a29.64,29.64,0,0,1-27.44,19q-226.44,0-452.88,0A29.57,29.57,0,0,1,100,536.47q-.06-180.48,0-361A29.51,29.51,0,0,1,129.65,146q226.19-.06,452.38,0a29.61,29.61,0,0,1,28.27,19.94c.5,1.37,1.13,2.69,1.7,4ZM592,236.3H120V531.58c0,11.49,3,14.47,14.55,14.48H577.44c11.56,0,14.58-3,14.58-14.46V236.3ZM120,215.65H592V180.38c0-11.47-3-14.43-14.59-14.43H134.54c-1.5,0-3-.08-4.5,0-5.74.46-9.86,4.19-10,9.9C119.85,189,120,202.18,120,215.65Z"/><path class="cls-2" d="M541.76,281c11.32.5,21.56,6.41,27.21,18.79s4,24.56-5.09,34.88c-7.06,8-14.9,15.25-22.43,22.8q-60.8,60.82-121.69,121.52a32.73,32.73,0,0,1-11.62,7.18c-13.41,4.9-27.05,9.15-40.56,13.75-4.55,1.55-8.81,1.9-12.53-1.77s-3.51-7.9-1.95-12.48c4.79-14.16,9.32-28.41,14.29-42.51a24.14,24.14,0,0,1,5.49-8.68Q444,363,515.25,291.86C522,285.07,529.83,281,541.76,281Zm-42.9,56.93L405.75,431l16,16.06,93.12-93.14Zm31.32,1.49c6.23-6,12.81-11.85,18.75-18.28,4.6-5,3.87-12.09-.83-16.6s-11.37-4.91-16.25-.4c-6.42,5.93-12.31,12.44-18.19,18.47ZM379,474.07c9.72-3.62,20.39-4.05,28.31-10.64l-17.55-17.77C382.86,453.54,382.58,464.33,379,474.07Z"/><path class="cls-2" d="M291.7,301H151.79c-7.41,0-11.72-3.67-11.77-9.89a9.82,9.82,0,0,1,9.1-10c1-.09,2,0,3,0H431.94c6.88,0,11,2.86,11.94,8.14a9.89,9.89,0,0,1-9.77,11.78c-5.82.16-11.65,0-17.48,0Z"/><path class="cls-2" d="M283.92,381q-44.21,0-88.41,0c-5.58,0-9.6-3.29-10.41-8.15a9.88,9.88,0,0,1,6.39-11.15,15.13,15.13,0,0,1,4.9-.61q88.16,0,176.33,0c6.93,0,11.21,3.85,11.24,9.91s-4.25,10-11.12,10Q328.38,381,283.92,381Z"/><path class="cls-2" d="M231,461q-40.2,0-80.41,0c-4.92,0-8.37-2.16-10-6.7-1.44-3.93-.73-7.88,2.58-10.43a13.68,13.68,0,0,1,7.67-2.74q80.16-.22,160.33-.1c6.53,0,10.76,3.95,10.82,9.83.07,6.1-4.2,10.1-11,10.11Q271,461,231,461Z"/><path class="cls-2" d="M215.85,501c-21.81,0-43.61,0-65.42,0-5.53,0-9.56-3.35-10.34-8.23a9.9,9.9,0,0,1,6.47-11.1,15.4,15.4,0,0,1,4.9-.58q64.41,0,128.84,0c7.35,0,11.67,3.75,11.66,10s-4.33,10-11.69,10Q248.05,501,215.85,501Z"/><path class="cls-2" d="M351.19,341q-25.21,0-50.42,0c-7.39,0-11.7-3.68-11.74-9.9S293.31,321,300.63,321q50.91,0,101.84,0c7.26,0,11.59,3.88,11.49,10.15-.09,6-4.37,9.79-11.35,9.8Q376.9,341,351.19,341Z"/><path class="cls-2" d="M194.74,321q21.47,0,42.93,0c7,0,11.23,3.81,11.29,9.85S244.75,341,237.91,341q-43.42.06-86.85,0c-6.84,0-11.1-4-11-10.09s4.34-9.83,11.29-9.85Q173,321,194.74,321Z"/><path class="cls-2" d="M194.17,421c-14.31,0-28.62,0-42.93,0-6.92,0-11.19-3.85-11.22-9.92s4.24-10,11.11-10q43.43,0,86.86,0c6.81,0,11.07,4,11,10.16-.1,5.88-4.31,9.75-10.87,9.78C223.45,421,208.81,421,194.17,421Z"/><path class="cls-2" d="M150,381A10,10,0,1,1,160,370.83,9.82,9.82,0,0,1,150,381Z"/><path class="cls-2" d="M507,191a10,10,0,1,1-10.08-10A9.83,9.83,0,0,1,507,191Z"/><path class="cls-2" d="M542,190.78A10,10,0,1,1,531.69,181,9.83,9.83,0,0,1,542,190.78Z"/><path class="cls-2" d="M577,190.83A10,10,0,1,1,566.74,181,9.83,9.83,0,0,1,577,190.83Z"/></svg>