<svg id="Layer_1" data-name="Layer 1" xmlns="http://www.w3.org/2000/svg" viewBox="0 0 712 712"><defs><style>.cls-1{fill:#236fb4;}.cls-2{fill:#069647;}.cls-3{fill:#02994a;}</style></defs><path class="cls-1" d="M422.2,611.73V513.29h16.18c.07-7.3.94-13.79-2.46-20.42-9.09-17.71-17.44-35.79-26.29-53.63-5-10.13-5.67-21.13-7.1-32-1.48-11.24-2.68-22.52-4.3-33.74-1.36-9.37-7.68-16.33-12.3-24.13-2.14-3.62-4.4-7.63-4.91-11.68-1.68-13.22,8.5-23.64,22-23.23A53.27,53.27,0,0,1,453.93,357c2.31,10.9,4.39,21.85,7.69,33,.57-2.79,1.63-5.59,1.63-8.39.1-49.54.08-99.08.08-149.42h-5.59c-19.78,0-39.56.11-59.34-.09a12.46,12.46,0,0,0-9.87,4Q253.64,371.24,118.58,506.25a49.05,49.05,0,0,0-3.61,4.6L103.37,498c.4-.43,1.59-1.79,2.87-3.06Q244,357.16,381.68,219.32a11.38,11.38,0,0,1,8.94-3.75c23.22.18,46.45,0,69.67.16,3.14,0,4.77-.87,6.32-3.74,5.79-10.68,17.17-15.06,29-11.79,1.4.39,3.67.5,4.5-.32,11.3-11,22.41-22.26,33.91-33.77l-29.66-29.18,94.28-23.6c-7.81,31.27-15.46,61.93-23.29,93.28L547.25,176.7c-12.83,12.8-24.15,24-35.36,35.39-.62.62-.62,2.11-.52,3.16.42,4.41,1.41,8.8,1.44,13.21.15,21.67.07,43.35.07,65v6c9.38-2.64,17.48-1,24.56,4.77,17.47-12.34,34.66-4.29,40.75,11.45,5.2,0,10.64-.94,15.62.19,11,2.5,18.12,12.15,18.14,23.36q.09,55,0,109.94c0,10.75-3.52,20.6-9.43,29.53-2.94,4.44-5.84,9-9.51,12.83-5.88,6.08-6.79,13.06-5.26,21.4h15.74v98.8Zm74.2-255.92v-3.69q0-63,0-125.93c0-6.43-3.2-10.43-8.17-10.51s-8.27,3.95-8.37,10.3c0,1.21,0,2.41,0,3.62,0,47.48-.36,95,.23,142.44a71.56,71.56,0,0,1-10.2,38.67c-.76,1.26-2.31,2.82-3.56,2.88-6,.31-11.95.14-18,.14-1.91-9.32-3.72-18.05-5.48-26.79s-3.43-17.51-5.25-26.24c-3.5-16.88-18.43-29.66-34.38-29.52-5.52.05-7.23,2.88-4.47,7.51,1.14,1.92,2.4,3.77,3.7,5.59,5.62,7.89,10.64,16.15,12.14,25.89,1.72,11.2,2.58,22.53,4.42,33.71,1.61,9.75,2.7,19.92,6.42,28.92,6.8,16.47,15.06,32.37,23.32,48.19,4.57,8.77,7.56,17.55,6.36,27.5a22.85,22.85,0,0,0,.26,4.26H570.72c0-5.22.31-10.19-.07-15.11-.61-7.9,7.74-10.6,8.74-17.48a7.44,7.44,0,0,1,5.15-6.21c1.39-.42,2-1.46,2.64-2.39A41.91,41.91,0,0,0,595.47,446q.09-52.12,0-104.25c0-6.41-3.24-10.41-8.22-10.45s-8.25,4-8.31,10.35c-.05,4.73,0,9.47,0,14.06H562.47v-5.36c0-8.26,0-16.51,0-24.77,0-6.79-3.25-10.9-8.39-10.8s-8.11,4.15-8.16,11c0,2.58,0,5.16,0,7.74v22.1H529.43V327.51c0-8.39-2.62-12.51-8-12.7-5.6-.2-8.51,4.15-8.51,12.74v28.26ZM587,562.92H439v32.43H587Zm0-33H439V545.8H587ZM566.49,173.36c2.91-11.81,5.9-23.92,9.13-37l-36.91,9.21Z"/><path class="cls-2" d="M207.13,314.74c-59.4,0-107.2-48.15-107.13-107.83C100.07,147.81,148.18,100,207.54,100A107.19,107.19,0,0,1,314.68,207.84C314.6,266.94,266.47,314.78,207.13,314.74ZM298.19,207.2c-.12-49.89-41.32-90.88-91.16-90.69-49.68.18-90.49,41.1-90.54,90.78,0,49.86,41.05,91,90.89,91S298.3,257,298.19,207.2Z"/><path class="cls-3" d="M379.3,612H316.25a1.11,1.11,0,0,1-1.11-1.11v-245a1.11,1.11,0,0,1,1.11-1.11H379.3a1.11,1.11,0,0,1,1.11,1.11v245A1.11,1.11,0,0,1,379.3,612ZM331.56,382.17V594.1a1.11,1.11,0,0,0,1.11,1.11h30.21A1.11,1.11,0,0,0,364,594.1V382.17a1.11,1.11,0,0,0-1.11-1.11H332.67A1.11,1.11,0,0,0,331.56,382.17Z"/><path class="cls-3" d="M281.46,432V610.68a1.1,1.1,0,0,1-1.1,1.1H217a1.11,1.11,0,0,1-1.11-1.1V432a1.11,1.11,0,0,1,1.11-1.11h63.37A1.11,1.11,0,0,1,281.46,432Zm-49,16.3V594.11a1.1,1.1,0,0,0,1.1,1.1h30.23a1.11,1.11,0,0,0,1.11-1.1V448.25a1.11,1.11,0,0,0-1.11-1.1H233.56A1.1,1.1,0,0,0,232.46,448.25Z"/><path class="cls-3" d="M122.17,516.41h59.19c.57,0,2.57.47,2.57,1v90.09a1,1,0,0,1-1,1H123.7a1,1,0,0,1-1-1l-1.53-90.09A1,1,0,0,1,122.17,516.41Zm16,16.24v59.44a1,1,0,0,0,1,1h28.28a1,1,0,0,0,1-1V532.75a1,1,0,0,0-1-1c-.57-.05-1.08-.1-1.59-.1H139.16A1,1,0,0,0,138.12,532.65Z"/><path class="cls-2" d="M240.35,265.16H215.66v16.28H199.1c0-4.05-.19-8.12.06-12.16.21-3.48-.7-5.31-4.33-6.75-12.85-5.09-21.3-18.08-20-30.11H190.1c4.66,13.93,7.63,17.86,33.35,16,0-6.41.69-12.95-.18-19.28-1.09-8-7.64-13.45-15.93-13.37-17.58.16-34.12-15.14-33.11-35.25.51-10.09.09-20.22.09-30.71h24.52V133.41h16.64v16.93c15.27,5.36,23.86,15.51,25,31.93H224.34c-4.11-13.3-8.11-16.21-22.29-16.21H190.94c0,6.42-.47,12.43.11,18.34.81,8.37,7.47,14.11,16,14.72,21.31,1.52,33.26,14.43,33.27,35.92C240.36,244.83,240.35,254.62,240.35,265.16Z"/><path class="cls-2" d="M133.27,215.26V199.41h15.84v15.85Z"/><path class="cls-2" d="M281.35,215.38h-15.8V199.47h15.8Z"/></svg>