<svg id="Layer_1" data-name="Layer 1" xmlns="http://www.w3.org/2000/svg" viewBox="0 0 712 712"><defs><style>.cls-1{fill:#236fb4;}.cls-2{fill:#069647;}</style></defs><path class="cls-1" d="M455.45,547.19c3.34,6.82,5.72,11.53,8,16.31,4.67,9.9,3.35,14.71-6.09,19.63q-22.8,11.91-45.92,23.21c-9,4.38-14.22,2.4-18.79-6.6-8-15.79-15.91-31.66-24.29-48.35-9.91,4.82-19.4,9.36-28.83,14-16.54,8.19-22.28,4.87-23.52-13.64a43.15,43.15,0,0,0-.94-4.59H304.68q-71,0-142.1,0C123.29,547.14,100,524,100,485q0-159.44,0-318.87c0-39,23.35-62.36,62.45-62.37,128.78,0,257.57.5,386.34-.32,39.16-.25,63.52,29,63.19,63.24-1,106-.37,212-.39,318,0,39.25-23.12,62.46-62.23,62.54q-41.29.08-82.6,0ZM588.71,241.1H122.91v8.54q0,118.56,0,237.12c0,24.11,13.8,37.85,38.11,37.88,48.55.08,97.09-.14,145.64.2,7.66,0,10.13-1.76,10.05-9.79q-.59-64.83.08-129.66c.05-4.91,2.46-11.23,6-14.32,5.25-4.57,11-.36,15.87,3.34q67.71,51,135.46,102c10.82,8.16,9.92,16.83-2.25,23-10.49,5.32-21.05,10.48-31.33,15.58.71,8,4.75,9.89,11.5,9.84,32.56-.27,65.12-.09,97.68-.14,25.48,0,38.93-13.46,38.94-38.85q0-117.68,0-235.35Zm0-23.95V183.5c0-6.21,0-12.43,0-18.64-.07-24.75-13.05-38.12-37.51-38.13q-187.35-.11-374.7,0c-7.1,0-14.21-.14-21.3.15-15.53.65-30,11.24-31.21,26.43-1.69,21-.43,42.31-.43,63.87ZM447.77,485.74,339.4,404.5V539.91c6.18-3,11.19-5.31,16.16-7.75,22.2-10.92,22.63-10.76,33.87,11.54,6.32,12.55,12.72,25.06,19.35,38.12l29.94-14.72c-7.25-14.53-14-28-20.66-41.43-9.3-18.78-8.74-20.42,9.67-29.69C433.78,492.92,439.8,489.81,447.77,485.74Z"/><path class="cls-2" d="M294.06,298.2c1.74,1.26,5.89,2.93,7.86,6a137.86,137.86,0,0,1,10.37,20.42c2.54,6,1.95,12-4.53,15.17s-12.23,1.37-15.74-5.14a216.52,216.52,0,0,1-10.14-20.56C278.7,306.35,284,298.52,294.06,298.2Z"/><path class="cls-2" d="M436.24,356.31c-1.05,1.45-2.56,5.41-5.42,7.14a207.39,207.39,0,0,1-22.11,11.08c-6.29,2.84-11,.05-14.06-5.46-3.29-6-1.18-11.23,4.25-14.43A168.69,168.69,0,0,1,421,343.56C429,340.35,436.33,345.8,436.24,356.31Z"/><path class="cls-2" d="M246.91,456.47c-4.12-3.73-8.75-6-9.77-9.37s0-10,2.55-11.7a111.17,111.17,0,0,1,25.81-13c3.06-1.05,9.36,2.1,11.49,5.18,1.86,2.7,1.56,10.27-.55,11.76C267.49,445.67,257.51,450.52,246.91,456.47Z"/><path class="cls-2" d="M380.34,302.65c-4,10.84-6.82,20.19-11,28.86-2.53,5.25-8.85,7.59-13.53,3.81-3.41-2.76-6.43-8.9-5.87-13,1-7.72,4.58-15.16,7.49-22.55,2.24-5.7,7.23-8.67,12.73-6.42C374.13,294.94,377,299.39,380.34,302.65Z"/><path class="cls-2" d="M240.94,354.38c11,4.12,20.52,6.67,28.84,11.34,2.9,1.63,4.94,9.37,3.54,12.74s-7.95,6.93-11.6,6.35a79.85,79.85,0,0,1-24.91-8.42c-3.12-1.68-5.58-8.44-4.88-12.25S237.74,357.61,240.94,354.38Z"/><path class="cls-2" d="M281.72,160.67c7,.61,10.91,4.49,11.5,11.19.51,5.87-5.19,11.59-11.15,11.33-6.85-.31-11.16-4.14-11.23-11.09S275,161.49,281.72,160.67Z"/><path class="cls-2" d="M213.88,170c1.52-5.61,5.24-9.86,12.27-9.1s10.6,5.33,9.95,12.15-5.27,10.39-12.17,10C217.88,182.81,213.16,176.81,213.88,170Z"/><path class="cls-2" d="M167.76,183.25c-6.69-.74-11.81-6.7-10.72-12.45,1.24-6.57,5.3-10.44,12.36-9.94,6,.43,11,6.45,10,12.27C178.24,179.86,173.94,183.23,167.76,183.25Z"/></svg>