<svg id="Layer_1" data-name="Layer 1" xmlns="http://www.w3.org/2000/svg" viewBox="0 0 712 712"><defs><style>.cls-1{fill:#069647;}.cls-2{fill:#236fb4;}</style></defs><path class="cls-1" d="M539.91,539.63v-18.1q0-33.86,0-67.7c0-7.13,2.92-10.78,8.51-10.75,5.42,0,8.3,3.54,8.31,10.37q0,46.44,0,92.88c0,7.18-3,10.21-10.19,10.22q-50.11,0-100.23,0c-6,0-10-3.42-10.15-8.32-.16-5.15,3.79-8.56,10.3-8.57q43.29-.07,86.58,0Z"/><path class="cls-2" d="M365.49,87.08c.29.2.56.53.87.56,20.58,2.45,26.65,19.22,26.05,35.65a68.3,68.3,0,0,1-12.7,38.21c-3.13,4.35-2.17,6.92,2.89,8.14s10.13,2.86,15.29,3.45c11.31,1.28,21.72,15.55,21.36,25.88-.27,8,.28,16.08.16,24.12-.17,11.44-6.28,17.51-17.58,17.54q-45.9.09-91.81,0c-11.1,0-17.07-6-17.2-17.21-.1-7.87,0-15.74.17-23.61a27.32,27.32,0,0,1,21.63-26.61c6.26-1.46,12.52-3,20.14-4.78-1.14-3.39-1.69-6.74-3.3-9.48-8.46-14.48-12.68-29.79-10-46.61,2.12-13.4,10-21.57,23.28-24.21a20.13,20.13,0,0,0,2.9-1Zm36.83,136.45c0-8.72.45-17.25-.19-25.71-.3-4-3.37-7-7.92-8C387,188.34,380,186.19,372.79,185c-6.07-1-10.1-3.52-10.64-10.08H350.46c-.28,6.81-4.8,9.15-11,10.22-6.85,1.2-13.55,3.26-20.4,4.53-4.8.89-8.16,3.8-8.51,8.05-.7,8.56-.21,17.21-.21,25.81ZM356.86,103.82c-2.45.31-4.87.61-7.29,1-7.35,1-10.52,3.93-11.31,11.37a50.24,50.24,0,0,0,9.55,36.1c5.95,8.09,12.15,8.06,18-.19a49.69,49.69,0,0,0,9.07-37.2c-.7-4.75-2.83-8.74-8.16-9.7C363.48,104.56,360.17,104.25,356.86,103.82Z"/><path class="cls-2" d="M548.39,432.73c-15.39,0-30.79,0-46.18,0-10.75,0-17.1-6-17.29-16.69q-.26-13.37.32-26.75c.44-10.5,9.75-21.39,19.91-23.74,5.27-1.22,10.55-2.36,15.82-3.59,5.79-1.36,7-4.51,3.58-9.69-8-12.17-12.18-25.58-11.69-40.08a52.22,52.22,0,0,1,3.9-17.18c4.06-10.18,12.89-14.54,23.19-15.36a87.52,87.52,0,0,1,20.84.75c13.45,2.22,21.4,11.17,23.11,24.8,2.16,17.18-1.85,32.93-11.39,47.31-4,5.95-3.25,7.94,3.58,9.51,4.77,1.08,9.53,2.17,14.28,3.3a27.13,27.13,0,0,1,20.93,25c.39,8.38.76,16.78.69,25.16-.08,10.84-6.72,17.23-17.42,17.25Q571.48,432.77,548.39,432.73Zm46.17-17c0-8.63.39-16.84-.16-25-.29-4.3-3-7.68-7.79-8.73-7.15-1.59-14.22-3.64-21.43-4.85-6.2-1-10.53-3.47-11-10.18H542.4c0,7.47-5.41,9.19-11.73,10.34-6.86,1.24-13.58,3.2-20.4,4.62a9.44,9.44,0,0,0-7.95,8.65c-.66,8.27-.2,16.62-.2,25.13ZM567.38,314.79c0-1.23,0-2.45,0-3.67-.47-10-3-13.13-12.78-14.38a56.1,56.1,0,0,0-13.51.32c-6.86.8-9.7,3.49-10.58,10.18a49.78,49.78,0,0,0,9.66,37.56c5.64,7.54,11.69,7.41,17.41-.22A49.68,49.68,0,0,0,567.38,314.79Z"/><path class="cls-2" d="M185.1,360.55l20.82,4.9c11.7,2.73,20.67,13.71,20.83,25.7.11,8.57.14,17.14,0,25.71-.12,9.2-6.72,15.82-16,15.85q-46.69.19-93.4.14c-10.84,0-17.22-6.42-17.36-17.33-.1-8-.06-16.1.32-24.13.61-13.05,9.11-23,21.75-26,4.58-1.09,9.18-2.11,13.77-3.16,6.11-1.39,7.36-4.6,3.88-10a70.4,70.4,0,0,1-11.65-40.13c.27-20.64,11.43-32.2,32-32.74a76.29,76.29,0,0,1,15.11.91c14.4,2.55,22.82,11.81,24.15,26.23a69.72,69.72,0,0,1-11.61,46.32C186.41,354.93,186.06,357.71,185.1,360.55Zm25,55.13c0-8.29.33-16.16-.11-24-.28-4.81-2.88-8.5-8.1-9.66-7.15-1.59-14.21-3.6-21.42-4.85-6-1-10.27-3.24-10.77-10.15H157.87c-.33,6.55-4.43,9-10.48,10.1-7.2,1.26-14.25,3.35-21.42,4.81-5.06,1-7.91,4.5-8.24,9-.61,8.12-.17,16.32-.17,24.76ZM182.78,314.56c0-1.57.09-3.15,0-4.72-.58-8.57-3.36-11.9-12-12.92a66.1,66.1,0,0,0-14.54.17c-6.58.7-9.34,3.41-10.3,9.86a49.33,49.33,0,0,0,9.74,38c5.48,7.32,11.47,7.19,17.08-.15C179.59,335.93,182.66,325.69,182.78,314.56Z"/><path class="cls-2" d="M356,624.9c-15.39,0-30.79,0-46.18,0-10.33,0-16.77-6.27-16.89-16.52-.1-8.74-.08-17.49.13-26.24.27-10.91,9.67-22,20.37-24.45,5.11-1.16,10.2-2.36,15.3-3.56,5.83-1.37,7.25-4.56,3.89-9.58-6.76-10.1-10.88-21.19-11.47-33.26a64.71,64.71,0,0,1,1.74-19.64c2.83-10.58,10-17.75,21.27-19,7.57-.87,15.43-1.55,22.89-.48,16.59,2.38,25.2,13.45,25.48,31.81a68.83,68.83,0,0,1-12.25,41c-3.7,5.36-2.94,7.53,3.18,9,4.76,1.12,9.48,2.4,14.28,3.25,14.07,2.48,21.79,16.71,22.08,27.21q.33,12.06.1,24.14c-.19,9.73-7,16.36-16.68,16.4C387.51,624.94,371.77,624.9,356,624.9Zm-46.13-17.21h92.67c0-8.29.27-16.15-.1-24a9.74,9.74,0,0,0-8.08-9.65c-7-1.59-13.87-3.56-20.9-4.72-6.36-1-10.88-3.48-11.43-10.23H350.46c-.32,6.93-4.94,9.16-11.08,10.21-6.86,1.18-13.59,3-20.41,4.49-5.6,1.17-8.61,5-9,10.19C309.51,591.8,309.89,599.66,309.89,607.69Zm46.74-119.64c-2.59.32-5.2.52-7.76,1-7,1.3-9.77,3.86-10.57,10.9-1.5,13.36,1.53,25.76,9.62,36.57,5.93,7.92,11.84,7.79,17.74-.07,6.14-8.19,9-17.59,9.78-27.74C376.62,493.31,372.05,488.28,356.63,488.05Z"/><path class="cls-1" d="M172.8,539.63h6.79q43,0,86,0c6.68,0,10.18,2.6,10.57,7.59.44,5.71-3.3,9.28-10,9.3-18.19.06-36.38,0-54.56,0-15,0-30.08,0-45.12,0-7.7,0-10.89-3.11-10.91-10.78q-.06-44.6,0-89.19c0-6.67,3.1-10.38,8.43-10.48,5.52-.1,8.71,3.63,8.73,10.68.06,25.35,0,50.71,0,76.07Z"/><path class="cls-1" d="M172.8,172.37v6.88q0,36.76,0,73.53a30.4,30.4,0,0,1-.47,6.26,8.29,8.29,0,0,1-16,.74,19.65,19.65,0,0,1-.67-5.68q-.06-43.32,0-86.65c0-9.2,2.78-12,11.82-12q48.84,0,97.69,0a16.86,16.86,0,0,1,6.6,1.11c3.62,1.58,5,4.81,4.42,8.65a7.59,7.59,0,0,1-6.83,6.9,38.12,38.12,0,0,1-5.76.21H172.8Z"/><path class="cls-1" d="M539.89,172.37H449.15a50.79,50.79,0,0,1-5.24-.13c-4.6-.47-8-4-7.81-8.29.24-4.57,2.88-7.39,7.32-8.36a19.46,19.46,0,0,1,4.19-.14h97.62c8.66,0,11.42,2.68,11.42,11.11,0,30.79,0,61.58.05,92.37,0,4.73-1.4,8.35-6.16,9.73-5.93,1.72-10.62-2.42-10.64-9.32q-.06-38.31,0-76.62Z"/><path class="cls-1" d="M356.22,464.18c-5.07,0-10.15,0-15.22,0s-7.85-2.48-9-7.11c-1.1-4.4-2.07-8.83-3.06-13.26-2-9.05-7.92-11.52-15.67-6.55-3.67,2.37-7.38,4.68-11,7.07-4.28,2.79-8.22,2.44-11.84-1.17C283.2,436,276,428.84,268.86,421.63c-3.41-3.43-3.87-7.26-1.22-11.4,2.45-3.83,4.86-7.68,7.3-11.51,4.89-7.69,2.36-13.6-6.66-15.62-4.43-1-8.86-2-13.26-3.06-4.63-1.17-7.14-4.13-7.14-9q0-15,0-29.92c0-5.12,2.49-8.16,7.47-9.25,4.78-1,9.52-2.21,14.31-3.18a8.32,8.32,0,0,0,6.77-5.42c1.65-3.79,1.16-6.37-1.06-9.46-2.85-4-5.33-8.21-7.91-12.37-2.45-4-2-7.69,1.27-11q10.89-11,21.89-21.91c3.48-3.44,7.34-3.67,11.43-1.06,4.56,2.91,9.12,5.86,13.73,8.7,4.4,2.71,11.53-.24,12.75-5.29s2.32-10.22,3.39-15.34,4.09-7.87,9.5-7.84c9.8.05,19.6-.05,29.4,0,6,.06,8.41,2,9.9,8,1.23,4.91,2.25,9.87,3.42,14.79,1.35,5.64,8.31,8.39,13.29,5.26,4.3-2.69,8.61-5.36,12.84-8.16,4.52-3,8.54-2.36,12.27,1.37q10.4,10.38,20.8,20.78c3.76,3.75,4.16,7.87,1.39,12.33-2.3,3.71-4.67,7.39-7,11.08-5,7.82-2.49,13.65,6.61,15.65,4.26.94,8.48,2.08,12.75,2.95,5.08,1,7.6,4.21,7.67,9.18q.21,15,0,29.92c-.06,5.22-2.73,8.42-8,9.42-4.11.79-8.15,1.95-12.24,2.85-9.46,2.1-11.81,7.78-6.59,16,2.25,3.54,4.52,7.07,6.75,10.63,2.65,4.24,2.46,8.32-1.1,11.94-7.26,7.34-14.55,14.66-21.92,21.88-3.28,3.22-7.09,3.59-11,1.11-4.73-3-9.39-6.09-14.13-9.06-4-2.5-11.15.43-12.29,5-1.35,5.42-2.6,10.86-3.85,16.3-1.16,5-4.31,7.31-9.43,7.22C366,464.11,361.12,464.18,356.22,464.18ZM414,285.37c-4.78,3-9.41,5.8-13.92,8.79-3.73,2.46-7.34,2.55-11.35.57a95.37,95.37,0,0,0-12-5c-4.63-1.56-7.2-4.42-8.06-9.28-.94-5.25-2.36-10.43-3.62-15.85-5.1,0-9.83-.26-14.5.16a5.74,5.74,0,0,0-3.9,3.33,106,106,0,0,0-3.16,13.22c-.8,4.26-3.28,6.7-7.21,8.17q-6.6,2.47-13,5.43c-3.83,1.77-7.32,1.68-10.89-.67-4.64-3.06-9.42-5.93-13.36-8.4l-13.47,12.37c2.9,4.59,5.6,9.07,8.52,13.41,2.73,4,2.92,7.92.62,12.28a76.11,76.11,0,0,0-4.82,11.57c-1.54,4.63-4.36,7.22-9.25,8.06-5.27.92-10.44,2.39-15.93,3.68,0,5.22-.18,10.11.13,15a4.74,4.74,0,0,0,2.78,3.3c4.5,1.33,9.13,2.31,13.75,3.2a10.36,10.36,0,0,1,8.26,7.14c1.66,4.4,3.43,8.77,5.4,13,1.76,3.82,1.77,7.35-.55,10.92-3,4.68-5.95,9.44-8.55,13.58l12.33,13.38c4.93-3.08,9.43-6.56,14.47-8.79a17,17,0,0,1,10.23-.67,47.66,47.66,0,0,1,13.44,5.62,17.85,17.85,0,0,1,6.84,7.67c1.83,4.26,2.16,9.14,3.41,13.67.34,1.22,1.63,3,2.57,3.08,5.34.3,10.71.15,16,.15,1.33-6,2.58-11.26,3.66-16.56a10.34,10.34,0,0,1,7.14-8.26c4.41-1.6,8.77-3.42,13-5.4,3.81-1.78,7.31-1.82,10.9.52,4.66,3,9.43,5.95,15.24,9.6,3.35-3.75,6.86-7.4,10-11.36a4.89,4.89,0,0,0,.21-4.37c-2.16-4-4.68-7.79-7.21-11.56s-2.65-7.31-.68-11.34a115.38,115.38,0,0,0,5.23-12.53,10.67,10.67,0,0,1,9-7.62c5.26-.92,10.43-2.39,15.47-3.58v-18c-5.67-1.27-10.93-2.54-16.23-3.61-4.18-.85-6.72-3.22-8.15-7.23a104.16,104.16,0,0,0-5.21-12.54,10.76,10.76,0,0,1,.66-11.81c3-4.49,5.79-9.1,8.69-13.7Z"/><path class="cls-1" d="M411.75,356a55.62,55.62,0,0,1-111.24.23c-.13-30.8,25.14-55.95,56.13-55.85A55.43,55.43,0,0,1,411.75,356Zm-94.07-1.26c-1,20.9,15.94,39,37.47,40,20.36.9,38.77-16.09,39.76-36.68a39,39,0,0,0-37.27-40.74C336.83,316.17,318.76,333.11,317.68,354.75Z"/></svg>