<svg id="Layer_1" data-name="Layer 1" xmlns="http://www.w3.org/2000/svg" viewBox="0 0 712 712"><defs><style>.cls-1{fill:#02994a;}.cls-2{fill:#236fb4;}.cls-3{fill:#069647;}</style></defs><path class="cls-1" d="M401.88,413.1c-1.29-.13-1.94-.16-2.59-.26-6-.9-9.41,1-12.76,6.82-10.72,18.58-27.59,27.78-49,28.19-11.65.23-23.31,0-35,0h-6.43c1.74,6.1,3.14,11.51,4.85,16.81,1.22,3.78,2.41,7.43-1,10.65s-7.32,2.19-11.1.44c-15.39-7.14-28.92-16.37-37.07-32-.83-1.61-2.72-2.84-4.38-3.83-19.65-11.76-31.48-35.71-28.15-57.19,4.06-26.13,20.56-44.6,44.93-50.09,3.55-.8,7.32-.66,10.85-1.5,1.47-.36,3.42-1.94,3.76-3.31,8.51-33.57,35.38-54.69,70.05-54.75,26.14,0,52.29-.2,78.43.05,37.94.36,69.2,30.95,69.24,68.36,0,27.46-12.15,48.46-36.1,62.45a17,17,0,0,0-5.95,6.17c-8.38,15-21.51,24.68-36.17,32.66-3.5,1.9-7.21,3.4-10.85,5s-7.06,2.13-10.2-.86-2.59-6.53-1-10.11C399.45,429.43,402.08,421.8,401.88,413.1Zm14.37,13.45c10.52-6.42,20.13-13.37,25.09-24.62a20.26,20.26,0,0,1,10.36-10.66,54.18,54.18,0,0,0,28.9-57.88C476.21,310.1,456,290.2,432.74,289.2c-29.24-1.25-58.58-1.07-87.86-.5-19.08.37-33.93,9.93-44.2,25.9-9.64,15-10.31,31.19-4.71,47.87,1.7,5.07-.1,9.33-4.24,10.61-4.41,1.37-8.31-.7-9.88-5.85a101.07,101.07,0,0,1-3.75-15.94c-.49-3.74-1.79-4.57-5.36-4.39-17.56.91-33.14,14.59-37.59,33.35-4.26,18,4.52,38.49,20.58,46.89a22.33,22.33,0,0,1,10.64,11.17c3.13,6.88,8.51,11.88,15.71,16.1-.3-3-.59-5.16-.71-7.29-.65-11.89,1.81-14.42,13.66-14.49,16-.1,32,.24,47.93-.59,12.88-.66,22.48-7.77,30.28-19.21-8.56,0-16.21.62-23.71-.15a214.52,214.52,0,0,1-27.32-4.8c-5-1.19-6.87-5.54-5.48-9.58,1.46-4.22,5.31-6.32,10-4.6,9.61,3.49,19.49,3.81,29.51,3.74,16.48-.13,33-.05,49.45,0,8.7,0,11.13,1.94,11.52,10.63C417.53,413.94,416.66,419.9,416.25,426.55Z"/><path class="cls-2" d="M505.25,508.58c-8.73,8.41-13.69,18.47-14.46,30.38-.43,6.47.15,13-.23,19.48-.27,4.69,1.5,6.07,6,6,27.31-.14,54.63-.07,81.94-.07,13.33,0,13.58,0,13.23-13.08-.21-7.93-1.17-15.86-2.13-23.75-.65-5.37,1.08-9,5.51-10.1,4.06-1,7.74,1.49,9.17,6.41,4,13.69,3.37,27.72,2.2,41.63-.72,8.52-9,14.2-19,14.23-22.15.07-44.3,0-66.45,0-8.83,0-17.66.1-26.48,0-11.38-.16-18.83-6.84-19.06-18-.3-14.25-1.49-28.65,4.26-42.36A66.81,66.81,0,0,1,495.28,497a8.25,8.25,0,0,0,2.26-6.28c-3.92-22.21,8.29-44,28.66-50.51,22.42-7.2,44.63,2.34,54.68,23.48,12.17,25.62-5.36,57.73-33.27,61.47-16.41,2.19-29.73-3-40.64-15.09A16.63,16.63,0,0,0,505.25,508.58Zm35.44,2a28.84,28.84,0,1,0-28.93-28.93A29.24,29.24,0,0,0,540.69,510.57Z"/><path class="cls-2" d="M134.68,508.48A44.64,44.64,0,0,0,120.09,538c-.67,7.27-.08,14.65-.25,22-.08,3.34,1.51,4.41,4.53,4.41q46.22,0,92.44,0c3.21,0,4.48-1.5,4.26-4.64-.75-10.74-1.27-21.51-2.23-32.23-.49-5.45,1.15-9,5.61-10.07,4.19-1,7.85,1.74,9.27,7,3.62,13.4,3.18,27.07,2.08,40.66-.72,8.79-8.84,14.64-19.09,14.66q-44,.09-87.94,0c-2,0-4,.07-6,0-10.46-.52-17.7-7.15-17.92-17.61A217.1,217.1,0,0,1,106,530.79c1.68-13.51,8.78-24.51,18.59-33.88a8.27,8.27,0,0,0,2.2-6.3C123,468.51,135,446.92,155,440.27c22.35-7.4,44.47,1.87,54.9,23,12.6,25.56-5,58.06-33.13,61.87C159.72,527.45,146.24,521.5,134.68,508.48Zm35.51-55.59A29.12,29.12,0,0,0,141,481.49c-.21,15.61,12.93,28.87,28.81,29.08a28.84,28.84,0,1,0,.4-57.68Z"/><path class="cls-2" d="M134.66,203.68c-9.23,9.1-14.15,19.5-14.7,31.84-.25,5.65-.08,11.32-.08,17,0,7.34,0,7.34,7.62,7.35h85.89c1.17,0,2.33,0,3.5,0,2.78-.06,4.37-1.23,4.17-4.28-.72-10.74-1.16-21.5-2.18-32.21-.56-5.91.9-9.48,5.59-10.49,4.49-1,7.84,1.72,9.36,7.41,3.5,13.07,3,26.4,2,39.65-.63,9-8.59,15.07-18.64,15.09-27.63.06-55.27,0-82.9,0-3.83,0-7.66.09-11.48,0-10.18-.29-17.63-6.89-18-17-.46-15.06-2.3-30.57,5-44.59,3.91-7.54,9.5-14.29,14.9-20.92,1.91-2.34,2.74-4.09,2.16-6.95a44.13,44.13,0,0,1,25.61-49c18.62-8.17,40.05-2.27,53,14.59,11.81,15.36,11.15,38.16-1.54,53.65a43.88,43.88,0,0,1-66.66,1.87ZM199,177a29.2,29.2,0,0,0-29-28.89c-15.76,0-29,13.2-29,28.87s13.36,29,29,29S198.93,192.69,199,177Z"/><path class="cls-2" d="M506,203.2c-9.45,8.88-14.31,18.83-15.21,30.5-.54,7.12,0,14.31-.22,21.46-.09,3.57,1.61,4.7,4.83,4.69q45.69,0,91.38,0c3.48,0,5.32-1.22,5-5-.8-10.73-1.32-21.49-2.3-32.21-.49-5.27,1-8.59,5.33-9.73s7.92,1.16,9.34,6.05c4,13.84,3.42,28,2.23,42.09-.64,7.62-8.4,13.81-16.66,13.85q-48.69.27-97.37,0a16.62,16.62,0,0,1-16.7-16c-.8-17.76-2.23-35.83,8-51.83,3.44-5.41,8.19-10,12.08-15.11,1.12-1.49,2.21-3.85,1.86-5.5a44.48,44.48,0,0,1,31.43-51.89c17.44-5,37.65,2.31,48.24,17.88s9.73,37.52-2,51.72c-18.23,22-48.68,22.77-67.94,1.61A12.24,12.24,0,0,1,506,203.2ZM541,148.12a29.21,29.21,0,0,0-29.19,28.67c-.2,15.59,12.94,28.94,28.75,29.21,15.51.26,29-13,29.2-28.78C570,161.64,556.7,148.23,541,148.12Z"/><path class="cls-3" d="M100,353.06c.79-.77,1.57-1.55,2.37-2.31,4.86-4.58,12.77-2.93,13.62,3.59A284.12,284.12,0,0,1,117.85,387c.05,4.16-3.63,6.43-7.52,6.56-4.12.14-7.4-2-8.29-6.39s-1.38-8.73-2-13.09Z"/><path class="cls-3" d="M101.46,325.9c1.67-9.13,3.17-18.3,5.07-27.39,1.1-5.26,5.23-8.05,9.69-7.29s7.43,4.56,6.67,10c-1.27,9-2.9,18-4.61,26.95-1.09,5.7-4.9,8.57-9.67,7.78S101.54,331.59,101.46,325.9Z"/><path class="cls-3" d="M116.81,405.18c1.34,1.27,4.86,3.08,5.84,5.81,3.37,9.35,6,19,8.6,28.59,1.16,4.28-1,7.47-4.91,9.23s-8.81.36-10.18-3.67c-3.47-10.17-6.61-20.5-9.1-30.95C105.91,409.36,110.1,405.36,116.81,405.18Z"/><path class="cls-3" d="M612,363.65c-.73,7.59-1,15.28-2.44,22.73-.51,2.53-3.73,5.27-6.37,6.45-3.26,1.47-6.63-.3-8.37-3.56a11.77,11.77,0,0,1-1.2-5.71c.29-9,.74-17.92,1.27-26.87.36-5.83,4.16-9.67,9-9.32s7.76,4,7.84,9.76c0,2.16,0,4.32,0,6.48Z"/><path class="cls-3" d="M610.3,325.79c-.4,5.4-3,8.8-7.51,9.37s-8.22-1.81-9.26-7q-2.74-13.65-4.83-27.42c-.83-5.55,1.71-9.23,6.33-10.28,4.35-1,8.63,1.73,9.79,7C606.89,306.87,608.5,316.35,610.3,325.79Z"/><path class="cls-3" d="M605.82,413.83c-3.44,10.54-6.58,21.19-10.47,31.56-1.45,3.86-5.72,4.56-9.49,3.33s-6.45-4.51-5.44-8.44c2.62-10.27,5.7-20.45,9.07-30.51,1.4-4.16,5.33-5.51,9.45-4.39C602.84,406.44,605,409.31,605.82,413.83Z"/><path class="cls-3" d="M258,575.26a26,26,0,0,1,3.23.75c8.75,3.14,17.52,6.2,26.19,9.53,5,1.93,6.93,6.19,5.39,10.83-1.42,4.28-6.07,6.51-11,4.83q-13.19-4.5-26.22-9.49c-4.4-1.68-6.52-5.09-5.56-9.9C250.81,577.62,253.87,575.89,258,575.26Z"/><path class="cls-3" d="M338.15,611.72c-7.27-.88-16.35-1.83-25.37-3.14-5.58-.82-8.47-4.69-7.88-9.65.55-4.61,4.11-7.41,9.75-6.92,9.25.81,18.48,1.91,27.69,3.09a8.25,8.25,0,0,1,7.47,9C349.43,608.86,345.51,611.93,338.15,611.72Z"/><path class="cls-3" d="M426.15,602.85c-2.35-2.23-5.58-4.06-6.85-6.8a7,7,0,0,1,3.66-9.7c9.84-4,19.8-7.71,29.93-10.84,4-1.23,7.4,1.24,8.87,5.43s-.32,8.66-5.06,10.52c-8.95,3.53-18.07,6.63-27.13,9.89a17.68,17.68,0,0,1-2.42.54Z"/><path class="cls-3" d="M370.44,611.79a8.48,8.48,0,0,1-8.43-8.13c-.18-4.46,3.38-8.09,8.5-8.7,8.08-1,16.14-1.93,24.22-2.86a29.31,29.31,0,0,1,4-.17c4.58.08,7.92,2.75,8.35,6.89.47,4.54-1.41,8-5.93,9.07-5.64,1.29-11.41,2.05-17.16,2.8C379.86,611.23,375.7,611.38,370.44,611.79Z"/><path class="cls-3" d="M370.84,100.21c3.15,2,6.81,3.33,7.12,8,.32,4.89-2.28,8.83-7.14,9-10.12.32-20.27.27-30.41.12-4.16-.07-6.79-2.64-7.43-6.75-.68-4.32,1.27-7.37,5.25-9.14l2.63-1.16Z"/><path class="cls-3" d="M454,120.24a48.51,48.51,0,0,1,5.24,1.94c7.86,3.88,15.72,7.78,23.49,11.85,3.3,1.73,5.79,4.79,4.68,8.47a13.68,13.68,0,0,1-5.6,6.81c-1.51,1-4.62.46-6.52-.43-8.4-3.92-16.64-8.17-24.88-12.4-3.95-2-5.87-5.24-4.76-9.79C446.63,122.55,449.65,120.87,454,120.24Z"/><path class="cls-3" d="M399.71,103.65c9.8,2.49,19.67,4.75,29.38,7.57a8,8,0,0,1,5.45,9.9,8.1,8.1,0,0,1-9.67,5.92c-9.57-2-19.1-4.29-28.56-6.77a8.11,8.11,0,0,1-6.16-9C390.88,106.78,394.54,104.06,399.71,103.65Z"/><path class="cls-3" d="M265.8,130.8c-.95,1.18-2.29,4.16-4.59,5.45-8.38,4.7-17,8.94-25.69,13.14a8.08,8.08,0,0,1-10.85-3.11c-2.16-3.7-1.46-8.76,2.51-11,9-5,18.1-9.79,27.51-13.89C260.22,119,265.8,123.39,265.8,130.8Z"/><path class="cls-3" d="M285.52,127.39c-5.1,0-8.06-2.11-9.08-6.36s.7-8.14,4.75-9.28c10.2-2.89,20.55-5.31,30.95-7.35,4.3-.85,7.33,2.14,8.38,6.25s-.67,8.12-4.74,9.29C305.58,122.85,295.18,125.06,285.52,127.39Z"/></svg>