<svg id="Layer_1" data-name="Layer 1" xmlns="http://www.w3.org/2000/svg" viewBox="0 0 712 712"><defs><style>.cls-1{fill:#236fb4;}.cls-2{fill:#069647;}</style></defs><path class="cls-1" d="M353,516.84c-6.07-7.53-13.86-8-21.54-9.51-.16-2.19-.33-4.36-.54-7.06-10.4,0-20.69,0-31,0-12,0-18.33-6.42-18.37-18.55,0-5.68,1.8-12.49-.71-16.72s-9.38-5.66-14.28-8.44q-70.92-40.23-82.91-120.91c-.82-5.42-.93-11-1.23-16.46-.21-3.71-1.35-6.66-5-8.24s-6.69-.24-9.24,2.46c-3.55,3.74-7,7.53-10.42,11.16l-47.62-47.69c3.52-3.28,7.29-6.72,11-10.25,2.63-2.52,4.29-5.35,2.67-9.2s-4.67-5.23-8.63-5.2c-5,0-9.91,0-15.13,0v-66.1c3.67,0,7.38,0,11.09,0,4.75-.05,9.93.94,12.49-4.79,2.76-6.17-2.13-9.1-5.51-12.56-2.51-2.58-5.3-4.91-7.68-7.09L158,114.12c3.18,3.39,6.69,7.17,10.26,10.9,2.57,2.69,5.49,4.07,9.25,2.36s4.92-4.56,4.91-8.32c0-5,0-9.94,0-15.26h66.1c0,4.87.05,9.65,0,14.42-.06,4.08.88,7.46,5.09,9.21s7-.09,9.6-2.9c3.38-3.62,6.72-7.3,10.4-11.31,13.22,13.31,25.81,25.8,38.14,38.54,2.85,2.94,5.54,3.46,9.52,3.08,44-4.29,87.34-4,127.15,19.6a164.24,164.24,0,0,1,60.53,61.41c1.09,1.93,2.16,3.88,3.89,7V219.57H529.3c.08,1.69.23,3.36.23,5,0,30.31.58,60.65-.25,90.94-.38,14-3.47,27.88-5.37,41.82-.18,1.32-.59,2.61-1,4.19,10.54,3.35,18-2.5,25.39-7.8l45,45.21c-6.43,8.3-11.89,17.29-7.12,28.87s14.73,14.46,25.8,15.74v63.79c-10.88,1.33-21,4.1-25.73,15.61s.3,20.68,7.22,29l-45.21,45.22c-8.39-6.5-17.39-11.94-29-7.17s-14.45,14.73-15.7,25.81c-1.58.07-2.76.18-3.95.18H440.05c-.8-3.75-1.38-7.27-2.33-10.69a22.66,22.66,0,0,0-20.51-16.88c-1.82-.1-4.23,1.21-5.56,2.63-15.79,16.95-35.09,25.33-58.33,25-33.88-.53-65.6-27.75-70.55-61.26a146.1,146.1,0,0,1-1.08-22.64c.08-8.51,7.47-15.22,16.34-15.27,16.36-.09,32.72,0,49.08,0Zm60.88-198h49.84V423.34c2.62-2.41,4.6-4.07,6.4-5.9,31.31-32.13,46.34-70.57,41.92-115.31-5.69-57.52-36-98.18-88.82-121.28-34.46-15.07-71.08-14.72-107.06-8.11-107.42,19.74-154,150.35-84,234.08,4.75,5.68,10.13,10.82,15.22,16.21l1.34-.8V385H298.3v98.43h33.15v-82h49.47v81.94h33ZM424.05,572.4c13.88,3.82,23.59,12,29,25.22.41,1,2.65,1.79,4.05,1.82,9.64.15,19.28-.05,28.91.16,2.91.06,4.11-1,5.24-3.56,9.08-20.55,30.83-29.54,51.88-21.48,2.32.89,3.86,1,5.79-1,6.79-7.08,13.9-13.84,20.66-21a6.05,6.05,0,0,0,1.21-5.09c-8-22.19.56-43,21.76-52.83a6,6,0,0,0,3-4.32c.26-10,.24-20,0-29.95a5.52,5.52,0,0,0-2.65-4c-21.9-10.6-30.2-30.54-22.06-53.12a5.06,5.06,0,0,0-.62-4.34c-7.73-8.06-15.67-15.93-23.61-23.91-8.95,4.07-17.92,5.5-27.36,3.39a3.74,3.74,0,0,0-3.22,1.43c-2.24,4.15-4.15,8.48-6.16,12.73,48,23.58,63.15,76.29,45.92,117.49-8.7,20.8-23.08,36.59-43.27,46.61-27.66,13.74-55.54,12.84-83.24-.44C427.52,561.77,425.88,566.79,424.05,572.4ZM186.37,278.68c-2.18-1.3-4.14-2.35-6-3.58-22.1-14.7-33-35.43-30.76-61.82,2.15-25.32,15.79-43.69,38.77-54.44,24.18-11.32,52.81-6.17,72.42,12.1,1.28,1.2,3.79,2.67,4.94,2.18,10-4.3,19.88-9,29.4-13.43L273.6,138.1c-16,14.21-40.25,4.94-42.07-17.9H199.24c-1.6,22.72-25.72,32.08-41.82,18.18l-23,23c6.61,7.61,8.73,16.53,4.53,26.43s-12.19,14.35-22.41,15.15v32.59c10.46.71,18.14,5.25,22.27,14.66,4.41,10,2.29,19.15-4.56,27l23.14,23.13c7.13-6.58,15.83-8.29,25.91-5.37C184.36,289.44,185.33,284.27,186.37,278.68ZM298.16,533.57c-1.14,26.16,7.86,46.73,31,59,21.43,11.34,42.74,9.25,62-5.39,17.57-13.33,23.86-31.89,22.47-53.59Zm131.9-61.23c.38,3.41.61,6.84,1.17,10.22,3.31,20,21.48,35,41.6,34.23,21.23-.77,38.08-17,40.07-38.51,1.8-19.53-12.34-38.59-32.07-42.73-2.28-.48-5.35.46-7.42,1.76-12,7.57-23.6,15.92-35.91,23C432.24,463.34,428.74,465.89,430.06,472.34ZM401.18,500c2.79,5.55,4.56,9.84,7.07,13.64a8.14,8.14,0,0,0,5.56,3.1c9.77.63,16,7,16.67,16.86a7.91,7.91,0,0,0,3.19,5.52c16.28,9.74,33.87,13.17,52.51,9.19,39.87-8.5,64.87-44,58.72-84.57-4-26.56-19.47-45.16-44-56.64l-10.46,13.31c2.11.94,4,1.74,5.86,2.6a57.88,57.88,0,0,1-24.25,110.31c-22.56-.07-39.33-10.46-51-29.59-.87-1.43-2.27-3.45-3.57-3.56C412.6,499.72,407.62,500,401.18,500Zm-210-238.21c1.47-3.61,2.58-7.07,4.25-10.23s1.23-5.1-1.69-7.68c-9.62-8.52-13.42-19.4-10.46-32.06,3-13,11.34-21.3,24.27-24.69,10.73-2.82,20.35,0,29.24,6.58l12.5-10c-12-12.84-33-17.39-50.55-11a49.81,49.81,0,0,0-32.82,44.61C165,235.09,175.67,254.22,191.17,261.76ZM430.56,445.43c4.52-2.52,8.43-4.91,12.54-6.91,3.06-1.5,3.91-3.56,3.9-6.92-.15-30.66-.08-61.31-.1-92,0-1.49-.19-3-.28-4.32H430.56ZM348,417.83v65.52H364V417.83Zm-66.83,27.63v-44H265c0,10.93-.07,21.43.08,31.92a5.12,5.12,0,0,0,1.85,3.75C271.39,440,276.05,442.5,281.21,445.46Zm-76.28-214L224,205.83c-7.09-4.83-15.88-3.64-21.16,2.8C197,215.7,197.73,224.24,204.93,231.48ZM390.21,516.64c-1.94-5.16-3.54-9.66-5.35-14.07-.38-.92-1.5-2.15-2.31-2.17-7.08-.17-14.17-.1-21.17-.1,4.19,5.61,8.06,10.79,12.22,16.34Z"/><path class="cls-2" d="M199.05,615.89H182.8V467.41h9.43c-8.94-14.34-17.35-27.83-26.36-42.26L139.66,467l9.33.42v82.05h-16.1v-65.7h-23.4c19-30.34,37.39-59.85,56.34-90.17L222,483.46h-23Z"/><path class="cls-2" d="M602.4,186H579.34v132H563.07V169.82h9.45L546.1,127.5,520,169.32l9.28.46v32.6H513.17V186.14H489.73l56.36-90.2C564.92,126.08,583.37,155.58,602.4,186Z"/><path class="cls-2" d="M133.15,566.68H149v48.91H133.15Z"/><path class="cls-2" d="M315.2,335c6.58-22,22-34,43.29-32.85,5.8.31,11.6,2.77,17.15,4.88,2.51,1,3.84,1,5.72-.93,6.46-6.68,13-13.31,19.76-19.69,2.55-2.41,2.23-4.15.76-7-11-21.45-1.35-47.94,20.67-57a41.34,41.34,0,0,1,55.59,25.94,40.6,40.6,0,0,1-13,43.83c-13.68,11.12-28.94,12.93-44.87,5.29-3.6-1.73-5.53-1.59-8.23,1.32-6.08,6.57-12.68,12.65-18.81,19.16-1,1.1-1.71,3.85-1.07,5a41.58,41.58,0,0,1-21.64,59c-23.35,8.86-47.45-4.07-55-29.56,0-.16-.12-.32-.36-.92-5.14,0-10.48-.3-15.75.18-1.62.15-3.48,2.15-4.51,3.77-5.82,9.15-14,13.72-24.8,12.39-10.07-1.25-17-7.16-20.37-16.77a24.73,24.73,0,0,1,13.48-30.54,24.37,24.37,0,0,1,31.27,10.2c1.87,3.37,3.78,4.66,7.54,4.35C306.28,334.67,310.6,335,315.2,335ZM463.41,260.6a25.16,25.16,0,0,0-24.57-24.88c-13.3-.15-24.76,11.05-25,24.44s11.31,25.18,24.82,25.15A25.2,25.2,0,0,0,463.41,260.6ZM355.84,368c13.32.08,24.74-11.18,24.91-24.56s-11-24.77-24.42-25-25.17,11.26-25.16,24.81A25.19,25.19,0,0,0,355.84,368Zm-74.33-24.64a8.22,8.22,0,1,0-8.37,8.07A8.61,8.61,0,0,0,281.51,343.35Z"/><path class="cls-2" d="M446.86,260.53a8.24,8.24,0,1,1-8.1-8.25A8.09,8.09,0,0,1,446.86,260.53Z"/><path class="cls-2" d="M364.19,343a8.24,8.24,0,1,1-8.26-8.08A8.09,8.09,0,0,1,364.19,343Z"/></svg>