<svg id="Layer_1" data-name="Layer 1" xmlns="http://www.w3.org/2000/svg" viewBox="0 0 712 712"><defs><style>.cls-1{fill:#236fb4;}.cls-2{fill:#069647;}</style></defs><path class="cls-1" d="M264,591.08H590.89V202.58h-6.21q-30.4,0-60.82,0c-11.35,0-14.37-3.09-14.37-14.59q0-30.42,0-60.83v-6H264v6.37c0,20.8,0,41.6,0,62.39,0,7.75-3.5,12.07-9.62,12.45a9.88,9.88,0,0,1-10.81-8.89,36.34,36.34,0,0,1-.23-4.67q0-37.43,0-74.86c0-10.86,3-13.82,14-13.82q129.2,0,258.39-.1a18.88,18.88,0,0,1,14.65,6q37.83,38.28,76.09,76.11A17.83,17.83,0,0,1,612,195.93q-.18,200.94-.09,401.88c0,11.34-2.81,14.17-14,14.17H257.36c-11.18,0-14.08-2.92-14.09-14.21q0-37.95,0-75.9c0-7.63,3.65-11.93,9.85-12.16a9.75,9.75,0,0,1,10.37,8.21,34.69,34.69,0,0,1,.43,6.2q0,30.17,0,60.31ZM530.66,137.3v43.92h43.9Z"/><path class="cls-2" d="M366.3,356q0,59.76,0,119.53c0,10.35-3.26,13.57-13.7,13.57H255.93c-9.06,0-12.64-3.43-12.64-12.51q-.06-120.57,0-241.15c0-9.1,3.57-12.51,12.62-12.51H353.1c9.74,0,13.19,3.4,13.19,13Q366.31,296,366.3,356Zm-21,112.18V243.88h-81V468.22Z"/><path class="cls-2" d="M509.73,376.33q0,49.65,0,99.3c0,10-3.45,13.51-13.34,13.51H399.17c-8.9,0-12.68-3.64-12.68-12.62q-.06-100.08,0-200.16c0-8.73,4.06-12.64,12.82-12.65q48.87,0,97.74,0c8.71,0,12.66,4,12.67,12.8Q509.77,326.41,509.73,376.33ZM407.52,284.55V468.19h81.24V284.55Z"/><path class="cls-2" d="M222.83,386.68q0,44.94,0,89.88c0,9.09-3.45,12.57-12.48,12.58q-49.09,0-98.19,0c-8.49,0-12.12-3.47-12.12-11.88q-.06-90.4,0-180.8c0-8.66,3.63-12.11,12.46-12.11q48.84,0,97.67,0c9.26,0,12.66,3.51,12.67,13ZM121.06,305.29V468.21h80.86V305.29Z"/><path class="cls-2" d="M304.86,448.39c-3.28,0-6.57.14-9.83,0-6.55-.33-11-4.87-10.76-10.81s4.48-9.68,11.06-9.76c6.38-.08,12.77-.1,19.15,0s10.79,4.36,10.84,10.09c.05,5.49-4.13,10-10.12,10.43-3.43.27-6.89.05-10.34.05Z"/><path class="cls-2" d="M305,284.32c-3.45,0-6.9.09-10.35,0-5.86-.19-10-4-10.33-9.44s3.29-10.47,8.89-10.85a165.51,165.51,0,0,1,23.25,0c5.65.41,9.3,5.6,8.83,10.9-.49,5.46-4.59,9.19-10.45,9.37C311.52,284.4,308.24,284.32,305,284.32Z"/><path class="cls-2" d="M448.22,427.8c3.47,0,6.94-.12,10.4,0,5.4.22,9.25,3.79,9.8,8.86.58,5.35-2,10.41-7.29,10.88a143.51,143.51,0,0,1-26.3-.09c-5.15-.49-7.73-5.76-7.07-11.06a9.81,9.81,0,0,1,9.55-8.57C440.94,427.67,444.59,427.8,448.22,427.8Z"/><path class="cls-2" d="M448.46,305c3.63,0,7.28-.2,10.9.05a9.61,9.61,0,0,1,9.09,9c.47,5.31-2.34,10.31-7.54,10.72a160.13,160.13,0,0,1-25.82,0c-5.08-.42-7.87-5.6-7.34-10.89A9.9,9.9,0,0,1,437,305c.35,0,.69-.06,1-.06h10.39Z"/><path class="cls-2" d="M161.38,345.7c-3.62,0-7.25.15-10.86,0a10.05,10.05,0,0,1-9.66-9.09c-.54-4.82,2.64-10.25,7.71-10.66a158.9,158.9,0,0,1,25.72,0c5.05.42,8.28,6,7.67,10.69a10.24,10.24,0,0,1-9.71,9.09c-.34,0-.68.05-1,.05h-9.84Z"/><path class="cls-2" d="M161.44,427.79c3.45,0,6.91-.1,10.36,0A10.25,10.25,0,0,1,182,437c.58,4.87-2.95,10.45-8.23,10.87a153.65,153.65,0,0,1-24.74,0c-5.32-.44-8.73-5.94-8.15-10.91.62-5.21,4.68-8.89,10.23-9.09C154.54,427.69,158,427.79,161.44,427.79Z"/></svg>