<svg id="Layer_1" data-name="Layer 1" xmlns="http://www.w3.org/2000/svg" viewBox="0 0 712 712"><defs><style>.cls-1{fill:#236fb4;}.cls-2{fill:#069647;}.cls-3{fill:#02994a;}</style></defs><path class="cls-1" d="M298.22,413.92c-25.65-2-41.28-18.87-41.29-43.83,0-17.88-.21-35.77,0-53.65.62-43.49,21-74.26,60.22-92.8q1.17-.55,2.31-1.14c.12-.06.19-.23.6-.74-21.1-15.08-31.92-35.48-29.94-61.63,1.34-17.75,9.39-32.48,22.79-44.19,27.51-24,69.95-20.57,93.68,7.59,23.34,27.7,21.66,72.65-14.31,98l28.07,16.51a29.39,29.39,0,0,0,2.41-2c9.87-9.83,19.8-19.6,29.47-29.63a10.57,10.57,0,0,0,2.72-6.62c.21-19.26.09-38.52.13-57.78.05-24.12,17.92-41.95,42.07-42s48.51,0,72.76,0,41.94,17.92,42,42.07c0,11,.08,22,0,33a41,41,0,0,1-40.53,40.41q-49.78.18-99.59-.05a10.79,10.79,0,0,0-8.51,3.57c-10.33,10.53-20.87,20.87-30.65,30.6,5.43,10,11,19.07,15.38,28.66,5.11,11.19,7.08,23.24,7,35.6-.06,18.74,0,37.49,0,56.23,0,24.95-15.6,41.77-41.28,43.8v5.87c0,51.59-.19,103.18.11,154.77.09,15.61-5.13,27.71-19.65,34.3-14.13,6.42-26.8,2.82-38.13-7.85-1.42,1.15-2.81,2.34-4.27,3.46-10.79,8.29-22.58,10-34.82,4.09s-18.72-16-18.77-29.62c-.13-35.08,0-70.16,0-105.24v-6.57c-1.8,1.63-2.91,2.56-3.93,3.58-11.44,11.42-23,22.76-34.2,34.39a12,12,0,0,0-3.06,7.5c-.25,19.25-.09,38.52-.15,57.78-.08,23.37-18.16,41.37-41.61,41.42q-36.9.09-73.8,0c-23.37-.06-41.34-18.14-41.43-41.6,0-11.18-.08-22.36,0-33.53a41,41,0,0,1,40.57-40.36q49.8-.17,99.59.05a10.82,10.82,0,0,0,8.5-3.59c15.34-15.54,30.91-30.87,46.19-46.48a12.38,12.38,0,0,0,3.16-7.46C298.47,430.64,298.22,422.41,298.22,413.92ZM413.9,396.87c14.19-.2,24.54-10.75,24.65-25.24q.24-28.36,0-56.75A80.56,80.56,0,0,0,437,299.53c-9-43.95-46.71-71.34-91.32-66.59-36.51,3.89-68.24,34.76-71.08,71.34-1.79,23.08-1.27,46.39-.92,69.58.2,13.3,11.65,23.32,24.72,22.84V290.14h16.32v6.28q0,138.79,0,277.59c0,1.9-.1,3.8.07,5.68a16.86,16.86,0,0,0,14.75,15.53c6.72.91,14.48-3.57,16.82-10.26a30.07,30.07,0,0,0,1.37-9.6q.1-94.17.05-188.33v-5.91h16.48V574.49c0,1.72-.08,3.44.07,5.15a16.87,16.87,0,0,0,16.26,15.68c8.36.14,15.66-6.52,16.63-15.28a53.55,53.55,0,0,0,.1-5.67q0-139,0-278.11v-6H413.9Zm-58.08-181.3c27,.13,49.67-22.42,49.71-49.49,0-26.85-22.16-49.26-49.1-49.57s-49.74,22.11-50,49.22S328.73,215.43,355.82,215.57ZM471.7,199c33.92,0,67.25.34,100.56-.18,13-.19,22.7-10.87,23.12-23.9.36-11.33.33-22.69,0-34C595,127.26,584.6,116.74,571,116.59q-37.37-.42-74.75,0c-13.07.13-23.85,9.67-24.33,22.67C471.16,158.94,471.7,178.69,471.7,199ZM240.37,513.41a5.87,5.87,0,0,0-1.41-.55c-32.82,0-65.64-.28-98.46,0-13.36.14-23.54,10.87-23.9,24.27-.3,11.16-.27,22.34,0,33.5.31,13.65,10.57,24.36,24.19,24.55q37.64.51,75.27,0a24.24,24.24,0,0,0,24.23-23.94C240.67,552.07,240.37,532.83,240.37,513.41Z"/><path class="cls-1" d="M190.54,281.6a90.66,90.66,0,0,1-90.5-91c0-50.36,40.69-90.68,91.38-90.6,50,.07,90.31,40.84,90.24,91.22C281.59,241.25,240.87,281.64,190.54,281.6Zm-8.2-163.93c-26-.71-55.64,25-63.42,54.69-8.7,33.2,7.26,68.64,38,84.42,29.34,15.06,67.58,8.49,87.57-15.3l-26.23-19.67c-15.38,11.8-31.58,14.24-48.29,4.49-15.05-8.78-22.05-22.71-20.12-39.94,2.17-19.32,14.08-31,32.49-36.3Zm72.5,110.66c13-24.07,14.15-48,1.66-71.77-12-22.79-31.28-35.64-57.15-39.47V150c27.78,10,37.43,28.21,29.89,56a4.87,4.87,0,0,0,1.42,4.14C238.38,216.13,246.27,221.92,254.84,228.33ZM191.1,166.05c-13.29-.17-24.75,11-25,24.37s11.25,25.15,24.76,25.14a24.76,24.76,0,0,0,.25-49.51Z"/><path class="cls-2" d="M512.73,471.63h16.4v73.82h16.6V422.39h16.59V545.53h16.42V405.8h16.39V545.64h16.5v16.23h-181V546.06h16V463.54h16.4v81.92h16.61V447.13h16.4v98.23h16.61Z"/><path class="cls-2" d="M430.47,595V579.22h148V595Z"/><path class="cls-2" d="M611.63,595.21H595.91v-16h15.72Z"/><path class="cls-3" d="M578.69,133.38v15.87H488.56V133.38Z"/><path class="cls-3" d="M488.38,182.17V166.33h57.1v15.84Z"/><path class="cls-3" d="M562.56,182.2V166.48h16V182.2Z"/><path class="cls-2" d="M223.61,562.6v15.85H133.4V562.6Z"/><path class="cls-2" d="M223.62,529.66v15.86h-57.1V529.66Z"/><path class="cls-2" d="M133.31,545.49v-15.8h15.9v15.8Z"/></svg>