<svg id="Layer_1" data-name="Layer 1" xmlns="http://www.w3.org/2000/svg" viewBox="0 0 712 712"><defs><style>.cls-1{fill:#1d5688;}.cls-2{fill:#069647;}</style></defs><path class="cls-1" d="M374.27,6.6c9.85,2.17,19.87,3.79,29.54,6.59,68.94,19.91,113,64.78,132.68,133.6,11,38.59,4.93,75.92-8.6,112.77-21.28,58-49.31,112.72-80.34,165.92-26,44.53-53.22,88.31-80.06,132.33-6.66,10.93-16.12,10.93-22.91.3-46-72-90.12-145.1-127.63-222-15.54-31.84-29.4-64.34-39.72-98.37-14.22-46.91-7.83-91.55,15.18-133.62,27.7-50.66,70.81-81.76,127.39-93.94,5.42-1.16,10.83-2.4,16.25-3.6ZM355.92,532.49c1.88-2.89,3.44-5.07,4.79-7.37,31.09-53.11,63-105.78,93-159.5,22.59-40.45,42-82.56,56.49-126.78,8.44-25.75,11.49-51.71,5.72-78.41-18.46-85.4-98.83-142.34-185.1-128C270,42.53,228,77.09,204.54,133.61c-12.64,30.49-15.25,62.13-5.77,94.52a536.2,536.2,0,0,0,40.3,99.6c25.84,49,53,97.33,80.21,145.59C330.52,493.26,343.35,512.3,355.92,532.49Z"/><path class="cls-2" d="M131.23,496.81,356,678.71,580.74,496.86c-6.3-4.39-12.2-8.54-18.14-12.62q-40.2-27.58-80.41-55.17a33.92,33.92,0,0,1-5.85-4.64c-4-4.37-4.68-9.42-1.16-14.29,3.4-4.71,8.14-6.47,13.78-4.05a35.14,35.14,0,0,1,5.89,3.37q54,37,108,74.06c11.93,8.19,12.18,15.58.91,24.7q-118.51,95.91-237,191.83c-8.86,7.17-12.6,7.12-21.52-.09Q228,605.13,110.8,510.32c-14.57-11.79-14.49-17.93.81-28.44q53.12-36.5,106.33-72.84a33.1,33.1,0,0,1,5.23-3.19c5.77-2.56,11.7-.75,14.89,4.38,3,4.86,2.18,10.66-2.59,14.7A127.09,127.09,0,0,1,225,432.48q-43.31,29.7-86.64,59.37C136.29,493.24,134.29,494.66,131.23,496.81Z"/><path class="cls-2" d="M426,193.43c-.12,37.95-32.2,69.75-70.29,69.66-37.68-.09-69.95-32.45-70-70.16,0-37.37,32.71-70.1,70.1-70.11C394,122.8,426.15,155.16,426,193.43Zm-116.37-.33c.05,25.53,20.88,46.53,46.23,46.61s47.22-21.93,46.78-47.05a46.71,46.71,0,0,0-46.86-45.95A46.06,46.06,0,0,0,309.67,193.1Z"/></svg>