<svg id="Layer_1" data-name="Layer 1" xmlns="http://www.w3.org/2000/svg" viewBox="0 0 712 712"><defs><style>.cls-1{fill:#236fb4;}.cls-2{fill:#069647;}</style></defs><path class="cls-1" d="M348.06,544.69v66.88H100c.7-10.19,1.35-20.22,2.09-30.24q2.89-39.3,5.85-78.59c1.32-17.44,2.12-34.94,7.15-51.89a6.87,6.87,0,0,0-1.25-5.34c-16.83-21.25-17.9-47.37-2.52-69.72q12.86-18.66,26-37.1c13-18.21,15.84-37.72,8.83-59-4.37-13.3-9.11-26.73-11.25-40.48-5.07-32.53,4.13-62.27,23.41-88.19,29.26-39.33,69.48-56.26,117.75-48.85,48.1,7.38,80.51,35.9,97.5,81.58q14.75,39.61.55,79.54a211.18,211.18,0,0,0-8.62,30.07c-3,15.39,1.18,29.64,9.91,42.46s17.7,25.33,26.56,38c16.23,23.19,16.3,46.34.36,69.85a5.2,5.2,0,0,0-.48,4.41c7.48,14.46,15.16,28.82,22.94,43.49,1.37-.82,2.54-1.44,3.62-2.2,13.38-9.33,26.79-18.61,40-28.14a8.48,8.48,0,0,0,3.21-5.6c.7-15,10.63-25.15,25.62-25,4,0,6-2,8.14-4.39,6.53-7,14.1-12,24.06-12.23,13.65-.3,25.13,6.84,30.43,18.87s2.77,25.42-6.75,35.17c-8.41,8.6-17,17-25.49,25.54-21,21-42.53,41.57-62.94,63.16-30,31.72-76.05,26.74-103.4,1.84C356.91,554.51,353,549.9,348.06,544.69ZM215.8,183.2v16c-11.18,2.87-16.11,8-16.16,17.34-.13,24.74-.29,49.48.06,74.22.28,20.46,14.59,37.21,34.79,39.75,12,1.52,24.33.93,36.51.95,26.36.07,44-17.55,44.09-43.78q.06-24.75,0-49.49c0-11.42-3.75-17-14.48-21.05a53.22,53.22,0,0,1-22.76-16.29c-8-9.86-12.29-21.07-12.21-33.95h16.28c1.63,18,10.73,29.71,27.52,35.88,13.75,5.06,22.06,17.73,22.1,32.31,0,18.39.21,36.78,0,55.16-.31,23.18-11.2,40.12-31.3,51.34-1.6.9-3.26,1.69-6.46,3.35,2.85,2.13,4.57,4.36,6.69,4.86,37.69,8.87,65.37,30.59,83.54,64.63,2.49,4.67,4.95,9.35,7.68,14.51.84-1.4,1.43-2.19,1.83-3.07,6.58-14.2,5-27.71-3.75-40.44-9.72-14.15-19.89-28-29.36-42.31C349.73,327,345.54,309,349.16,290c2.19-11.54,6.06-22.81,9.81-34,7-20.73,7.32-41.36.47-62.12-13.81-41.84-42-68.21-85.57-75.29-40.11-6.51-74.08,7.06-99.52,38.79-18,22.46-27.12,48.67-23,77.75,1.84,13.09,6.23,25.94,10.45,38.56,9,26.9,5.52,51.66-10.88,74.73-9,12.59-18,25.16-26.56,38-9.23,13.76-9.4,28.09-1.7,42.75.61-.37,1-.48,1.17-.74a13.91,13.91,0,0,0,1-1.77c19.37-37.78,49.29-63.13,89.62-76.36,2.2-.73,3.79-3.31,6.28-5.58-3-1.52-4.48-2.26-6-3.06-18.91-10.29-30.5-26-31.32-47.59-1-26.77-.47-53.6-.17-80.4C183.43,197.08,198.83,182.82,215.8,183.2Zm41.58,316.54c-18.09-16.45-30.55-35.79-37-58.88-3.6-12.84-4.54-26-4.28-39.24.22-11.25,0-22.5,0-34.14-1.29.38-1.93.53-2.55.76-47.13,18.3-75.6,52.34-85.63,101.8-.27,1.36,1.16,3.79,2.48,4.65,10.65,6.91,21.47,13.57,32.25,20.27,1.09.68,2.31,1.17,4.17,2.09V447.2h16.34V595H331.59V447.25h16.66V497.8l46.27-28.94c-11.68-20.88-22-42.07-34.9-61.62-14.17-21.54-35.4-34.37-61.06-40.85,0,2.44,0,4.45,0,6.45-.33,17.16.44,34.43-1.26,51.45C294.29,454.41,279.8,479.06,257.38,499.74Zm90.19,18.17c8.58,9.76,16,19.56,24.77,27.92,20.46,19.46,56.84,24.95,80.73-1.15,7.42-8.1,15.5-15.59,23.27-23.37q32.25-32.25,64.46-64.53c6.79-6.84,6.88-15.86.56-22-6.13-6-14.86-5.68-21.66.78-2.86,2.73-5.39,5.85-8.48,8.26a13,13,0,0,1-7,2.94c-14.92.35-16,1.18-15.83,16.33a8,8,0,0,1-3.9,7.53c-18.07,12.48-36,25.13-54,37.72L402.28,528l-9.47-13.54,18.33-13.1L401.86,484ZM166.26,595.18a12.54,12.54,0,0,0,.34-1.88c0-24.39.09-48.79-.11-73.18,0-1.7-1.69-4-3.24-5-11.24-7.27-22.64-14.29-34-21.36-1.07-.67-2.27-1.14-3.73-1.85-2.57,34.71-5.09,68.86-7.63,103.27Zm66-198.1h50.15c-1.88-16.54,2.81-33.14-3.6-49.06h-43C229.46,363.94,234.14,380.54,232.27,397.08Zm49.36,17.14H233a102.19,102.19,0,0,0,24.35,61.57C272.38,457.51,280.35,437.39,281.63,414.22Z"/><path class="cls-1" d="M232.86,314.85V298.47h27.88c13.69,0,18-3.23,21.75-16.22h15.73c1,15.74-12.8,31.57-29,32.47C257.26,315.37,245.25,314.85,232.86,314.85Z"/><path class="cls-1" d="M249.22,166.93c-1.16,16.47,2.22,31.13,13.91,43.06L251.31,221.7c-14.81-15.35-20.4-33.62-18.4-54.77Z"/><path class="cls-1" d="M232.56,240.86a8.22,8.22,0,1,1-7.94-8.36A8.07,8.07,0,0,1,232.56,240.86Z"/><path class="cls-1" d="M290.32,248.93a8.22,8.22,0,1,1,8.22-8.08A8.05,8.05,0,0,1,290.32,248.93Z"/><path class="cls-2" d="M455.31,380.91c-11.13,0-21.59,0-32,0-15.16-.05-25.67-10.43-25.68-25.46q-.06-48.7,0-97.41c0-15.09,10.47-25.54,25.59-25.54q81.69,0,163.38,0c14.82,0,25.38,10.48,25.41,25.2q.06,49,0,97.93c0,14.73-10.58,25.23-25.36,25.27-19.07.05-38.15.52-57.2-.21-9.15-.35-15.94,1.84-21.82,9-5.22,6.34-11.54,11.76-17.37,17.6-6.45,6.47-14,8.47-22.6,5.18-7.91-3-12.27-10.23-12.31-19.58C455.3,389.12,455.31,385.36,455.31,380.91Zm16.46-16.46c0,7.68-.24,14.86.1,22,.16,3.48-2.27,8.75,2.38,9.9,2.33.58,6.17-3.1,8.7-5.52,8-7.58,15.49-15.61,23.49-23.14a12.17,12.17,0,0,1,7.47-3.11c23.35-.23,46.72-.13,70.08-.14,8.68,0,11.52-2.78,11.53-11.3q0-46.38,0-92.76c0-8.63-2.8-11.44-11.39-11.44H425.42c-8.6,0-11.38,2.8-11.38,11.45q0,43.28,0,86.57c0,16.95.54,17.48,17.72,17.48Z"/><path class="cls-2" d="M530,315.54v32.21H513.61v-82c9.74,0,19.62-1.13,29.14.24,17.11,2.48,25.54,22.21,16.46,37-1.64,2.66-2,4.36-.23,7.22a23.82,23.82,0,0,1,3.6,10.51c.51,8.86.17,17.77.17,26.93H546.19V328.07C546.19,316.29,542.85,313.57,530,315.54Zm.29-17.2c5.65,0,11.6,1.77,14.59-4.21a10.17,10.17,0,0,0-.39-8.51c-3.28-5.22-8.9-3.64-14.2-3.4Z"/><path class="cls-2" d="M479.88,265.61h16.21v81.94H480.26v-32.2H463.69v32.26H447.48V265.85h15.84v32.2h16.56Z"/></svg>