<svg id="Layer_1" data-name="Layer 1" xmlns="http://www.w3.org/2000/svg" viewBox="0 0 712 712"><defs><style>.cls-1{fill:#236fb4;}.cls-2{fill:#069647;}</style></defs><path class="cls-1" d="M154.86,428.44H268c13.16,0,18.4,4.23,21.06,17,6.56,31.34,34.92,54.22,67.17,54.18a68.73,68.73,0,0,0,67.08-54.3c2.65-12.54,7.9-16.86,20.63-16.86H558c-2.3-11.36-4.44-22.09-6.65-32.81-3.39-16.48-6.6-33-10.31-49.4a43,43,0,0,0-42.19-33.59c-31.33-.09-62.65,0-94,0-7.06,0-12.36-3.22-15.4-9.41-3-6-2.7-12.48,2-17.32,2.88-3,7.45-6,11.3-6,34.59-.41,69.23-1.23,103.76.19C539.09,281.39,567,307.71,574,341q16.78,80.5,33.09,161.13c2.16,10.71,4.76,21.56,4.93,32.38.59,38.1-28,70.52-65.74,75.61a96.5,96.5,0,0,1-12.81,1q-177.36.08-354.72,0c-38.45,0-69-24.47-77.31-61.87-3-13.4-.76-26.58,2-39.74,11-53.17,22.22-106.3,32.83-159.55,4.08-20.52,11.48-38.83,28-52.46,13.41-11.07,28.71-17.63,46.21-17.77,32.36-.27,64.71-.2,97.07-.15,9.87,0,16.89,7,17,16.31s-7.24,16.71-17.17,16.73c-30.63.07-61.27,0-91.91,0-23,0-39.79,13.21-44.69,35.71-5.55,25.49-10.6,51.09-15.83,76.66A20.33,20.33,0,0,0,154.86,428.44Zm409.8,33.24h-6c-33.21,0-66.42.08-99.63-.09-4.21,0-6.12,1.17-7.78,5.23-15.82,38.81-44.79,61.31-86.36,65.43-46.13,4.58-87.95-22.74-104.33-66.34-1.25-3.35-2.83-4.32-6.28-4.3-34.07.13-68.14.07-102.21.08-1.36,0-2.72.14-4.2.22-.49,1.59-1.06,3-1.37,4.53-3.73,18.07-7.3,36.17-11.17,54.21-4.91,22.82,3,42.08,21.4,51.92,7.68,4.1,15.92,4.86,24.42,4.86q174.74-.06,349.47,0c2.23,0,4.47-.15,6.7-.14,22.67.08,46.41-21.88,40.23-52.53-1.86-9.22-3.67-18.44-5.56-27.65C569.61,485.38,567.15,473.69,564.66,461.68Z"/><path class="cls-2" d="M372.65,160.74v40.43q0,65.82,0,131.64A16.47,16.47,0,0,1,340.39,338a25.21,25.21,0,0,1-.72-7.11q-.06-81.84,0-163.66v-6.8c-8.89,9.67-16.88,18.34-24.84,27q-21.1,23-42.18,46.07c-5.19,5.68-11.51,7.47-18.68,4.86-11.17-4.06-14.39-17.52-6.24-26.67,12.71-14.26,25.73-28.24,38.62-42.34q27.85-30.48,55.71-61c9.13-10,19-10.07,28.13-.11q46,50.31,91.91,100.62c2.79,3.07,5.42,6.9,6.43,10.82,2,7.71-1.8,14.62-8.6,18.05a16.12,16.12,0,0,1-19.38-3.49c-10-10.65-19.83-21.51-29.71-32.29Q393,182.63,375.26,163.21C374.72,162.61,374.09,162.1,372.65,160.74Z"/><path class="cls-2" d="M339.65,419c0-5.5-.08-11,0-16.5a16.48,16.48,0,0,1,32.95-.16q.21,16.74,0,33.5a16.48,16.48,0,0,1-32.94.16C339.54,430.35,339.65,424.68,339.65,419Z"/></svg>