<svg id="Layer_1" data-name="Layer 1" xmlns="http://www.w3.org/2000/svg" viewBox="0 0 712 712"><defs><style>.cls-1{fill:#069647;}.cls-2{fill:#236fb4;}</style></defs><path class="cls-1" d="M552.33,403.72c10.55-5.9,21.89-7.84,33.88-4.46a41.48,41.48,0,0,1,22.37,15.43c5.11,6.8,4.63,9.62-2.36,14.43q-46.07,31.67-92.16,63.3c-17.64,12.12-35.24,24.3-52.94,36.33-21.12,14.34-44.9,19.37-69.62,15.86-33-4.69-65.67-11.48-98.47-17.44-7.37-1.34-14.28-.66-20.72,3.44-12.91,8.23-25.81,16.48-38.84,24.51-2.77,1.71-3.19,3.31-2.24,6.29,4.1,13,8,26.05,11.9,39.11,2.51,8.36.23,11.52-8.29,11.53H132.9c-6.73,0-8.74-1.93-9.56-8.65q-8.22-67.54-16.48-135.09-3.36-27.45-6.69-54.91c-.87-7.17,1.49-9.83,8.86-9.84,22.34,0,44.69.07,67-.08,5.06,0,7.84,1.95,9.2,6.8,2.34,8.29,5,16.48,7.63,25,8.78-2.12,15.58-6.73,21.55-12.52,13.87-13.47,29.52-23.9,48.39-28.85,25.59-6.72,50.54-4.72,74.25,7.15a85.72,85.72,0,0,0,41.63,9.18c12-.32,24.55,2,35.83-.86s21.32-10.63,31.79-16.45c18.3-10.17,36.13-10,53.7,1.8a5.67,5.67,0,0,0,4.82.52c17.5-9.37,32.65-5.6,46.2,7.88A5.1,5.1,0,0,0,552.33,403.72ZM226,543.93l39.22-24.75c7.93-5,16.57-7.29,25.86-5.83,11.83,1.85,23.58,4.19,35.38,6.23,23.77,4.11,47.45,9.09,71.38,11.92,18.42,2.19,36.87-1.36,52.46-11.85,47.31-31.83,94.11-64.42,141.1-96.72,1.32-.91,2.57-1.93,3.9-2.93-9.88-9.61-22.45-11.7-34.38-5.38-25.73,13.65-51.34,27.54-77,41.39a6.32,6.32,0,0,0-3,2.89c-3.25,9.22-3.3,9-13.27,8.56-29.29-1.26-58.6-4.12-87.92-.25-4.42.58-7.81-.88-8.35-5.8s2.53-7.05,6.88-7.62a98.17,98.17,0,0,1,13.21-1.23c21,.15,42,.53,63.07.8,3.77.05,7.55,0,11.37,0-2.16-16.15-17.79-29.55-34.78-29.75-19.94-.23-39.89,0-59.84-.11-3.31,0-6.63-.3-9.93-.61-11.8-1.1-22.16-6.36-32.84-11-32.66-14-63.88-10.84-92.55,10.14-12.68,9.27-22.78,22.14-39.14,26.34ZM228,598.58a6.4,6.4,0,0,0,0-1.43q-26.91-88.5-54-176.95c-.44-1.43-3-3.05-4.62-3.14-6.63-.35-13.29-.15-19.93-.15H114.31c7.43,60.89,14.78,121.2,22.16,181.67ZM538.78,411.1a6.15,6.15,0,0,0-.58-1.31,6.47,6.47,0,0,0-1.23-1.11c-7.87-5.45-15.88-6.95-24.77-1.95-13.89,7.8-28,15.17-41.94,22.68l8.05,14.35Zm-96.39-.28c5.36,2.68,10.41,5.26,15.52,7.71.9.43,2.3.8,3.06.4,9.15-4.78,18.22-9.72,27.74-14.85C475.38,395.84,462.42,397.91,442.39,410.82Z"/><path class="cls-2" d="M444.27,338.11c0,4.72.07,8.74,0,12.77-.14,6.7-2.37,9-9.07,9-11.45.09-22.9,0-34.35,0H278.94c-9.46,0-11-1.53-11-10.89,0-3.47,0-6.94,0-10.95H160.46c-8.93,0-10.65-1.73-10.65-10.62,0-14-.18-28.09.07-42.12.44-24.05,21.57-45.63,45.44-47a11.43,11.43,0,0,1,10.13,4.13c12.76,14.1,32.62,14.48,45.32.54,4.16-4.57,8.56-5.52,13.8-4.14,5.66,1.48,11.15,3.59,17.37,5.65a58.3,58.3,0,0,1,30.37-17.51c7.61-1.64,13.61-1.25,19.69,5.39,13.5,14.77,37.33,14.18,50.71-.85,4.91-5.51,9.88-6.11,16.21-4.67,12.79,2.92,19.89,6.87,30.64,17.15,7.83-2,15.19-3.95,22.62-5.62,3.91-.88,6.9.69,9.64,3.85,12.46,14.35,33,14.7,45.67.55,3.82-4.25,7.86-4.95,12.81-4.15A50,50,0,0,1,562,287.48c.09,13.3,0,26.6,0,39.9,0,9-1.68,10.72-10.56,10.72H444.27Zm-161.76,7.77H430.16c0-23.77.87-47.23-.3-70.58-.84-16.68-15.72-31.39-32.08-34.62a8.09,8.09,0,0,0-6.17,1.59c-21,19.25-48.66,19.11-69.83-.38a7.38,7.38,0,0,0-5.7-1.6c-17.89,4-31.35,14.69-33,32.8C280.84,297,282.51,321.31,282.51,345.88Zm-8.59-89.72c-5.46-1-9.62-6.82-15.47-1.52-18,16.3-42.37,16.06-60.63-.23a8,8,0,0,0-6.16-1.62c-14.21,3.24-24.52,12.12-26.89,26.2-2.46,14.69-1.64,29.95-2.26,45H267.42C269.91,301.38,263.66,278.41,273.92,256.16Zm274.75,68.09c0-13.27.58-26-.15-38.73A35.44,35.44,0,0,0,523,253.38c-2.23-.63-5.72-.34-7.36,1C495.92,271,473.19,271,454,254c-1.09-1-3-2-4.16-1.67-4,.94-7.84,2.47-11.83,3.8,10.53,22.41,4.18,45.6,6.79,68.11Z"/><path class="cls-2" d="M407.76,161.24c-1.25,8.89-1.41,18.11-4,26.6-6.71,22.2-29.38,37-51.36,34.76C327.26,220,308,202,306.11,177.64c-1-12.59-1.39-25.69.94-38,4.76-25.09,28.4-41.75,53.13-39.51,25.95,2.36,45.54,23.34,46.5,49.88.13,3.68,0,7.38,0,11.07ZM318.58,161l.57,0c0,4.24-.12,8.49,0,12.73.65,19.52,16.34,34.8,36.15,35.3a36.34,36.34,0,0,0,37.38-33.92,235.41,235.41,0,0,0,0-27.09c-1.05-18.93-15.25-32.83-34.65-34.53-16.86-1.47-33.63,10.53-37.7,27.74C318.89,147.67,319.13,154.44,318.58,161Z"/><path class="cls-2" d="M529,182.24c.51,10.35.4,20.59-4.53,30.2a45,45,0,0,1-85.26-19.66c-.05-9.56-.45-19.29,1.1-28.65,3.62-21.89,24-37.43,46.12-36.31A44.86,44.86,0,0,1,528.93,169C529.28,173.37,529,177.82,529,182.24ZM516,183h-.34c0-3.7.08-7.39,0-11.08-.4-16.44-13-29.24-29.93-30.48-15.37-1.12-30.3,10.24-32.27,25.86a124.09,124.09,0,0,0-.23,29.21c1.79,15.8,14.28,26.48,30,27.29,14.7.77,28.38-9.68,31.66-24.83C516,193.77,515.68,188.3,516,183Z"/><path class="cls-2" d="M181.88,182.56c.77-7.12.74-14.44,2.44-21.33,5.19-21.08,26.51-35.75,47.4-33.3,23.28,2.73,40.72,21.29,41,44,.1,9.56.49,19.29-1.05,28.65-3.67,22.29-23.85,37.74-46.38,36.63a44.91,44.91,0,0,1-42.34-41.34c-.34-4.4,0-8.84,0-13.27Zm14.06-.57h.24c0,3.51-.05,7,0,10.53.29,16.89,12.62,29.76,29.83,31.17,15.47,1.28,30.49-10.3,32.44-26.3a124.63,124.63,0,0,0,.08-29.21c-1.81-15.64-14.7-26.39-30.35-26.85a31.36,31.36,0,0,0-31.39,25.22C195.8,171.56,196.19,176.84,195.94,182Z"/><path class="cls-2" d="M178.31,592.11c-11.83-.07-20.8-9.22-20.74-21.15a21.08,21.08,0,0,1,20.75-20.8,21.41,21.41,0,0,1,21.2,21.09A21,21,0,0,1,178.31,592.11Zm.17-13.3a7.55,7.55,0,0,0,7.38-7.45,7.35,7.35,0,0,0-7.77-7.5,7.63,7.63,0,0,0-7.23,7.61A8.08,8.08,0,0,0,178.48,578.81Z"/></svg>