<svg id="Layer_1" data-name="Layer 1" xmlns="http://www.w3.org/2000/svg" viewBox="0 0 712 712"><defs><style>.cls-1{fill:#236fb4;}.cls-2{fill:#069647;}</style></defs><path class="cls-1" d="M148.72,702.63c-10.81-3.11-21.35-6.67-29.86-14.62-11.6-10.83-17.93-24-18.74-39.87-.13-2.48-.11-5-.11-7.45q0-285,0-570c0-31.8,19.89-56.09,49.6-60.6a77,77,0,0,1,11.47-.66q95.79-.06,191.59,0c13.37,0,19.74,6.32,19.75,19.9q.07,96.81,0,193.62v8.77H588.92c16.91,0,22.87,5.86,22.87,22.49,0,129.08-.28,258.16.21,387.24.11,29.24-17.74,54.18-45.29,60a9.13,9.13,0,0,0-2.29,1.27Zm190-659.2c-2.21-.17-3.73-.39-5.26-.39q-87.66,0-175.33,0a25.54,25.54,0,0,0-7.28,1.06c-12.15,3.67-17.47,12.39-17.47,28.5q0,284-.24,568c0,19,11.66,28.61,28.48,28.55q194.3-.66,388.59,0c18.33.07,28-12.56,28-27.9-.36-122.53-.2-245.07-.2-367.6v-7.84h-8.83c-69.95-.16-139.91-.23-209.86-.65A28.15,28.15,0,0,1,344.94,261c-5.76-3.71-6.25-10.44-6.24-17q.07-96.12,0-192.26Z"/><path class="cls-2" d="M508.39,78.71V9.77H542V78.56h69.2v33.58H542.35v69.28H508.59v-69H440.92V78.71Z"/></svg>