<svg id="Layer_1" data-name="Layer 1" xmlns="http://www.w3.org/2000/svg" viewBox="0 0 712 712"><defs><style>.cls-1,.cls-2,.cls-4{fill:none;stroke-miterlimit:10;}.cls-1{stroke:#2470b4;}.cls-1,.cls-2{stroke-width:8px;}.cls-2{stroke:#00994a;}.cls-3{fill:#069647;}.cls-4{stroke:#069647;stroke-width:7px;}</style></defs><path class="cls-1" d="M215.34,216.08c1.4-7.35,6.48-8.53,12.8-8.32,8.33.27,8.19,0,11.23-7.88,2.15-5.59,4.58-11.1,7.26-16.46,1.35-2.7,1.71-4.75-1-6.63a4.14,4.14,0,0,1-.38-.35c-11.59-10.56-10.45-13.38,0-23.36,9.31-8.92,18.26-18.22,27.42-27.3,5.33-5.28,9.21-5.24,14.59,0,7.47,7.23,7.43,7.13,16.89,2.92a106.05,106.05,0,0,1,14.42-5.48c3.74-1,5-2.9,4.57-6.55a46.9,46.9,0,0,1,0-7.21c.25-5.54,3.2-8.73,8.7-8.77q24-.19,48,0c5.75,0,9.55,3.37,8.73,9.06-1.36,9.46,2.17,14,11.35,15.82,4.75,1,9.2,3.75,13.59,6.08,2.56,1.36,4.31,1.32,6.25-.93A65.87,65.87,0,0,1,426,124.5c3.7-3.32,8.09-3.62,11.55-.24q17.7,17.31,35.05,35c3.36,3.43,3.51,8.55-.48,11.4-8.54,6.08-8.5,12.4-3.12,20.5,2.41,3.62,3.44,8.21,4.73,12.47.91,3,2.24,4.78,5.71,4.26,1.68-.25,3.44.08,5.15-.06,6.09-.5,10.5,1.5,12,8.27q26.16,0,52.16,0a57.92,57.92,0,0,1,8.75.29c13.15,2,21.32,12.06,21.32,26.15q0,131.43,0,262.87v24.12c3.09,0,5.62,0,8.15,0,13,.28,23.48,9.05,24.57,21.84A113.49,113.49,0,0,1,611,577c-2.92,20-19.4,33.92-39.63,34.52-.69,0-1.38,0-2.06,0q-213.25,0-426.49,0c-19.95,0-36.6-11.37-40.71-29.88-2.3-10.32-2.28-21.53-1.21-32.13,1.21-12,11.64-19.72,23.86-20,2.54-.06,5.09,0,8.33,0V244.27c0-18.63,9.62-28.19,28.35-28.19C179.29,216.07,197.18,216.08,215.34,216.08Zm281.19,49.31c-1.45,6.46-5.83,8.51-11.93,8-1.88-.15-3.81.17-5.67-.07-3-.38-4.21,1.07-5.05,3.75-1.37,4.41-2.42,9.18-4.9,12.95-5.33,8.09-5.46,14.39,3.09,20.51,4.16,3,3.82,8.07.17,11.79q-17,17.29-34.3,34.28c-3.89,3.82-8.21,3.57-12.33-.23a68.36,68.36,0,0,1-5.83-5.84c-1.92-2.26-3.68-2.31-6.25-.94-4.39,2.33-8.84,5.11-13.59,6.07-9.17,1.87-12.72,6.35-11.36,15.81.82,5.69-3,9-8.73,9.07q-24,.18-48,0c-5.48-.05-8.45-3.26-8.7-8.78a46.9,46.9,0,0,1,0-7.21c.41-3.66-.85-5.5-4.58-6.55a107.39,107.39,0,0,1-14.42-5.48c-9.44-4.21-9.39-4.31-16.89,2.93-5.38,5.2-9.24,5.23-14.59-.06-9.16-9.07-18.12-18.36-27.43-27.28-10.29-9.85-11.7-12.71,0-23.35a4.17,4.17,0,0,1,.37-.36c2.73-1.88,2.26-3.95,1-6.64-2.78-5.69-5.83-11.41-7.46-17.46-1.55-5.79-4.23-7.74-10-7-6.4.8-12.31-.08-13.71-7.85H182.65V496.14h346.7V265.39ZM297.9,545.59H127.69c-1,0-2.06-.05-3.09,0-5.13.35-8.24,3.39-8.44,8.55-.17,4.46,0,8.93,0,13.4,0,18.11,9.88,27.94,28.09,27.94H568.61c17.07,0,27.13-10.16,27.16-27.32q0-5.67,0-11.34c0-8.64-2.68-11.25-11.49-11.25q-82.6,0-165.22,0c-1.67,0-3.34.16-5.5.27,0,3,.08,5.74,0,8.44-.47,13.42-10.6,24-24,24.17-22.37.29-44.75.25-67.12,0A23.8,23.8,0,0,1,299.05,559C298.21,554.83,298.29,550.5,297.9,545.59ZM372.53,364.1v-9.8c0-4.75,2.28-7.89,6.91-9a113.37,113.37,0,0,0,34.13-14.18c3.87-2.41,7.67-1.95,10.79,1.29,2.36,2.46,4.3,5.31,6.14,7.64l24.74-25c-2.13-1.77-4.76-3.73-7.11-6-3.43-3.28-3.91-7.11-1.38-11.19a111.31,111.31,0,0,0,14-33.6c1.13-4.84,4.34-7.21,9.34-7.16,3.18,0,6.36,0,9.46,0V224.06c-3.26,0-6.16-.06-9.05,0-5.2.14-8.61-2.2-9.79-7.27a110.87,110.87,0,0,0-14-33.6c-2.53-4.09-1.95-7.93,1.5-11.17,2.38-2.23,5-4.17,7.32-6l-24.45-24.52c-1.77,2-3.59,4.29-5.66,6.33-4.59,4.53-7.19,4.39-12.9,1.81-10.6-4.78-21.38-9.19-32.24-13.33-5.44-2.07-7.62-4.19-7.74-10,0-3,0-6,0-9.1H339.35c0,3.54,0,6.77,0,10-.08,4.49-2.24,7.59-6.66,8.64a117.81,117.81,0,0,0-34.6,14.39c-3.89,2.39-7.66,1.64-10.76-1.6-2.26-2.35-4.23-5-6-7.11L256.73,166c2,1.68,4.54,3.68,6.88,5.91,3.61,3.43,4,7.39,1.39,11.63a107.86,107.86,0,0,0-13.79,33.13c-1.16,5-4.48,7.5-9.7,7.39-3-.06-6.07,0-9.07,0v33.1c3.23,0,6,0,8.72,0,6.14.1,8.2,2.26,10.35,8,4,10.71,8.39,21.32,13.15,31.73,2.73,6,2.93,8.51-1.9,13.26a65.18,65.18,0,0,1-6,4.8l24.33,24.22c1.59-1.7,3.5-3.9,5.59-5.94,4.4-4.28,7-4.18,12.48-1.73q16.17,7.23,32.73,13.52c4.79,1.82,7.57,4.45,7.48,9.7-.05,3,0,6.08,0,9.39Zm-58.1,181.69c0,2.92-.08,5.31,0,7.69.21,5.73,3.29,9,9.05,9,21.68.09,43.37,0,65.06,0,4.56,0,7.76-2.28,8.62-6.63.63-3.22.12-6.66.12-10.07Z"/><path class="cls-2" d="M166.13,117.1c0-3.12-.66-5.89.16-8.12,1-2.79,2.77-6.24,5.16-7.35,2.12-1,6.48-.13,8.25,1.58,14,13.45,27.72,27.23,41.35,41.08,3.58,3.64,3.44,7.73-.25,11.47-13.53,13.71-27.11,27.38-41,40.71-1.79,1.72-5.7,2.27-8.36,1.81-3.76-.64-5.24-4.08-5.31-7.85,0-2.37,0-4.74,0-7.77h-5.94q-24.78,0-49.57,0c-7.76,0-10.57-2.82-10.59-10.56q0-21.9,0-43.81c0-8.51,2.62-11.17,11-11.18q24.53,0,49.06,0Zm36.56,32.19"/><path class="cls-2" d="M545.77,117.1h41.44c4.82,0,9.64,0,14.46,0,7.14.07,10.16,2.93,10.18,9.92q.09,22.93,0,45.87c0,6.72-3.07,9.71-9.85,9.74-16.69.06-33.38,0-50.08,0h-6.15c0,2.85,0,5.2,0,7.55,0,3.76-1.38,7.32-5.13,8-2.78.49-6.87-.12-8.76-1.92-13.78-13.2-27.22-26.76-40.63-40.34-4-4.07-3.94-8.11.14-12.23q20-20.16,40.13-40.11c2.61-2.59,6.08-4.48,9.2-2,2.35,1.88,3.8,5.23,4.92,8.19C546.36,111.72,545.77,114.15,545.77,117.1Z"/><path class="cls-3" d="M397.66,441.8V473h-13.3a32.51,32.51,0,0,1-.32-3.28c0-19.14,0-38.29,0-57.43,0-3.9,1.19-7,5.13-8.09s6.6,1.12,8.32,4.59q9.32,18.66,18.65,37.33c.68,1.38,1.43,2.72,2.55,4.82,1.16-2.05,2-3.34,2.65-4.69,6.17-12.3,12.36-24.59,18.45-36.94,1.77-3.59,4.14-6.22,8.43-5.15s5.3,4.37,5.29,8.41c-.07,20,0,40,0,60.33H439.92v-31l-.85-.24c-.64,1-1.36,2-1.9,3-3.79,7.49-7.6,15-11.3,22.53-1.5,3-3.32,5.45-7.1,5.47s-5.67-2.27-7.17-5.34c-4.22-8.57-8.55-17.09-12.83-25.63Z"/><path class="cls-3" d="M376.35,473H363.56c-4.19-21.64-11.44-28.71-28.52-27.41v27.32H321.23v-4.74q0-27.39,0-54.77c0-7.34,2.2-9.48,9.67-9.49q11.75,0,23.51,0c10.39,0,18.34,5.37,21.2,14.18,2.93,9.05-.17,17.6-8.64,23.89-.46.34-.87.75-1.28,1.11C374.71,458.5,376.88,464.54,376.35,473ZM335,431.73c7.45,0,14.41.16,21.36-.06,3.82-.12,6.19-2.52,6.62-6.3s-1.51-7.17-5.14-7.45c-7.57-.59-15.22-.18-22.84-.18Z"/><path class="cls-3" d="M313.65,424.22h-13c-1.23-6.32-6.05-7.19-11.73-6.78-3,.22-6.09,0-9.14.06-4.89.15-7.62,2.72-7.68,7.53q-.17,13.49,0,27c.05,4.84,2.75,7.46,7.6,7.6,3.77.11,7.55,0,11.33,0,6,0,7.38-1,9.66-6.77h13c-.18,9.49-6.13,17.94-15.2,19.32a85.26,85.26,0,0,1-23.34.26c-9.76-1.26-16.36-9.67-16.58-19.51q-.33-14.34,0-28.7A20.64,20.64,0,0,1,278.86,404c4.93-.16,9.88-.18,14.81,0C304.89,404.38,313.27,412.87,313.65,424.22Z"/><path class="cls-4" d="M355.61,155.46a85.33,85.33,0,0,1,85.62,86c-.19,46.5-38.85,84.41-85.94,84.27-46.37-.14-84.84-38.8-84.65-85.08C270.83,193.64,309,155.37,355.61,155.46Zm39.13,135.83c.54-13.26-3.33-23.78-12.15-32.47-2.35-2.31-4-2.47-7-.72-12.69,7.57-25.82,7.8-38.59.39-3.78-2.19-5.74-1.75-8.53,1.11-9.26,9.47-11.9,20.95-11.53,33.74.12,4.12,1.39,6.39,5,8.25,21.35,11.17,42.87,11.72,64.77,1.73C392.4,300.71,397.11,297.74,394.74,291.29Zm-38.38-89.44a23.28,23.28,0,1,0,22.88,23.82A23.35,23.35,0,0,0,356.36,201.85Z"/></svg>