<svg id="Layer_1" data-name="Layer 1" xmlns="http://www.w3.org/2000/svg" viewBox="0 0 712 712"><defs><style>.cls-1{fill:#236fb4;}.cls-2{fill:#069647;}</style></defs><path class="cls-1" d="M199.26,429.1V364.48H166.82v-16.4h32.39V331.34c-9.05,0-17.94-.1-26.82.06-3,.06-4.53-.58-5.19-3.94-2-10.42-9-17.93-16-25.28-8.44-8.8-17.4-17.17-25.26-26.46-26.45-31.31-32.62-67-18.65-105.05,14.14-38.45,42.74-61.83,83.12-68.84C248.81,91.69,304.06,132,313.67,190.61c.45,2.69.69,5.42,1.07,8.45h82.85c4.12-36.28,21.23-64.72,52.71-83.78,22.31-13.51,46.72-17.82,72.33-13.45a107.3,107.3,0,0,1-8.21,212.65c-29.53,2.8-56.11-5.7-78.83-25-22.52-19.09-34.86-43.72-37.87-73.32H315.29c-1.37,6.76-2.4,13.54-4.15,20.13-4.74,17.87-14.75,32.73-27.27,46-8.83,9.38-18.07,18.38-26.67,28-7,7.85-8.48,12.57-8,20.7h99.23c8.3-22.74,22-33.1,43-32.61,17.78.42,32,12.44,38.55,33h49.6v16.31H429.91c-2.88,11.5-8.85,20.61-18.72,26.87a41.74,41.74,0,0,1-25.56,6.24c-17.15-1-31.22-13.35-37-32.7h-99.4v17.38c9.07-2.46,17.18-1,24.22,4.85,14.62-10.65,32.86-7.3,40.45,10.77,5.65.27,11.23-.31,16.36.94,10.6,2.57,17.62,12.26,17.68,23.2.08,17.35,0,34.71,0,52.06v6.06h49.61c4-35.85,20.58-63.91,51-83.09,22.54-14.21,47.4-18.92,73.59-14.57a107.3,107.3,0,0,1-7.78,212.73c-29.53,2.8-56.09-5.72-78.81-25-22.53-19.1-34.82-43.74-37.87-73.31H347.25a114.08,114.08,0,0,1-15.1,42.59c-.79,1.33-.65,3.31-.66,5,0,19.42,0,38.83,0,58.25,0,15.45-10.39,25.81-25.87,25.82q-48.45,0-96.92,0c-15.14,0-25.6-10.44-25.63-25.52,0-18.91.05-37.81-.1-56.71,0-2-.71-4.62-2.08-5.79-15.52-13.14-24.45-29.76-27.23-49.84-3-21.73-10.29-42.19-18.38-62.47-6.3-15.79,4.5-31,21.41-30.51,15.28.47,27.25,7.57,34.2,21.06,3.52,6.82,4.44,15,6.51,22.53.42,1.55.71,3.14,1,4.71ZM240,303.9c11-11.36,21.62-22.28,32.13-33.35,20.8-21.89,30.35-47.72,25-77.76C288,141.12,240.63,109,189.17,118.91c-54.56,10.47-87.07,71.56-65.31,122.64,6,14,15.75,25.21,26.2,36,8.24,8.5,18,16.27,23.68,26.29,6,10.62,13.47,12.29,23.63,11.06.34,0,.76.12,1,0,1.19-.7,2.78-1.2,3.43-2.26C211.32,297.17,225.33,294,240,303.9Zm-7.43,126.2V345c0-7.05.12-14.09-.05-21.13-.13-5.22-3.64-8.88-8.12-8.95s-8,3.59-8.33,8.75c-.1,1.36,0,2.74,0,4.12q0,50,0,100c0,10.56-5.94,18.06-15,19-9.95,1-17.19-4.76-19.41-15.66-1-4.87-1.49-9.85-2.66-14.67-2.37-9.68-8.46-16-18.26-18.1-2.87-.6-6.76-.47-9,1.05-3.38,2.26-1,5.89.21,8.85a281.11,281.11,0,0,1,18.9,66.59,55.07,55.07,0,0,0,21,36,8.89,8.89,0,0,0,5,1.94q59.28.15,118.56,0c1.59,0,4.06-1.42,4.62-2.79,3.42-8.37,7.85-16.69,9.19-25.45,2-13,1.92-26.3,2.26-39.48.33-12.71.14-25.43,0-38.15-.05-5.6-3.47-9.39-8.13-9.46s-8.12,3.71-8.35,9.24c-.09,2.06,0,4.13,0,6.19V430H299a4.64,4.64,0,0,1-.44-1.2q-.06-17.77-.09-35.56c0-8.23-2.85-12.44-8.34-12.38s-8.19,4.22-8.2,12.52V430H265.73c-.09-1-.2-1.67-.2-2.34,0-12.54.07-25.09-.07-37.63-.06-5.47-3.82-9.28-8.46-9.11s-7.81,3.81-8,9.09c-.15,4.29,0,8.59,0,12.88V430.1ZM561.29,277.83c28.59-20.39,41.21-62.81,29.65-98.15-12.29-37.58-47.75-63.15-87.05-62.78-39.12.37-74.29,26.6-85.79,63.82-12,38.7,4,77.55,30,97a61,61,0,0,1,23.59-35.23c-6.51-6.31-8.76-13.57-8.23-21.92.24-3.76-.19-7.57.11-11.33.26-3.32-.93-5.14-3.77-7-13.72-8.82-17.83-27.64-7.22-39.94a123.34,123.34,0,0,1,28.5-24.45c13.88-8.47,30.26-5.37,45.37-3.63,17.24,2,28.88,13,34,29.73,5.09,16.54,1,31.2-11,43.53-2.44,2.51-3.82,4.9-3.55,8.5.75,9.77.09,19.25-8.27,26.49A60.21,60.21,0,0,1,561.29,277.83ZM199.49,529.54c0,18.8,0,37,0,55.21,0,7.56,3.07,10.57,10.71,10.57q46.91,0,93.8,0c8,0,11-3,11-10.82q.06-25.51,0-51c0-1.31-.23-2.61-.35-3.94Zm362.21,12c29-21.09,41.11-63.79,28.55-99.91a91.2,91.2,0,0,0-88.55-60.7c-39.52,1.36-74.26,28.89-84.53,66.87-10.54,39,7,76.62,30.64,93.58,2.49-4.16,2.48-7.69-.36-12.17-13.38-21.11-19.75-44.15-16-69.16,5.09-33.85,34-60.57,67-62.55,36.3-2.19,67.92,19.21,77.46,53.37,7.83,28.05,1,54-13.83,78.19C559.33,533.47,558.89,537,561.7,541.51ZM459.48,516.9l17.94-14.63c-12.3-10.5-15-24.61-13.85-40,.14-1.74,1.05-4.05,2.38-5q13.73-9.57,27.85-18.55a5.69,5.69,0,0,1,4.95-.11q22.43,13.13,44.57,26.72a6.28,6.28,0,0,1,2.48,4.35,41.22,41.22,0,0,1-.57,9.2c-1.51,9.52-6.61,17.13-13.07,23.5l17.9,14.6c9.06-16.67,14.35-34.34,11.47-53.59-3.32-22.26-15.85-37.77-36.81-45.67s-40.7-4.16-57.67,10.47c-17.94,15.45-22.71,35.61-18.69,58.31C450.29,497.38,453.74,507.67,459.48,516.9Zm39.24-345.51c2.66,3.93,5.07,7.62,7.62,11.23,6.12,8.65,14.26,14.22,24.83,15.83,1.5.23,3.63,0,4.64-.89,7.91-7.15,11.83-15.87,9.28-26.68-2.52-10.65-9.09-18.23-19.82-19.82a121.91,121.91,0,0,0-30.18-.43c-4.71.48-10.14,4-13.21,7.73a38.13,38.13,0,0,1-12.22,10.3,11.28,11.28,0,0,0-3.37,17.56c2.35,2.8,4.65,4,8.27,1.37C482.34,182,490.44,176.9,498.72,171.39Zm-20,351.13c-8.57,7.66-13.46,16.07-14.39,26.47-.13,1.5,1.1,4,2.38,4.61,25.32,11.56,50.76,11.55,76.12,0,1.14-.52,2.63-2.15,2.55-3.15-.86-11.08-5.59-20.2-14.72-27.94l-25.94,26.27ZM414,339.66a25.13,25.13,0,0,0-24.56-24.78c-13.3-.13-24.7,11-24.91,24.42s11.31,25.1,24.8,25.05A25.18,25.18,0,0,0,414,339.66ZM494,194.92c-14.09,7.54-14.09,7.54-14.09,23.22,0,1.72-.07,3.43,0,5.14.29,5.67,3.39,9,9,9.06,10.45.16,20.91.14,31.37,0,5.07-.07,8.4-2.87,8.93-7.5a84.4,84.4,0,0,0,.06-9.4C515,212.3,512.25,210.68,494,194.92Zm10.53,301.41A25.24,25.24,0,0,0,527.87,480c1-2.71.7-4.3-2-5.84-8.88-5.13-17.62-10.51-26.42-15.79a7.86,7.86,0,0,0-1.78-1c-3-.84-17.66,10.18-17.76,13.3A25.19,25.19,0,0,0,504.56,496.33Zm-8.1-246.22c-17.47,3.5-30.63,17.85-32.24,34.82-.13,1.38.47,3.69,1.43,4.18a75.52,75.52,0,0,0,30.43,8.42,15.9,15.9,0,0,0,.37-2.32C496.46,280.3,496.46,265.39,496.46,250.11Zm16.76,47.49a77.72,77.72,0,0,0,30.22-8.31,4.45,4.45,0,0,0,1.85-3.5c-.6-16.6-15.11-32.68-32.07-35.55Zm-9,227.12,11.1-10.12c-7.45-2.1-14.1-2.56-20.93.27Z"/><path class="cls-2" d="M512.66,347.62H496.84V331.7h15.82Z"/><path class="cls-2" d="M529.75,331.61h15.81v15.91H529.75Z"/><path class="cls-2" d="M169.87,237.3l10.68-10.42c5.49,5.82,11.06,11.73,17.16,18.22,18.1-25.81,35.29-50.33,52.78-75.29l13.62,9.54-62.68,89.58Z"/><path class="cls-2" d="M397.44,339.41a8.22,8.22,0,1,1-8.29-8A8.09,8.09,0,0,1,397.44,339.41Z"/></svg>