<svg id="Layer_1" data-name="Layer 1" xmlns="http://www.w3.org/2000/svg" viewBox="0 0 712 712"><defs><style>.cls-1{fill:#236fb4;}.cls-2{fill:#069647;}.cls-3{fill:#fff;}</style></defs><path class="cls-1" d="M318.24,619.25c-2.4-2.15-4.86-4.24-7.18-6.48s-4.48-4.66-6.92-7.22c-6.32,3.73-12.44,7.41-18.65,11-3.58,2-7.25,2-10.53-.67-3.06-2.5-4.3-5.94-2.91-9.63a11.93,11.93,0,0,1,4.29-5.44c7.87-5.12,15.9-10,24-14.77,5-3,8.84-2.34,12.87,1.88s8.12,8.8,12.17,13.2c7,7.57,6.75,11.79-.95,18.18Z"/><path class="cls-1" d="M472.75,286.4c-.68,54-6.64,90.45-18.33,126-7.63,23.19,2,47.73,23.3,59.93,1.19.68,2.39,1.34,3.52,2.11,4.63,3.2,6.06,8.11,3.67,12.44-2.5,4.54-7.6,6-12.86,3.38a67.7,67.7,0,0,1-28.66-26.44c-10.67-18.06-13.05-37.22-6.58-57.25,10.95-33.92,17-68.63,17.23-104.32.41-71.6-44.91-130.9-114.69-147.33-48.78-11.49-93,.11-131.06,32.92-25.64,22.09-41.53,50.18-47.76,83.4-2.14,11.39-2.51,23.11-3.67,34.67-2,20.44-21.3,39.33-41.85,40.95a30.06,30.06,0,0,1-7.58,0c-4.72-.88-7-4.37-6.89-8.89.08-4.32,2.58-7.4,6.93-8.45,3.14-.76,6.45-.89,9.56-1.76,13.83-3.92,22-15,22.3-30.81.45-26.28,6.39-51.18,18.64-74.41,19.24-36.53,48-62.76,86.35-78.3a159.78,159.78,0,0,1,79-11C369.12,138.45,407,159.05,435.9,195,461.19,226.4,473.13,262.66,472.75,286.4Z"/><path class="cls-1" d="M511.8,301.8A395.19,395.19,0,0,1,492,423.89a34.33,34.33,0,0,1-1.75,4.8c-2.16,4.29-6.48,6.17-10.67,4.81-4.67-1.52-7.42-5.44-6.26-10.28,1.92-8,4.48-15.75,6.66-23.65,10.21-37.05,15-74.81,12.87-113.18-2-35.11-13.64-67.14-34.1-95.8-23.93-33.5-55.51-56.87-94.58-69.8A182.28,182.28,0,0,0,276,114c-45.93,7.59-83.93,29.4-113.86,64.82-22.43,26.55-36.47,57.23-41.36,91.8-1.15,8.11-1.48,16.33-2.19,24.51-.1,1.19-.1,2.4-.29,3.58-1,6.48-4.49,9.62-10.1,9.2-5.19-.38-8.55-4.13-8.21-10.4.59-10.92.9-22,2.77-32.7,7.46-43,26.59-80.29,57.43-111.22a202.88,202.88,0,0,1,99.59-55.28c39.73-9.22,78.91-7,117,7.54,62.77,23.93,104.5,68.39,125.71,131.93A181.42,181.42,0,0,1,511.8,301.8Z"/><path class="cls-1" d="M433.93,308.26a371.54,371.54,0,0,1-17.81,94.63C404,440.06,421.3,484.66,455,504.51c2.51,1.48,5.07,2.88,7.48,4.49,4.93,3.29,6.4,8.36,3.87,12.79s-7.52,5.8-12.92,3.13a98,98,0,0,1-30.94-23.41c-27.34-31.4-35.43-67.26-22.93-107a334.51,334.51,0,0,0,15.27-93.8c1.13-53.92-39.65-101.85-92.88-109.17-58-8-109.93,28-122.5,85.32A128.47,128.47,0,0,0,197,301.29c-1.07,45.53-38.43,83.65-84.12,85.49-7.29.3-11.9-3-12.23-8.78-.32-5.45,3.83-9.1,10.93-9.63,33.07-2.45,57.8-22.79,65.11-54.41,1.9-8.24,1.75-17,2.5-25.46,5.13-58,46.88-104,104.19-114.79C351,160.92,419,207.52,430.88,275.11,432.79,286,433,297.2,433.93,308.26Z"/><path class="cls-1" d="M394.44,309c-1.53,28-7.28,55-15.68,81.51-17.4,55,5.67,116.72,54.72,147.17,1.89,1.18,3.86,2.24,5.63,3.57,4.75,3.54,5.8,8.53,2.87,13a8.77,8.77,0,0,1-12.65,2.36c-10.18-7.17-20.92-13.93-29.77-22.56-31.12-30.37-46.24-67.82-44.76-111.25a153.76,153.76,0,0,1,6.82-38.68c8.22-27.21,13.2-54.73,13.78-83.17.74-36.45-27.2-68.34-63-71.27-37.1-3-70.35,23.11-75.19,59.44-1.46,11-1.33,22.24-3.19,33.16-8.75,51.19-50.29,92.58-101.48,101.6a153.39,153.39,0,0,1-15.24,2c-6.87.51-11.38-3-11.71-8.61-.31-5.3,3.73-9.16,10.35-9.71,16.23-1.32,31.71-5.28,45.88-13.44,30.83-17.74,49.4-44.12,54.74-79.38,1.89-12.48,1.55-25.4,4.46-37.59,9.09-38.14,45.36-68.07,90.56-66,37.29,1.67,73.09,31.8,80.4,69.91C393.69,290.17,393.65,299.68,394.44,309Z"/><path class="cls-1" d="M354.52,300.4c-1.91,54.45-17,99.47-45.7,139.91-26.77,37.78-61.44,66-104,84.21C192,530,178.4,533.66,165,537.78c-6,1.84-11.08-1.07-12.3-6.08-1.35-5.54,1.58-9.66,7.83-11.88,16.39-5.8,33.33-10.5,48.93-18C246.6,484.09,276,457,298.62,422.71c16.87-25.57,28.36-53.47,33.53-83.63a274.25,274.25,0,0,0,3.43-42.38c.2-15-13.86-27.65-29.37-27.94s-29.49,12.55-30.15,27.84c-.87,20.25-3.11,40.22-10.36,59.34C247.64,403.59,215,437,167.21,454.78c-12.84,4.77-26.73,6.78-40.21,9.75a9.14,9.14,0,0,1-11.24-7.18c-.92-5.45,1.89-9.46,7.71-10.79,11.3-2.58,23-3.94,33.86-7.82,51.07-18.29,83.23-54.2,96-106.88,2.87-11.85,3.38-24.35,4.27-36.6,1.33-18.19,14.69-36.29,31.65-41.83,20.27-6.63,41-1,53.56,14.11C351.93,278.58,355.32,291.21,354.52,300.4Z"/><path class="cls-1" d="M325,487.27c-6.24,5.59-12.65,11-18.7,16.8A282.6,282.6,0,0,1,195.84,570a23.88,23.88,0,0,1-4,1c-5.09.68-9.13-1.79-10.36-6.23-1.29-4.65.51-9,5.25-10.94,7.26-3,14.82-5.22,22.09-8.18,43.91-17.88,80.41-45.63,109.76-82.83.53-.67,1.07-1.34,1.61-2,2.66-3.32,5.94-5.09,10.32-4.06,4.22,1,5.87,4.17,7.14,7.93,4,12,7.29,24.25,12.47,35.69,12,26.42,30.42,47.77,53.89,64.78,1.53,1.1,3.09,2.15,4.59,3.3,5.38,4.12,6.45,9,3,13.69-3.1,4.24-8.68,5.12-13.57,1.29-9.56-7.47-19.38-14.76-28-23.21a178.09,178.09,0,0,1-43.87-69.14c-.51-1.44-1.12-2.86-1.71-4.27a3.48,3.48,0,0,0-.58-.7Z"/><path class="cls-1" d="M315.08,309.49c-2.39,38.79-14.13,74.4-36.14,106.42-22.25,32.36-51.34,56.83-87.74,71.69-14.91,6.09-30.84,9.74-46.41,14.12-6.79,1.9-11.67-.42-13.35-5.24-2-5.79,1.45-11,8.41-12.66,7.31-1.7,14.78-2.9,21.91-5.14,70.43-22.19,114-69.47,130.65-141.26,2.75-11.89,3.07-24.37,4.19-36.6.64-6.94,4-11.21,9.53-11s9,4.49,8.95,11.5C315.07,304,315.08,306.75,315.08,309.49Z"/><path class="cls-1" d="M312.17,552c-11.48,7.82-22.5,16.28-34.43,23.2-14.46,8.39-29.6,15.61-44.6,23-5.45,2.71-11,.58-13.08-4.18s-.14-10,5.62-12.56c21.06-9.23,41.27-20,59.95-33.4,7.08-5.1,13.84-10.65,20.71-16,7.36-5.75,12.58-5.14,17.41,2.74a217.54,217.54,0,0,0,47.47,54.91c3.75,3.09,6.35,7,4.13,11.6-1.29,2.62-4.77,5.42-7.53,5.74s-6.52-1.66-9-3.67a217.33,217.33,0,0,1-42.61-46.36q-1.6-2.32-3.29-4.59C312.74,552.22,312.35,552.13,312.17,552Z"/><path class="cls-2" d="M497.15,202.88c6,1.21,12.21,1.87,18,3.72,36.89,11.75,59.92,36.5,67.94,74.47,1.77,8.37,1.57,17.2,1.86,25.83s.11,17.34,0,26c0,1.79.49,2.51,2.31,3,7.35,2.1,14.6,4.53,22,6.67,2.07.6,2.75,1.49,2.75,3.69q-.11,69.79,0,139.6c0,2.08-.68,2.86-2.57,3.52-19.84,7-40.27,11.54-61,14.86a362.44,362.44,0,0,1-69.93,4.65c-37.68-1.3-74.59-7.19-110.33-19.54-1.63-.57-2.61-1.08-2.61-3.17q.1-70.56.06-141.1c0-.4.05-.79.11-1.84,7.57-2.29,15.27-4.85,23.1-6.88,3-.78,3.83-2,3.78-5-.19-11.26-.13-22.52-.05-33.78.3-43.63,31.82-82.73,74.42-92.29,4.44-1,9-1.65,13.44-2.47Zm96.76,272.67c0-.84.1-1.43.1-2q0-57.24,0-114.5c0-2-.72-2.67-2.53-3.2a379.3,379.3,0,0,0-74.1-13.58,343,343,0,0,0-67.12,1,394.73,394.73,0,0,0-63.73,12.39c-2.55.73-3.09,1.86-3.09,4.29q.11,56.06.05,112.11v3.47a364.31,364.31,0,0,0,210.37.05ZM567.08,331c0-8.24.17-16.11,0-24-.2-7.25-.06-14.63-1.34-21.72-9.44-52.3-66.62-80.28-113.48-55.25-24.72,13.21-38.78,34.39-41.18,62.5-1,11.48-.43,23.09-.57,34.65,0,1.17,0,2.34,0,3.8,7.09-1.23,13.81-2.63,20.59-3.48,2.93-.37,3.38-1.47,3.39-4.11,0-10.65-.44-21.37.64-31.93,2.53-24.54,24.15-44.74,49-46.68a54.5,54.5,0,0,1,59.1,54.54c0,7.78.18,15.55-.08,23.32-.11,3.29.58,4.6,4.14,5C553.73,328.39,560.15,329.82,567.08,331Zm-42.26-6.26c0-10.13.75-20.12-.16-30-1.63-17.5-15.29-30.15-33.21-32-15.65-1.63-31.59,8.77-37,24.51-4.17,12.19-1.27,24.85-2.3,37.53A376.83,376.83,0,0,1,524.82,324.76Z"/><path class="cls-3" d="M593.91,475.55a364.31,364.31,0,0,1-210.37-.05V472q0-56.05-.05-112.11c0-2.43.54-3.56,3.09-4.29a394.73,394.73,0,0,1,63.73-12.39,343,343,0,0,1,67.12-1,379.3,379.3,0,0,1,74.1,13.58c1.81.53,2.53,1.21,2.53,3.2q-.09,57.26,0,114.5C594,474.12,594,474.71,593.91,475.55Zm-96.17-25.2c0-7.47.09-14.72-.06-22,0-2.35.58-3.57,2.86-4.66a26.87,26.87,0,0,0-17.2-50.48A27.09,27.09,0,0,0,462,396.19a26.79,26.79,0,0,0,15.2,27.64c2,.95,2.79,1.93,2.68,4.18-.21,4.48-.06,9-.06,13.45v8.89Z"/><path class="cls-3" d="M567.08,331c-6.93-1.2-13.35-2.63-19.85-3.33-3.56-.39-4.25-1.7-4.14-5,.26-7.77.1-15.54.08-23.32a54.5,54.5,0,0,0-59.1-54.54c-24.83,1.94-46.45,22.14-49,46.68-1.08,10.56-.62,21.28-.64,31.93,0,2.64-.46,3.74-3.39,4.11-6.78.85-13.5,2.25-20.59,3.48,0-1.46,0-2.63,0-3.8.14-11.56-.41-23.17.57-34.65,2.4-28.11,16.46-49.29,41.18-62.5,46.86-25,104,2.95,113.48,55.25,1.28,7.09,1.14,14.47,1.34,21.72C567.25,314.91,567.08,322.78,567.08,331Z"/><path class="cls-3" d="M524.82,324.76a376.83,376.83,0,0,0-72.65.06c1-12.68-1.87-25.34,2.3-37.53,5.39-15.74,21.33-26.14,37-24.51,17.92,1.87,31.58,14.52,33.21,32C525.57,304.64,524.82,314.63,524.82,324.76Z"/><path class="cls-2" d="M497.74,450.35H479.82v-8.89c0-4.49-.15-9,.06-13.45.11-2.25-.68-3.23-2.68-4.18A26.79,26.79,0,0,1,462,396.19a27,27,0,0,1,52.23-5.43,26.73,26.73,0,0,1-13.69,33c-2.28,1.09-2.9,2.31-2.86,4.66C497.83,435.63,497.74,442.88,497.74,450.35Zm0-50.66a9,9,0,1,0-9.05,8.87A9.26,9.26,0,0,0,497.74,399.69Z"/><path class="cls-3" d="M497.74,399.69a9,9,0,1,1-8.88-9.05A9.26,9.26,0,0,1,497.74,399.69Z"/></svg>