<svg id="Layer_1" data-name="Layer 1" xmlns="http://www.w3.org/2000/svg" viewBox="0 0 712 712"><defs><style>.cls-1{fill:#236fb4;}.cls-2{fill:#069647;}</style></defs><path class="cls-1" d="M100,549c.88-2.8,1.66-5.64,2.65-8.4,7.1-19.93,21.38-31.52,42.36-36,0-13.64,0-27.44,0-41.24,0-6.64,2.72-9.27,9.43-9.36,1.33,0,2.67,0,4,0H347.64V417.9c-4.42,0-8.7,0-13,0-6.9,0-9.23-1.87-10.74-8.51-2-8.75-4.07-17.48-5.84-26.27-.64-3.15-1.94-5.16-5.16-5.78a5.86,5.86,0,0,1-2.33-.87c-8.43-6.15-15.71-3.5-23.08,2.37-4.79,3.81-10.34,6.67-15.5,10-4.26,2.77-8.13,2.42-11.71-1.17q-16.08-16.1-32.17-32.17c-3.57-3.57-4-7.37-1.27-11.68,5.14-8,10.09-16.07,15.3-24,1.53-2.31,2.21-4.27.55-6.77a12.2,12.2,0,0,1-2-4.53c-1.35-8.77-7.34-11.44-15.18-12.54-6.56-.92-13-2.67-19.5-4.12-6-1.34-8-3.85-8-10.13q0-22,0-44c0-6.22,1.64-8.4,7.62-9.79,9.06-2.12,18.14-4.12,27.24-6.08,2.78-.59,4.78-1.59,5.41-4.79a19.54,19.54,0,0,1,2.8-6.9c3.32-5,2.52-9.12-1-13.86-4.83-6.55-8.79-13.73-13.24-20.56-2.8-4.32-2.33-8.08,1.26-11.66q16.11-16.05,32.17-32.17c3.62-3.63,7.49-3.86,11.71-1.17,8.14,5.18,16.23,10.46,24.51,15.41,1.48.89,3.83.64,5.72.42,1.42-.16,2.69-1.44,4.12-1.69,9.36-1.61,12.54-7.92,13.63-16.55.8-6.41,2.7-12.67,4-19,1-5,3.9-7.56,9-7.56q23,0,46,0c5.14,0,7.86,2.77,8.91,7.68,1.9,8.93,4.08,17.81,5.88,26.77.62,3.07,1.62,5.17,4.93,5.91a16.73,16.73,0,0,1,6,2.37c5.84,4.12,10.68,2.56,16-1.4,5.84-4.39,12.26-8,18.46-11.89,5.45-3.44,8.44-3.24,12.88,1.16q15.81,15.65,31.46,31.46c4.23,4.27,4.48,7.2,1.19,12.45-4.95,7.9-9.9,15.8-15.07,23.56-1.59,2.39-2,4.39-.33,6.78a7,7,0,0,1,1.25,2.7c1.58,10.27,8.52,13.62,17.87,14.72,6.24.73,12.34,2.61,18.51,4,4.75,1,7,3.95,7,8.86,0,15.16,0,30.32,0,45.49,0,5.69-2.21,8.17-8.15,9.51q-13.38,3-26.76,6c-.65.15-1.34.12-2,.33-3.55,1.22-9.42,18.11-7.39,21.32,5,7.88,10,15.72,15,23.61,3.41,5.42,3.14,8.4-1.29,12.86q-15.48,15.61-31.1,31.11c-4.58,4.54-7.37,4.82-12.84,1.38-7.89-5-15.65-10.15-23.66-14.9-1.63-1-4.27-.89-6.25-.45-2.55.57-4.82,2.48-7.36,3-6.28,1.21-8.3,5.27-9.24,11.06-1.25,7.7-3.23,15.28-5,22.89-1.28,5.67-3.93,7.77-9.81,7.85-4.16.05-8.33,0-12.49.07a7.17,7.17,0,0,0-1.3.3V454H554.62c10.47,0,12.27,1.77,12.27,12.05,0,12.81,0,25.62,0,38.35,36.11,8,48,37.93,44.56,60-4.3,28-27.12,46.75-54.8,45.68-26.39-1-48.41-21.77-50.59-47.68-2.37-28.17,15.49-51.44,44.55-57.68V470.27H364.18v34.38c16.44,3.13,29.38,11.66,37.83,26.36,6.65,11.58,8.42,24,5.86,37.12-5,25.5-28.28,43.1-55.47,41.88-25.18-1.13-47-22.07-49.28-47.41-2.35-25.6,13.27-51.66,44.63-58V470.35H161.29v34.29c19.51,4,33.67,14.75,41.07,33.39,11.37,28.64-4.56,61.16-34,69.92a53.22,53.22,0,0,1-67.26-39.23c-.28-1.27-.75-2.49-1.14-3.74ZM444.28,372.44c7.58-7.67,14.92-14.93,22-22.46.89-1,1-3.69.28-4.9-4.51-7.57-9.28-15-14.13-22.36-2.45-3.72-2.55-7.14-.56-11.2a129.15,129.15,0,0,0,7.91-18.79c1.8-5.91,5.16-8.67,11.08-9.75,9.08-1.66,18-4,27.11-6,0-10.74-.08-20.89.06-31,0-2.73-.93-3.63-3.58-4.16-8.63-1.72-17.16-3.94-25.79-5.69-4.44-.9-6.82-3.41-8.33-7.56a165.08,165.08,0,0,0-7.95-19.3c-2.52-4.92-2.39-8.9.67-13.41,5.3-7.84,10.22-15.92,15.49-24.21-7.64-7.6-15-15.08-22.61-22.26-.9-.84-3.7-.7-5,.06-7.42,4.44-14.68,9.16-21.93,13.88a10.31,10.31,0,0,1-10.79.87q-10.63-4.85-21.59-9c-3.8-1.44-6-3.68-6.81-7.73-1.77-8.62-4-17.15-5.69-25.78-.58-2.92-1.8-3.78-4.64-3.73q-13.5.21-27,0c-2.82,0-4.09.75-4.67,3.69-1.67,8.47-3.88,16.84-5.55,25.31-.92,4.66-3.53,7.07-7.86,8.64-6.69,2.43-13.31,5.14-19.74,8.2-4.39,2.09-8.11,2-12.14-.71-7.06-4.71-14.22-9.27-21.5-13.61-1.29-.77-4.09-1-5-.11-7.65,7.15-15,14.59-22.69,22.16,5.58,8.8,10.85,17.24,16.28,25.59,2.33,3.57,2.39,6.85.56,10.75-3.15,6.76-6,13.68-8.56,20.68-1.61,4.37-4.2,6.76-8.82,7.67-8.63,1.69-17.2,3.73-25.74,5.86-1.19.29-2.94,1.86-3,2.87-.21,10.63-.13,21.27-.13,32.12,9.73,2.15,19.1,4.36,28.54,6.23,5,1,7.69,3.75,9.36,8.49a178.28,178.28,0,0,0,8,19.28c2.14,4.39,2.13,8-.6,12.1-4.82,7.18-9.43,14.51-13.89,21.92-.7,1.17-.86,3.75-.09,4.56,7.32,7.69,14.89,15.13,22.48,22.74,8.82-5.58,17.27-10.86,25.62-16.29,3.42-2.22,6.6-2.31,10.32-.63,7.1,3.2,14.34,6.11,21.59,9,3.71,1.46,6,3.73,6.82,7.79,1.75,8.63,3.95,17.16,5.69,25.79.58,2.87,1.76,3.85,4.64,3.81q13.49-.21,27,0c2.85,0,4.08-.89,4.66-3.78,1.69-8.47,3.91-16.83,5.55-25.3.92-4.7,3.58-7.07,7.88-8.63a178.66,178.66,0,0,0,19.29-8c4.75-2.39,8.61-2.24,13,.71C427.63,362.09,435.73,367,444.28,372.44ZM153.05,594.05A36.88,36.88,0,1,0,116,557.42,37,37,0,0,0,153.05,594.05Zm202.89,0a36.88,36.88,0,1,0-37-36.7A37,37,0,0,0,355.94,594.05Zm202.87,0a37.05,37.05,0,0,0,37.09-37.14c-.11-20.09-17-36.74-37.17-36.62a36.88,36.88,0,0,0,.08,73.76Z"/><path class="cls-2" d="M356.14,181a78.73,78.73,0,0,1,78.76,79.17c0,43.19-35.74,78.86-78.9,78.76A79,79,0,1,1,356.14,181Zm-.55,141.64c33.73.62,62.47-27.35,63.27-61.58.8-33.74-27.12-63.35-60.32-64-36-.7-64.81,26.52-65.5,61.81C292.37,293.49,320.28,321.94,355.59,322.59Z"/></svg>