<svg id="Layer_1" data-name="Layer 1" xmlns="http://www.w3.org/2000/svg" viewBox="0 0 712 712"><defs><style>.cls-1{fill:#236fb4;}.cls-2{fill:#069647;}</style></defs><path class="cls-1" d="M612,574.06c-3.25,3.81-7.38,4.83-12.33,4.83q-243.73-.14-487.48-.08c-10,0-12.19-2.22-12.19-12.38q0-37.24,0-74.5c0-7.81,2.61-10.5,10.5-10.52,19.17-.06,38.33,0,57.5,0h5.05c0-4.31-.16-7.95,0-11.57.34-6.45,2.2-12.29,6.61-17.34,10.63-12.18,21.21-24.41,31.43-36.92A78.77,78.77,0,0,0,221,400.07c9.82-20.37,19.63-40.76,28.57-61.52,2.74-6.34,2.95-13.86,3.87-20.89,1.63-12.52,2.92-25.08,4.43-38.27C245,285.87,234.56,293.83,230,307.65c-6.89,20.71-15.08,40.84-25.79,59.92-6.57,11.72-20.46,15.3-30.37,6.85-3.52-3-5.77-8-7.45-12.49-1.84-4.92-1.89-10.49-3.54-15.52-2.27-6.94-1.23-13.12,1.57-19.71,6.43-15.13,12.63-30.39,18.3-45.83,6.19-16.89,18.65-27.59,33.62-36,4.18-2.36,8.71-1.06,10.92,2.65,2.31,3.87,1.1,8.46-3,11.23-3.74,2.5-7.63,4.77-11.24,7.43a41.82,41.82,0,0,0-14.51,18.69c-5.72,14.51-11.5,29-17.55,44.24,7.81,0,15,.13,22.26-.15,1.06,0,2.51-1.84,3-3.13,3-7.58,5.86-15.2,8.46-22.91a55.47,55.47,0,0,1,22.66-29.57,268.28,268.28,0,0,1,25.5-14.65c2.49-1.26,6.55-1.09,9.21,0,3.47,1.47,4,5.18,3.49,9.05-2.28,18.49-4.36,37-6.46,55.53a50.57,50.57,0,0,0,0,5.4h61.68c1.8-15.46,3.57-30.8,5.35-46.13.94-8.1,1.81-16.21,2.87-24.3.82-6.27,3.16-8.39,9.52-8.44,13.83-.1,27.68-.42,41.49.06,16.91.59,32.93-4.21,49.25-7.2,10.77-2,21.46-4.39,32.24-6.62V215.91c-14.17,2.87-28,5.5-41.77,8.5s-27.72,5-42,4.75c-30.83-.43-61.66.05-92.49-.22a70.3,70.3,0,0,0-35.36,8.89c-2.41,1.32-6,2.27-8.33,1.43s-4.92-4.09-5-6.4a10.09,10.09,0,0,1,3.93-7.69,74.08,74.08,0,0,1,36-12c.81,0,1.61-.18,2.34-.27-6.73-19.61-3.18-39.7-3.28-59.49-.06-11,9.66-19.34,21.39-19.87,12.47-.56,25-.49,37.48,0,10.72.4,18.1,7.2,20.38,17.42s-1.9,19.13-11,24.59c-1.35.8-1.94,2.9-2.83,4.43-.14.25,0,.66,0,1-.16,10.74,1.33,21.69-4.51,32,31.26.44,61.73,1.51,91.81-6.92,22.53-6.31,45.65-10.55,68.52-15.66,8-1.78,13.83.55,17.17,6.63s2.24,12.15-3.73,17.93c-11.15,10.77-22.27,21.57-33.59,32.15a16.11,16.11,0,0,1-7.3,3.84q-33.18,7-66.46,13.44a98.09,98.09,0,0,1-16.86,1.55c-13.8.21-27.6.07-41.78.07-2.42,21.13-4.8,41.88-7.28,63.5,6.6,0,12.84-.78,18.83.13,22.6,3.45,37.81,21.35,38.12,44.36.17,12.67,0,25.33,0,38v5.59c12.93,3.66,21.78,11.43,26.92,23.94q0-12,0-24a71.9,71.9,0,0,1,.17-7.49c.46-4.2,3-6.54,7.17-7a33.82,33.82,0,0,1,3.49-.09q79.76,0,159.5-.08c4.74,0,8.47,1.06,10.94,5.27v41c-3.2,2.95-6.45,6-11.27,3.73s-4.79-6.65-4.72-11.13c.13-7.44,0-14.88,0-22.47H447.17v143H596v-5.73c0-23.15.05-46.3,0-69.46,0-4.33.76-8.09,5.2-9.77,4.14-1.57,7.46,0,9.95,3.52.14.21.56.23.85.34ZM430.4,460.23H281.57V562.18H430.4ZM116.14,562.13H264.8V498.08H116.14ZM387.46,416.79c0-15.35.57-30.34-.15-45.26-.77-15.85-12.83-26.46-28.78-26.49-29.82-.06-59.65.06-89.48-.12-3.65,0-5.16,1.37-6.56,4.41-8.74,19-17.4,38.13-26.65,56.91a121.55,121.55,0,0,1-13.14,20.49c-7.21,9.29-15.17,18-23.65,27.95,9.59,0,18,.07,26.41-.09.9,0,2-1.18,2.65-2C245.69,429.86,266,409,275.43,380.92c.73-2.19,2-4.2,2.89-6.35,1.8-4.41,5.12-6.28,9.78-6.28,18.16,0,36.32,0,54.48.07a21.26,21.26,0,0,1,16.08,6.83c4.09,4.4,5.66,9.64,5.6,15.55-.08,8.61,0,17.22,0,26.05Zm-122.3,63.95c0-8.36,0-16.82,0-25.27,0-9.39,2.39-11.81,11.82-11.82q32.5,0,65,0h6.17c0-17.48,0-34.29,0-51.1,0-7.12-.81-7.91-8.18-7.92-14.33,0-28.66.21-43-.13-4.46-.1-6.53,1.42-7.94,5.43A140.64,140.64,0,0,1,261.78,436c-6.23,7.14-11.81,14.84-17.85,22.5a26.55,26.55,0,0,1,11.9,16.88C257.33,482.09,257.22,482.11,265.16,480.74Zm69.36-302.53H301.19c0,6.85-.52,13.49.12,20a16.63,16.63,0,0,0,33.11-.51C335,191.34,334.52,184.88,334.52,178.21ZM301.35,161.9c14.1,0,27.89.1,41.68-.06,3.83,0,6.18-2.28,6.19-6.37,0-4.3-2.56-5.83-6.44-5.84q-15.5,0-31,0C302.18,149.62,300.45,151.53,301.35,161.9Zm112,281.74c-4.09-7.19-9.46-10.44-16.6-10.61-7.32-.18-14.66,0-22,0H364.59c-.88,10.16-.44,10.65,8.58,10.66h40.15ZM239.85,481.39c-.11-6.74-3.6-10.38-9.87-10.43-12.46-.11-24.91,0-37.37,0a13.58,13.58,0,0,0-2.67.53c-.75,9.64-.51,9.9,8.69,9.91h41.22Zm-60.73-136.2c1,4.94,1.84,9.66,3.1,14.26a5.21,5.21,0,0,0,3.16,3.28,4.74,4.74,0,0,0,4-1.91c2.85-4.92,5.31-10.07,8.15-15.63ZM488,223l13.27-14.53L488,212.21Z"/><path class="cls-2" d="M477,364c1-6.07,2.52-13.74,3.51-21.47a8.3,8.3,0,0,0-1.89-6c-4.63-5-9.69-9.6-14.59-14.36s-6.44-10.43-4.22-16.86,7.05-9.35,13.53-10.21c6.76-.89,13.52-1.8,20.21-3.06a7.11,7.11,0,0,0,4.34-3.18c3.26-6,6.19-12.14,9.15-18.28s7.49-9.61,14.44-9.6,11.46,3.74,14.41,9.72S541.73,283,545,289a7,7,0,0,0,4.36,3.06c7,1.28,14.14,2,21.18,3.22,6.22,1,10.64,4.49,12.65,10.64,2,6,.46,11.2-3.83,15.58-4.89,5-10.18,9.62-14.86,14.8a9.85,9.85,0,0,0-2.15,6.91c.74,6.58,2.27,13.08,3.35,19.63,1,6.3-1,11.54-6.09,15.37s-10.77,4.19-16.45,1.36c-6.25-3.11-12.3-6.64-18.62-9.58a8.26,8.26,0,0,0-6.18-.05c-6.62,3.08-12.9,6.89-19.53,10C488.15,384.82,476.78,377.31,477,364Zm45.2-84.6c-5.32,8.28-9.08,19-16.63,24.52s-18.81,5.81-28.45,8.4a56,56,0,0,0,5.31,4.72c13.72,9.71,17.91,22.46,12.69,38.44-.86,2.65-1,5.54-1.62,9.2,4.26-2.51,7.65-4.28,10.79-6.41,11.28-7.66,22.5-8,33.91-.26,3.32,2.27,6.93,4.11,11.44,6.75-1.17-5.48-1.85-9.73-3-13.86-3.32-12.06-.07-21.92,9.44-29.93,3.52-3,6.83-6.17,10.83-9.81-6.34-.78-11.78-1.4-17.2-2.13-9.14-1.22-16.36-4.9-19.94-14.23C527.59,289.2,524.48,284,522.15,279.36Z"/></svg>