<svg id="Layer_1" data-name="Layer 1" xmlns="http://www.w3.org/2000/svg" viewBox="0 0 712 712"><defs><style>.cls-1{fill:#236fb4;}.cls-2{fill:#069647;}</style></defs><path class="cls-1" d="M100,468.06c3-6.43,8.08-8.46,15-8.35,16.82.26,33.65.08,50.49.08h6.14c0-2.62,0-4.73,0-6.84q.89-138.46,1.79-276.94c.05-8.89.93-17.62,5.14-25.69,10.48-20.1,27.23-29.92,49.7-30,47.16-.1,94.32,0,141.48,0,61.82,0,123.66-.75,185.46.31,31.57.55,56.46,22.43,56.66,55.67.33,54.65.1,109.31.08,164,0,9.15-4.39,13.37-14.11,13.41-22,.07-44,0-66,0H525v6.12c0,55.16.17,110.32-.22,165.47-.23,32.31-27.54,62-59.64,65.68a138.87,138.87,0,0,1-15.93.82c-92,.05-184-.13-276,.15-24.92.07-45.08-8.65-60.11-28.58A64.11,64.11,0,0,1,101,534.21a8.77,8.77,0,0,0-1-2.16Zm412.37-325H228.49c-20.14,0-32.38,12.16-32.52,32.27q-1,139-1.9,277.95c0,2,0,3.92,0,6.51H391.83c12.29,0,15.91,3.7,15.94,16.13,0,16.33-.59,32.7.34,49,1,18.45,10.72,32.14,27.48,39.8,17.38,7.94,34.12,5.65,49.15-6.31,13.1-10.44,17.88-24.61,17.87-41q-.11-168.22,0-336.45c0-6.11.28-12.43,1.83-18.28C506.22,156.09,509.54,149.89,512.37,143.05ZM122.93,482.6c0,14.94-.43,29.58.09,44.19.81,22.41,21.56,42.25,44,42.28q116,.13,232,0c1.2,0,2.39-.25,4.11-.44-10.28-11.76-16.38-24.83-17.55-39.64-.92-11.76-.39-23.64-.49-35.46,0-3.61,0-7.21,0-10.93ZM589.3,330.9V325q0-72.46,0-144.92c0-2.49-.1-5-.29-7.48-1.24-16.8-18.23-30.56-34.89-28.27-18,2.47-29,15.54-29.05,34.62q-.06,73.47,0,146.92c0,1.61.15,3.21.24,5Z"/><path class="cls-2" d="M343.35,380.1q48.47,0,96.94,0c7.24,0,11.4,2.92,12.75,8.71a10.6,10.6,0,0,1-8.1,13.21,32,32,0,0,1-6.91.72q-94.95.06-189.9,0a24.24,24.24,0,0,1-9.19-1.62c-4.65-1.95-6.77-7.07-5.78-12.09s5.37-8.76,11.24-8.84c12.33-.16,24.65-.06,37-.06Z"/><path class="cls-2" d="M343.44,299.91q48.22,0,96.44,0c8,0,12,2.92,13.28,9.23a10.83,10.83,0,0,1-8.26,12.75,36.76,36.76,0,0,1-7,.48q-94.69,0-189.37,0a44.13,44.13,0,0,1-6-.32,11.05,11.05,0,0,1,.43-22,59.74,59.74,0,0,1,6-.19Q296.23,299.9,343.44,299.91Z"/><path class="cls-2" d="M297,242.08c-17.49,0-35,.07-52.45,0-5.92,0-10.26-3.6-11.32-8.7s1.06-10.06,5.67-12.16a20.41,20.41,0,0,1,8.18-1.65q50.21-.17,100.41,0c10.19,0,15.71,6,13.53,14.32-1.4,5.35-5.47,8.24-12.07,8.26C331.59,242.13,314.28,242.09,297,242.08Z"/></svg>