<svg id="Layer_1" data-name="Layer 1" xmlns="http://www.w3.org/2000/svg" viewBox="0 0 712 712"><defs><style>.cls-1{fill:#236fb4;}.cls-2{fill:#069647;}</style></defs><path class="cls-1" d="M347.93,364.25v-6.77q0-78.17,0-156.32c0-12,6.4-18.5,18.33-18.51H560.68c11.74,0,18.24,6.43,18.24,18.07q0,45.66,0,91.31v5.55c12.7,3,16.5,8,16.5,21.08v126c5,3.26,9.52,5.51,13.11,8.82,4.12,3.8,3.42,9.41,3.41,14.58q0,54.44,0,108.86c0,12-6.38,18.41-18.43,18.41H449.06c-3.31,5-5.23,10.28-9,12.93s-9.23,3.4-14,3.43c-35.58.27-71.16.07-106.74.22-6.8,0-13-.65-17.69-6.68-8,6.06-16.86,6.78-26.15,6.69-23.2-.25-46.41,0-69.62-.11-43.7-.19-83.37-34-87.63-77.61-3-30.46-4.85-61.52,4-91.62,9.23-31.51,28.42-55.68,56.48-72.68,3-1.83,4.34-3.69,4.21-7.28-.28-7.38-.26-14.79,0-22.18.13-3.37-1.07-5.15-3.88-6.95-12.85-8.22-26.83-15.28-38-25.41-36.12-32.72-49.2-73.92-36.06-120.9,13.05-46.67,45.12-75,92.72-85a105.81,105.81,0,0,1,21-2c26.29-.23,52.59-.12,78.89-.09,24,0,44.25,15.9,49.17,38.37,5.21,23.75-6.31,46.36-28.87,56.65-.93.42-1.84.88-2.49,1.2-1.82,10.36-.11,19.43,6.69,27.67,4.87,5.91,9.22,12.44,9.34,20.74.14,10.36-4.07,18.33-12.94,23.58-2.72,1.61-3.71,3.33-3.65,6.48.2,10.83.15,21.67.05,32.5a41.05,41.05,0,0,1-40.53,40.39c-8.24.07-16.47,0-25.41,0,0,11.36,0,22.46.07,33.55,0,.78,1,1.72,1.7,2.28C261,391.36,271.4,399.14,281.92,407c0-7.9,0-16.4,0-24.9,0-11.26,6.63-17.86,17.92-17.88C315.64,364.24,331.43,364.25,347.93,364.25Zm214.16-66V199.55h-65.9v48.71H430.28v-48.8H364.79V364h65.34V347.51h-15.9V331.1h16.22c0-5.36,0-10.16,0-15,0-11.29,6.61-17.92,17.87-17.93q42,0,84.06,0ZM232.17,562.33c-8.44,0-16.48,0-24.53,0a41,41,0,0,1-41.22-41.25c-.07-17.71,0-35.42,0-53.13,0-1.47.19-2.95.28-4.35h16.17v5.83c0,17-.13,34,0,51.06.15,14.46,10.66,25,25.07,25.34q12.11.25,24.23-.07a7.08,7.08,0,0,0,4.38-2.41c3.47-3.89,6.66-8,10.36-12.58-7.84-7.79-16.37-16.49-25.15-24.93A18.44,18.44,0,0,1,216.21,488c2.2-11.32,8.75-19.28,19.71-23.14,8.8-3.1,16.6-2,23.49,5.26,11.51,12.06,23.49,23.66,35.3,35.44,1,1,2.08,1.79,3.71,3.17,0-12,0-23,0-34a14.15,14.15,0,0,0-.71-4C282.31,421.4,249,392,198.58,382c-2.67-.54-6.15-.54-8.36.75-32.47,18.76-51.91,46.7-55.65,84.12-1.89,18.9-1.57,38.13-1,57.17.73,22.64,10.67,41.16,28.39,55.5,20.79,16.83,45.17,16.85,70.17,15.55Zm83.07-115.39V595H430V447H414.25c-2.1,11.63-7.74,16.29-19.51,16.29H350.93c-12.11,0-17.4-4.28-20-16.33ZM232.11,149.29c-1.24.33-2.4.62-3.55,1-8.05,2.34-13.38,9.62-12.61,17.17a16.63,16.63,0,0,0,16.71,15.16c22.16.17,44.34.42,66.49-.08,21.06-.47,35.55-19.47,31.31-40.07-3.07-15-16.62-25.75-32.93-25.82q-39.42-.18-78.86,0a94.87,94.87,0,0,0-14.87,1.19c-59.85,9.75-97.9,66.5-83.73,125.6,8.28,34.49,31,57.07,62.47,72.34V281.89c-18-1.6-31.26-13.61-32.59-29.22-.73-8.52.94-16.38,6.06-23.38,6.61-9,15.83-13.22,26.65-14,1.45-15.11,6.24-23.71,19.43-35.22-7.14-25.74,7.28-48.33,30-46.62ZM578.61,446.6V315.09H545.74v32.27H479.69V315H447.21V446.6ZM213.37,193.14c-15.59,9-14.26,24.2-14,39-5.32,0-9.94,0-14.56,0-10.91.07-18.45,6.86-18.42,16.57s7.61,16.4,18.54,16.47c4.73,0,9.47,0,14.51,0v99.27l32.72,8.93V347.56h-16V331.24H222c17,0,34,.08,51,0,11.22-.08,20.55-6.77,23.06-16.44-10.87-.45-22.11,1.58-31.91-5.17-9.65-6.66-14.86-15.6-15.22-27.6h16.2c3.4,16.69,14.25,17.71,33.32,15.45,0-8.37.21-16.78-.05-25.18-.26-8.13,3.13-13.7,10.26-17.46,6.81-3.59,8-8.85,3.82-15.42a41.48,41.48,0,0,0-2.87-4.28c-8.25-10.09-13-21.32-11.28-34.65,0-.27-.26-.58-.64-1.33h-5.32c-19.07,0-38.14-.15-57.21.07C227.31,199.29,220.16,197.7,213.37,193.14ZM480.27,463.5v115H595.06V463.55H562.33v32.74H512.78V463.5ZM331,430c2.24-11.57,7.81-16.19,19.46-16.2,15.46,0,30.93.08,46.39,0,6-.05,10.8,2.28,14,7.15,1.79,2.73,2.62,6.1,3.86,9.1h15.34V381.1H298.39c0,15.13-.15,29.9.1,44.66.06,3.53,1.42,7,2.48,11.9C309.94,426.8,320.91,431.58,331,430ZM447,578.44H463.1V463.67H447ZM248.89,595.39c10.78,0,20.72,0,30.67,0,11.15,0,19-7,18.83-16.71s-7.78-16.28-18.68-16.34c-4.72,0-9.44,0-14.34,0,0-3.74.65-6.87-.2-9.51a11.63,11.63,0,0,0-5-6.31c-1.51-.8-5.15.1-6.34,1.51-2.21,2.64-4.56,6.15-4.7,9.4C248.58,569.88,248.89,582.37,248.89,595.39ZM447,231.86h32.58V199.53H447ZM298.42,549.55c0-4.68.08-9.3-.05-13.92a6,6,0,0,0-1.07-3.73c-10.46-10.63-21-21.14-31.27-31.38-4.4,4.53-8.51,8.75-12.92,13.27,7.88,7.78,16.5,15.49,24.11,24.08C283,544.42,290,547.7,298.42,549.55Zm98.77-119h-49v15.88h49Zm99.64-115.67V331h32.3V314.87Zm33,148.59v16.08h15.8V463.46Zm-290,36.94,13.38-12.95c-3.92-1.85-4.72-8.27-10.66-7.09a11.7,11.7,0,0,0-9.62,9.56C231.68,495.94,238.22,496.67,239.87,500.4Z"/><path class="cls-2" d="M397.16,331.53v15.8H381.27v-15.8Z"/><path class="cls-2" d="M463.66,429.87V414.08h16v15.79Z"/><path class="cls-2" d="M512.49,430.14H496.85v-16h15.64Z"/><path class="cls-2" d="M248.46,215.93c1.45,12.89,3.33,16.68,8.73,16.08,10-1.1,7.8-9.43,8.44-16.08h15.5c2.73,11-.74,21.52-9.21,27.87a24.41,24.41,0,0,1-27.52,1.37c-10.89-6.79-13.22-17.1-11.64-29.23Z"/></svg>