<svg id="Layer_1" data-name="Layer 1" xmlns="http://www.w3.org/2000/svg" viewBox="0 0 712 712"><defs><style>.cls-1{fill:#236fb4;}.cls-2{fill:#069647;}.cls-3{fill:none;stroke:#069647;stroke-miterlimit:10;stroke-width:19px;}</style></defs><path class="cls-1" d="M100,495.06c2.51-4.17,6.3-5.38,11-5.34,16.67.14,33.34,0,50,0h5.84c.1-2.2.23-4,.25-5.74q1-141.51,2-283c.06-8,3.11-11,11.32-11q98.51,0,197,.1c4.24,0,6.29-1,8-5.14a119,119,0,0,1,114.35-72.88c53.93,2.1,101.16,43.45,110.37,96.61,11,63.78-28.37,122.88-91.58,136.72-9.68,2.11-19.77,2.31-30.56,3.5v4.94q0,89.78,0,179.53c0,32.19-20.74,58.23-52.13,64.9-7.07,1.5-14.55,1.54-21.84,1.55q-123.52.15-247,.06c-33.18,0-59.47-21.57-66-54.08a20.92,20.92,0,0,0-1-2.79ZM378.53,207.2H185.86c-.67,94.24-1.34,188.15-2,282.57h174.6c14.86,0,15.4.65,15.55,15.43.12,12.64-.71,25.47,1.1,37.88,3.6,24.61,27,42.1,51.29,39.92,25.3-2.28,44.66-22.75,44.72-47.84.13-61.67,0-123.33.11-185,0-3.17-.77-4.51-4.13-5.34-28.61-7.05-51.62-22.56-68.62-46.68-2.15-3-4.19-4.33-8-4.3-26.33.19-52.67.11-79,.1-7.87,0-11.58-2.77-11.51-8.54s3.7-8.3,11.73-8.31h74.62A120.06,120.06,0,0,1,378.53,207.2Zm216.76,23.41c.24-55.83-44.75-101.33-100.44-101.59A101.5,101.5,0,0,0,393.12,230C393,285.66,438.2,331,494,331.21A100.75,100.75,0,0,0,595.29,230.61ZM116.81,506.81c0,9,0,17.61,0,26.26.18,29.1,21.13,50,50.18,50q103,0,206,0c1.57,0,3.14-.15,5.06-.24-17.43-19-21.88-33.65-20.94-59.61.19-5.43,0-10.87,0-16.44Z"/><path class="cls-1" d="M361.76,439q-26.72,0-53.42,0c-6.66,0-10.13-2.84-10.18-8.23s3.58-8.52,10-8.53q53.42,0,106.84,0c6.44,0,10.18,3.16,10.22,8.38S421.69,439,415.18,439Q388.47,439,361.76,439Z"/><path class="cls-1" d="M361.78,349.86c18.16,0,36.33-.06,54.5,0,5.54,0,8.84,3.12,9,7.92s-3,8.1-8.38,8.69a37.9,37.9,0,0,1-4,.1H391.4q-40.5,0-81,0a21.17,21.17,0,0,1-6.91-.77c-4.12-1.47-5.92-4.79-5.18-9.12.78-4.63,3.87-6.8,8.46-6.81Q334.29,349.84,361.78,349.86Z"/><path class="cls-1" d="M352.21,276.87c15.44,0,30.87-.06,46.3,0,4.71,0,7.52,3.12,7.65,7.92s-2.55,8.1-7.12,8.69a27.37,27.37,0,0,1-3.39.1H377.38q-34.41,0-68.82,0a15.18,15.18,0,0,1-5.86-.76c-3.5-1.47-5-4.8-4.41-9.12.67-4.63,3.29-6.8,7.2-6.81Q328.85,276.85,352.21,276.87Z"/><path class="cls-1" d="M255.11,456c-14.81.06-26.94-11.56-26.92-25.79,0-13.92,12-25.63,26.51-25.83s26.94,11.78,26.89,25.92S269.6,456,255.11,456Zm-.4-16.85c5.54.08,10-3.86,10.09-8.83s-4.69-9.18-10-9.13c-5.07,0-9.61,4.08-9.81,8.74C244.82,434.88,249.22,439.07,254.71,439.16Z"/><path class="cls-1" d="M255.31,260.16c14.44.22,26.42,12.09,26.28,26-.15,14.22-12.53,26-27.11,25.71-14.39-.25-26.4-12.14-26.29-26C228.31,271.73,240.76,259.93,255.31,260.16Zm-.45,34.89c5.31,0,10-4.25,9.92-9.11,0-4.69-4.45-8.8-9.58-8.94-5.33-.16-10,4-10.17,8.85S249.49,295,254.86,295.05Z"/><path class="cls-1" d="M255.15,384c-14.66.1-27-11.67-27-25.82,0-13.89,12.05-25.67,26.46-25.89s27,11.76,26.94,25.89S269.6,383.86,255.15,384Zm-.65-16.87c5.43.19,10.1-3.74,10.3-8.67s-4.48-9.26-9.74-9.36-10,4.21-10,9S249.26,366.91,254.5,367.09Z"/><path class="cls-2" d="M512.19,257c0-9.94-7.11-17.44-17.36-18.3-18.62-1.54-30.51-10.48-34.87-26.2-4.62-16.68,3.71-34.66,19.71-41.23,4.23-1.74,5.55-3.82,5.11-8-.43-4,.64-7.7,4.64-9.69,5.74-2.86,12.07,1.17,11.8,8.16-.2,5.35,1.64,7.48,6.56,9.53,13.11,5.48,20,16,21.19,30.16.48,5.84-2.87,9.94-7.77,10.32s-8.48-3.42-9-9.27C511.25,192.15,503.82,185,494,185c-9.6,0-17.38,7-18.49,16.8-1.23,10.89,7.28,19.55,19.78,20.23,14.72.8,25.16,8.08,31,21.5a34.61,34.61,0,0,1-19.91,46.27c-4.21,1.51-5.38,3.51-4.94,7.44a15.22,15.22,0,0,1-.18,4,7.84,7.84,0,0,1-8.23,7.06c-4.4-.15-8.19-2.55-7.76-6.77.85-8.27-3.5-11.35-9.95-14.92-10.38-5.73-15.69-15.51-16.46-27.5-.37-5.86,2.31-9.64,7.15-10.18,5.26-.59,8.51,2.35,9.4,8.52,1.69,11.64,8.5,18.07,18.92,17.9A18,18,0,0,0,512.19,257Z"/><ellipse class="cls-3" cx="494.21" cy="230.48" rx="110.37" ry="109.66"/></svg>