<svg id="Layer_1" data-name="Layer 1" xmlns="http://www.w3.org/2000/svg" viewBox="0 0 712 712"><defs><style>.cls-1{fill:#236fb4;}.cls-2{fill:#069647;}</style></defs><path class="cls-1" d="M233,97.89c2.68.82,5.38,1.57,8,2.5,17.08,6,26,18.75,27.91,36.06,2.55,23.6-3.9,44.21-24.54,60.57h6.72q78.12,0,156.24,0c15.19,0,26,8,29.49,21.66,4.27,16.68-8.06,34.14-25.27,34.39-33.09.47-66.19.19-99.28.28a64.6,64.6,0,0,0-10,.66c-12,1.94-21.57,12.54-21.82,24.78-.3,14.78-.21,29.57.07,44.35,0,1.73,2,4,3.66,5C306,341,327.9,353.75,349.94,366.24c4.71,2.67,6.47,6,6.44,11.32-.18,28.89-.08,57.79-.1,86.69,0,1.51.41,3.42-.33,4.44-1.55,2.11-3.65,5.09-5.69,5.23-2.35.16-5.37-1.91-7.16-3.87-1.19-1.31-1-4.13-1-6.27-.06-26.88-.11-53.76.05-80.64,0-3.65-1-5.68-4.26-7.52-22-12.53-43.86-25.35-65.85-37.92-4.11-2.35-5.93-5.25-5.86-10.08.23-15.45,0-30.91.09-46.36.06-24.18,17.71-42,42-42.06q49.89-.18,99.79,0c5.23,0,9.57-1.45,12.72-5.74a13.72,13.72,0,0,0-9.18-21.88,45.87,45.87,0,0,0-6.53-.35c-71.06,0-142.13-.19-213.19.19a99.11,99.11,0,0,0-28.56,4.65c-13,4.07-17.91,12.36-17.92,25.92q0,50.14,0,100.3c0,14.55,8.05,25.05,22.14,28.55v-5.41q0-48.63,0-97.27c0-6,2.39-9.09,7-9.09,3.91,0,6.35,2,6.94,5.86a33.75,33.75,0,0,1,.13,5v226.8c0,7.7-2.18,11.23-6.92,11.25s-7.16-3.63-7.16-11.14V386c-4-1.4-7.9-2.36-11.44-4.09-15.89-7.79-24.62-20.56-24.75-38.35-.25-34.78-.14-69.56,0-104.33,0-16.12,8.28-27.18,22.19-34.42,11.13-5.78,23.19-7.56,35.55-7.82,4.35-.09,8.7,0,14,0a32.31,32.31,0,0,0-2.39-2.51c-20.12-16.14-28.16-48.06-18-71.8,5.58-13,15.73-20.53,29.33-23.71,1.29-.3,2.55-.74,3.82-1.11Zm22.31,52.7c0-24.71-8-35.27-25.17-38.27-15.61-2.73-30.21,3.82-34.61,16.66-6.27,18.3-3.36,35.6,9.35,50.33,11.17,12.94,27.66,12.42,38.88-.49C252.06,169.27,255.2,157.83,255.31,150.59Z"/><path class="cls-2" d="M597.94,480.06h-152v6q0,58.2,0,116.42c0,1.84.56,4.09-.28,5.45-1.44,2.31-3.45,5-5.82,5.83-3.32,1.18-6.24-.95-7.36-4.42a19.93,19.93,0,0,1-.66-5.94q-.06-40.56,0-81.14v-5.83H280.22v5.71q0,40.58,0,81.14a20,20,0,0,1-.43,5.49c-1.06,3.65-3.65,5.64-7.55,5.17-3.61-.43-5.72-2.61-6-6.3-.13-1.5-.11-3-.11-4.53q0-25.46,0-50.9v-5.73h-152v16.23q0,21.18,0,42.34c0,6-2.42,9-7,9s-7-3.26-7-9.14q0-31.26,0-62.5c0-8.39,2-10.4,10.35-10.4q74.34,0,148.68,0h7c0-7.12,0-13.61,0-20.11,0-8.3,1.72-10,10.14-10q74.58,0,149.18,0h6.39c0-9.16,0-17.69,0-26.22,0-7.64,2.21-9.81,9.9-9.81H602.47c7.35,0,9.52,2.19,9.52,9.62q0,64.52,0,129c0,1.81.18,4.3-.85,5.27-2,1.87-5,4.2-7.17,3.89s-4.3-3.42-5.81-5.72c-.78-1.18-.19-3.27-.19-4.95q0-58.22,0-116.42Z"/><path class="cls-2" d="M531.31,210.15v6.77q0,88.16,0,176.3a26.31,26.31,0,0,1-.13,5c-.78,3.89-3,6.38-7.28,6.19s-6.4-2.57-6.62-6.74c-.1-1.67-.06-3.36-.06-5V210.4c-2,1.76-3.21,2.75-4.31,3.85-8.32,8.31-16.58,16.68-24.92,24.95-3.85,3.81-8.05,4.19-11.1,1.24s-2.73-7.27,1-11q20-20.21,40.18-40.31c4.33-4.3,7.86-4.32,12.16,0q20.17,20.07,40.22,40.28c3.92,3.95,4.2,7.91,1.07,11s-7.31,2.63-11.08-1.11C551,229.93,541.7,220.54,531.31,210.15Z"/><path class="cls-1" d="M232.45,366.67v6.43q0,61.72,0,123.44c0,7.95-2.39,11.68-7.32,11.48-4.78-.2-6.94-3.73-6.94-11.42V358.54a34.19,34.19,0,0,1,.11-4.53c.79-6,5.58-8.6,11-5.83,4.77,2.45,9.38,5.2,14.06,7.83,19.45,10.91,38.84,21.94,58.38,32.68,4.69,2.57,6.75,5.83,6.71,11.2-.18,21.5-.06,43-.11,64.5,0,1.81.21,4.24-.8,5.31-1.88,2-4.71,4.46-6.94,4.27s-4.52-3.16-6.06-5.41c-.88-1.29-.38-3.58-.38-5.43q0-29,0-57.94c0-2.62-.18-4.65-3-6.19-18.65-10.28-37.19-20.77-55.77-31.18A27.48,27.48,0,0,0,232.45,366.67Z"/></svg>