<svg id="Layer_1" data-name="Layer 1" xmlns="http://www.w3.org/2000/svg" viewBox="0 0 712 712"><defs><style>.cls-1{fill:#236fb4;}</style></defs><path class="cls-1" d="M612,499.9c-1.35,5.77-2.47,11.61-4.08,17.31C594.27,565.64,546.3,598,496.25,592.68c-56.11-6-97.94-55.58-93.91-111.67a113.25,113.25,0,0,1,4-22c2-7.15,5.17-14,8-21.35-.7-.52-1.69-1.35-2.76-2-17.32-11.22-34.67-22.39-52-33.67-2.3-1.5-4-1.92-6.59-.21-17.66,11.61-35.47,23-53.22,34.46-.81.52-1.53,1.19-2.47,1.94a113.2,113.2,0,0,1,12,38.38c5.81,47.35-22.73,94.15-68,110.23-8.52,3-17.67,4.46-26.64,6-4.49.76-7.91-2.66-8.27-6.8-.33-3.79,2.45-7.14,6.69-8,1.47-.3,2.94-.58,4.43-.77A86.85,86.85,0,0,0,257,561.55c2.16-1.52,4.16-3.26,6.43-5a95.52,95.52,0,0,0-37.38-42c-.85-.52-1.72-1-2.58-1.53-6.69-4.07-7.17-9.22-1.23-14.35,9.41-8.13,12.55-18.21,9-30.07a26.66,26.66,0,0,0-23.56-18.69c-12.19-.61-22.36,5.25-27.21,15.66A27.42,27.42,0,0,0,185.56,496c.58.6,1.19,1.17,1.8,1.73,7.29,6.63,6.77,10.93-1.86,16.11A96,96,0,0,0,147,556.59c10,8.88,21.51,14.71,34.28,18.34a44.2,44.2,0,0,1,5.27,1.5c3.9,1.66,5.54,4.76,4.55,8.88-1,3.93-3.8,6.11-7.74,5.46a77.18,77.18,0,0,1-13.45-3.53,105.18,105.18,0,0,1-69.59-107.6c4-50.56,45.13-91.86,95.76-95.75,36.48-2.81,66.37,10.4,90.14,37.95l2.75,3.21c15.65-10.1,30.74-20.84,46.81-29.82,10.23-5.72,14-12.47,13-24.07-1.16-12.55-.36-25.3-.2-38,0-3.42-.68-5-4.54-5.35-43.88-4.14-82.74-39.9-90.8-83.3-5.6-30.19.33-57.85,18.29-82.79,1.38-1.91,3.61-4.27,5.59-4.41a11,11,0,0,1,7.8,2.76c2.75,2.77,1.89,6.48-.44,9.57a90,90,0,0,0-14.92,30.24c-7.66,27.43-.61,60.93,17.24,80.22a116.68,116.68,0,0,1,36.28-40.27c-16.61-23-9.18-47.47,5.9-60a42.5,42.5,0,0,1,55.41.9c17.13,15.42,19.11,38.1,4.85,59a115,115,0,0,1,36.33,40.51c1.25-1.45,2.33-2.56,3.24-3.8C468,223,436.44,145.67,371,135.13c-22.57-3.64-43.67.72-63.07,12.94-1,.62-1.95,1.3-3,1.84-4.07,2.13-8.3,1.17-10.53-2.35s-1.66-8.21,2.54-10.35c10.47-5.34,20.83-11.6,32-14.7,59.62-16.51,120.75,23,130.88,84,9.62,57.84-30.81,113.14-88.66,121.25-2.27.32-4.56.52-7.26.83v28.29c0,8.83-.09,17.66.09,26.49,0,1.55.82,3.76,2,4.53,18.91,12.4,37.93,24.62,56,36.31,9.07-7.93,17-16.39,26.38-22.77,27-18.4,56.63-22.71,88.14-14.1a20.14,20.14,0,0,1,4.19,1.57c3.31,1.77,4.87,4.67,3.92,8.31s-3.61,6.16-7.69,5.68a103,103,0,0,1-10.19-2.24c-50.82-11.51-101,22.75-108.53,74.39-3.55,24.49,2.27,46.9,17,66.89.67.92,1.48,1.74,2.42,2.82a113.44,113.44,0,0,1,36.13-40.25c-13.74-26-11.3-46.46,7.11-61a42.48,42.48,0,0,1,55,2.23c13.44,12.22,20.73,35.5,4.36,58.48a116.56,116.56,0,0,1,36.29,40.63c9.57-11.56,15.87-24.31,18.42-38.6,6.52-36.56-5.08-66.51-33.91-89.81-3.29-2.66-6.14-5.36-4.52-10.05,1.81-5.26,7.58-6.58,12.65-2.83A103.44,103.44,0,0,1,607.86,459c1.72,5.86,2.78,11.91,4.14,17.87ZM274.47,544.35c24.9-27.17,30.9-80.74-4.35-117.82A89.45,89.45,0,0,0,139,427.67c-34.58,37.5-27.58,90.61-3.61,116.36,5.39-7.21,10.37-15,16.45-21.71s13.2-12.45,19.89-18.64c-15.64-22-8.77-44.91,3.86-57.11a42.63,42.63,0,0,1,53.27-5,41.84,41.84,0,0,1,17.08,22.68c4.62,14.55,1.2,27.79-7.51,40A115.3,115.3,0,0,1,274.47,544.35Zm291.29,11.37c-4.65-6.87-8.94-14-14-20.5-7.22-9.3-16.44-16.42-26.59-22.37-6.48-3.8-6.95-9.06-1.42-14.06,1-.89,2-1.73,3-2.69a27.37,27.37,0,0,0-34.89-41.8c-15.25,10.22-16.13,31.34-1.83,44.15,6.09,5.46,5.56,10.32-1.38,14.69a134.15,134.15,0,0,0-12.73,8.76A91.59,91.59,0,0,0,449,556.33C480.15,584.83,534.28,584.84,565.76,555.72ZM414,291.86a9.08,9.08,0,0,0-.4-1.33c-.65-1.35-1.31-2.69-2-4a95.93,95.93,0,0,0-36-37.25c-8.29-5-8.79-9.41-1.71-15.73.62-.56,1.23-1.12,1.81-1.72a27.38,27.38,0,0,0-38.94-38.5c-11.5,11.52-10.52,29.84,2.17,40.63,6.17,5.24,5.76,10.49-1.13,14.71-.71.43-1.45.81-2.16,1.25-16.7,10.29-29.39,24.13-37.53,42C331.8,321.78,384.23,319.41,414,291.86Z"/></svg>