<svg id="Layer_1" data-name="Layer 1" xmlns="http://www.w3.org/2000/svg" viewBox="0 0 712 712"><defs><style>.cls-1{fill:#236fb4;}.cls-2{fill:#069647;}</style></defs><path class="cls-1" d="M131.17,611.94c-9.48-9.32-19-18.54-28.38-28-4.05-4.09-3.63-8.63.86-13.15q20.07-20.2,40.25-40.31c1.17-1.16,2.26-2.39,3.35-3.54-6.26-8.72-6.08-10.75,1.47-18.32,4.82-4.83,9.57-9.74,14.51-14.46,1.85-1.76,2.15-3.17,1.07-5.59C141.94,438.73,148.11,392.5,182,349.84c.29-.37.5-.81,1.3-2.13H170.17c-5.5,0-11,.06-16.49,0-7.87-.11-10.88-3.06-10.9-11-.06-24-.14-48,.08-72,0-4.25-.88-7.06-5.1-8.28-10-2.88-12.93-9.54-12.35-19.67.84-14.78-.2-29.66.51-44.45.75-15.94,10.15-26.88,25.43-31.44,1.09-.33,2.15-.76,3.21-1.14C148.05,137,153.31,119,169.69,107.7a42.59,42.59,0,0,1,49.95.93c12.61,9.46,22.48,28.17,13.69,51.17,1.42.45,2.83.91,4.25,1.33,14.39,4.23,24.32,16.73,24.54,31.64.25,17.16,0,34.32.15,51.47,0,4.91-2.32,8.2-6.61,9.47-9,2.67-11.39,8.29-10.72,17.39.92,12.41.23,24.94.23,38.29a133.47,133.47,0,0,1,59.34-2.16c.16-1.75.39-3.15.4-4.56,0-13.16-.09-26.32.09-39.48,0-3.11-1-4.75-3.78-6.09-14.8-7.08-13.35-5.64-13.38-21.78q0-19,0-38c0-19.75,8.3-31,27-36.91.62-.2,1.23-.43,1.84-.64-6.71-22.39-1.47-40.5,15-52a42.62,42.62,0,0,1,49.95.71c13.14,9.82,22.54,29,13.88,51,.23.21.43.51.7.6,20.75,6.76,28.19,17.06,28.19,39,0,14.16-.23,28.33.11,42.48.15,6.34-1.82,10.88-7.94,12.75-7.77,2.36-9.71,7.19-9.48,15.14.63,22,.23,44,.21,66,0,9.61-2.58,12.21-12.06,12.25l-18,.07a8.28,8.28,0,0,0-1.51.42c.76,1.13,1.35,2.17,2.1,3.09C439.71,426.62,399,540,303.29,558.6c-27.14,5.27-53.34,1.66-78.32-10.12-3.53-1.66-5.53-1.36-8.06,1.43-4.25,4.68-8.89,9-13.37,13.48-7.59,7.58-9.68,7.77-18.48,1.36C175,574.82,165,585,154.79,595c-5.79,5.72-11.74,11.27-17.62,16.9ZM219.73,318.8c8.42-2.43,8.42-2.43,8.42-9.93,0-14.49-.11-29,0-43.47.18-17.88-2.71-16,14.2-24.32a5.54,5.54,0,0,0,2.66-4c.19-14.49.28-29,.05-43.47-.15-9.49-7.54-16.43-17.08-16.6-3.83-.07-7.82.62-11.45-.24-2.9-.69-6.74-2.67-7.65-5-1-2.62.7-6.38,1.61-9.53.33-1.13,1.84-1.87,2.69-2.9,6.61-8,8.12-17,4.1-26.59s-11.83-14.85-22.08-15.39c-10.07-.53-18.06,3.94-23.27,12.74-6,10.08-4.18,22,4.69,31,3,3,4.52,6.3,3,10.31-1.65,4.24-5.19,5.78-9.63,5.61-2.66-.1-5.33,0-8,0-12.46,0-18.94,6.56-19,19.16,0,11.16.57,22.36-.2,33.47-.54,7.76,1.62,12.4,9.2,14.75,6.26,1.93,8.23,6.65,8.14,13.18-.29,22.32-.11,44.64-.11,67v5.69c12.95,0,25.26-.37,37.53.14,7.2.3,10.88-4.76,16.13-7.44l-.38-1.26h-10.7V305.13h17.09Zm170.4,11.42v-6.08c0-20,0-39.95,0-59.92,0-16.74-1.74-15.17,13.63-22.63,2.32-1.13,3.49-2.34,3.46-5.2-.18-14.15,0-28.3-.12-42.45-.08-9.73-7.35-16.75-17.21-16.91-3.66-.05-7.5.67-10.93-.22-3.05-.79-6.5-2.72-8.21-5.22-2-3-1-6.75,1.84-9.51.72-.7,1.44-1.39,2.12-2.13a25.39,25.39,0,1,0-36.63.54c3.18,3.27,5.29,6.64,3.56,11.06-1.86,4.73-6,5.74-10.7,5.5-2.66-.14-5.33-.05-8,0-10.8.09-17.85,7-17.91,17.73-.06,11.15.58,22.35-.21,33.45-.6,8.51,1.29,14.16,10.11,16.69,5.52,1.58,7.27,5.94,7.19,11.66-.24,17.14,0,34.29-.16,51.44,0,3.11,1,4.44,3.86,5.84,9.09,4.43,17.87,9.47,26.8,14.22,1.56.83,3.24,2,4.88,2.06C368.15,330.31,378.79,330.22,390.13,330.22Zm-111,213.44c59.94.34,110.61-49.31,111-108.78C390.53,373,341.67,322.37,281.29,322c-62.45-.38-112.28,48.41-112.8,110.45C168,493.16,217.86,543.3,279.11,543.66ZM134,590.58q19.59-19.62,38.37-38.39L160.6,539.85l-38.67,38.53Zm70.14-53-29.3-29.35-10.88,10.52c4.8,4.7,9.86,9.49,14.73,14.45s9.79,10.33,14.69,15.52Z"/><path class="cls-2" d="M491,611.94c-2-2.88-4.43-5.58-6-8.69s-2.31-6.55-3.45-9.85c-1.76-5.09-6.44-7.14-11.23-4.92a38.61,38.61,0,0,0-5.83,2.79c-7.29,5.05-13.71,3.71-19.55-2.36-6-6.23-12-12.43-17.82-18.81-3-3.28-3.21-7.12-1.18-11.13,1.59-3.1,3-6.3,4.48-9.46,2.57-5.44.68-10-4.95-11.93-3.77-1.29-7.56-2.51-11.34-3.77-4.65-1.55-7-4.68-7-9.69q.11-14.49,0-29c-.05-5,2.23-8.2,6.89-9.77,3.62-1.22,7.27-2.33,10.9-3.53,6.43-2.14,8.23-6.39,5.34-12.53A16.06,16.06,0,0,0,429,466.6c-6.62-9.1-4.56-17,3.27-24.11,5.52-5,11-10.19,16.51-15.19,3.64-3.28,7.69-3.45,12-1.17,2.78,1.47,5.69,2.71,8.55,4.05,6.09,2.88,10.45,1.05,12.56-5.28,1.25-3.78,2.45-7.58,3.74-11.35,1.46-4.28,4.48-6.45,9-6.45h30c4.58,0,7.54,2.29,9,6.49,1.33,3.75,2.47,7.57,3.73,11.35,2.13,6.36,6.43,8.15,12.58,5.25l2.26-1.06c13.56-6.39,14.06-6.49,25.23,3.95,5.2,4.87,9.8,10.4,14.52,15.77,3,3.45,3.52,7.33,1.24,11.53-1.58,2.91-2.86,6-4.28,9-2.85,6-1,10.32,5.46,12.46,3,1,6.17,1.63,8.91,3.09,3.1,1.64,5.8,4,8.68,6.07v37c-2.83,2.12-5.47,4.6-8.55,6.26-2.88,1.56-6.22,2.26-9.36,3.31-6.09,2-7.91,6.3-5.16,12.15,1.34,2.85,2.51,5.8,4.07,8.53,2.68,4.72,2,9-1.53,12.79-5.55,6-11.21,11.79-16.85,17.66-6,6.2-12.45,7.73-20,2.53a37.47,37.47,0,0,0-6.73-3.2c-3.29-1.42-8.57.74-9.81,4.11-1.38,3.73-2.14,7.74-3.9,11.27-1.55,3.11-4.09,5.73-6.2,8.56ZM595,499.56c-13.31-.86-21.62-7.93-24.65-20.9,0-.16-.2-.3-.2-.45,0-3-.59-6.19,0-9.08a26.2,26.2,0,0,1,3.77-8.1c2.26-3.59,1.39-6-1.43-9-8.79-9.22-8.57-9.13-20.25-4-3.08,1.35-7.22,2.1-10.36,1.24-11.15-3.07-20.45-8.48-21.94-21.71-.13-1.22-2.52-3-4-3.11-5.13-.38-10.3-.15-15.42-.15a30.37,30.37,0,0,0-1.37,3c-5.81,17.39-3.44,15-18.76,20.93-4.92,1.91-8.93,2.27-13.71-.07-11.35-5.59-11.44-5.42-20,4.11a3,3,0,0,1-.34.37c-2.95,2.36-3.24,5-1.14,8.15,5.19,7.79,6.73,15.78.92,24a3.9,3.9,0,0,0-.47,1.42c-1.24,6.12-5.24,9.34-11.11,10.68-1.61.36-3.14,1.14-4.76,1.42-4.32.76-5.71,3-5.59,7.53.35,12.9.2,12.68,12.17,17.34a17,17,0,0,1,8,6.63c5.94,10,7.81,20.21.23,30.57-.76,1,.32,4.51,1.61,5.74,3.55,3.39,7.65,6.19,11.56,9.19.14.1.64-.17.9-.36,9.7-7,19.57-6.83,29.59-.72a2,2,0,0,0,.45.19c3.88,1.12,6.11,3.74,7.28,7.53,1.35,4.37,2.9,8.68,4.35,13h6.05c12.62,0,12.42-.07,16.81-12a15.8,15.8,0,0,1,6.13-7.79c10-5.85,20.46-8.54,30.94-.44.86.66,3.18.74,3.89.08,4-3.74,8.69-7.28,11.07-11.94,1.09-2.16-2.54-6.73-4-10.2-.46-1.07-1.27-2.1-1.35-3.19-.19-2.56-.6-5.3.07-7.69,3.14-11.3,8.73-20.27,21.84-21.84,1.21-.14,3-2.52,3.07-4C595.19,510.81,595,505.63,595,499.56Z"/><path class="cls-1" d="M557.62,159.77c.9.33,1.81.71,2.74,1,16.61,5.06,25.84,16.79,26.15,34.09.28,16.15,0,32.31.09,48.47,0,5.09-2,9-6.84,10.43-8.81,2.62-10.84,8.19-10.55,17,.71,21.63.25,43.3.22,65,0,9.21-2.76,12-11.93,12q-39.46,0-78.95,0c-8.83,0-11.53-2.79-11.53-11.73,0-24.16-.07-48.31.08-72.46,0-3.3-.92-5.05-3.94-6.48-15-7.14-13.13-5.91-13.19-21.34q-.09-19.74,0-39.48c.06-18.61,8.71-30.17,26.61-35.65.77-.24,1.53-.52,2.31-.79-8.62-22,.43-41,13.3-50.84a42.59,42.59,0,0,1,49.94-1.5C558.75,118.66,564.12,136.66,557.62,159.77ZM552.13,330v-5.72q0-29.72,0-59.44c0-17.77-1.38-15.71,14-23.57a6.12,6.12,0,0,0,2.92-4.31c.2-14.65.25-29.31,0-44A16.39,16.39,0,0,0,553,177.06c-4-.15-8,0-12-.05s-6.81-1.75-8.32-5.29a8.3,8.3,0,0,1,1.95-9.63c.69-.71,1.43-1.39,2.11-2.12a25.34,25.34,0,0,0-27.22-41.09c-17.66,6.42-22.44,28.16-9.07,41.94,3.23,3.32,5,6.77,3.08,11.14-1.86,4.22-5.64,5.27-10,5.08-2.82-.12-5.66,0-8.49,0-11,.08-18,7.09-18,18.18s.57,22-.21,32.95c-.6,8.5,1.25,14.18,10.1,16.68,5.52,1.57,7.26,5.85,7.2,11.62-.24,22.64-.1,45.28-.1,67.93V330Z"/><path class="cls-1" d="M177.28,202.24V185.5h33.44v16.82l-8,.71V236.5H185.39V203.1Z"/><path class="cls-1" d="M372.87,185.5v16.82l-8,.69c0,9.79-.14,19.4.08,29,.08,3.58-.79,4.92-4.67,4.92-12.91,0-12.91.13-12.91-12.57V203.11l-8-.86V185.5Z"/><path class="cls-1" d="M381.55,321.71H364.77V305.17h16.78Z"/><path class="cls-1" d="M373.11,432.93c0,51.81-42.32,94-94.05,93.89-51.38-.13-93.7-42.51-93.75-93.89-.06-51.75,42.12-93.89,94-93.92A93.58,93.58,0,0,1,373.11,432.93ZM279,509.39a76.82,76.82,0,0,0,77.07-76.05c.32-42.13-34.33-77.17-76.48-77.32A76.69,76.69,0,0,0,279,509.39Z"/><path class="cls-2" d="M509.62,560.88c-28,0-51.15-23.07-51.34-51.07s23.3-51.63,51.37-51.6,51.39,23.42,51.28,51.63C560.82,537.82,537.63,560.88,509.62,560.88Zm-33.86-51.16a34,34,0,1,0,33.73-34A33.55,33.55,0,0,0,475.76,509.72Z"/><path class="cls-1" d="M527,236.53H509.78V203.17l-8.46-.92V185.52h33.43v16.82L527,203Z"/><path class="cls-1" d="M526.86,321.64V305.2h16.72v16.44Z"/><path class="cls-1" d="M236.59,432.67H220.1C218,402,247.15,372,279,373.49v16.13C249.37,396.85,239.67,406.6,236.59,432.67Z"/></svg>