<svg id="Layer_1" data-name="Layer 1" xmlns="http://www.w3.org/2000/svg" viewBox="0 0 712 712"><defs><style>.cls-1{fill:#236fb4;}.cls-2{fill:#069647;}</style></defs><path class="cls-1" d="M174.62,300.72c1.07-11.72,2.11-23.08,3.14-34.44q3.75-41.26,7.47-82.51c2.05-22.83,4-45.66,6.1-68.49.55-6.17.81-12.41,1.95-18.47,2.45-12.92,12.54-21.33,25.6-20.65,15.56.82,31.07,2.55,46.6,3.92q34.8,3.06,69.6,6.17,34,3,67.91,6.11l69.59,6.29c10.29.93,20.63,1.45,30.84,2.93a20.65,20.65,0,0,1,10.74,5.22c10.64,10.36,20.72,21.29,31.09,31.92a19.61,19.61,0,0,1,5.8,16.38q-4.38,46.86-8.62,93.73c-1.71,18.88-3.29,37.78-5,57.5,5.17,0,10,0,14.8,0,15.7.08,25,9.18,25,24.77.06,31.41.11,62.81-.08,94.22,0,4.33,1.08,7.54,4.38,10.24a54.43,54.43,0,0,1,5.58,5.58c6.66,7.29,7,17.17.47,24.48-2.28,2.54-2.76,4.47-1.07,7.34,1.13,1.92,1.45,4.38,2.77,6.11s3.21,3.57,5.08,3.85c11.48,1.73,17.54,8.42,17.61,20.2q.07,12.69,0,25.39c-.09,11.36-6.24,18.48-17.4,19.69-3.08.34-4.77,1.25-5.59,4.27-.64,2.33-2.24,4.44-2.66,6.78-.32,1.82-.14,4.36.93,5.7,7,8.75,6.75,18.18-1.18,26.26q-9.28,9.46-18.74,18.76c-8.38,8.24-17.46,8.48-26.67,1.11-1.21-1-3.5-1.08-5.19-.86s-3.41,1.57-5.2,2.06c-4.16,1.14-6.36,2.94-6.4,8-.07,8-7.89,15.15-16,15.36q-16.07.39-32.15,0c-8.83-.2-16.11-7.36-16.68-16.74-.23-3.73-1.6-5.18-4.88-6.17a86.67,86.67,0,0,1-9.16-3.86c-12.17,10.09-21,10.18-31.29-1.54-7.59-8.62-15.76-11.49-27.26-11.41-76.71.56-153.43.4-230.15.14A115.58,115.58,0,0,1,129,592.67c-19.14-4.77-28.9-17.95-29-37.74-.09-26.32,0-52.65,0-79q0-75.31.12-150.64c0-17.27,7.38-24.57,24.8-24.59C141.32,300.71,157.66,300.72,174.62,300.72ZM519,306.33c4-44.92,8-89.5,12.06-134.49-12.66-1.16-24.59-2.36-36.55-3.31-10.54-.84-17.89-8.37-17.31-18.33.29-5.06,1-10.09,1.43-15.15.5-5.7.92-11.42,1.39-17.44-22.71-2-44.78-3.9-66.84-5.89-31.42-2.84-62.83-5.79-94.25-8.61s-62.9-5-94.25-8.51c-11.08-1.22-13.72,2-14.43,12.64-1.26,18.73-3.17,37.42-4.85,56.13q-3.71,41.25-7.46,82.48t-7.46,82.49c-1.24,13.81-2.43,27.63-3.66,41.76,1.74.13,3.21.34,4.67.34q78.66,0,157.34.1c3.59,0,5.28-1.38,6.88-4.3,8.69-15.79,17.63-31.43,26.34-47.21,4.8-8.71,11.67-12.9,21.91-12.81,35.9.29,71.81.11,107.71.11ZM444.85,422.4a87.09,87.09,0,0,1,8.42-3.47c3.79-1.13,5.56-2.87,5.86-7.33a17.3,17.3,0,0,1,16.74-16.06q15.78-.37,31.58,0c8.2.19,16.11,7.1,16.39,15,.17,5.06,1.94,7.43,6.56,8.53,2,.47,3.75,1.78,5.73,2.27,1.19.3,3,.24,3.82-.49,5.33-5.05,11.49-6.84,19.2-5.11v-82c0-8.47-.8-9.27-9.37-9.27-47.94,0-95.88.07-143.82-.12-4.71,0-7.08,1.73-9.19,5.59-9.21,16.78-18.85,33.34-27.92,50.2-3.24,6-7.31,8.53-14.27,8.51-62.05-.22-124.09-.13-186.13-.13h-6.72V577.93H389.35c2.62-4.92,5-9.06,7-13.35a8.31,8.31,0,0,0,.75-4.93c-.44-2.15-1.94-4.08-2.51-6.23-.93-3.49-2.65-5-6.53-5.33-10.16-.93-16.29-7.77-16.52-18-.2-9.2-.13-18.42,0-27.63.12-11.71,5.88-17.9,17.41-19.6,1.88-.28,3.9-2.14,5.1-3.81a15.69,15.69,0,0,0,2.71-6.72c.29-2,.12-4.73-1-6.22-6.73-8.74-6.48-17.89,1.29-25.85,5.78-5.92,11.68-11.72,17.54-17.56C424.81,412.53,433.52,412.32,444.85,422.4Zm32.21-8.68c0,2.75,0,4.8,0,6.84.11,8.05-1.44,9.83-9.17,12.59-6.33,2.25-12.53,5-18.62,7.81s-9.2,2.75-14.08-2.19a59.21,59.21,0,0,1-4.69-6.14l-.09,2.47-21.3,19.65a60.16,60.16,0,0,1,5,3.92c5.87,5.67,6,8,2.49,15.34a175,175,0,0,0-7.53,18.14c-2.5,7.11-4.76,9.11-12.13,9.18-2.34,0-4.69,0-7.2,0,0,9.34,0,17.78,0,26.23a13.23,13.23,0,0,0,.49,2.44c2,0,3.81,0,5.65,0,8.46-.12,10.67,1.59,13.28,9.8,1.19,3.74,2.09,7.83,4.27,11,7,10.14,6.83,18.9-3.55,26.52-.11.08-.11.33.11-.42l20.51,21.76a63.69,63.69,0,0,1,4.23-5.57c5.21-5.51,8.1-5.72,14.91-2.51a172.79,172.79,0,0,0,19.2,7.88c5.37,1.79,8.31,4.79,8.28,10.51,0,2.77,0,5.54,0,8.54h29v-5.83c0-9.26,1.24-10.89,9.93-13.71,4.09-1.32,8.53-2.33,12-4.69,9.62-6.56,17.64-5.93,24.57,3.73.18.25.66.29-.16,0l21.24-20.24c-1.19-1-2.53-2.06-3.74-3.22-6.74-6.46-6.91-8.76-2.75-17.23A141.77,141.77,0,0,0,574,539.62c2.62-7.7,4.91-9.63,13-9.7,2.17,0,4.34,0,6.42,0V501.3h-6.62c-7.75.05-10.17-1.83-12.61-9.28a126.49,126.49,0,0,0-4.91-13.15c-6.15-13.47-6.23-13.44,3.94-24.5.22-.24.25-.65-.07.23l-20.73-21.53a36.11,36.11,0,0,1-3.17,4.43c-6.37,6.64-8.57,6.85-16.7,2.66a103.26,103.26,0,0,0-12.33-5.44c-13.32-4.79-13.34-4.71-14.08-19.19a10.6,10.6,0,0,0-.43-1.81ZM173,319.28c-2.13-.12-3.79-.28-5.45-.28-13.91,0-27.82.21-41.72-.12-5.63-.14-7.25,1.53-7.24,7.31.11,75-.07,150-.16,225,0,2.63.16,5.26.26,7.88.27,7,4,11.71,10.16,14.3,4.24,1.8,8.86,2.68,14.13,4.21v-153c0-11.27-.13-22.56,0-33.83.19-12.2,8-19.92,20.15-20.29,1.65-.05,3.29-.2,5.28-.32C170,353.1,171.45,336.36,173,319.28ZM498.32,119.85c-.89,10-1.79,20-2.71,30.38l37,3.31C528.19,145.53,502.47,120.35,498.32,119.85Z"/><path class="cls-2" d="M458.13,218.11,390.43,212q-34.76-3.14-69.53-6.27c-18.32-1.63-36.65-3.12-55-4.82-7.58-.7-11.11-4.42-10.52-10.43.57-5.83,5.28-8.59,12.56-7.9,23.35,2.2,46.72,4.24,70.08,6.36l82.43,7.49c10.09.91,20.19,1.76,30.28,2.65,2.43.22,4.88.35,7.28.76,6.25,1.07,9.24,4.76,8.56,10.34C466,215.19,461.83,218.27,458.13,218.11Z"/><path class="cls-2" d="M449.17,269.13q-42-3.86-84.09-7.7c-27.1-2.44-54.21-4.78-81.31-7.18-8-.72-16.08-1.45-24.11-2.24-5.68-.57-9.2-4.37-9-9.54s4-8.82,9.87-8.4c15.91,1.13,31.8,2.57,47.69,4q34.49,3,69,6.19c25.42,2.29,50.84,4.52,76.25,6.87,5.64.53,9,4.54,8.62,9.86-.31,5-4,8.21-9.52,8.23-1.12,0-2.25-.14-3.37-.21Z"/><path class="cls-2" d="M550.24,515.91c-.17,32.54-26.87,59.07-59,58.63a59.28,59.28,0,0,1-58.4-59.41c.22-32,26.91-58.38,58.9-58.31A58.74,58.74,0,0,1,550.24,515.91ZM491.41,556a40.35,40.35,0,1,0-40.35-40.57C450.83,537.58,469.06,555.92,491.41,556Z"/></svg>