<svg id="Layer_1" data-name="Layer 1" xmlns="http://www.w3.org/2000/svg" viewBox="0 0 712 712"><defs><style>.cls-1{fill:#236fb4;}.cls-2{fill:#069647;}</style></defs><path class="cls-1" d="M100,402c3.89-8.46,9.43-14.78,19.62-15,3.83-.07,7.66,0,11.49,0H136V381.2c0-25.48,0-51,0-76.44.07-34.4,26.3-60.61,60.72-60.69q39.22-.07,78.45,0c34.42.08,60.6,26.29,60.71,60.7,0,7.49.1,15,0,22.48a19.95,19.95,0,0,1-39.89.05c-.13-7.32.07-14.66-.06-22-.22-12.88-8.5-21.21-21.44-21.28q-38.49-.18-77,0c-12.78.06-21.4,8.19-21.5,20.68-.21,26.65-.06,53.29-.05,79.94a20.18,20.18,0,0,0,.31,2.33h6q84.45,0,168.91,0c8.23,0,14.52,3.43,18.36,10.69,3.75,7.07,3.24,14.19-1.3,20.76-4.19,6.06-10.23,8.55-17.6,8.54q-68.46-.11-136.93,0H140.21v145H146q122.18,0,244.36,0c13.32,0,22.26,8.81,21.5,21.33-.46,7.58-4.36,13.09-11.1,16.59l-3.8,2H100Z"/><path class="cls-2" d="M466.89,611.86c-6.6-3.11-12.49-7-14.19-14.72a37.23,37.23,0,0,1-.76-7.89q-.06-59.94,0-119.89c0-3.41-.89-5.12-4.19-6.69-22.82-10.81-35.37-29-35.73-54.27-.52-37.13-.3-74.27-.06-111.4.2-30.91,27-57.62,57.9-57.87q42-.33,83.94,0c30.93.25,57.71,27,57.91,57.87.23,37.13.45,74.27-.07,111.4-.35,25.29-12.9,43.46-35.72,54.27-3.31,1.57-4.2,3.28-4.19,6.69.1,38.8-.25,77.6.25,116.39.15,12.34-3.37,21.31-15.16,26.11h-10c-11.79-4.8-15.28-13.77-15.16-26.1.46-45.63.16-91.26.2-136.88,0-12,7.57-20,19.5-20.91,12.82-.94,20.42-8.88,20.44-21.8q.12-52.71,0-105.41c0-13.26-8.33-21.65-21.49-21.71q-38.47-.18-77,0c-13.17.06-21.46,8.45-21.5,21.71q-.12,52.71,0,105.41c0,12.92,7.63,20.86,20.45,21.8,11.92.87,19.49,8.89,19.49,20.91q.06,70.94,0,141.87a28.68,28.68,0,0,1-.75,6.39c-1.74,7.74-7.6,11.61-14.2,14.72Z"/><path class="cls-2" d="M511.79,220a59.95,59.95,0,1,1,60-59.86A59.86,59.86,0,0,1,511.79,220Zm0-79.89A20.39,20.39,0,0,0,491.92,160c-.11,10.75,9.32,20.18,20.07,20.09a20.42,20.42,0,0,0,19.84-19.82C531.93,149.47,522.51,140,511.75,140.14Z"/><path class="cls-1" d="M300.92,160.93a60,60,0,1,1-60.12-59.79A59.86,59.86,0,0,1,300.92,160.93ZM241,141.13c-10.57-.06-19.77,9-20,19.62S230.05,181,240.87,181c10.57.07,19.78-8.94,20-19.61S251.86,141.2,241,141.13Z"/></svg>