<svg id="Layer_1" data-name="Layer 1" xmlns="http://www.w3.org/2000/svg" viewBox="0 0 712 712"><defs><style>.cls-1{fill:#236fb4;}.cls-2{fill:#069647;}</style></defs><path class="cls-1" d="M270.69,177.08c0-17.2,0-33.71,0-50.22,0-16,10.71-26.79,26.66-26.79q104.77,0,209.53-.08a14.09,14.09,0,0,1,10.85,4.43q44.75,45,89.72,89.75A14.1,14.1,0,0,1,612,205q-.13,190.09-.08,380.2c0,16-10.75,26.82-26.65,26.83q-144,0-287.91,0c-15.87,0-26.64-10.86-26.66-26.8,0-16.52,0-33,0-50.05-57.47-4.35-103.89-28.87-137.6-75.63C108.77,425.79,98,387.61,100.32,346.16c2.61-45.6,20.26-84.92,52.74-117.18S224.76,180.07,270.69,177.08Zm17,359.66c0,14.47,0,30.09,0,45.71,0,9.94,2.63,12.53,12.7,12.53H582c10.4,0,12.95-2.52,12.95-12.82V211c-22.95,0-45.15,0-67.35,0-15.57,0-26.46-10.9-26.49-26.45q-.06-30.66,0-61.33v-6.08H300c-9.63,0-12.32,2.7-12.32,12.36q0,106.13,0,212.25v5.82H446.33c9.81,0,12.3,2.34,11.93,12.33a165.22,165.22,0,0,1-2,22.79C443.67,453,403.69,500.81,336.7,525.28,321.39,530.87,304.76,532.86,287.71,536.74ZM171.43,475.92c38.35,37.31,106.33,56,169.33,30.09,57.72-23.73,103.24-88.1,99.53-141.29-1-.06-2-.17-3.06-.17-50.29,0-100.57-.05-150.86.14-2.25,0-5,1.54-6.68,3.2q-37.09,36.78-74,73.81Q188.6,458.82,171.43,475.92Zm-13-11.56c1.33-1.17,1.89-1.61,2.39-2.11q53.72-53.69,107.34-107.48a10.09,10.09,0,0,0,2.44-6.48q.2-74.62.09-149.25c0-1.5-.21-3-.32-4.47-61.75,2.22-119.37,43.3-141.63,102.09C105.54,357.92,117.17,413.51,158.42,464.36ZM518.08,129.82c0,18.19,0,35.52,0,52.85,0,8.18,3.07,11.22,11.27,11.24q24.23.06,48.44,0a37.63,37.63,0,0,0,3.94-.42Z"/><path class="cls-2" d="M398.49,330.41H315.87c-8.43,0-11.05-2.65-11.05-11.16q0-82.63,0-165.26c0-8.78,2.59-11.29,11.47-11.25,81.12.37,154.17,59.44,171.64,139.39,2.71,12.39,3.39,25.27,4.43,38,.6,7.32-2.79,10.3-10.18,10.3Q440.33,330.45,398.49,330.41Zm76.25-17.22c-4.09-88.93-79.9-151.42-152.56-152.39V313.19Z"/><path class="cls-2" d="M577.4,261.93H509.89V245.54H577.4Z"/><path class="cls-2" d="M510,296.41h67.34V313H510Z"/><path class="cls-2" d="M577.53,364.34H510V347.82h67.58Z"/><path class="cls-2" d="M500.91,424.32c42.06-.09,76.76,34.09,76.89,75.73.13,43-33.7,77.7-75.87,77.82-43.18.11-77.61-33.81-77.66-76.53A76.53,76.53,0,0,1,500.91,424.32Zm-59.6,76.73c-.09,32.34,26.82,59.55,59.13,59.78,32.88.24,60.09-26.7,60.31-59.72.21-32.43-27.17-59.84-59.7-59.76A60.14,60.14,0,0,0,441.31,501.05Z"/><path class="cls-2" d="M452.66,507.6l12-12.63,18.48,19.55,45.47-45.6,11.82,13.18c-.39.45-1.23,1.56-2.2,2.53Q515.08,507.8,491.9,531c-6,6-9.83,6-15.83,0C468.17,523.11,460.29,515.22,452.66,507.6Z"/></svg>