<svg id="Layer_1" data-name="Layer 1" xmlns="http://www.w3.org/2000/svg" viewBox="0 0 712 712"><defs><style>.cls-1{fill:#236fb4;}</style></defs><path class="cls-1" d="M100,545V247a11.1,11.1,0,0,0,1-2.17C107.38,215.22,131,196,161.25,196q44.49,0,89,0H256V176.63c0-34,26.44-60.57,60.35-60.61q39.74,0,79.48,0c33.6,0,60.08,26.62,60.13,60.32,0,6.43,0,12.87,0,19.68h6q45,0,90,0A59.77,59.77,0,0,1,612,256q0,140,0,279.92A59.76,59.76,0,0,1,552.13,596q-196.19.06-392.37,0c-20,0-35.84-8.64-48-24.33C105.57,563.7,102.73,554.39,100,545Zm40-168.55v5.43q0,75.5,0,151C140,548,148,556,163.07,556h386c14.82,0,23-8.07,23-22.78q0-76,0-152c0-1.4-.15-2.81-.26-4.74-1.2.74-1.9,1.13-2.55,1.57A100.35,100.35,0,0,1,510,396c-29.49-.23-59-.06-88.49-.06h-5.83v79.69H295.82V396h-97A96.43,96.43,0,0,1,152,383.74C148.11,381.62,144.42,379.15,140,376.45ZM356.3,236q-97.2,0-194.41,0c-13.48,0-21.83,8.36-21.9,21.79-.05,10.33-.19,20.66.06,31,.15,6.63.1,13.43,1.57,19.83,6.62,29,30.32,47.39,60.4,47.41q107.94,0,215.9,0c31.32,0,62.64.15,93.95,0,30.47-.19,55.76-22,59.17-52.18,1.63-14.48.85-29.25,1-43.9.12-16.17-7.67-23.91-23.77-23.91ZM296,195.67H416c0-7.15.35-14-.08-20.76a19.65,19.65,0,0,0-19.65-18.84q-40.23-.33-80.45,0a19.68,19.68,0,0,0-19.66,18.83C295.71,181.68,296,188.51,296,195.67Zm79.75,200.66H336.37v39.43h39.42Z"/></svg>