<svg id="Layer_1" data-name="Layer 1" xmlns="http://www.w3.org/2000/svg" viewBox="0 0 712 712"><defs><style>.cls-1{fill:#236fb4;}.cls-2{fill:#069647;}</style></defs><path class="cls-1" d="M168.86,318.9c0-65.58-.1-131.17.19-196.75,0-4.94,1.33-11.39,4.58-14.38,3.08-2.83,9.49-2.22,14.47-2.66,1.29-.11,3,1.24,4.06,2.35,12.05,12.66,23,9.69,35.42-.5s15.86-9.21,29.23-.32c18.31,12.16,18.31,12.16,36.48,0,13.2-8.85,16.16-8.85,29.46.07,18.1,12.13,18.1,12.13,36.46-.14,13.15-8.79,16-8.77,29.46.22,17.95,12,17.95,12,35.81.12,13.82-9.18,17.15-10.21,29.88.26s23.36,12.19,35.52.22a12.7,12.7,0,0,1,15.6-2.16c5.93,3.15,7.38,8.53,7.37,14.83-.07,44.53.1,89.05-.17,133.57,0,6.52,1.52,9.09,8.39,10.28,52.29,9.11,90.73,54,90.93,105.4.21,54.66-36.44,99.37-90.07,109.24-7.19,1.32-9.43,3.9-9.3,11.27.47,27.18.24,54.38.17,81.58-.06,25.54-15.42,40.94-40.71,40.94H145c-26.94,0-44.9-18.09-44.92-45.17,0-9.87.22-19.74-.08-29.6-.22-7.28,3.29-10.18,10.1-10.17,16.79,0,33.6-.29,50.38.13,6.76.18,8.51-2.13,8.49-8.66C168.77,452.21,168.85,385.55,168.86,318.9ZM183.78,120V131.3q0,192,0,384c0,13.39-1.33,12.11,11.9,12.11q119.58,0,239.14,0c12.39,0,15.1,2.76,15.13,15,0,10.14-.62,20.33.27,30.38a34.13,34.13,0,0,0,5.68,16.06c5.65,8,16.57,10.37,26,7.21s16-12.35,16.06-23.56c.18-27.73-.17-55.47.23-83.19.1-6.84-1.87-8.9-8.7-9.74-54.73-6.77-95-52-95.65-106.74-.65-54.95,38.28-100.85,92.8-109.4,3.6-.56,7.21-1.09,10.63-1.61v-141c-3,1.78-5.3,2.7-7,4.23-12,10.65-23,9.44-35.83.15-18.08-13.07-11-12.4-30.41.12-16.22,10.49-18.66,10.64-34.28.22-15.93-10.62-15.93-10.62-31.95,0-15.52,10.3-18.25,10.11-33.61.2-20.42-13.17-11.87-13.25-32.54.12-15,9.72-18.09,9.91-32.95,0-16.43-11-16.44-11-32.61-.2-2,1.33-4,2.73-6,4-7.24,4.7-14.47,4.73-21.69-.07C194.21,126.82,190,124.06,183.78,120ZM502.52,465.55A94.32,94.32,0,0,0,597,371.8c.5-51.9-42.28-94.87-94.34-94.79a94.27,94.27,0,0,0-.17,188.54ZM115,542.65c0,7.49,0,14.59,0,21.69.06,22.95,10.2,33.07,33.27,33.08q142.28,0,284.55,0h10.25c-12.72-17.77-6.08-36.94-9.12-54.79Z"/><path class="cls-2" d="M311.35,214.92c0-13.3-.05-26.61,0-39.91.06-9.67,2-11.54,11.83-11.65,8-.09,16-.19,23.95,0,15.1.44,24,8.94,24.22,23.85q.5,27.52,0,55.08c-.26,15.12-9.62,23.89-24.92,24.08-7.45.09-14.9,0-22.35,0-11,0-12.73-1.78-12.75-13.18C311.33,240.47,311.35,227.7,311.35,214.92Zm14.84-36.47c0,23.59,0,45.93.08,68.28,0,1.34,1.23,3.83,1.89,3.83a226.66,226.66,0,0,0,24.46-.85c1.4-.15,3.38-4.19,3.41-6.45.28-18.93.2-37.86.14-56.8,0-5.18-3-7.85-8-8C341.23,178.33,334.33,178.45,326.19,178.45Z"/><path class="cls-2" d="M324,491.28q-47.92,0-95.85,0c-2.66,0-5.83.69-7.85-.5-2.6-1.53-5.95-4.68-5.88-7s3.51-5.27,6.09-7.05c1.46-1,4.14-.3,6.26-.3H422.47c2.38,0,5.4-.7,7,.47,2.49,1.8,5.35,4.84,5.54,7.53.15,2.05-3.24,5.06-5.73,6.38-2.12,1.12-5.2.52-7.86.52Q372.72,491.3,324,491.28Z"/><path class="cls-2" d="M406.5,266.38c-4,0-8.33.95-11.9-.29-3.14-1.09-5.44-4.63-8.12-7.09,2.59-2.51,4.89-6.68,7.83-7.19,6.48-1.14,13.27-.36,19.94-.5,10.4-.22,16.71-5.5,17-14.08s-5.92-14.34-16.12-15c-16.75-1.16-28.78-13.48-28.73-29.43.05-15.6,11.86-28.11,28.09-29.2,7.7-.51,15.46-.27,23.19-.11,4.81.1,8.49,2.17,8.26,7.63-.23,5.31-3.88,7.24-8.72,7.3-6.39.08-12.79,0-19.19.06-9.93.14-16,5.24-16.48,13.61-.47,8.76,5.27,14.36,15.71,15.34,21.74,2,34.49,20.88,26.9,40.15-4.53,11.52-13.51,17.52-25.65,18.74-4,.4-8,.07-12,.07Z"/><path class="cls-2" d="M302,446.23c-25.56,0-51.12,0-76.67,0-5.41,0-11-.4-11.16-7.14-.15-7.31,5.78-7.75,11.43-7.75q76.67,0,153.34,0c4.92,0,10.3,0,11,6.42.77,6.85-3.89,8.45-9.7,8.44Q341.14,446.18,302,446.23Z"/><path class="cls-2" d="M300.84,296.39q36.8,0,73.59,0c2.39,0,5.27-.56,7.06.54,2.42,1.5,5.45,4.3,5.54,6.64s-2.77,5.33-5.09,7c-1.69,1.18-4.62.77-7,.78q-74.4,0-148.78,0c-2.12,0-4.86.5-6.23-.59-2.42-1.93-5.35-4.82-5.51-7.46-.13-2.07,3.28-4.95,5.75-6.39,1.83-1.06,4.68-.47,7.07-.47Q264,296.38,300.84,296.39Z"/><path class="cls-2" d="M251.88,178.41c-7.57,0-13.94,0-20.3,0-5.14,0-9.32-1.75-9.55-7.34-.24-5.79,4.05-7.67,9.12-7.69q28-.09,56,0c5.06,0,9.38,1.73,9.27,7.53-.1,5.61-4.18,7.53-9.37,7.51-6.37,0-12.74,0-20,0-.16,3.42-.39,6.25-.4,9.08q0,31.6,0,63.2c0,1.87-.06,3.73,0,5.6.19,5.51-1.69,10-7.77,9.78-5.53-.2-7.06-4.55-7-9.74.1-22.66,0-45.33,0-68Z"/><path class="cls-2" d="M293.56,401.32q-33.54,0-67.07,0c-2.38,0-5.32.5-7-.67-2.33-1.61-5.16-4.62-5.1-7s3.12-5,5.42-6.76c1.21-.93,3.6-.42,5.46-.42q68.67,0,137.34,0c1.33,0,3.1-.5,3.91.16,2.74,2.24,5.13,4.9,7.66,7.4-2.39,2.39-4.49,5.2-7.26,7-1.52,1-4.15.3-6.28.3Z"/><path class="cls-2" d="M293.05,356.34c-22.63,0-45.27-.06-67.91.05-5.57,0-10.88-.87-11-7.43-.12-6.72,5.33-7.56,10.83-7.56q68.29.06,136.61,0c5.43,0,10.77.71,10.52,7.76-.22,6.34-5.12,7.19-10.35,7.17Q327.41,356.29,293.05,356.34Z"/><path class="cls-2" d="M550.86,331.43c-2.1,3.07-3.38,5.73-5.34,7.7q-37.47,37.67-75.11,75.16c-3.72,3.72-7.79,6.39-12.31,1.61s-1.69-8.72,2-12.41c25-25,50-50.16,75.26-75,2.25-2.21,6.46-3.43,9.67-3.28C547,325.32,548.69,329,550.86,331.43Z"/><path class="cls-2" d="M471,362a22.46,22.46,0,1,1,22.47-22.46A22.65,22.65,0,0,1,471,362Zm10.63-22.48c-5.09-3.43-8-6.93-10.77-6.81-2.51.12-4.83,4.18-7.23,6.5,2.48,2.5,4.65,6.42,7.54,7.05C473.37,346.77,476.48,343.07,481.64,339.55Z"/><path class="cls-2" d="M557,403.58a22.37,22.37,0,1,1-22-22.95A22.77,22.77,0,0,1,557,403.58Zm-11.79-.1c-5-3.61-7.92-7.38-10.15-7-2.89.51-5.2,4.33-7.77,6.73,2.31,2.43,4.49,6.65,6.95,6.82C537.05,410.24,540.08,406.78,545.25,403.48Z"/></svg>